%TF.GenerationSoftware,KiCad,Pcbnew,10.0.1*%
%TF.CreationDate,2026-05-11T01:31:14-07:00*%
%TF.ProjectId,SMU V3,534d5520-5633-42e6-9b69-6361645f7063,rev?*%
%TF.SameCoordinates,Original*%
%TF.FileFunction,Soldermask,Bot*%
%TF.FilePolarity,Negative*%
%FSLAX46Y46*%
G04 Gerber Fmt 4.6, Leading zero omitted, Abs format (unit mm)*
G04 Created by KiCad (PCBNEW 10.0.1) date 2026-05-11 01:31:14*
%MOMM*%
%LPD*%
G01*
G04 APERTURE LIST*
G04 Aperture macros list*
%AMRoundRect*
0 Rectangle with rounded corners*
0 $1 Rounding radius*
0 $2 $3 $4 $5 $6 $7 $8 $9 X,Y pos of 4 corners*
0 Add a 4 corners polygon primitive as box body*
4,1,4,$2,$3,$4,$5,$6,$7,$8,$9,$2,$3,0*
0 Add four circle primitives for the rounded corners*
1,1,$1+$1,$2,$3*
1,1,$1+$1,$4,$5*
1,1,$1+$1,$6,$7*
1,1,$1+$1,$8,$9*
0 Add four rect primitives between the rounded corners*
20,1,$1+$1,$2,$3,$4,$5,0*
20,1,$1+$1,$4,$5,$6,$7,0*
20,1,$1+$1,$6,$7,$8,$9,0*
20,1,$1+$1,$8,$9,$2,$3,0*%
G04 Aperture macros list end*
%ADD10RoundRect,0.250000X-0.750000X1.650000X-0.750000X-1.650000X0.750000X-1.650000X0.750000X1.650000X0*%
%ADD11C,2.502000*%
%ADD12C,3.000000*%
%ADD13RoundRect,0.250001X-0.759999X0.499999X-0.759999X-0.499999X0.759999X-0.499999X0.759999X0.499999X0*%
%ADD14O,2.020000X1.500000*%
%ADD15C,0.800000*%
%ADD16C,5.400000*%
%ADD17C,1.100000*%
%ADD18C,1.600000*%
%ADD19C,5.702000*%
%ADD20RoundRect,0.250000X1.650000X0.750000X-1.650000X0.750000X-1.650000X-0.750000X1.650000X-0.750000X0*%
G04 APERTURE END LIST*
D10*
%TO.C,TP301*%
X139450000Y-73650000D03*
%TD*%
D11*
%TO.C,J1101*%
X131100000Y-72000000D03*
X128560000Y-69460000D03*
X128560000Y-74540000D03*
X133640000Y-69460000D03*
X133640000Y-74540000D03*
%TD*%
D12*
%TO.C,J402*%
X169150000Y-77150000D03*
X169150000Y-81850000D03*
D13*
X164830000Y-75000000D03*
D14*
X164830000Y-78000000D03*
X164830000Y-81000000D03*
X164830000Y-84000000D03*
%TD*%
D15*
%TO.C,H104*%
X169306891Y-59200000D03*
X169900000Y-57768109D03*
X169900000Y-60631891D03*
X171331891Y-57175000D03*
D16*
X171331891Y-59200000D03*
D15*
X171331891Y-61225000D03*
X172763782Y-57768109D03*
X172763782Y-60631891D03*
X173356891Y-59200000D03*
%TD*%
D12*
%TO.C,J401*%
X169255000Y-95850000D03*
X169255000Y-100550000D03*
D13*
X164935000Y-93700000D03*
D14*
X164935000Y-96700000D03*
X164935000Y-99700000D03*
X164935000Y-102700000D03*
%TD*%
D15*
%TO.C,H102*%
X169375000Y-126750000D03*
X169968109Y-125318109D03*
X169968109Y-128181891D03*
X171400000Y-124725000D03*
D16*
X171400000Y-126750000D03*
D15*
X171400000Y-128775000D03*
X172831891Y-125318109D03*
X172831891Y-128181891D03*
X173425000Y-126750000D03*
%TD*%
D17*
%TO.C,MCU201*%
X146242500Y-67156250D03*
D18*
X166242500Y-67156250D03*
D19*
X140512500Y-120206250D03*
X171722500Y-120206250D03*
%TD*%
D15*
%TO.C,H103*%
X127075000Y-126750000D03*
X127668109Y-125318109D03*
X127668109Y-128181891D03*
X129100000Y-124725000D03*
D16*
X129100000Y-126750000D03*
D15*
X129100000Y-128775000D03*
X130531891Y-125318109D03*
X130531891Y-128181891D03*
X131125000Y-126750000D03*
%TD*%
%TO.C,H101*%
X127075000Y-59200000D03*
X127668109Y-57768109D03*
X127668109Y-60631891D03*
X129100000Y-57175000D03*
D16*
X129100000Y-59200000D03*
D15*
X129100000Y-61225000D03*
X130531891Y-57768109D03*
X130531891Y-60631891D03*
X131125000Y-59200000D03*
%TD*%
D11*
%TO.C,J1201*%
X130550000Y-94700000D03*
X128010000Y-92160000D03*
X128010000Y-97240000D03*
X133090000Y-92160000D03*
X133090000Y-97240000D03*
%TD*%
D20*
%TO.C,TP502*%
X144000000Y-82500000D03*
%TD*%
%TO.C,TP501*%
X143900000Y-78100000D03*
%TD*%
%TO.C,TP602*%
X144500000Y-56750000D03*
%TD*%
%TO.C,TP503*%
X145300000Y-93150000D03*
%TD*%
%TO.C,TP504*%
X145300000Y-98450000D03*
%TD*%
%TO.C,TP601*%
X139150000Y-61450000D03*
%TD*%
%TO.C,TP604*%
X139150000Y-58450000D03*
%TD*%
%TO.C,TP603*%
X156200000Y-62600000D03*
%TD*%
M02*
