M48
; DRILL file KiCad 10.0.1 date 2026-05-11T01:31:18
; FORMAT={-:-/ absolute / metric / decimal}
; #@! TF.CreationDate,2026-05-11T01:31:18-07:00
; #@! TF.GenerationSoftware,Kicad,Pcbnew,10.0.1
; #@! TF.FileFunction,Plated,1,4,PTH
FMAT,2
METRIC
; #@! TA.AperFunction,Plated,PTH,ViaDrill
T1C0.300
; #@! TA.AperFunction,Plated,PTH,ComponentDrill
T2C0.500
; #@! TA.AperFunction,Plated,PTH,ComponentDrill
T3C1.020
; #@! TA.AperFunction,Plated,PTH,ComponentDrill
T4C1.600
; #@! TA.AperFunction,Plated,PTH,ComponentDrill
T5C2.700
; #@! TA.AperFunction,Plated,PTH,ComponentDrill
T6C3.200
%
G90
G05
T1
X127.0Y-112.3
X127.7Y-86.8
X127.7Y-110.6
X127.9Y-80.4
X128.1Y-112.1
X128.3Y-113.3
X128.6Y-120.4
X129.1Y-109.7
X129.407Y-104.517
X130.1Y-108.4
X130.3Y-109.5
X131.7Y-109.4
X132.5Y-82.8
X133.138Y-109.309
X133.2Y-120.6
X133.5Y-108.4
X135.1Y-88.2
X135.9Y-80.9
X136.221Y-112.444
X136.387Y-66.45
X136.4Y-104.3
X136.7Y-92.8
X137.15Y-126.5
X138.387Y-66.0
X138.8Y-91.3
X139.3Y-78.0
X139.6Y-56.05
X140.0Y-69.65
X140.7Y-94.7
X141.3Y-86.3
X141.347Y-103.87
X142.2Y-97.2
X142.237Y-66.85
X142.248Y-75.989
X142.6Y-65.25
X142.95Y-60.45
X143.05Y-70.1
X143.15Y-74.1
X143.7Y-71.65
X144.9Y-90.1
X144.9Y-106.6
X145.0Y-76.4
X145.4Y-68.4
X145.55Y-59.45
X145.95Y-126.3
X146.25Y-95.3
X146.3Y-102.6
X146.85Y-106.494
X147.025Y-59.25
X147.1Y-90.0
X147.35Y-81.25
X147.8Y-112.8
X147.825Y-59.25
X148.0Y-122.0
X148.2Y-66.7
X148.855Y-112.792
X148.9Y-64.15
X149.0Y-55.8
X149.1Y-98.0
X149.25Y-79.85
X149.3Y-78.25
X150.0Y-94.0
X150.05Y-64.25
X150.1Y-112.8
X150.2Y-106.8
X150.3Y-86.225
X151.2Y-112.8
X151.65Y-60.1
X152.3Y-120.2
X152.4Y-66.65
X152.6Y-101.2
X152.8Y-87.351
X153.25Y-58.8
X153.3Y-106.7
X153.707Y-105.519
X154.0Y-87.0
X154.1Y-113.6
X154.112Y-102.075
X154.45Y-58.0
X154.5Y-91.9
X154.817Y-121.752
X154.85Y-66.35
X155.35Y-93.25
X155.562Y-101.35
X156.05Y-70.85
X156.7Y-90.3
X157.085Y-87.453
X157.4Y-66.7
X158.0Y-60.7
X158.25Y-101.6
X158.45Y-75.7
X158.644Y-104.074
X158.75Y-124.4
X159.0Y-102.65
X159.1Y-57.0
X159.343Y-70.1
X160.35Y-75.675
X160.694Y-87.869
X161.171Y-110.619
X161.171Y-113.169
X161.221Y-108.119
X161.272Y-115.669
X161.6Y-104.9
X162.4Y-61.6
X162.632Y-104.7
X162.95Y-58.95
X162.95Y-59.95
X163.05Y-57.9
X163.1Y-56.85
X163.167Y-112.81
X163.218Y-111.21
X163.267Y-107.96
X163.267Y-109.61
X163.6Y-115.0
X163.95Y-123.85
X164.17Y-122.869
X164.8Y-72.1
X166.45Y-59.831
X166.519Y-56.831
X166.55Y-57.8
X166.55Y-58.831
X167.8Y-62.3
X168.2Y-64.8
X169.45Y-65.85
X170.6Y-70.2
X170.7Y-66.7
X170.95Y-86.8
X171.2Y-62.6
X171.4Y-89.05
X172.5Y-64.5
X172.65Y-84.55
X172.9Y-62.45
X173.05Y-67.4
X173.65Y-69.75
X173.75Y-74.25
X174.1Y-94.25
X174.35Y-105.0
T2
X127.075Y-59.2
X127.075Y-126.75
X127.668Y-57.768
X127.668Y-60.632
X127.668Y-125.318
X127.668Y-128.182
X129.1Y-57.175
X129.1Y-61.225
X129.1Y-124.725
X129.1Y-128.775
X130.532Y-57.768
X130.532Y-60.632
X130.532Y-125.318
X130.532Y-128.182
X131.125Y-59.2
X131.125Y-126.75
X169.307Y-59.2
X169.375Y-126.75
X169.9Y-57.768
X169.9Y-60.632
X169.968Y-125.318
X169.968Y-128.182
X171.332Y-57.175
X171.332Y-61.225
X171.4Y-124.725
X171.4Y-128.775
X172.764Y-57.768
X172.764Y-60.632
X172.832Y-125.318
X172.832Y-128.182
X173.357Y-59.2
X173.425Y-126.75
T3
X164.83Y-75.0
X164.83Y-78.0
X164.83Y-81.0
X164.83Y-84.0
X164.935Y-93.7
X164.935Y-96.7
X164.935Y-99.7
X164.935Y-102.7
T4
X128.01Y-92.16
X128.01Y-97.24
X128.56Y-69.46
X128.56Y-74.54
X130.55Y-94.7
X131.1Y-72.0
X133.09Y-92.16
X133.09Y-97.24
X133.64Y-69.46
X133.64Y-74.54
T5
X129.1Y-59.2
X129.1Y-126.75
X171.332Y-59.2
X171.4Y-126.75
T6
X140.512Y-120.206
X171.722Y-120.206
M30
