%TF.GenerationSoftware,KiCad,Pcbnew,10.0.1*%
%TF.CreationDate,2026-05-11T01:31:14-07:00*%
%TF.ProjectId,SMU V3,534d5520-5633-42e6-9b69-6361645f7063,rev?*%
%TF.SameCoordinates,Original*%
%TF.FileFunction,Copper,L3,Inr*%
%TF.FilePolarity,Positive*%
%FSLAX46Y46*%
G04 Gerber Fmt 4.6, Leading zero omitted, Abs format (unit mm)*
G04 Created by KiCad (PCBNEW 10.0.1) date 2026-05-11 01:31:14*
%MOMM*%
%LPD*%
G01*
G04 APERTURE LIST*
G04 Aperture macros list*
%AMRoundRect*
0 Rectangle with rounded corners*
0 $1 Rounding radius*
0 $2 $3 $4 $5 $6 $7 $8 $9 X,Y pos of 4 corners*
0 Add a 4 corners polygon primitive as box body*
4,1,4,$2,$3,$4,$5,$6,$7,$8,$9,$2,$3,0*
0 Add four circle primitives for the rounded corners*
1,1,$1+$1,$2,$3*
1,1,$1+$1,$4,$5*
1,1,$1+$1,$6,$7*
1,1,$1+$1,$8,$9*
0 Add four rect primitives between the rounded corners*
20,1,$1+$1,$2,$3,$4,$5,0*
20,1,$1+$1,$4,$5,$6,$7,0*
20,1,$1+$1,$6,$7,$8,$9,0*
20,1,$1+$1,$8,$9,$2,$3,0*%
G04 Aperture macros list end*
%TA.AperFunction,ComponentPad*%
%ADD10C,2.400000*%
%TD*%
%TA.AperFunction,ComponentPad*%
%ADD11RoundRect,0.250001X-0.759999X0.499999X-0.759999X-0.499999X0.759999X-0.499999X0.759999X0.499999X0*%
%TD*%
%TA.AperFunction,ComponentPad*%
%ADD12O,2.020000X1.500000*%
%TD*%
%TA.AperFunction,ComponentPad*%
%ADD13C,0.800000*%
%TD*%
%TA.AperFunction,ComponentPad*%
%ADD14C,5.400000*%
%TD*%
%TA.AperFunction,ComponentPad*%
%ADD15C,5.600000*%
%TD*%
%TA.AperFunction,ViaPad*%
%ADD16C,0.600000*%
%TD*%
G04 APERTURE END LIST*
D10*
%TO.N,/Antenna1/ANT1_OUT_RF*%
%TO.C,J1101*%
X131100000Y-72000000D03*
%TO.N,GND*%
X128560000Y-69460000D03*
X128560000Y-74540000D03*
X133640000Y-69460000D03*
X133640000Y-74540000D03*
%TD*%
D11*
%TO.N,/Main IO/VBATT+*%
%TO.C,J402*%
X164830000Y-75000000D03*
D12*
%TO.N,GND*%
X164830000Y-78000000D03*
%TO.N,/CAN+*%
X164830000Y-81000000D03*
%TO.N,/CAN-*%
X164830000Y-84000000D03*
%TD*%
D13*
%TO.N,GND*%
%TO.C,H104*%
X169306891Y-59200000D03*
X169900000Y-57768109D03*
X169900000Y-60631891D03*
X171331891Y-57175000D03*
D14*
X171331891Y-59200000D03*
D13*
X171331891Y-61225000D03*
X172763782Y-57768109D03*
X172763782Y-60631891D03*
X173356891Y-59200000D03*
%TD*%
D11*
%TO.N,/Main IO/VBATT+*%
%TO.C,J401*%
X164935000Y-93700000D03*
D12*
%TO.N,GND*%
X164935000Y-96700000D03*
%TO.N,/CAN+*%
X164935000Y-99700000D03*
%TO.N,/CAN-*%
X164935000Y-102700000D03*
%TD*%
D13*
%TO.N,GND*%
%TO.C,H102*%
X169375000Y-126750000D03*
X169968109Y-125318109D03*
X169968109Y-128181891D03*
X171400000Y-124725000D03*
D14*
X171400000Y-126750000D03*
D13*
X171400000Y-128775000D03*
X172831891Y-125318109D03*
X172831891Y-128181891D03*
X173425000Y-126750000D03*
%TD*%
D15*
%TO.N,N/C*%
%TO.C,MCU201*%
X140512500Y-120206250D03*
X171722500Y-120206250D03*
%TD*%
D13*
%TO.N,GND*%
%TO.C,H103*%
X127075000Y-126750000D03*
X127668109Y-125318109D03*
X127668109Y-128181891D03*
X129100000Y-124725000D03*
D14*
X129100000Y-126750000D03*
D13*
X129100000Y-128775000D03*
X130531891Y-125318109D03*
X130531891Y-128181891D03*
X131125000Y-126750000D03*
%TD*%
%TO.N,GND*%
%TO.C,H101*%
X127075000Y-59200000D03*
X127668109Y-57768109D03*
X127668109Y-60631891D03*
X129100000Y-57175000D03*
D14*
X129100000Y-59200000D03*
D13*
X129100000Y-61225000D03*
X130531891Y-57768109D03*
X130531891Y-60631891D03*
X131125000Y-59200000D03*
%TD*%
D10*
%TO.N,/Antenna2/ANT2_OUT_RF*%
%TO.C,J1201*%
X130550000Y-94700000D03*
%TO.N,GND*%
X128010000Y-92160000D03*
X128010000Y-97240000D03*
X133090000Y-92160000D03*
X133090000Y-97240000D03*
%TD*%
D16*
%TO.N,GND*%
X163267500Y-109610000D03*
X146850000Y-106493750D03*
X163267500Y-107960000D03*
X161171500Y-113168750D03*
%TO.N,+5V*%
X153706500Y-105518750D03*
%TO.N,GND*%
X161171500Y-110618750D03*
X163167500Y-112810000D03*
X161271500Y-115668750D03*
X163217500Y-111210000D03*
X158644000Y-104073750D03*
X136221500Y-112443750D03*
X161221500Y-108118750D03*
X145000000Y-76400000D03*
X164169843Y-122869346D03*
X166550000Y-58831250D03*
X135100000Y-88200000D03*
X143050000Y-70100000D03*
X152600000Y-101200000D03*
X140000000Y-69650000D03*
X170600000Y-70200000D03*
X147800000Y-112800000D03*
X141347346Y-103870205D03*
X146300000Y-102600000D03*
X172900000Y-62450000D03*
X128600000Y-120400000D03*
X170700000Y-66700000D03*
X163600000Y-115000000D03*
X140700000Y-94700000D03*
X159100000Y-57000000D03*
X166550000Y-57800000D03*
X151200000Y-112800000D03*
X171200000Y-62600000D03*
X149100000Y-98000000D03*
X156700000Y-90300000D03*
X150200000Y-106800000D03*
X136700000Y-92800000D03*
X150000000Y-94000000D03*
X127900000Y-80400000D03*
X154112500Y-102075000D03*
X136400000Y-104300000D03*
X139300000Y-78000000D03*
X172500000Y-64500000D03*
X142247900Y-75988928D03*
X174100000Y-94250000D03*
X141300000Y-86300000D03*
X152300000Y-120200000D03*
X160694000Y-87869000D03*
X138800000Y-91300000D03*
X157085250Y-87452750D03*
X167800000Y-62300000D03*
X166450000Y-59831250D03*
X166518750Y-56831250D03*
X164800000Y-72100000D03*
X149250000Y-79850000D03*
X153300000Y-106700000D03*
X158000000Y-60700000D03*
X173050000Y-67400000D03*
X154817325Y-121751749D03*
X161600000Y-104900000D03*
X171400000Y-89050000D03*
X136387500Y-66450000D03*
X127700000Y-86800000D03*
X132500000Y-82800000D03*
X162400000Y-61600000D03*
X174350000Y-105000000D03*
X159342500Y-70100000D03*
X143700000Y-71650000D03*
X155350000Y-93250000D03*
X173650000Y-69750000D03*
X144900000Y-90100000D03*
X143150000Y-74100000D03*
X150100000Y-112800000D03*
X145400000Y-68400000D03*
X169450000Y-65850000D03*
X147100000Y-90000000D03*
X129406709Y-104517234D03*
X159000000Y-102650000D03*
X144900000Y-106600000D03*
X168200000Y-64800000D03*
X173750000Y-74250000D03*
X155562500Y-101350000D03*
X154100000Y-113600000D03*
X148855373Y-112792089D03*
X170950000Y-86800000D03*
X154000000Y-87000000D03*
X133200000Y-120600000D03*
X148000000Y-122000000D03*
X154500000Y-91900000D03*
X135900000Y-80900000D03*
X172650000Y-84550000D03*
%TO.N,/Main IO/VBATT+*%
X127700000Y-110600000D03*
X129100000Y-109700000D03*
X128100000Y-112100000D03*
X127000000Y-112300000D03*
X130100000Y-108400000D03*
X133138239Y-109309346D03*
X133500000Y-108400000D03*
X128300000Y-113300000D03*
X130300000Y-109500000D03*
X131700000Y-109400000D03*
%TO.N,+5V*%
X162632500Y-104700000D03*
X158250000Y-101600000D03*
X163100000Y-56850000D03*
X160350000Y-75675000D03*
X162950000Y-59950000D03*
X163050000Y-57900000D03*
X138387500Y-66000000D03*
X142237500Y-66850000D03*
X158450000Y-75700000D03*
X163950000Y-123850000D03*
X162950000Y-58950000D03*
%TO.N,/GPS2.WKUP*%
X152800000Y-87351471D03*
X148900000Y-64150000D03*
%TO.N,/GPS2.PPS*%
X150050000Y-64250000D03*
X150300000Y-86225000D03*
%TO.N,/GPS/GPS2.UART_TX*%
X142200000Y-97200000D03*
%TO.N,/GPS/GPS2.UART_RX*%
X146250000Y-95300000D03*
%TO.N,/CAN+*%
X147024997Y-59250000D03*
%TO.N,/CAN-*%
X147825000Y-59250000D03*
%TO.N,/GPS1.UART_RX*%
X148200000Y-66700000D03*
X149300000Y-78250000D03*
%TO.N,/GPS1.UART_TX*%
X147350000Y-81250000D03*
X152400000Y-66650000D03*
%TO.N,/IMU/IMU_INT2*%
X142600000Y-65250000D03*
X151650000Y-60100000D03*
%TO.N,/IMU/IMU_INT1*%
X153250000Y-58800000D03*
X139600000Y-56050000D03*
%TO.N,/IMU_SPI.MOSI*%
X154450000Y-58000000D03*
%TO.N,/IMU_SPI.MISO*%
X149000000Y-55800000D03*
%TO.N,/IMU_SPI.SCK*%
X145550000Y-59450000D03*
%TO.N,/IMU_SPI.CS*%
X142950000Y-60450000D03*
%TO.N,/Microcontroller/GPS_RTK*%
X157400000Y-66700000D03*
X158750000Y-124400000D03*
%TO.N,/Microcontroller/GPS_Standard*%
X156050000Y-70850000D03*
X145950000Y-126300000D03*
%TO.N,/Microcontroller/GPS_Error*%
X137150000Y-126500000D03*
X154850000Y-66350000D03*
%TD*%
%TA.AperFunction,Conductor*%
%TO.N,+5V*%
G36*
X170672702Y-54900618D02*
G01*
X170685819Y-54901190D01*
X171063742Y-54917690D01*
X171074477Y-54918630D01*
X171459859Y-54969366D01*
X171470493Y-54971241D01*
X171849990Y-55055374D01*
X171860416Y-55058168D01*
X172231135Y-55175055D01*
X172241270Y-55178744D01*
X172600387Y-55327496D01*
X172610179Y-55332062D01*
X172954965Y-55511546D01*
X172964305Y-55516939D01*
X173172384Y-55649500D01*
X173292122Y-55725782D01*
X173300983Y-55731986D01*
X173609352Y-55968606D01*
X173617639Y-55975560D01*
X173904203Y-56238147D01*
X173911852Y-56245796D01*
X174174439Y-56532360D01*
X174181393Y-56540647D01*
X174418013Y-56849016D01*
X174424217Y-56857877D01*
X174449231Y-56897141D01*
X174603035Y-57138564D01*
X174633052Y-57185680D01*
X174638457Y-57195042D01*
X174745412Y-57400500D01*
X174817934Y-57539814D01*
X174822506Y-57549618D01*
X174971249Y-57908714D01*
X174974949Y-57918879D01*
X175091828Y-58289572D01*
X175094628Y-58300021D01*
X175178756Y-58679498D01*
X175180634Y-58690151D01*
X175213816Y-58942187D01*
X175226312Y-59037107D01*
X175231367Y-59075499D01*
X175232310Y-59086276D01*
X175249382Y-59477297D01*
X175249500Y-59482706D01*
X175249500Y-125717293D01*
X175249382Y-125722702D01*
X175232310Y-126113723D01*
X175231367Y-126124500D01*
X175180634Y-126509848D01*
X175178756Y-126520501D01*
X175094628Y-126899978D01*
X175091828Y-126910427D01*
X174974949Y-127281120D01*
X174971249Y-127291285D01*
X174822506Y-127650381D01*
X174817934Y-127660185D01*
X174638461Y-128004951D01*
X174633052Y-128014319D01*
X174424217Y-128342122D01*
X174418013Y-128350983D01*
X174181393Y-128659352D01*
X174174439Y-128667639D01*
X173911852Y-128954203D01*
X173904203Y-128961852D01*
X173617639Y-129224439D01*
X173609352Y-129231393D01*
X173300983Y-129468013D01*
X173292122Y-129474217D01*
X172964319Y-129683052D01*
X172954951Y-129688461D01*
X172610185Y-129867934D01*
X172600381Y-129872506D01*
X172241285Y-130021249D01*
X172231120Y-130024949D01*
X171860427Y-130141828D01*
X171849978Y-130144628D01*
X171470501Y-130228756D01*
X171459848Y-130230634D01*
X171074500Y-130281367D01*
X171063723Y-130282310D01*
X170672703Y-130299382D01*
X170667294Y-130299500D01*
X129432706Y-130299500D01*
X129427297Y-130299382D01*
X129036276Y-130282310D01*
X129025501Y-130281367D01*
X128936792Y-130269688D01*
X128640151Y-130230634D01*
X128629498Y-130228756D01*
X128250021Y-130144628D01*
X128239572Y-130141828D01*
X127868879Y-130024949D01*
X127858714Y-130021249D01*
X127499618Y-129872506D01*
X127489814Y-129867934D01*
X127376100Y-129808738D01*
X127145042Y-129688457D01*
X127135687Y-129683056D01*
X126971778Y-129578634D01*
X126807877Y-129474217D01*
X126799016Y-129468013D01*
X126490647Y-129231393D01*
X126482360Y-129224439D01*
X126195796Y-128961852D01*
X126188147Y-128954203D01*
X125925560Y-128667639D01*
X125918606Y-128659352D01*
X125681986Y-128350983D01*
X125675782Y-128342122D01*
X125661656Y-128319949D01*
X125466939Y-128014305D01*
X125461546Y-128004965D01*
X125282062Y-127660179D01*
X125277493Y-127650381D01*
X125128744Y-127291270D01*
X125125055Y-127281135D01*
X125008168Y-126910416D01*
X125005372Y-126899984D01*
X124936009Y-126587106D01*
X126199500Y-126587106D01*
X126199500Y-126912893D01*
X126235974Y-127236604D01*
X126235976Y-127236620D01*
X126308467Y-127554226D01*
X126308471Y-127554238D01*
X126416066Y-127861725D01*
X126557413Y-128155234D01*
X126557415Y-128155237D01*
X126730739Y-128431081D01*
X126882272Y-128621097D01*
X126916202Y-128663645D01*
X126933857Y-128685783D01*
X127164217Y-128916143D01*
X127418919Y-129119261D01*
X127694763Y-129292585D01*
X127988278Y-129433935D01*
X128103398Y-129474217D01*
X128295761Y-129541528D01*
X128295773Y-129541532D01*
X128613383Y-129614024D01*
X128937106Y-129650499D01*
X128937107Y-129650500D01*
X128937111Y-129650500D01*
X129262893Y-129650500D01*
X129262893Y-129650499D01*
X129586617Y-129614024D01*
X129904227Y-129541532D01*
X130211722Y-129433935D01*
X130505237Y-129292585D01*
X130781081Y-129119261D01*
X131035783Y-128916143D01*
X131266143Y-128685783D01*
X131469261Y-128431081D01*
X131642585Y-128155237D01*
X131783935Y-127861722D01*
X131891532Y-127554227D01*
X131964024Y-127236617D01*
X132000500Y-126912889D01*
X132000500Y-126587111D01*
X132000499Y-126587106D01*
X132000499Y-126587104D01*
X131983910Y-126439864D01*
X131983261Y-126434108D01*
X136649500Y-126434108D01*
X136649500Y-126565892D01*
X136661445Y-126610471D01*
X136683608Y-126693187D01*
X136716554Y-126750250D01*
X136749500Y-126807314D01*
X136842686Y-126900500D01*
X136956814Y-126966392D01*
X137084108Y-127000500D01*
X137084110Y-127000500D01*
X137215890Y-127000500D01*
X137215892Y-127000500D01*
X137343186Y-126966392D01*
X137457314Y-126900500D01*
X137550500Y-126807314D01*
X137616392Y-126693186D01*
X137650500Y-126565892D01*
X137650500Y-126434108D01*
X137616392Y-126306814D01*
X137616389Y-126306808D01*
X137605520Y-126287982D01*
X137605519Y-126287981D01*
X137574415Y-126234108D01*
X145449500Y-126234108D01*
X145449500Y-126365891D01*
X145483608Y-126493187D01*
X145500031Y-126521632D01*
X145549500Y-126607314D01*
X145642686Y-126700500D01*
X145756814Y-126766392D01*
X145884108Y-126800500D01*
X145884110Y-126800500D01*
X146015890Y-126800500D01*
X146015892Y-126800500D01*
X146143186Y-126766392D01*
X146257314Y-126700500D01*
X146350500Y-126607314D01*
X146362167Y-126587106D01*
X168499500Y-126587106D01*
X168499500Y-126912893D01*
X168535974Y-127236604D01*
X168535976Y-127236620D01*
X168608467Y-127554226D01*
X168608471Y-127554238D01*
X168716066Y-127861725D01*
X168857413Y-128155234D01*
X168857415Y-128155237D01*
X169030739Y-128431081D01*
X169182272Y-128621097D01*
X169216202Y-128663645D01*
X169233857Y-128685783D01*
X169464217Y-128916143D01*
X169718919Y-129119261D01*
X169994763Y-129292585D01*
X170288278Y-129433935D01*
X170403398Y-129474217D01*
X170595761Y-129541528D01*
X170595773Y-129541532D01*
X170913383Y-129614024D01*
X171237106Y-129650499D01*
X171237107Y-129650500D01*
X171237111Y-129650500D01*
X171562893Y-129650500D01*
X171562893Y-129650499D01*
X171886617Y-129614024D01*
X172204227Y-129541532D01*
X172511722Y-129433935D01*
X172805237Y-129292585D01*
X173081081Y-129119261D01*
X173335783Y-128916143D01*
X173566143Y-128685783D01*
X173769261Y-128431081D01*
X173942585Y-128155237D01*
X174083935Y-127861722D01*
X174191532Y-127554227D01*
X174264024Y-127236617D01*
X174300500Y-126912889D01*
X174300500Y-126587111D01*
X174264024Y-126263383D01*
X174191532Y-125945773D01*
X174083935Y-125638278D01*
X173942585Y-125344763D01*
X173769261Y-125068919D01*
X173566143Y-124814217D01*
X173335783Y-124583857D01*
X173081081Y-124380739D01*
X172805237Y-124207415D01*
X172805234Y-124207413D01*
X172511725Y-124066066D01*
X172204238Y-123958471D01*
X172204226Y-123958467D01*
X171886620Y-123885976D01*
X171886604Y-123885974D01*
X171562893Y-123849500D01*
X171562889Y-123849500D01*
X171237111Y-123849500D01*
X171237107Y-123849500D01*
X170913395Y-123885974D01*
X170913379Y-123885976D01*
X170595773Y-123958467D01*
X170595761Y-123958471D01*
X170288274Y-124066066D01*
X169994765Y-124207413D01*
X169718920Y-124380738D01*
X169464217Y-124583856D01*
X169233856Y-124814217D01*
X169030738Y-125068920D01*
X168857413Y-125344765D01*
X168716066Y-125638274D01*
X168608471Y-125945761D01*
X168608467Y-125945773D01*
X168535976Y-126263379D01*
X168535974Y-126263395D01*
X168499500Y-126587106D01*
X146362167Y-126587106D01*
X146416392Y-126493186D01*
X146450500Y-126365892D01*
X146450500Y-126234108D01*
X146416392Y-126106814D01*
X146350500Y-125992686D01*
X146257314Y-125899500D01*
X146200250Y-125866554D01*
X146143187Y-125833608D01*
X146079539Y-125816554D01*
X146015892Y-125799500D01*
X145884108Y-125799500D01*
X145756812Y-125833608D01*
X145642686Y-125899500D01*
X145642683Y-125899502D01*
X145549502Y-125992683D01*
X145549500Y-125992686D01*
X145483608Y-126106812D01*
X145449500Y-126234108D01*
X137574415Y-126234108D01*
X137550500Y-126192686D01*
X137457314Y-126099500D01*
X137400250Y-126066554D01*
X137343187Y-126033608D01*
X137279539Y-126016554D01*
X137215892Y-125999500D01*
X137084108Y-125999500D01*
X136956812Y-126033608D01*
X136842686Y-126099500D01*
X136842683Y-126099502D01*
X136749502Y-126192683D01*
X136749500Y-126192686D01*
X136683608Y-126306812D01*
X136667778Y-126365892D01*
X136649500Y-126434108D01*
X131983261Y-126434108D01*
X131966796Y-126287982D01*
X131964024Y-126263383D01*
X131891532Y-125945773D01*
X131783935Y-125638278D01*
X131642585Y-125344763D01*
X131469261Y-125068919D01*
X131266143Y-124814217D01*
X131035783Y-124583857D01*
X130781081Y-124380739D01*
X130706868Y-124334108D01*
X158249500Y-124334108D01*
X158249500Y-124465891D01*
X158283608Y-124593187D01*
X158316554Y-124650250D01*
X158349500Y-124707314D01*
X158442686Y-124800500D01*
X158556814Y-124866392D01*
X158684108Y-124900500D01*
X158684110Y-124900500D01*
X158815890Y-124900500D01*
X158815892Y-124900500D01*
X158943186Y-124866392D01*
X159057314Y-124800500D01*
X159150500Y-124707314D01*
X159216392Y-124593186D01*
X159250500Y-124465892D01*
X159250500Y-124334108D01*
X159216392Y-124206814D01*
X159150500Y-124092686D01*
X159057314Y-123999500D01*
X158986243Y-123958467D01*
X158943187Y-123933608D01*
X158879539Y-123916554D01*
X158815892Y-123899500D01*
X158684108Y-123899500D01*
X158556812Y-123933608D01*
X158442686Y-123999500D01*
X158442683Y-123999502D01*
X158349502Y-124092683D01*
X158349500Y-124092686D01*
X158283608Y-124206812D01*
X158249500Y-124334108D01*
X130706868Y-124334108D01*
X130505237Y-124207415D01*
X130505234Y-124207413D01*
X130211725Y-124066066D01*
X129904238Y-123958471D01*
X129904226Y-123958467D01*
X129586620Y-123885976D01*
X129586604Y-123885974D01*
X129262893Y-123849500D01*
X129262889Y-123849500D01*
X128937111Y-123849500D01*
X128937107Y-123849500D01*
X128613395Y-123885974D01*
X128613379Y-123885976D01*
X128295773Y-123958467D01*
X128295761Y-123958471D01*
X127988274Y-124066066D01*
X127694765Y-124207413D01*
X127418920Y-124380738D01*
X127164217Y-124583856D01*
X126933856Y-124814217D01*
X126730738Y-125068920D01*
X126557413Y-125344765D01*
X126416066Y-125638274D01*
X126308471Y-125945761D01*
X126308467Y-125945773D01*
X126235976Y-126263379D01*
X126235974Y-126263395D01*
X126199500Y-126587106D01*
X124936009Y-126587106D01*
X124921241Y-126520493D01*
X124919365Y-126509848D01*
X124868630Y-126124477D01*
X124867690Y-126113742D01*
X124850618Y-125722701D01*
X124850500Y-125717293D01*
X124850500Y-120334108D01*
X128099500Y-120334108D01*
X128099500Y-120465892D01*
X128116554Y-120529539D01*
X128133608Y-120593187D01*
X128166554Y-120650250D01*
X128199500Y-120707314D01*
X128292686Y-120800500D01*
X128406814Y-120866392D01*
X128534108Y-120900500D01*
X128534110Y-120900500D01*
X128665890Y-120900500D01*
X128665892Y-120900500D01*
X128793186Y-120866392D01*
X128907314Y-120800500D01*
X129000500Y-120707314D01*
X129066392Y-120593186D01*
X129082222Y-120534108D01*
X132699500Y-120534108D01*
X132699500Y-120665892D01*
X132711220Y-120709631D01*
X132733608Y-120793187D01*
X132766554Y-120850250D01*
X132799500Y-120907314D01*
X132892686Y-121000500D01*
X133006814Y-121066392D01*
X133134108Y-121100500D01*
X133134110Y-121100500D01*
X133265890Y-121100500D01*
X133265892Y-121100500D01*
X133393186Y-121066392D01*
X133507314Y-121000500D01*
X133600500Y-120907314D01*
X133666392Y-120793186D01*
X133700500Y-120665892D01*
X133700500Y-120534108D01*
X133666392Y-120406814D01*
X133600500Y-120292686D01*
X133507314Y-120199500D01*
X133407121Y-120141653D01*
X133407120Y-120141652D01*
X133393189Y-120133609D01*
X133393186Y-120133608D01*
X133265892Y-120099500D01*
X133134108Y-120099500D01*
X133006812Y-120133608D01*
X132892686Y-120199500D01*
X132892683Y-120199502D01*
X132799502Y-120292683D01*
X132799500Y-120292686D01*
X132733608Y-120406812D01*
X132717778Y-120465892D01*
X132699500Y-120534108D01*
X129082222Y-120534108D01*
X129100500Y-120465892D01*
X129100500Y-120334108D01*
X129066392Y-120206814D01*
X129000500Y-120092686D01*
X128945555Y-120037741D01*
X137512000Y-120037741D01*
X137512000Y-120374758D01*
X137549731Y-120709631D01*
X137549733Y-120709647D01*
X137624723Y-121038203D01*
X137624727Y-121038215D01*
X137736032Y-121356304D01*
X137882252Y-121659933D01*
X137902830Y-121692683D01*
X138061554Y-121945289D01*
X138218311Y-122141856D01*
X138259245Y-122193187D01*
X138271675Y-122208773D01*
X138509977Y-122447075D01*
X138773461Y-122657196D01*
X139058814Y-122836496D01*
X139362449Y-122982719D01*
X139590541Y-123062532D01*
X139680534Y-123094022D01*
X139680546Y-123094026D01*
X140009106Y-123169017D01*
X140343992Y-123206749D01*
X140343993Y-123206750D01*
X140343996Y-123206750D01*
X140681007Y-123206750D01*
X140681007Y-123206749D01*
X141015894Y-123169017D01*
X141344454Y-123094026D01*
X141662551Y-122982719D01*
X141966186Y-122836496D01*
X142018772Y-122803454D01*
X163669343Y-122803454D01*
X163669343Y-122935237D01*
X163703451Y-123062533D01*
X163721632Y-123094022D01*
X163769343Y-123176660D01*
X163862529Y-123269846D01*
X163976657Y-123335738D01*
X164103951Y-123369846D01*
X164103953Y-123369846D01*
X164235733Y-123369846D01*
X164235735Y-123369846D01*
X164363029Y-123335738D01*
X164477157Y-123269846D01*
X164570343Y-123176660D01*
X164636235Y-123062532D01*
X164670343Y-122935238D01*
X164670343Y-122803454D01*
X164636235Y-122676160D01*
X164570343Y-122562032D01*
X164477157Y-122468846D01*
X164420093Y-122435900D01*
X164363030Y-122402954D01*
X164299382Y-122385900D01*
X164235735Y-122368846D01*
X164103951Y-122368846D01*
X163976655Y-122402954D01*
X163862529Y-122468846D01*
X163862526Y-122468848D01*
X163769345Y-122562029D01*
X163769343Y-122562032D01*
X163703451Y-122676158D01*
X163669343Y-122803454D01*
X142018772Y-122803454D01*
X142251539Y-122657196D01*
X142515023Y-122447075D01*
X142753325Y-122208773D01*
X142963446Y-121945289D01*
X142970472Y-121934108D01*
X147499500Y-121934108D01*
X147499500Y-122065891D01*
X147533608Y-122193187D01*
X147566554Y-122250250D01*
X147599500Y-122307314D01*
X147692686Y-122400500D01*
X147806814Y-122466392D01*
X147934108Y-122500500D01*
X147934110Y-122500500D01*
X148065890Y-122500500D01*
X148065892Y-122500500D01*
X148193186Y-122466392D01*
X148307314Y-122400500D01*
X148400500Y-122307314D01*
X148466392Y-122193186D01*
X148500500Y-122065892D01*
X148500500Y-121934108D01*
X148466392Y-121806814D01*
X148400500Y-121692686D01*
X148393671Y-121685857D01*
X154316825Y-121685857D01*
X154316825Y-121817640D01*
X154350933Y-121944936D01*
X154351136Y-121945287D01*
X154416825Y-122059063D01*
X154510011Y-122152249D01*
X154624139Y-122218141D01*
X154751433Y-122252249D01*
X154751435Y-122252249D01*
X154883215Y-122252249D01*
X154883217Y-122252249D01*
X155010511Y-122218141D01*
X155124639Y-122152249D01*
X155217825Y-122059063D01*
X155283717Y-121944935D01*
X155317825Y-121817641D01*
X155317825Y-121685857D01*
X155283717Y-121558563D01*
X155217825Y-121444435D01*
X155124639Y-121351249D01*
X155067575Y-121318303D01*
X155010512Y-121285357D01*
X154946864Y-121268303D01*
X154883217Y-121251249D01*
X154751433Y-121251249D01*
X154624137Y-121285357D01*
X154510011Y-121351249D01*
X154510008Y-121351251D01*
X154416827Y-121444432D01*
X154416825Y-121444435D01*
X154350933Y-121558561D01*
X154316825Y-121685857D01*
X148393671Y-121685857D01*
X148307314Y-121599500D01*
X148236406Y-121558561D01*
X148193187Y-121533608D01*
X148129539Y-121516554D01*
X148065892Y-121499500D01*
X147934108Y-121499500D01*
X147806812Y-121533608D01*
X147692686Y-121599500D01*
X147692683Y-121599502D01*
X147599502Y-121692683D01*
X147599500Y-121692686D01*
X147533608Y-121806812D01*
X147499500Y-121934108D01*
X142970472Y-121934108D01*
X143142746Y-121659936D01*
X143288969Y-121356301D01*
X143400276Y-121038204D01*
X143475267Y-120709644D01*
X143513000Y-120374754D01*
X143513000Y-120134108D01*
X151799500Y-120134108D01*
X151799500Y-120265892D01*
X151816554Y-120329539D01*
X151833608Y-120393187D01*
X151841475Y-120406812D01*
X151899500Y-120507314D01*
X151992686Y-120600500D01*
X152091521Y-120657563D01*
X152105944Y-120665890D01*
X152106814Y-120666392D01*
X152234108Y-120700500D01*
X152234110Y-120700500D01*
X152365890Y-120700500D01*
X152365892Y-120700500D01*
X152493186Y-120666392D01*
X152607314Y-120600500D01*
X152700500Y-120507314D01*
X152766392Y-120393186D01*
X152800500Y-120265892D01*
X152800500Y-120134108D01*
X152774679Y-120037741D01*
X168722000Y-120037741D01*
X168722000Y-120374758D01*
X168759731Y-120709631D01*
X168759733Y-120709647D01*
X168834723Y-121038203D01*
X168834727Y-121038215D01*
X168946032Y-121356304D01*
X169092252Y-121659933D01*
X169112830Y-121692683D01*
X169271554Y-121945289D01*
X169428311Y-122141856D01*
X169469245Y-122193187D01*
X169481675Y-122208773D01*
X169719977Y-122447075D01*
X169983461Y-122657196D01*
X170268814Y-122836496D01*
X170572449Y-122982719D01*
X170800541Y-123062532D01*
X170890534Y-123094022D01*
X170890546Y-123094026D01*
X171219106Y-123169017D01*
X171553992Y-123206749D01*
X171553993Y-123206750D01*
X171553996Y-123206750D01*
X171891007Y-123206750D01*
X171891007Y-123206749D01*
X172225894Y-123169017D01*
X172554454Y-123094026D01*
X172872551Y-122982719D01*
X173176186Y-122836496D01*
X173461539Y-122657196D01*
X173725023Y-122447075D01*
X173963325Y-122208773D01*
X174173446Y-121945289D01*
X174352746Y-121659936D01*
X174498969Y-121356301D01*
X174610276Y-121038204D01*
X174685267Y-120709644D01*
X174723000Y-120374754D01*
X174723000Y-120037746D01*
X174685267Y-119702856D01*
X174610276Y-119374296D01*
X174498969Y-119056199D01*
X174352746Y-118752564D01*
X174173446Y-118467211D01*
X173963325Y-118203727D01*
X173725023Y-117965425D01*
X173461539Y-117755304D01*
X173176186Y-117576004D01*
X173176183Y-117576002D01*
X172872554Y-117429782D01*
X172554465Y-117318477D01*
X172554453Y-117318473D01*
X172225897Y-117243483D01*
X172225881Y-117243481D01*
X171891008Y-117205750D01*
X171891004Y-117205750D01*
X171553996Y-117205750D01*
X171553991Y-117205750D01*
X171219118Y-117243481D01*
X171219102Y-117243483D01*
X170890546Y-117318473D01*
X170890534Y-117318477D01*
X170572445Y-117429782D01*
X170268816Y-117576002D01*
X169983462Y-117755303D01*
X169719977Y-117965424D01*
X169481674Y-118203727D01*
X169271553Y-118467212D01*
X169092252Y-118752566D01*
X168946032Y-119056195D01*
X168834727Y-119374284D01*
X168834723Y-119374296D01*
X168759733Y-119702852D01*
X168759731Y-119702868D01*
X168722000Y-120037741D01*
X152774679Y-120037741D01*
X152766392Y-120006814D01*
X152700500Y-119892686D01*
X152607314Y-119799500D01*
X152550250Y-119766554D01*
X152493187Y-119733608D01*
X152429539Y-119716554D01*
X152365892Y-119699500D01*
X152234108Y-119699500D01*
X152106812Y-119733608D01*
X151992686Y-119799500D01*
X151992683Y-119799502D01*
X151899502Y-119892683D01*
X151899500Y-119892686D01*
X151833608Y-120006812D01*
X151817653Y-120066360D01*
X151799500Y-120134108D01*
X143513000Y-120134108D01*
X143513000Y-120037746D01*
X143475267Y-119702856D01*
X143400276Y-119374296D01*
X143288969Y-119056199D01*
X143142746Y-118752564D01*
X142963446Y-118467211D01*
X142753325Y-118203727D01*
X142515023Y-117965425D01*
X142251539Y-117755304D01*
X141966186Y-117576004D01*
X141966183Y-117576002D01*
X141662554Y-117429782D01*
X141344465Y-117318477D01*
X141344453Y-117318473D01*
X141015897Y-117243483D01*
X141015881Y-117243481D01*
X140681008Y-117205750D01*
X140681004Y-117205750D01*
X140343996Y-117205750D01*
X140343991Y-117205750D01*
X140009118Y-117243481D01*
X140009102Y-117243483D01*
X139680546Y-117318473D01*
X139680534Y-117318477D01*
X139362445Y-117429782D01*
X139058816Y-117576002D01*
X138773462Y-117755303D01*
X138509977Y-117965424D01*
X138271674Y-118203727D01*
X138061553Y-118467212D01*
X137882252Y-118752566D01*
X137736032Y-119056195D01*
X137624727Y-119374284D01*
X137624723Y-119374296D01*
X137549733Y-119702852D01*
X137549731Y-119702868D01*
X137512000Y-120037741D01*
X128945555Y-120037741D01*
X128907314Y-119999500D01*
X128850250Y-119966554D01*
X128793187Y-119933608D01*
X128729539Y-119916554D01*
X128665892Y-119899500D01*
X128534108Y-119899500D01*
X128406812Y-119933608D01*
X128292686Y-119999500D01*
X128292683Y-119999502D01*
X128199502Y-120092683D01*
X128199500Y-120092686D01*
X128133608Y-120206812D01*
X128117778Y-120265892D01*
X128099500Y-120334108D01*
X124850500Y-120334108D01*
X124850500Y-115602858D01*
X160771000Y-115602858D01*
X160771000Y-115734641D01*
X160805108Y-115861937D01*
X160838054Y-115919000D01*
X160871000Y-115976064D01*
X160964186Y-116069250D01*
X161078314Y-116135142D01*
X161205608Y-116169250D01*
X161205610Y-116169250D01*
X161337390Y-116169250D01*
X161337392Y-116169250D01*
X161464686Y-116135142D01*
X161578814Y-116069250D01*
X161672000Y-115976064D01*
X161737892Y-115861936D01*
X161772000Y-115734642D01*
X161772000Y-115602858D01*
X161737892Y-115475564D01*
X161672000Y-115361436D01*
X161578814Y-115268250D01*
X161521750Y-115235304D01*
X161464687Y-115202358D01*
X161401039Y-115185304D01*
X161337392Y-115168250D01*
X161205608Y-115168250D01*
X161078312Y-115202358D01*
X160964186Y-115268250D01*
X160964183Y-115268252D01*
X160871002Y-115361433D01*
X160871000Y-115361436D01*
X160805108Y-115475562D01*
X160771000Y-115602858D01*
X124850500Y-115602858D01*
X124850500Y-114934108D01*
X163099500Y-114934108D01*
X163099500Y-115065891D01*
X163133608Y-115193187D01*
X163138903Y-115202358D01*
X163199500Y-115307314D01*
X163292686Y-115400500D01*
X163406814Y-115466392D01*
X163534108Y-115500500D01*
X163534110Y-115500500D01*
X163665890Y-115500500D01*
X163665892Y-115500500D01*
X163793186Y-115466392D01*
X163907314Y-115400500D01*
X164000500Y-115307314D01*
X164066392Y-115193186D01*
X164100500Y-115065892D01*
X164100500Y-114934108D01*
X164066392Y-114806814D01*
X164000500Y-114692686D01*
X163907314Y-114599500D01*
X163850250Y-114566554D01*
X163793187Y-114533608D01*
X163729539Y-114516554D01*
X163665892Y-114499500D01*
X163534108Y-114499500D01*
X163406812Y-114533608D01*
X163292686Y-114599500D01*
X163292683Y-114599502D01*
X163199502Y-114692683D01*
X163199500Y-114692686D01*
X163133608Y-114806812D01*
X163099500Y-114934108D01*
X124850500Y-114934108D01*
X124850500Y-112234108D01*
X126499500Y-112234108D01*
X126499500Y-112365892D01*
X126511185Y-112409500D01*
X126533608Y-112493187D01*
X126550834Y-112523023D01*
X126599500Y-112607314D01*
X126692686Y-112700500D01*
X126806814Y-112766392D01*
X126934108Y-112800500D01*
X126934110Y-112800500D01*
X127065890Y-112800500D01*
X127065892Y-112800500D01*
X127193186Y-112766392D01*
X127307314Y-112700500D01*
X127400500Y-112607314D01*
X127466392Y-112493186D01*
X127478700Y-112447251D01*
X127515064Y-112387593D01*
X127577910Y-112357063D01*
X127647286Y-112365357D01*
X127696850Y-112403860D01*
X127699499Y-112407312D01*
X127699500Y-112407314D01*
X127792686Y-112500500D01*
X127891521Y-112557563D01*
X127905490Y-112565628D01*
X127906814Y-112566392D01*
X128034108Y-112600500D01*
X128034110Y-112600500D01*
X128047794Y-112600500D01*
X128114833Y-112620185D01*
X128160588Y-112672989D01*
X128170532Y-112742147D01*
X128141507Y-112805703D01*
X128109794Y-112831887D01*
X127992689Y-112899497D01*
X127992683Y-112899502D01*
X127899502Y-112992683D01*
X127899500Y-112992686D01*
X127833608Y-113106812D01*
X127799500Y-113234108D01*
X127799500Y-113365891D01*
X127833608Y-113493187D01*
X127866554Y-113550250D01*
X127899500Y-113607314D01*
X127992686Y-113700500D01*
X128106814Y-113766392D01*
X128234108Y-113800500D01*
X128234110Y-113800500D01*
X128365890Y-113800500D01*
X128365892Y-113800500D01*
X128493186Y-113766392D01*
X128607314Y-113700500D01*
X128700500Y-113607314D01*
X128742766Y-113534108D01*
X153599500Y-113534108D01*
X153599500Y-113665892D01*
X153600400Y-113669250D01*
X153633608Y-113793187D01*
X153666554Y-113850250D01*
X153699500Y-113907314D01*
X153792686Y-114000500D01*
X153906814Y-114066392D01*
X154034108Y-114100500D01*
X154034110Y-114100500D01*
X154165890Y-114100500D01*
X154165892Y-114100500D01*
X154293186Y-114066392D01*
X154407314Y-114000500D01*
X154500500Y-113907314D01*
X154566392Y-113793186D01*
X154600500Y-113665892D01*
X154600500Y-113534108D01*
X154566392Y-113406814D01*
X154500500Y-113292686D01*
X154407314Y-113199500D01*
X154334960Y-113157726D01*
X154293187Y-113133608D01*
X154229539Y-113116554D01*
X154178424Y-113102858D01*
X160671000Y-113102858D01*
X160671000Y-113234641D01*
X160705108Y-113361937D01*
X160731017Y-113406812D01*
X160771000Y-113476064D01*
X160864186Y-113569250D01*
X160978314Y-113635142D01*
X161105608Y-113669250D01*
X161105610Y-113669250D01*
X161237390Y-113669250D01*
X161237392Y-113669250D01*
X161364686Y-113635142D01*
X161478814Y-113569250D01*
X161572000Y-113476064D01*
X161637892Y-113361936D01*
X161672000Y-113234642D01*
X161672000Y-113102858D01*
X161637892Y-112975564D01*
X161572000Y-112861436D01*
X161478814Y-112768250D01*
X161436999Y-112744108D01*
X162667000Y-112744108D01*
X162667000Y-112875891D01*
X162701108Y-113003187D01*
X162718664Y-113033594D01*
X162767000Y-113117314D01*
X162860186Y-113210500D01*
X162974314Y-113276392D01*
X163101608Y-113310500D01*
X163101610Y-113310500D01*
X163233390Y-113310500D01*
X163233392Y-113310500D01*
X163360686Y-113276392D01*
X163474814Y-113210500D01*
X163568000Y-113117314D01*
X163633892Y-113003186D01*
X163668000Y-112875892D01*
X163668000Y-112744108D01*
X163633892Y-112616814D01*
X163628118Y-112606814D01*
X163624473Y-112600500D01*
X163568000Y-112502686D01*
X163474814Y-112409500D01*
X163399283Y-112365892D01*
X163360687Y-112343608D01*
X163293841Y-112325697D01*
X163233392Y-112309500D01*
X163101608Y-112309500D01*
X162974312Y-112343608D01*
X162860186Y-112409500D01*
X162860183Y-112409502D01*
X162767002Y-112502683D01*
X162767000Y-112502686D01*
X162701108Y-112616812D01*
X162667000Y-112744108D01*
X161436999Y-112744108D01*
X161419682Y-112734110D01*
X161364687Y-112702358D01*
X161255078Y-112672989D01*
X161237392Y-112668250D01*
X161105608Y-112668250D01*
X160978312Y-112702358D01*
X160864186Y-112768250D01*
X160864183Y-112768252D01*
X160771002Y-112861433D01*
X160771000Y-112861436D01*
X160705108Y-112975562D01*
X160671000Y-113102858D01*
X154178424Y-113102858D01*
X154165892Y-113099500D01*
X154034108Y-113099500D01*
X153906812Y-113133608D01*
X153792686Y-113199500D01*
X153792683Y-113199502D01*
X153699502Y-113292683D01*
X153699500Y-113292686D01*
X153633608Y-113406812D01*
X153599500Y-113534108D01*
X128742766Y-113534108D01*
X128766392Y-113493186D01*
X128800500Y-113365892D01*
X128800500Y-113234108D01*
X128766392Y-113106814D01*
X128700500Y-112992686D01*
X128607314Y-112899500D01*
X128549100Y-112865890D01*
X128493187Y-112833608D01*
X128429539Y-112816554D01*
X128365892Y-112799500D01*
X128352206Y-112799500D01*
X128285167Y-112779815D01*
X128239412Y-112727011D01*
X128229468Y-112657853D01*
X128258493Y-112594297D01*
X128290206Y-112568113D01*
X128368303Y-112523023D01*
X128407314Y-112500500D01*
X128500500Y-112407314D01*
X128517506Y-112377858D01*
X135721000Y-112377858D01*
X135721000Y-112509642D01*
X135724586Y-112523026D01*
X135755108Y-112636937D01*
X135770722Y-112663980D01*
X135821000Y-112751064D01*
X135914186Y-112844250D01*
X136028314Y-112910142D01*
X136155608Y-112944250D01*
X136155610Y-112944250D01*
X136287390Y-112944250D01*
X136287392Y-112944250D01*
X136414686Y-112910142D01*
X136528814Y-112844250D01*
X136622000Y-112751064D01*
X136631790Y-112734108D01*
X147299500Y-112734108D01*
X147299500Y-112865892D01*
X147308504Y-112899497D01*
X147333608Y-112993187D01*
X147357387Y-113034372D01*
X147399500Y-113107314D01*
X147492686Y-113200500D01*
X147606814Y-113266392D01*
X147734108Y-113300500D01*
X147734110Y-113300500D01*
X147865890Y-113300500D01*
X147865892Y-113300500D01*
X147993186Y-113266392D01*
X148107314Y-113200500D01*
X148200500Y-113107314D01*
X148222583Y-113069064D01*
X148273150Y-113020849D01*
X148341757Y-113007626D01*
X148406622Y-113033594D01*
X148437356Y-113069063D01*
X148454873Y-113099403D01*
X148548059Y-113192589D01*
X148662187Y-113258481D01*
X148789481Y-113292589D01*
X148789483Y-113292589D01*
X148921263Y-113292589D01*
X148921265Y-113292589D01*
X149048559Y-113258481D01*
X149162687Y-113192589D01*
X149255873Y-113099403D01*
X149321765Y-112985275D01*
X149355873Y-112857981D01*
X149355873Y-112734108D01*
X149599500Y-112734108D01*
X149599500Y-112865892D01*
X149611357Y-112910142D01*
X149633608Y-112993187D01*
X149657387Y-113034372D01*
X149699500Y-113107314D01*
X149792686Y-113200500D01*
X149906814Y-113266392D01*
X150034108Y-113300500D01*
X150034110Y-113300500D01*
X150165890Y-113300500D01*
X150165892Y-113300500D01*
X150293186Y-113266392D01*
X150407314Y-113200500D01*
X150500500Y-113107314D01*
X150542613Y-113034371D01*
X150593180Y-112986156D01*
X150661787Y-112972933D01*
X150726652Y-112998901D01*
X150757386Y-113034371D01*
X150799500Y-113107314D01*
X150892686Y-113200500D01*
X151006814Y-113266392D01*
X151134108Y-113300500D01*
X151134110Y-113300500D01*
X151265890Y-113300500D01*
X151265892Y-113300500D01*
X151393186Y-113266392D01*
X151507314Y-113200500D01*
X151600500Y-113107314D01*
X151666392Y-112993186D01*
X151700500Y-112865892D01*
X151700500Y-112734108D01*
X151666392Y-112606814D01*
X151600500Y-112492686D01*
X151507314Y-112399500D01*
X151433811Y-112357063D01*
X151393187Y-112333608D01*
X151329539Y-112316554D01*
X151265892Y-112299500D01*
X151134108Y-112299500D01*
X151006812Y-112333608D01*
X150892686Y-112399500D01*
X150892683Y-112399502D01*
X150799502Y-112492683D01*
X150799500Y-112492686D01*
X150793727Y-112502686D01*
X150757387Y-112565628D01*
X150706820Y-112613843D01*
X150638212Y-112627065D01*
X150573348Y-112601097D01*
X150542613Y-112565628D01*
X150538493Y-112558492D01*
X150500500Y-112492686D01*
X150407314Y-112399500D01*
X150333811Y-112357063D01*
X150293187Y-112333608D01*
X150229539Y-112316554D01*
X150165892Y-112299500D01*
X150034108Y-112299500D01*
X149906812Y-112333608D01*
X149792686Y-112399500D01*
X149792683Y-112399502D01*
X149699502Y-112492683D01*
X149699500Y-112492686D01*
X149638177Y-112598901D01*
X149633608Y-112606814D01*
X149625536Y-112636939D01*
X149602274Y-112723753D01*
X149602273Y-112723755D01*
X149599500Y-112734108D01*
X149355873Y-112734108D01*
X149355873Y-112726197D01*
X149321765Y-112598903D01*
X149255873Y-112484775D01*
X149162687Y-112391589D01*
X149079582Y-112343608D01*
X149048560Y-112325697D01*
X148981497Y-112307728D01*
X148921265Y-112291589D01*
X148789481Y-112291589D01*
X148662185Y-112325697D01*
X148548059Y-112391589D01*
X148548056Y-112391591D01*
X148454875Y-112484772D01*
X148454873Y-112484775D01*
X148432788Y-112523026D01*
X148382219Y-112571240D01*
X148313612Y-112584461D01*
X148248748Y-112558492D01*
X148218015Y-112523023D01*
X148200500Y-112492686D01*
X148107314Y-112399500D01*
X148033811Y-112357063D01*
X147993187Y-112333608D01*
X147929539Y-112316554D01*
X147865892Y-112299500D01*
X147734108Y-112299500D01*
X147606812Y-112333608D01*
X147492686Y-112399500D01*
X147492683Y-112399502D01*
X147399502Y-112492683D01*
X147399500Y-112492686D01*
X147333608Y-112606812D01*
X147308506Y-112700497D01*
X147299500Y-112734108D01*
X136631790Y-112734108D01*
X136687892Y-112636936D01*
X136722000Y-112509642D01*
X136722000Y-112377858D01*
X136687892Y-112250564D01*
X136622000Y-112136436D01*
X136528814Y-112043250D01*
X136441228Y-111992682D01*
X136414687Y-111977358D01*
X136322839Y-111952748D01*
X136287392Y-111943250D01*
X136155608Y-111943250D01*
X136028312Y-111977358D01*
X135914186Y-112043250D01*
X135914183Y-112043252D01*
X135821002Y-112136433D01*
X135821000Y-112136436D01*
X135755108Y-112250562D01*
X135724206Y-112365892D01*
X135721000Y-112377858D01*
X128517506Y-112377858D01*
X128566392Y-112293186D01*
X128600500Y-112165892D01*
X128600500Y-112034108D01*
X128566392Y-111906814D01*
X128500500Y-111792686D01*
X128407314Y-111699500D01*
X128350250Y-111666554D01*
X128293187Y-111633608D01*
X128206941Y-111610499D01*
X128165892Y-111599500D01*
X128034108Y-111599500D01*
X127906812Y-111633608D01*
X127792686Y-111699500D01*
X127792683Y-111699502D01*
X127699502Y-111792683D01*
X127699500Y-111792686D01*
X127633607Y-111906814D01*
X127633607Y-111906815D01*
X127621299Y-111952748D01*
X127584933Y-112012408D01*
X127522086Y-112042936D01*
X127452711Y-112034641D01*
X127403148Y-111996138D01*
X127400502Y-111992690D01*
X127400500Y-111992686D01*
X127307314Y-111899500D01*
X127250250Y-111866554D01*
X127193187Y-111833608D01*
X127129539Y-111816554D01*
X127065892Y-111799500D01*
X126934108Y-111799500D01*
X126806812Y-111833608D01*
X126692686Y-111899500D01*
X126692683Y-111899502D01*
X126599502Y-111992683D01*
X126599500Y-111992686D01*
X126533608Y-112106812D01*
X126517778Y-112165892D01*
X126499500Y-112234108D01*
X124850500Y-112234108D01*
X124850500Y-111144108D01*
X162717000Y-111144108D01*
X162717000Y-111275891D01*
X162751108Y-111403187D01*
X162784054Y-111460250D01*
X162817000Y-111517314D01*
X162910186Y-111610500D01*
X163024314Y-111676392D01*
X163151608Y-111710500D01*
X163151610Y-111710500D01*
X163283390Y-111710500D01*
X163283392Y-111710500D01*
X163410686Y-111676392D01*
X163524814Y-111610500D01*
X163618000Y-111517314D01*
X163683892Y-111403186D01*
X163718000Y-111275892D01*
X163718000Y-111144108D01*
X163683892Y-111016814D01*
X163618000Y-110902686D01*
X163524814Y-110809500D01*
X163467750Y-110776554D01*
X163410687Y-110743608D01*
X163347039Y-110726554D01*
X163283392Y-110709500D01*
X163151608Y-110709500D01*
X163024312Y-110743608D01*
X162910186Y-110809500D01*
X162910183Y-110809502D01*
X162817002Y-110902683D01*
X162817000Y-110902686D01*
X162751108Y-111016812D01*
X162717000Y-111144108D01*
X124850500Y-111144108D01*
X124850500Y-110534108D01*
X127199500Y-110534108D01*
X127199500Y-110665892D01*
X127204524Y-110684641D01*
X127233608Y-110793187D01*
X127243027Y-110809500D01*
X127299500Y-110907314D01*
X127392686Y-111000500D01*
X127506814Y-111066392D01*
X127634108Y-111100500D01*
X127634110Y-111100500D01*
X127765890Y-111100500D01*
X127765892Y-111100500D01*
X127893186Y-111066392D01*
X128007314Y-111000500D01*
X128100500Y-110907314D01*
X128166392Y-110793186D01*
X128200500Y-110665892D01*
X128200500Y-110552858D01*
X160671000Y-110552858D01*
X160671000Y-110684641D01*
X160705108Y-110811937D01*
X160738054Y-110869000D01*
X160771000Y-110926064D01*
X160864186Y-111019250D01*
X160945838Y-111066392D01*
X160978310Y-111085140D01*
X160978314Y-111085142D01*
X161105608Y-111119250D01*
X161105610Y-111119250D01*
X161237390Y-111119250D01*
X161237392Y-111119250D01*
X161364686Y-111085142D01*
X161478814Y-111019250D01*
X161572000Y-110926064D01*
X161637892Y-110811936D01*
X161672000Y-110684642D01*
X161672000Y-110552858D01*
X161637892Y-110425564D01*
X161572000Y-110311436D01*
X161478814Y-110218250D01*
X161388992Y-110166391D01*
X161364687Y-110152358D01*
X161294709Y-110133608D01*
X161237392Y-110118250D01*
X161105608Y-110118250D01*
X160978312Y-110152358D01*
X160864186Y-110218250D01*
X160864183Y-110218252D01*
X160771002Y-110311433D01*
X160771000Y-110311436D01*
X160705108Y-110425562D01*
X160671000Y-110552858D01*
X128200500Y-110552858D01*
X128200500Y-110534108D01*
X128166392Y-110406814D01*
X128100500Y-110292686D01*
X128007314Y-110199500D01*
X127925662Y-110152358D01*
X127893187Y-110133608D01*
X127806941Y-110110499D01*
X127765892Y-110099500D01*
X127634108Y-110099500D01*
X127506812Y-110133608D01*
X127392686Y-110199500D01*
X127392683Y-110199502D01*
X127299502Y-110292683D01*
X127299500Y-110292686D01*
X127233608Y-110406812D01*
X127228584Y-110425564D01*
X127199500Y-110534108D01*
X124850500Y-110534108D01*
X124850500Y-109634108D01*
X128599500Y-109634108D01*
X128599500Y-109765892D01*
X128611277Y-109809845D01*
X128633608Y-109893187D01*
X128647538Y-109917314D01*
X128699500Y-110007314D01*
X128792686Y-110100500D01*
X128906814Y-110166392D01*
X129034108Y-110200500D01*
X129034110Y-110200500D01*
X129165890Y-110200500D01*
X129165892Y-110200500D01*
X129293186Y-110166392D01*
X129407314Y-110100500D01*
X129500500Y-110007314D01*
X129566392Y-109893186D01*
X129600500Y-109765892D01*
X129600500Y-109752206D01*
X129620185Y-109685167D01*
X129672989Y-109639412D01*
X129742147Y-109629468D01*
X129805703Y-109658493D01*
X129831887Y-109690206D01*
X129899497Y-109807310D01*
X129899499Y-109807312D01*
X129899500Y-109807314D01*
X129992686Y-109900500D01*
X130106814Y-109966392D01*
X130234108Y-110000500D01*
X130234110Y-110000500D01*
X130365890Y-110000500D01*
X130365892Y-110000500D01*
X130493186Y-109966392D01*
X130607314Y-109900500D01*
X130700500Y-109807314D01*
X130766392Y-109693186D01*
X130800500Y-109565892D01*
X130800500Y-109434108D01*
X130773705Y-109334108D01*
X131199500Y-109334108D01*
X131199500Y-109465891D01*
X131233608Y-109593187D01*
X131247162Y-109616662D01*
X131299500Y-109707314D01*
X131392686Y-109800500D01*
X131506814Y-109866392D01*
X131634108Y-109900500D01*
X131634110Y-109900500D01*
X131765890Y-109900500D01*
X131765892Y-109900500D01*
X131893186Y-109866392D01*
X132007314Y-109800500D01*
X132100500Y-109707314D01*
X132166392Y-109593186D01*
X132200500Y-109465892D01*
X132200500Y-109334108D01*
X132176210Y-109243454D01*
X132637739Y-109243454D01*
X132637739Y-109375238D01*
X132642414Y-109392686D01*
X132671847Y-109502533D01*
X132678948Y-109514832D01*
X132737739Y-109616660D01*
X132830925Y-109709846D01*
X132945053Y-109775738D01*
X133072347Y-109809846D01*
X133072349Y-109809846D01*
X133204129Y-109809846D01*
X133204131Y-109809846D01*
X133331425Y-109775738D01*
X133445553Y-109709846D01*
X133538739Y-109616660D01*
X133580627Y-109544108D01*
X162767000Y-109544108D01*
X162767000Y-109675892D01*
X162775420Y-109707316D01*
X162801108Y-109803187D01*
X162804953Y-109809846D01*
X162867000Y-109917314D01*
X162960186Y-110010500D01*
X163074314Y-110076392D01*
X163201608Y-110110500D01*
X163201610Y-110110500D01*
X163333390Y-110110500D01*
X163333392Y-110110500D01*
X163460686Y-110076392D01*
X163574814Y-110010500D01*
X163668000Y-109917314D01*
X163733892Y-109803186D01*
X163768000Y-109675892D01*
X163768000Y-109544108D01*
X163733892Y-109416814D01*
X163668000Y-109302686D01*
X163574814Y-109209500D01*
X163517750Y-109176554D01*
X163460687Y-109143608D01*
X163397039Y-109126554D01*
X163333392Y-109109500D01*
X163201608Y-109109500D01*
X163074312Y-109143608D01*
X162960186Y-109209500D01*
X162960183Y-109209502D01*
X162867002Y-109302683D01*
X162867000Y-109302686D01*
X162801108Y-109416812D01*
X162776993Y-109506812D01*
X162767000Y-109544108D01*
X133580627Y-109544108D01*
X133604631Y-109502532D01*
X133638739Y-109375238D01*
X133638739Y-109243454D01*
X133604631Y-109116160D01*
X133572410Y-109060353D01*
X133555938Y-108992453D01*
X133578790Y-108926426D01*
X133633711Y-108883236D01*
X133647697Y-108878580D01*
X133693186Y-108866392D01*
X133807314Y-108800500D01*
X133900500Y-108707314D01*
X133966392Y-108593186D01*
X134000500Y-108465892D01*
X134000500Y-108334108D01*
X133966392Y-108206814D01*
X133953590Y-108184641D01*
X133908610Y-108106733D01*
X133908609Y-108106732D01*
X133900500Y-108092686D01*
X133860672Y-108052858D01*
X160721000Y-108052858D01*
X160721000Y-108184642D01*
X160726941Y-108206814D01*
X160755108Y-108311937D01*
X160788054Y-108369000D01*
X160821000Y-108426064D01*
X160914186Y-108519250D01*
X161028314Y-108585142D01*
X161155608Y-108619250D01*
X161155610Y-108619250D01*
X161287390Y-108619250D01*
X161287392Y-108619250D01*
X161414686Y-108585142D01*
X161528814Y-108519250D01*
X161622000Y-108426064D01*
X161687892Y-108311936D01*
X161722000Y-108184642D01*
X161722000Y-108052858D01*
X161687892Y-107925564D01*
X161669731Y-107894108D01*
X162767000Y-107894108D01*
X162767000Y-108025892D01*
X162774226Y-108052860D01*
X162801108Y-108153187D01*
X162819269Y-108184642D01*
X162867000Y-108267314D01*
X162960186Y-108360500D01*
X163074314Y-108426392D01*
X163201608Y-108460500D01*
X163201610Y-108460500D01*
X163333390Y-108460500D01*
X163333392Y-108460500D01*
X163460686Y-108426392D01*
X163574814Y-108360500D01*
X163668000Y-108267314D01*
X163733892Y-108153186D01*
X163768000Y-108025892D01*
X163768000Y-107894108D01*
X163733892Y-107766814D01*
X163668000Y-107652686D01*
X163574814Y-107559500D01*
X163517750Y-107526554D01*
X163460687Y-107493608D01*
X163397039Y-107476554D01*
X163333392Y-107459500D01*
X163201608Y-107459500D01*
X163074312Y-107493608D01*
X162960186Y-107559500D01*
X162960183Y-107559502D01*
X162867002Y-107652683D01*
X162867000Y-107652686D01*
X162801108Y-107766812D01*
X162767000Y-107894108D01*
X161669731Y-107894108D01*
X161622000Y-107811436D01*
X161528814Y-107718250D01*
X161471750Y-107685304D01*
X161414687Y-107652358D01*
X161351039Y-107635304D01*
X161287392Y-107618250D01*
X161155608Y-107618250D01*
X161028312Y-107652358D01*
X160914186Y-107718250D01*
X160914183Y-107718252D01*
X160821002Y-107811433D01*
X160821000Y-107811436D01*
X160755108Y-107925562D01*
X160728226Y-108025890D01*
X160721000Y-108052858D01*
X133860672Y-108052858D01*
X133807314Y-107999500D01*
X133750250Y-107966554D01*
X133693187Y-107933608D01*
X133629539Y-107916554D01*
X133565892Y-107899500D01*
X133434108Y-107899500D01*
X133306812Y-107933608D01*
X133192686Y-107999500D01*
X133192683Y-107999502D01*
X133099502Y-108092683D01*
X133099500Y-108092686D01*
X133033608Y-108206812D01*
X133005441Y-108311936D01*
X132999500Y-108334108D01*
X132999500Y-108465892D01*
X133031452Y-108585141D01*
X133033609Y-108593188D01*
X133033609Y-108593189D01*
X133065827Y-108648992D01*
X133082300Y-108716892D01*
X133059447Y-108782919D01*
X133004526Y-108826110D01*
X132990536Y-108830766D01*
X132945053Y-108842953D01*
X132830925Y-108908846D01*
X132830922Y-108908848D01*
X132737741Y-109002029D01*
X132737739Y-109002032D01*
X132671847Y-109116158D01*
X132646837Y-109209500D01*
X132637739Y-109243454D01*
X132176210Y-109243454D01*
X132166392Y-109206814D01*
X132100500Y-109092686D01*
X132007314Y-108999500D01*
X131950250Y-108966554D01*
X131893187Y-108933608D01*
X131823978Y-108915064D01*
X131765892Y-108899500D01*
X131634108Y-108899500D01*
X131506812Y-108933608D01*
X131392686Y-108999500D01*
X131392683Y-108999502D01*
X131299502Y-109092683D01*
X131299500Y-109092686D01*
X131233608Y-109206812D01*
X131199500Y-109334108D01*
X130773705Y-109334108D01*
X130766392Y-109306814D01*
X130700500Y-109192686D01*
X130607314Y-109099500D01*
X130516877Y-109047286D01*
X130493185Y-109033607D01*
X130447251Y-109021299D01*
X130387591Y-108984934D01*
X130357063Y-108922087D01*
X130365358Y-108852711D01*
X130403866Y-108803144D01*
X130407302Y-108800506D01*
X130407314Y-108800500D01*
X130500500Y-108707314D01*
X130566392Y-108593186D01*
X130600500Y-108465892D01*
X130600500Y-108334108D01*
X130566392Y-108206814D01*
X130500500Y-108092686D01*
X130407314Y-107999500D01*
X130350250Y-107966554D01*
X130293187Y-107933608D01*
X130229539Y-107916554D01*
X130165892Y-107899500D01*
X130034108Y-107899500D01*
X129906812Y-107933608D01*
X129792686Y-107999500D01*
X129792683Y-107999502D01*
X129699502Y-108092683D01*
X129699500Y-108092686D01*
X129633608Y-108206812D01*
X129599500Y-108334108D01*
X129599500Y-108465891D01*
X129633608Y-108593187D01*
X129648656Y-108619250D01*
X129699500Y-108707314D01*
X129792686Y-108800500D01*
X129906814Y-108866392D01*
X129952746Y-108878699D01*
X130012407Y-108915064D01*
X130042936Y-108977911D01*
X130034641Y-109047286D01*
X129996144Y-109096846D01*
X129992687Y-109099498D01*
X129899502Y-109192683D01*
X129899500Y-109192686D01*
X129833608Y-109306812D01*
X129799500Y-109434108D01*
X129799500Y-109447793D01*
X129779815Y-109514832D01*
X129727011Y-109560587D01*
X129657853Y-109570531D01*
X129594297Y-109541506D01*
X129568113Y-109509794D01*
X129514430Y-109416814D01*
X129500500Y-109392686D01*
X129407314Y-109299500D01*
X129350250Y-109266554D01*
X129293187Y-109233608D01*
X129203220Y-109209502D01*
X129165892Y-109199500D01*
X129034108Y-109199500D01*
X128906812Y-109233608D01*
X128792686Y-109299500D01*
X128792683Y-109299502D01*
X128699502Y-109392683D01*
X128699500Y-109392686D01*
X128633608Y-109506812D01*
X128604175Y-109616659D01*
X128599500Y-109634108D01*
X124850500Y-109634108D01*
X124850500Y-106534108D01*
X144399500Y-106534108D01*
X144399500Y-106665891D01*
X144433608Y-106793187D01*
X144466554Y-106850250D01*
X144499500Y-106907314D01*
X144592686Y-107000500D01*
X144706814Y-107066392D01*
X144834108Y-107100500D01*
X144834110Y-107100500D01*
X144965890Y-107100500D01*
X144965892Y-107100500D01*
X145093186Y-107066392D01*
X145207314Y-107000500D01*
X145300500Y-106907314D01*
X145366392Y-106793186D01*
X145400500Y-106665892D01*
X145400500Y-106534108D01*
X145372031Y-106427858D01*
X146349500Y-106427858D01*
X146349500Y-106559641D01*
X146383608Y-106686937D01*
X146410843Y-106734108D01*
X146449500Y-106801064D01*
X146542686Y-106894250D01*
X146656814Y-106960142D01*
X146784108Y-106994250D01*
X146784110Y-106994250D01*
X146915890Y-106994250D01*
X146915892Y-106994250D01*
X147043186Y-106960142D01*
X147157314Y-106894250D01*
X147250500Y-106801064D01*
X147289157Y-106734108D01*
X149699500Y-106734108D01*
X149699500Y-106865892D01*
X149716554Y-106929539D01*
X149733608Y-106993187D01*
X149741766Y-107007316D01*
X149799500Y-107107314D01*
X149892686Y-107200500D01*
X150006814Y-107266392D01*
X150134108Y-107300500D01*
X150134110Y-107300500D01*
X150265890Y-107300500D01*
X150265892Y-107300500D01*
X150393186Y-107266392D01*
X150507314Y-107200500D01*
X150600500Y-107107314D01*
X150666392Y-106993186D01*
X150700500Y-106865892D01*
X150700500Y-106734108D01*
X150673705Y-106634108D01*
X152799500Y-106634108D01*
X152799500Y-106765891D01*
X152833608Y-106893187D01*
X152841766Y-106907316D01*
X152899500Y-107007314D01*
X152992686Y-107100500D01*
X153106814Y-107166392D01*
X153234108Y-107200500D01*
X153234110Y-107200500D01*
X153365890Y-107200500D01*
X153365892Y-107200500D01*
X153493186Y-107166392D01*
X153607314Y-107100500D01*
X153700500Y-107007314D01*
X153766392Y-106893186D01*
X153800500Y-106765892D01*
X153800500Y-106634108D01*
X153766392Y-106506814D01*
X153700500Y-106392686D01*
X153607314Y-106299500D01*
X153550250Y-106266554D01*
X153493187Y-106233608D01*
X153429539Y-106216554D01*
X153365892Y-106199500D01*
X153234108Y-106199500D01*
X153106812Y-106233608D01*
X152992686Y-106299500D01*
X152992683Y-106299502D01*
X152899502Y-106392683D01*
X152899500Y-106392686D01*
X152833608Y-106506812D01*
X152799500Y-106634108D01*
X150673705Y-106634108D01*
X150666392Y-106606814D01*
X150600500Y-106492686D01*
X150507314Y-106399500D01*
X150450250Y-106366554D01*
X150393187Y-106333608D01*
X150329539Y-106316554D01*
X150265892Y-106299500D01*
X150134108Y-106299500D01*
X150006812Y-106333608D01*
X149892686Y-106399500D01*
X149892683Y-106399502D01*
X149799502Y-106492683D01*
X149799500Y-106492686D01*
X149733608Y-106606812D01*
X149712139Y-106686937D01*
X149699500Y-106734108D01*
X147289157Y-106734108D01*
X147316392Y-106686936D01*
X147350500Y-106559642D01*
X147350500Y-106427858D01*
X147316392Y-106300564D01*
X147250500Y-106186436D01*
X147157314Y-106093250D01*
X147100250Y-106060304D01*
X147043187Y-106027358D01*
X146979539Y-106010304D01*
X146915892Y-105993250D01*
X146784108Y-105993250D01*
X146656812Y-106027358D01*
X146542686Y-106093250D01*
X146542683Y-106093252D01*
X146449502Y-106186433D01*
X146449500Y-106186436D01*
X146383608Y-106300562D01*
X146349500Y-106427858D01*
X145372031Y-106427858D01*
X145366392Y-106406814D01*
X145300500Y-106292686D01*
X145207314Y-106199500D01*
X145150250Y-106166554D01*
X145093187Y-106133608D01*
X145029539Y-106116554D01*
X144965892Y-106099500D01*
X144834108Y-106099500D01*
X144706812Y-106133608D01*
X144592686Y-106199500D01*
X144592683Y-106199502D01*
X144499502Y-106292683D01*
X144499500Y-106292686D01*
X144433608Y-106406812D01*
X144399500Y-106534108D01*
X124850500Y-106534108D01*
X124850500Y-104451342D01*
X128906209Y-104451342D01*
X128906209Y-104583126D01*
X128910597Y-104599502D01*
X128940317Y-104710421D01*
X128972631Y-104766390D01*
X129006209Y-104824548D01*
X129099395Y-104917734D01*
X129213523Y-104983626D01*
X129340817Y-105017734D01*
X129340819Y-105017734D01*
X129472599Y-105017734D01*
X129472601Y-105017734D01*
X129599895Y-104983626D01*
X129714023Y-104917734D01*
X129797649Y-104834108D01*
X161099500Y-104834108D01*
X161099500Y-104965892D01*
X161104252Y-104983626D01*
X161133608Y-105093187D01*
X161166554Y-105150250D01*
X161199500Y-105207314D01*
X161292686Y-105300500D01*
X161406814Y-105366392D01*
X161534108Y-105400500D01*
X161534110Y-105400500D01*
X161665890Y-105400500D01*
X161665892Y-105400500D01*
X161793186Y-105366392D01*
X161907314Y-105300500D01*
X162000500Y-105207314D01*
X162066392Y-105093186D01*
X162100500Y-104965892D01*
X162100500Y-104934108D01*
X173849500Y-104934108D01*
X173849500Y-105065891D01*
X173883608Y-105193187D01*
X173891766Y-105207316D01*
X173949500Y-105307314D01*
X174042686Y-105400500D01*
X174156814Y-105466392D01*
X174284108Y-105500500D01*
X174284110Y-105500500D01*
X174415890Y-105500500D01*
X174415892Y-105500500D01*
X174543186Y-105466392D01*
X174657314Y-105400500D01*
X174750500Y-105307314D01*
X174816392Y-105193186D01*
X174850500Y-105065892D01*
X174850500Y-104934108D01*
X174816392Y-104806814D01*
X174750500Y-104692686D01*
X174657314Y-104599500D01*
X174600250Y-104566554D01*
X174543187Y-104533608D01*
X174479539Y-104516554D01*
X174415892Y-104499500D01*
X174284108Y-104499500D01*
X174156812Y-104533608D01*
X174042686Y-104599500D01*
X174042683Y-104599502D01*
X173949502Y-104692683D01*
X173949500Y-104692686D01*
X173883608Y-104806812D01*
X173849500Y-104934108D01*
X162100500Y-104934108D01*
X162100500Y-104834108D01*
X162066392Y-104706814D01*
X162000500Y-104592686D01*
X161907314Y-104499500D01*
X161823906Y-104451344D01*
X161793187Y-104433608D01*
X161729539Y-104416554D01*
X161665892Y-104399500D01*
X161534108Y-104399500D01*
X161406812Y-104433608D01*
X161292686Y-104499500D01*
X161292683Y-104499502D01*
X161199502Y-104592683D01*
X161199500Y-104592686D01*
X161133608Y-104706812D01*
X161117644Y-104766392D01*
X161099500Y-104834108D01*
X129797649Y-104834108D01*
X129807209Y-104824548D01*
X129873101Y-104710420D01*
X129907209Y-104583126D01*
X129907209Y-104451342D01*
X129873101Y-104324048D01*
X129821174Y-104234108D01*
X135899500Y-104234108D01*
X135899500Y-104365892D01*
X135900790Y-104370705D01*
X135933608Y-104493187D01*
X135960718Y-104540142D01*
X135999500Y-104607314D01*
X136092686Y-104700500D01*
X136191521Y-104757563D01*
X136206810Y-104766390D01*
X136206814Y-104766392D01*
X136334108Y-104800500D01*
X136334110Y-104800500D01*
X136465890Y-104800500D01*
X136465892Y-104800500D01*
X136593186Y-104766392D01*
X136707314Y-104700500D01*
X136800500Y-104607314D01*
X136866392Y-104493186D01*
X136900500Y-104365892D01*
X136900500Y-104234108D01*
X136866392Y-104106814D01*
X136800500Y-103992686D01*
X136707314Y-103899500D01*
X136659079Y-103871651D01*
X136593187Y-103833608D01*
X136529539Y-103816554D01*
X136483855Y-103804313D01*
X140846846Y-103804313D01*
X140846846Y-103936096D01*
X140880954Y-104063392D01*
X140906023Y-104106812D01*
X140946846Y-104177519D01*
X141040032Y-104270705D01*
X141154160Y-104336597D01*
X141281454Y-104370705D01*
X141281456Y-104370705D01*
X141413236Y-104370705D01*
X141413238Y-104370705D01*
X141540532Y-104336597D01*
X141654660Y-104270705D01*
X141747846Y-104177519D01*
X141813738Y-104063391D01*
X141828618Y-104007858D01*
X158143500Y-104007858D01*
X158143500Y-104139641D01*
X158177608Y-104266937D01*
X158189759Y-104287982D01*
X158243500Y-104381064D01*
X158336686Y-104474250D01*
X158450814Y-104540142D01*
X158578108Y-104574250D01*
X158578110Y-104574250D01*
X158709890Y-104574250D01*
X158709892Y-104574250D01*
X158837186Y-104540142D01*
X158951314Y-104474250D01*
X159044500Y-104381064D01*
X159110392Y-104266936D01*
X159144500Y-104139642D01*
X159144500Y-104007858D01*
X159110392Y-103880564D01*
X159044500Y-103766436D01*
X158951314Y-103673250D01*
X158894250Y-103640304D01*
X158837187Y-103607358D01*
X158773539Y-103590304D01*
X158709892Y-103573250D01*
X158578108Y-103573250D01*
X158450812Y-103607358D01*
X158336686Y-103673250D01*
X158336683Y-103673252D01*
X158243502Y-103766433D01*
X158243500Y-103766436D01*
X158177608Y-103880562D01*
X158143500Y-104007858D01*
X141828618Y-104007858D01*
X141847846Y-103936097D01*
X141847846Y-103804313D01*
X141813738Y-103677019D01*
X141747846Y-103562891D01*
X141654660Y-103469705D01*
X141597596Y-103436759D01*
X141540533Y-103403813D01*
X141476885Y-103386759D01*
X141413238Y-103369705D01*
X141281454Y-103369705D01*
X141154158Y-103403813D01*
X141040032Y-103469705D01*
X141040029Y-103469707D01*
X140946848Y-103562888D01*
X140946846Y-103562891D01*
X140880954Y-103677017D01*
X140846846Y-103804313D01*
X136483855Y-103804313D01*
X136465892Y-103799500D01*
X136334108Y-103799500D01*
X136206812Y-103833608D01*
X136092686Y-103899500D01*
X136092683Y-103899502D01*
X135999502Y-103992683D01*
X135999500Y-103992686D01*
X135933608Y-104106812D01*
X135914663Y-104177518D01*
X135899500Y-104234108D01*
X129821174Y-104234108D01*
X129807209Y-104209920D01*
X129714023Y-104116734D01*
X129656959Y-104083788D01*
X129599896Y-104050842D01*
X129536248Y-104033788D01*
X129472601Y-104016734D01*
X129340817Y-104016734D01*
X129213521Y-104050842D01*
X129099395Y-104116734D01*
X129099392Y-104116736D01*
X129006211Y-104209917D01*
X129006209Y-104209920D01*
X128940317Y-104324046D01*
X128925039Y-104381066D01*
X128906209Y-104451342D01*
X124850500Y-104451342D01*
X124850500Y-102534108D01*
X145799500Y-102534108D01*
X145799500Y-102665891D01*
X145833608Y-102793187D01*
X145862476Y-102843186D01*
X145899500Y-102907314D01*
X145992686Y-103000500D01*
X146106814Y-103066392D01*
X146234108Y-103100500D01*
X146234110Y-103100500D01*
X146365890Y-103100500D01*
X146365892Y-103100500D01*
X146493186Y-103066392D01*
X146607314Y-103000500D01*
X146700500Y-102907314D01*
X146766392Y-102793186D01*
X146800500Y-102665892D01*
X146800500Y-102584108D01*
X158499500Y-102584108D01*
X158499500Y-102715891D01*
X158533608Y-102843187D01*
X158566554Y-102900250D01*
X158599500Y-102957314D01*
X158692686Y-103050500D01*
X158806814Y-103116392D01*
X158934108Y-103150500D01*
X158934110Y-103150500D01*
X159065890Y-103150500D01*
X159065892Y-103150500D01*
X159193186Y-103116392D01*
X159307314Y-103050500D01*
X159400500Y-102957314D01*
X159466392Y-102843186D01*
X159500500Y-102715892D01*
X159500500Y-102606379D01*
X163724500Y-102606379D01*
X163724500Y-102793620D01*
X163761025Y-102977243D01*
X163761027Y-102977251D01*
X163832676Y-103150228D01*
X163832681Y-103150237D01*
X163936697Y-103305907D01*
X163936700Y-103305911D01*
X164069088Y-103438299D01*
X164069092Y-103438302D01*
X164224762Y-103542318D01*
X164224768Y-103542321D01*
X164224769Y-103542322D01*
X164397749Y-103613973D01*
X164581379Y-103650499D01*
X164581383Y-103650500D01*
X164581384Y-103650500D01*
X165288617Y-103650500D01*
X165288618Y-103650499D01*
X165472251Y-103613973D01*
X165645231Y-103542322D01*
X165800908Y-103438302D01*
X165933302Y-103305908D01*
X166037322Y-103150231D01*
X166108973Y-102977251D01*
X166145500Y-102793616D01*
X166145500Y-102606384D01*
X166108973Y-102422749D01*
X166037322Y-102249769D01*
X166037321Y-102249768D01*
X166037318Y-102249762D01*
X165933302Y-102094092D01*
X165933299Y-102094088D01*
X165800911Y-101961700D01*
X165800907Y-101961697D01*
X165645237Y-101857681D01*
X165645228Y-101857676D01*
X165472251Y-101786027D01*
X165472243Y-101786025D01*
X165288620Y-101749500D01*
X165288616Y-101749500D01*
X164581384Y-101749500D01*
X164581379Y-101749500D01*
X164397756Y-101786025D01*
X164397748Y-101786027D01*
X164224771Y-101857676D01*
X164224762Y-101857681D01*
X164069092Y-101961697D01*
X164069088Y-101961700D01*
X163936700Y-102094088D01*
X163936697Y-102094092D01*
X163832681Y-102249762D01*
X163832676Y-102249771D01*
X163761027Y-102422748D01*
X163761025Y-102422756D01*
X163724500Y-102606379D01*
X159500500Y-102606379D01*
X159500500Y-102584108D01*
X159466392Y-102456814D01*
X159400500Y-102342686D01*
X159307314Y-102249500D01*
X159240902Y-102211157D01*
X159193187Y-102183608D01*
X159129539Y-102166554D01*
X159065892Y-102149500D01*
X158934108Y-102149500D01*
X158806812Y-102183608D01*
X158692686Y-102249500D01*
X158692683Y-102249502D01*
X158599502Y-102342683D01*
X158599500Y-102342686D01*
X158533608Y-102456812D01*
X158499500Y-102584108D01*
X146800500Y-102584108D01*
X146800500Y-102534108D01*
X146766392Y-102406814D01*
X146700500Y-102292686D01*
X146607314Y-102199500D01*
X146520712Y-102149500D01*
X146493187Y-102133608D01*
X146471645Y-102127836D01*
X146365892Y-102099500D01*
X146234108Y-102099500D01*
X146106812Y-102133608D01*
X145992686Y-102199500D01*
X145992683Y-102199502D01*
X145899502Y-102292683D01*
X145899500Y-102292686D01*
X145833608Y-102406812D01*
X145799500Y-102534108D01*
X124850500Y-102534108D01*
X124850500Y-102009108D01*
X153612000Y-102009108D01*
X153612000Y-102140892D01*
X153623446Y-102183608D01*
X153646108Y-102268187D01*
X153679054Y-102325250D01*
X153712000Y-102382314D01*
X153805186Y-102475500D01*
X153919314Y-102541392D01*
X154046608Y-102575500D01*
X154046610Y-102575500D01*
X154178390Y-102575500D01*
X154178392Y-102575500D01*
X154305686Y-102541392D01*
X154419814Y-102475500D01*
X154513000Y-102382314D01*
X154578892Y-102268186D01*
X154613000Y-102140892D01*
X154613000Y-102009108D01*
X154578892Y-101881814D01*
X154513000Y-101767686D01*
X154419814Y-101674500D01*
X154362750Y-101641554D01*
X154305687Y-101608608D01*
X154242039Y-101591554D01*
X154178392Y-101574500D01*
X154046608Y-101574500D01*
X153919312Y-101608608D01*
X153805186Y-101674500D01*
X153805183Y-101674502D01*
X153712002Y-101767683D01*
X153712000Y-101767686D01*
X153646108Y-101881812D01*
X153624703Y-101961698D01*
X153612000Y-102009108D01*
X124850500Y-102009108D01*
X124850500Y-101134108D01*
X152099500Y-101134108D01*
X152099500Y-101265892D01*
X152115573Y-101325876D01*
X152133608Y-101393187D01*
X152146717Y-101415892D01*
X152199500Y-101507314D01*
X152292686Y-101600500D01*
X152406814Y-101666392D01*
X152534108Y-101700500D01*
X152534110Y-101700500D01*
X152665890Y-101700500D01*
X152665892Y-101700500D01*
X152793186Y-101666392D01*
X152907314Y-101600500D01*
X153000500Y-101507314D01*
X153066392Y-101393186D01*
X153095619Y-101284108D01*
X155062000Y-101284108D01*
X155062000Y-101415891D01*
X155096108Y-101543187D01*
X155114187Y-101574500D01*
X155162000Y-101657314D01*
X155255186Y-101750500D01*
X155369314Y-101816392D01*
X155496608Y-101850500D01*
X155496610Y-101850500D01*
X155628390Y-101850500D01*
X155628392Y-101850500D01*
X155755686Y-101816392D01*
X155869814Y-101750500D01*
X155963000Y-101657314D01*
X156028892Y-101543186D01*
X156063000Y-101415892D01*
X156063000Y-101284108D01*
X156028892Y-101156814D01*
X155963000Y-101042686D01*
X155869814Y-100949500D01*
X155771410Y-100892686D01*
X155755687Y-100883608D01*
X155692039Y-100866554D01*
X155628392Y-100849500D01*
X155496608Y-100849500D01*
X155369312Y-100883608D01*
X155255186Y-100949500D01*
X155255183Y-100949502D01*
X155162002Y-101042683D01*
X155162000Y-101042686D01*
X155096108Y-101156812D01*
X155062000Y-101284108D01*
X153095619Y-101284108D01*
X153100500Y-101265892D01*
X153100500Y-101134108D01*
X153066392Y-101006814D01*
X153000500Y-100892686D01*
X152907314Y-100799500D01*
X152850250Y-100766554D01*
X152793187Y-100733608D01*
X152729539Y-100716554D01*
X152665892Y-100699500D01*
X152534108Y-100699500D01*
X152406812Y-100733608D01*
X152292686Y-100799500D01*
X152292683Y-100799502D01*
X152199502Y-100892683D01*
X152199500Y-100892686D01*
X152133608Y-101006812D01*
X152123997Y-101042683D01*
X152099500Y-101134108D01*
X124850500Y-101134108D01*
X124850500Y-99606379D01*
X163724500Y-99606379D01*
X163724500Y-99793620D01*
X163761025Y-99977243D01*
X163761027Y-99977251D01*
X163832676Y-100150228D01*
X163832681Y-100150237D01*
X163936697Y-100305907D01*
X163936700Y-100305911D01*
X164069088Y-100438299D01*
X164069092Y-100438302D01*
X164224762Y-100542318D01*
X164224768Y-100542321D01*
X164224769Y-100542322D01*
X164397749Y-100613973D01*
X164581379Y-100650499D01*
X164581383Y-100650500D01*
X164581384Y-100650500D01*
X165288617Y-100650500D01*
X165288618Y-100650499D01*
X165472251Y-100613973D01*
X165645231Y-100542322D01*
X165800908Y-100438302D01*
X165803952Y-100435258D01*
X167504500Y-100435258D01*
X167504500Y-100664741D01*
X167522243Y-100799502D01*
X167534452Y-100892238D01*
X167549795Y-100949500D01*
X167593842Y-101113887D01*
X167681650Y-101325876D01*
X167681657Y-101325890D01*
X167733619Y-101415891D01*
X167786401Y-101507313D01*
X167796392Y-101524617D01*
X167936081Y-101706661D01*
X167936089Y-101706670D01*
X168098330Y-101868911D01*
X168098338Y-101868918D01*
X168098339Y-101868919D01*
X168115144Y-101881814D01*
X168280382Y-102008607D01*
X168280385Y-102008608D01*
X168280388Y-102008611D01*
X168479112Y-102123344D01*
X168479117Y-102123346D01*
X168479123Y-102123349D01*
X168521476Y-102140892D01*
X168691113Y-102211158D01*
X168912762Y-102270548D01*
X169140266Y-102300500D01*
X169140273Y-102300500D01*
X169369727Y-102300500D01*
X169369734Y-102300500D01*
X169597238Y-102270548D01*
X169818887Y-102211158D01*
X170030888Y-102123344D01*
X170229612Y-102008611D01*
X170411661Y-101868919D01*
X170411665Y-101868914D01*
X170411670Y-101868911D01*
X170573911Y-101706670D01*
X170573914Y-101706665D01*
X170573919Y-101706661D01*
X170713611Y-101524612D01*
X170828344Y-101325888D01*
X170916158Y-101113887D01*
X170975548Y-100892238D01*
X171005500Y-100664734D01*
X171005500Y-100435266D01*
X170975548Y-100207762D01*
X170916158Y-99986113D01*
X170836425Y-99793620D01*
X170828349Y-99774123D01*
X170828346Y-99774117D01*
X170828344Y-99774112D01*
X170713611Y-99575388D01*
X170713608Y-99575385D01*
X170713607Y-99575382D01*
X170573918Y-99393338D01*
X170573911Y-99393330D01*
X170411670Y-99231089D01*
X170411661Y-99231081D01*
X170229617Y-99091392D01*
X170030890Y-98976657D01*
X170030876Y-98976650D01*
X169818887Y-98888842D01*
X169597238Y-98829452D01*
X169559215Y-98824446D01*
X169369741Y-98799500D01*
X169369734Y-98799500D01*
X169140266Y-98799500D01*
X169140258Y-98799500D01*
X168923715Y-98828009D01*
X168912762Y-98829452D01*
X168819076Y-98854554D01*
X168691112Y-98888842D01*
X168479123Y-98976650D01*
X168479109Y-98976657D01*
X168280382Y-99091392D01*
X168098338Y-99231081D01*
X167936081Y-99393338D01*
X167796392Y-99575382D01*
X167681657Y-99774109D01*
X167681650Y-99774123D01*
X167593842Y-99986112D01*
X167534453Y-100207759D01*
X167534451Y-100207770D01*
X167504500Y-100435258D01*
X165803952Y-100435258D01*
X165895685Y-100343526D01*
X165933299Y-100305911D01*
X165933302Y-100305908D01*
X166037322Y-100150231D01*
X166108973Y-99977251D01*
X166145500Y-99793616D01*
X166145500Y-99606384D01*
X166108973Y-99422749D01*
X166037322Y-99249769D01*
X166037321Y-99249768D01*
X166037318Y-99249762D01*
X165933302Y-99094092D01*
X165933299Y-99094088D01*
X165800911Y-98961700D01*
X165800907Y-98961697D01*
X165645237Y-98857681D01*
X165645228Y-98857676D01*
X165472251Y-98786027D01*
X165472243Y-98786025D01*
X165288620Y-98749500D01*
X165288616Y-98749500D01*
X164581384Y-98749500D01*
X164581379Y-98749500D01*
X164397756Y-98786025D01*
X164397748Y-98786027D01*
X164224771Y-98857676D01*
X164224762Y-98857681D01*
X164069092Y-98961697D01*
X164069088Y-98961700D01*
X163936700Y-99094088D01*
X163936697Y-99094092D01*
X163832681Y-99249762D01*
X163832676Y-99249771D01*
X163761027Y-99422748D01*
X163761025Y-99422756D01*
X163724500Y-99606379D01*
X124850500Y-99606379D01*
X124850500Y-97129778D01*
X126609500Y-97129778D01*
X126609500Y-97350221D01*
X126643985Y-97567952D01*
X126712103Y-97777603D01*
X126712104Y-97777606D01*
X126812187Y-97974025D01*
X126941752Y-98152358D01*
X126941756Y-98152363D01*
X127097636Y-98308243D01*
X127097641Y-98308247D01*
X127224618Y-98400500D01*
X127275978Y-98437815D01*
X127399001Y-98500499D01*
X127472393Y-98537895D01*
X127472396Y-98537896D01*
X127577221Y-98571955D01*
X127682049Y-98606015D01*
X127899778Y-98640500D01*
X127899779Y-98640500D01*
X128120221Y-98640500D01*
X128120222Y-98640500D01*
X128337951Y-98606015D01*
X128547606Y-98537895D01*
X128744022Y-98437815D01*
X128922365Y-98308242D01*
X129078242Y-98152365D01*
X129207815Y-97974022D01*
X129307895Y-97777606D01*
X129376015Y-97567951D01*
X129410500Y-97350222D01*
X129410500Y-97129778D01*
X131689500Y-97129778D01*
X131689500Y-97350221D01*
X131723985Y-97567952D01*
X131792103Y-97777603D01*
X131792104Y-97777606D01*
X131892187Y-97974025D01*
X132021752Y-98152358D01*
X132021756Y-98152363D01*
X132177636Y-98308243D01*
X132177641Y-98308247D01*
X132304618Y-98400500D01*
X132355978Y-98437815D01*
X132479001Y-98500499D01*
X132552393Y-98537895D01*
X132552396Y-98537896D01*
X132657221Y-98571955D01*
X132762049Y-98606015D01*
X132979778Y-98640500D01*
X132979779Y-98640500D01*
X133200221Y-98640500D01*
X133200222Y-98640500D01*
X133417951Y-98606015D01*
X133627606Y-98537895D01*
X133824022Y-98437815D01*
X134002365Y-98308242D01*
X134158242Y-98152365D01*
X134287815Y-97974022D01*
X134308152Y-97934108D01*
X148599500Y-97934108D01*
X148599500Y-98065891D01*
X148633608Y-98193187D01*
X148666554Y-98250250D01*
X148699500Y-98307314D01*
X148792686Y-98400500D01*
X148906814Y-98466392D01*
X149034108Y-98500500D01*
X149034110Y-98500500D01*
X149165890Y-98500500D01*
X149165892Y-98500500D01*
X149293186Y-98466392D01*
X149407314Y-98400500D01*
X149500500Y-98307314D01*
X149566392Y-98193186D01*
X149600500Y-98065892D01*
X149600500Y-97934108D01*
X149566392Y-97806814D01*
X149500500Y-97692686D01*
X149407314Y-97599500D01*
X149350250Y-97566554D01*
X149293187Y-97533608D01*
X149229539Y-97516554D01*
X149165892Y-97499500D01*
X149034108Y-97499500D01*
X148906812Y-97533608D01*
X148792686Y-97599500D01*
X148792683Y-97599502D01*
X148699502Y-97692683D01*
X148699500Y-97692686D01*
X148633608Y-97806812D01*
X148599500Y-97934108D01*
X134308152Y-97934108D01*
X134387895Y-97777606D01*
X134456015Y-97567951D01*
X134490500Y-97350222D01*
X134490500Y-97134108D01*
X141699500Y-97134108D01*
X141699500Y-97265892D01*
X141716554Y-97329539D01*
X141733608Y-97393187D01*
X141759654Y-97438299D01*
X141799500Y-97507314D01*
X141892686Y-97600500D01*
X142006814Y-97666392D01*
X142134108Y-97700500D01*
X142134110Y-97700500D01*
X142265890Y-97700500D01*
X142265892Y-97700500D01*
X142393186Y-97666392D01*
X142507314Y-97600500D01*
X142600500Y-97507314D01*
X142666392Y-97393186D01*
X142700500Y-97265892D01*
X142700500Y-97134108D01*
X142666392Y-97006814D01*
X142600500Y-96892686D01*
X142507314Y-96799500D01*
X142450250Y-96766554D01*
X142393187Y-96733608D01*
X142375260Y-96728804D01*
X142265892Y-96699500D01*
X142134108Y-96699500D01*
X142006812Y-96733608D01*
X141892686Y-96799500D01*
X141892683Y-96799502D01*
X141799502Y-96892683D01*
X141799500Y-96892686D01*
X141733608Y-97006812D01*
X141700660Y-97129778D01*
X141699500Y-97134108D01*
X134490500Y-97134108D01*
X134490500Y-97129778D01*
X134456015Y-96912049D01*
X134398037Y-96733608D01*
X134387896Y-96702396D01*
X134387895Y-96702393D01*
X134338972Y-96606379D01*
X163724500Y-96606379D01*
X163724500Y-96793620D01*
X163761025Y-96977243D01*
X163761027Y-96977251D01*
X163832676Y-97150228D01*
X163832681Y-97150237D01*
X163936697Y-97305907D01*
X163936700Y-97305911D01*
X164069088Y-97438299D01*
X164069092Y-97438302D01*
X164224762Y-97542318D01*
X164224768Y-97542321D01*
X164224769Y-97542322D01*
X164397749Y-97613973D01*
X164581379Y-97650499D01*
X164581383Y-97650500D01*
X164581384Y-97650500D01*
X165288617Y-97650500D01*
X165288618Y-97650499D01*
X165472251Y-97613973D01*
X165645231Y-97542322D01*
X165800908Y-97438302D01*
X165933302Y-97305908D01*
X166037322Y-97150231D01*
X166108973Y-96977251D01*
X166145500Y-96793616D01*
X166145500Y-96606384D01*
X166108973Y-96422749D01*
X166037322Y-96249769D01*
X166037321Y-96249768D01*
X166037318Y-96249762D01*
X165933302Y-96094092D01*
X165933299Y-96094088D01*
X165800911Y-95961700D01*
X165800907Y-95961697D01*
X165645237Y-95857681D01*
X165645228Y-95857676D01*
X165616478Y-95845768D01*
X165472251Y-95786027D01*
X165472243Y-95786025D01*
X165288620Y-95749500D01*
X165288616Y-95749500D01*
X164581384Y-95749500D01*
X164581379Y-95749500D01*
X164397756Y-95786025D01*
X164397748Y-95786027D01*
X164224771Y-95857676D01*
X164224762Y-95857681D01*
X164069092Y-95961697D01*
X164069088Y-95961700D01*
X163936700Y-96094088D01*
X163936697Y-96094092D01*
X163832681Y-96249762D01*
X163832676Y-96249771D01*
X163761027Y-96422748D01*
X163761025Y-96422756D01*
X163724500Y-96606379D01*
X134338972Y-96606379D01*
X134287815Y-96505978D01*
X134227345Y-96422748D01*
X134158247Y-96327641D01*
X134158243Y-96327636D01*
X134002363Y-96171756D01*
X134002358Y-96171752D01*
X133824025Y-96042187D01*
X133824024Y-96042186D01*
X133824022Y-96042185D01*
X133737099Y-95997895D01*
X133627606Y-95942104D01*
X133627603Y-95942103D01*
X133417952Y-95873985D01*
X133239796Y-95845768D01*
X133200222Y-95839500D01*
X132979778Y-95839500D01*
X132940204Y-95845768D01*
X132762047Y-95873985D01*
X132552396Y-95942103D01*
X132552393Y-95942104D01*
X132355974Y-96042187D01*
X132177641Y-96171752D01*
X132177636Y-96171756D01*
X132021756Y-96327636D01*
X132021752Y-96327641D01*
X131892187Y-96505974D01*
X131792104Y-96702393D01*
X131792103Y-96702396D01*
X131723985Y-96912047D01*
X131689500Y-97129778D01*
X129410500Y-97129778D01*
X129376015Y-96912049D01*
X129318037Y-96733608D01*
X129307896Y-96702396D01*
X129307895Y-96702393D01*
X129258972Y-96606379D01*
X129207815Y-96505978D01*
X129147345Y-96422748D01*
X129078247Y-96327641D01*
X129078243Y-96327636D01*
X128922363Y-96171756D01*
X128922358Y-96171752D01*
X128744025Y-96042187D01*
X128744024Y-96042186D01*
X128744022Y-96042185D01*
X128657099Y-95997895D01*
X128547606Y-95942104D01*
X128547603Y-95942103D01*
X128337952Y-95873985D01*
X128159796Y-95845768D01*
X128120222Y-95839500D01*
X127899778Y-95839500D01*
X127860204Y-95845768D01*
X127682047Y-95873985D01*
X127472396Y-95942103D01*
X127472393Y-95942104D01*
X127275974Y-96042187D01*
X127097641Y-96171752D01*
X127097636Y-96171756D01*
X126941756Y-96327636D01*
X126941752Y-96327641D01*
X126812187Y-96505974D01*
X126712104Y-96702393D01*
X126712103Y-96702396D01*
X126643985Y-96912047D01*
X126609500Y-97129778D01*
X124850500Y-97129778D01*
X124850500Y-94589778D01*
X129149500Y-94589778D01*
X129149500Y-94810221D01*
X129183985Y-95027952D01*
X129252103Y-95237603D01*
X129252104Y-95237606D01*
X129352187Y-95434025D01*
X129481752Y-95612358D01*
X129481756Y-95612363D01*
X129637636Y-95768243D01*
X129637641Y-95768247D01*
X129744341Y-95845768D01*
X129815978Y-95897815D01*
X129941352Y-95961697D01*
X130012393Y-95997895D01*
X130012396Y-95997896D01*
X130117221Y-96031955D01*
X130222049Y-96066015D01*
X130439778Y-96100500D01*
X130439779Y-96100500D01*
X130660221Y-96100500D01*
X130660222Y-96100500D01*
X130877951Y-96066015D01*
X131087606Y-95997895D01*
X131284022Y-95897815D01*
X131462365Y-95768242D01*
X131618242Y-95612365D01*
X131747815Y-95434022D01*
X131847895Y-95237606D01*
X131849032Y-95234108D01*
X145749500Y-95234108D01*
X145749500Y-95365891D01*
X145783608Y-95493187D01*
X145792023Y-95507762D01*
X145849500Y-95607314D01*
X145942686Y-95700500D01*
X146056814Y-95766392D01*
X146184108Y-95800500D01*
X146184110Y-95800500D01*
X146315890Y-95800500D01*
X146315892Y-95800500D01*
X146443186Y-95766392D01*
X146497112Y-95735258D01*
X167504500Y-95735258D01*
X167504500Y-95964741D01*
X167522374Y-96100500D01*
X167534452Y-96192238D01*
X167570733Y-96327641D01*
X167593842Y-96413887D01*
X167681650Y-96625876D01*
X167681657Y-96625890D01*
X167796392Y-96824617D01*
X167936081Y-97006661D01*
X167936089Y-97006670D01*
X168098330Y-97168911D01*
X168098338Y-97168918D01*
X168280382Y-97308607D01*
X168280385Y-97308608D01*
X168280388Y-97308611D01*
X168479112Y-97423344D01*
X168479117Y-97423346D01*
X168479123Y-97423349D01*
X168570480Y-97461190D01*
X168691113Y-97511158D01*
X168912762Y-97570548D01*
X169129312Y-97599057D01*
X169132685Y-97599502D01*
X169140266Y-97600500D01*
X169140273Y-97600500D01*
X169369727Y-97600500D01*
X169369734Y-97600500D01*
X169597238Y-97570548D01*
X169818887Y-97511158D01*
X170030888Y-97423344D01*
X170229612Y-97308611D01*
X170411661Y-97168919D01*
X170411665Y-97168914D01*
X170411670Y-97168911D01*
X170573911Y-97006670D01*
X170573914Y-97006665D01*
X170573919Y-97006661D01*
X170713611Y-96824612D01*
X170828344Y-96625888D01*
X170916158Y-96413887D01*
X170975548Y-96192238D01*
X171005500Y-95964734D01*
X171005500Y-95735266D01*
X170975548Y-95507762D01*
X170916158Y-95286113D01*
X170841889Y-95106812D01*
X170828349Y-95074123D01*
X170828346Y-95074117D01*
X170828344Y-95074112D01*
X170713611Y-94875388D01*
X170713608Y-94875385D01*
X170713607Y-94875382D01*
X170591608Y-94716392D01*
X170573919Y-94693339D01*
X170573918Y-94693338D01*
X170573911Y-94693330D01*
X170411670Y-94531089D01*
X170411661Y-94531081D01*
X170229617Y-94391392D01*
X170042516Y-94283369D01*
X170042515Y-94283369D01*
X170030889Y-94276657D01*
X170030888Y-94276656D01*
X170030886Y-94276655D01*
X170030876Y-94276650D01*
X169818887Y-94188842D01*
X169801219Y-94184108D01*
X173599500Y-94184108D01*
X173599500Y-94315891D01*
X173633608Y-94443187D01*
X173647005Y-94466391D01*
X173699500Y-94557314D01*
X173792686Y-94650500D01*
X173906814Y-94716392D01*
X174034108Y-94750500D01*
X174034110Y-94750500D01*
X174165890Y-94750500D01*
X174165892Y-94750500D01*
X174293186Y-94716392D01*
X174407314Y-94650500D01*
X174500500Y-94557314D01*
X174566392Y-94443186D01*
X174600500Y-94315892D01*
X174600500Y-94184108D01*
X174566392Y-94056814D01*
X174500500Y-93942686D01*
X174407314Y-93849500D01*
X174333380Y-93806814D01*
X174293187Y-93783608D01*
X174229539Y-93766554D01*
X174165892Y-93749500D01*
X174034108Y-93749500D01*
X173906812Y-93783608D01*
X173792686Y-93849500D01*
X173792683Y-93849502D01*
X173699502Y-93942683D01*
X173699500Y-93942686D01*
X173633608Y-94056812D01*
X173599500Y-94184108D01*
X169801219Y-94184108D01*
X169597238Y-94129452D01*
X169559215Y-94124446D01*
X169369741Y-94099500D01*
X169369734Y-94099500D01*
X169140266Y-94099500D01*
X169140258Y-94099500D01*
X168923715Y-94128009D01*
X168912762Y-94129452D01*
X168819076Y-94154554D01*
X168691112Y-94188842D01*
X168479123Y-94276650D01*
X168479109Y-94276657D01*
X168280382Y-94391392D01*
X168098338Y-94531081D01*
X167936081Y-94693338D01*
X167796392Y-94875382D01*
X167681657Y-95074109D01*
X167681650Y-95074123D01*
X167593842Y-95286112D01*
X167534453Y-95507759D01*
X167534451Y-95507770D01*
X167504500Y-95735258D01*
X146497112Y-95735258D01*
X146557314Y-95700500D01*
X146650500Y-95607314D01*
X146716392Y-95493186D01*
X146750500Y-95365892D01*
X146750500Y-95234108D01*
X146716392Y-95106814D01*
X146650500Y-94992686D01*
X146557314Y-94899500D01*
X146500250Y-94866554D01*
X146443187Y-94833608D01*
X146355907Y-94810222D01*
X146315892Y-94799500D01*
X146184108Y-94799500D01*
X146056812Y-94833608D01*
X145942686Y-94899500D01*
X145942683Y-94899502D01*
X145849502Y-94992683D01*
X145849500Y-94992686D01*
X145783608Y-95106812D01*
X145749500Y-95234108D01*
X131849032Y-95234108D01*
X131916015Y-95027951D01*
X131950500Y-94810222D01*
X131950500Y-94634108D01*
X140199500Y-94634108D01*
X140199500Y-94765891D01*
X140233608Y-94893187D01*
X140266554Y-94950250D01*
X140299500Y-95007314D01*
X140392686Y-95100500D01*
X140491521Y-95157563D01*
X140506810Y-95166390D01*
X140506814Y-95166392D01*
X140634108Y-95200500D01*
X140634110Y-95200500D01*
X140765890Y-95200500D01*
X140765892Y-95200500D01*
X140893186Y-95166392D01*
X141007314Y-95100500D01*
X141100500Y-95007314D01*
X141166392Y-94893186D01*
X141200500Y-94765892D01*
X141200500Y-94634108D01*
X141166392Y-94506814D01*
X141100500Y-94392686D01*
X141007314Y-94299500D01*
X140928965Y-94254265D01*
X140893187Y-94233608D01*
X140829539Y-94216554D01*
X140765892Y-94199500D01*
X140634108Y-94199500D01*
X140506812Y-94233608D01*
X140392686Y-94299500D01*
X140392683Y-94299502D01*
X140299502Y-94392683D01*
X140299500Y-94392686D01*
X140233608Y-94506812D01*
X140199500Y-94634108D01*
X131950500Y-94634108D01*
X131950500Y-94589778D01*
X131916015Y-94372049D01*
X131877743Y-94254258D01*
X131847896Y-94162396D01*
X131847893Y-94162388D01*
X131756120Y-93982277D01*
X131756119Y-93982275D01*
X131747814Y-93965976D01*
X131724661Y-93934108D01*
X149499500Y-93934108D01*
X149499500Y-94065891D01*
X149533608Y-94193187D01*
X149537253Y-94199500D01*
X149599500Y-94307314D01*
X149692686Y-94400500D01*
X149806814Y-94466392D01*
X149934108Y-94500500D01*
X149934110Y-94500500D01*
X150065890Y-94500500D01*
X150065892Y-94500500D01*
X150193186Y-94466392D01*
X150307314Y-94400500D01*
X150400500Y-94307314D01*
X150466392Y-94193186D01*
X150500500Y-94065892D01*
X150500500Y-93934108D01*
X150466392Y-93806814D01*
X150400500Y-93692686D01*
X150307314Y-93599500D01*
X150239764Y-93560500D01*
X150193187Y-93533608D01*
X150129539Y-93516554D01*
X150065892Y-93499500D01*
X149934108Y-93499500D01*
X149806812Y-93533608D01*
X149692686Y-93599500D01*
X149692683Y-93599502D01*
X149599502Y-93692683D01*
X149599500Y-93692686D01*
X149533608Y-93806812D01*
X149499500Y-93934108D01*
X131724661Y-93934108D01*
X131618247Y-93787641D01*
X131618243Y-93787636D01*
X131462363Y-93631756D01*
X131462358Y-93631752D01*
X131284025Y-93502187D01*
X131284024Y-93502186D01*
X131284022Y-93502185D01*
X131197099Y-93457895D01*
X131087606Y-93402104D01*
X131087603Y-93402103D01*
X130877952Y-93333985D01*
X130763704Y-93315890D01*
X130660222Y-93299500D01*
X130439778Y-93299500D01*
X130367201Y-93310995D01*
X130222047Y-93333985D01*
X130012396Y-93402103D01*
X130012393Y-93402104D01*
X129815974Y-93502187D01*
X129637641Y-93631752D01*
X129637636Y-93631756D01*
X129481756Y-93787636D01*
X129481752Y-93787641D01*
X129352187Y-93965974D01*
X129252104Y-94162393D01*
X129252103Y-94162396D01*
X129183985Y-94372047D01*
X129149500Y-94589778D01*
X124850500Y-94589778D01*
X124850500Y-92049778D01*
X126609500Y-92049778D01*
X126609500Y-92270222D01*
X126614296Y-92300500D01*
X126643985Y-92487952D01*
X126712103Y-92697603D01*
X126712104Y-92697606D01*
X126762854Y-92797206D01*
X126797851Y-92865891D01*
X126812187Y-92894025D01*
X126941752Y-93072358D01*
X126941756Y-93072363D01*
X127097636Y-93228243D01*
X127097641Y-93228247D01*
X127243179Y-93333985D01*
X127275978Y-93357815D01*
X127404375Y-93423237D01*
X127472393Y-93457895D01*
X127472396Y-93457896D01*
X127577221Y-93491955D01*
X127682049Y-93526015D01*
X127899778Y-93560500D01*
X127899779Y-93560500D01*
X128120221Y-93560500D01*
X128120222Y-93560500D01*
X128337951Y-93526015D01*
X128547606Y-93457895D01*
X128744022Y-93357815D01*
X128922365Y-93228242D01*
X129078242Y-93072365D01*
X129207815Y-92894022D01*
X129307895Y-92697606D01*
X129376015Y-92487951D01*
X129410500Y-92270222D01*
X129410500Y-92049778D01*
X131689500Y-92049778D01*
X131689500Y-92270222D01*
X131694296Y-92300500D01*
X131723985Y-92487952D01*
X131792103Y-92697603D01*
X131792104Y-92697606D01*
X131842854Y-92797206D01*
X131877851Y-92865891D01*
X131892187Y-92894025D01*
X132021752Y-93072358D01*
X132021756Y-93072363D01*
X132177636Y-93228243D01*
X132177641Y-93228247D01*
X132323179Y-93333985D01*
X132355978Y-93357815D01*
X132484375Y-93423237D01*
X132552393Y-93457895D01*
X132552396Y-93457896D01*
X132657221Y-93491955D01*
X132762049Y-93526015D01*
X132979778Y-93560500D01*
X132979779Y-93560500D01*
X133200221Y-93560500D01*
X133200222Y-93560500D01*
X133417951Y-93526015D01*
X133627606Y-93457895D01*
X133824022Y-93357815D01*
X134002365Y-93228242D01*
X134158242Y-93072365D01*
X134287815Y-92894022D01*
X134369296Y-92734108D01*
X136199500Y-92734108D01*
X136199500Y-92865891D01*
X136233608Y-92993187D01*
X136266554Y-93050250D01*
X136299500Y-93107314D01*
X136392686Y-93200500D01*
X136506814Y-93266392D01*
X136634108Y-93300500D01*
X136634110Y-93300500D01*
X136765890Y-93300500D01*
X136765892Y-93300500D01*
X136893186Y-93266392D01*
X137007314Y-93200500D01*
X137023706Y-93184108D01*
X154849500Y-93184108D01*
X154849500Y-93315891D01*
X154883608Y-93443187D01*
X154916121Y-93499500D01*
X154949500Y-93557314D01*
X155042686Y-93650500D01*
X155156814Y-93716392D01*
X155284108Y-93750500D01*
X155284110Y-93750500D01*
X155415890Y-93750500D01*
X155415892Y-93750500D01*
X155543186Y-93716392D01*
X155657314Y-93650500D01*
X155750500Y-93557314D01*
X155816392Y-93443186D01*
X155850500Y-93315892D01*
X155850500Y-93184108D01*
X155840217Y-93145731D01*
X163724500Y-93145731D01*
X163724500Y-94254258D01*
X163727354Y-94284698D01*
X163727354Y-94284699D01*
X163772206Y-94412881D01*
X163772207Y-94412882D01*
X163852850Y-94522150D01*
X163962118Y-94602793D01*
X164090302Y-94647646D01*
X164090301Y-94647646D01*
X164094271Y-94648018D01*
X164120735Y-94650500D01*
X165749264Y-94650499D01*
X165779698Y-94647646D01*
X165907882Y-94602793D01*
X166017150Y-94522150D01*
X166097793Y-94412882D01*
X166142646Y-94284698D01*
X166145500Y-94254265D01*
X166145499Y-93145736D01*
X166142646Y-93115302D01*
X166097793Y-92987118D01*
X166017150Y-92877850D01*
X165907882Y-92797207D01*
X165907881Y-92797206D01*
X165779695Y-92752353D01*
X165779698Y-92752353D01*
X165749268Y-92749500D01*
X164120741Y-92749500D01*
X164090301Y-92752354D01*
X164090300Y-92752354D01*
X163962118Y-92797206D01*
X163852850Y-92877850D01*
X163772206Y-92987118D01*
X163727353Y-93115302D01*
X163724500Y-93145731D01*
X155840217Y-93145731D01*
X155816392Y-93056814D01*
X155750500Y-92942686D01*
X155657314Y-92849500D01*
X155600250Y-92816554D01*
X155543187Y-92783608D01*
X155426543Y-92752354D01*
X155415892Y-92749500D01*
X155284108Y-92749500D01*
X155156812Y-92783608D01*
X155042686Y-92849500D01*
X155042683Y-92849502D01*
X154949502Y-92942683D01*
X154949500Y-92942686D01*
X154883608Y-93056812D01*
X154849500Y-93184108D01*
X137023706Y-93184108D01*
X137100500Y-93107314D01*
X137166392Y-92993186D01*
X137200500Y-92865892D01*
X137200500Y-92734108D01*
X137166392Y-92606814D01*
X137100500Y-92492686D01*
X137007314Y-92399500D01*
X136949968Y-92366391D01*
X136893187Y-92333608D01*
X136829539Y-92316554D01*
X136765892Y-92299500D01*
X136634108Y-92299500D01*
X136506812Y-92333608D01*
X136392686Y-92399500D01*
X136392683Y-92399502D01*
X136299502Y-92492683D01*
X136299500Y-92492686D01*
X136233608Y-92606812D01*
X136199500Y-92734108D01*
X134369296Y-92734108D01*
X134387895Y-92697606D01*
X134456015Y-92487951D01*
X134490500Y-92270222D01*
X134490500Y-92049778D01*
X134456341Y-91834108D01*
X153999500Y-91834108D01*
X153999500Y-91965891D01*
X154033608Y-92093187D01*
X154066554Y-92150250D01*
X154099500Y-92207314D01*
X154192686Y-92300500D01*
X154306814Y-92366392D01*
X154434108Y-92400500D01*
X154434110Y-92400500D01*
X154565890Y-92400500D01*
X154565892Y-92400500D01*
X154693186Y-92366392D01*
X154807314Y-92300500D01*
X154900500Y-92207314D01*
X154966392Y-92093186D01*
X155000500Y-91965892D01*
X155000500Y-91834108D01*
X154966392Y-91706814D01*
X154900500Y-91592686D01*
X154807314Y-91499500D01*
X154750250Y-91466554D01*
X154693187Y-91433608D01*
X154629539Y-91416554D01*
X154565892Y-91399500D01*
X154434108Y-91399500D01*
X154306812Y-91433608D01*
X154192686Y-91499500D01*
X154192683Y-91499502D01*
X154099502Y-91592683D01*
X154099500Y-91592686D01*
X154033608Y-91706812D01*
X153999500Y-91834108D01*
X134456341Y-91834108D01*
X134456015Y-91832049D01*
X134413273Y-91700500D01*
X134387896Y-91622396D01*
X134387895Y-91622393D01*
X134353237Y-91554375D01*
X134287815Y-91425978D01*
X134244160Y-91365892D01*
X134195466Y-91298869D01*
X134195463Y-91298866D01*
X134158242Y-91247636D01*
X134158242Y-91247635D01*
X134144715Y-91234108D01*
X138299500Y-91234108D01*
X138299500Y-91365891D01*
X138333608Y-91493187D01*
X138366554Y-91550250D01*
X138399500Y-91607314D01*
X138492686Y-91700500D01*
X138591521Y-91757563D01*
X138606810Y-91766390D01*
X138606814Y-91766392D01*
X138734108Y-91800500D01*
X138734110Y-91800500D01*
X138865890Y-91800500D01*
X138865892Y-91800500D01*
X138993186Y-91766392D01*
X139107314Y-91700500D01*
X139200500Y-91607314D01*
X139266392Y-91493186D01*
X139300500Y-91365892D01*
X139300500Y-91234108D01*
X139266392Y-91106814D01*
X139200500Y-90992686D01*
X139107314Y-90899500D01*
X139042544Y-90862105D01*
X138993187Y-90833608D01*
X138929539Y-90816554D01*
X138865892Y-90799500D01*
X138734108Y-90799500D01*
X138606812Y-90833608D01*
X138492686Y-90899500D01*
X138492683Y-90899502D01*
X138399502Y-90992683D01*
X138399500Y-90992686D01*
X138333608Y-91106812D01*
X138299500Y-91234108D01*
X134144715Y-91234108D01*
X134002365Y-91091758D01*
X134002363Y-91091756D01*
X134002358Y-91091752D01*
X133824025Y-90962187D01*
X133824024Y-90962186D01*
X133824022Y-90962185D01*
X133761096Y-90930122D01*
X133627606Y-90862104D01*
X133627603Y-90862103D01*
X133417952Y-90793985D01*
X133243736Y-90766392D01*
X133200222Y-90759500D01*
X132979778Y-90759500D01*
X132936270Y-90766391D01*
X132762047Y-90793985D01*
X132552396Y-90862103D01*
X132552393Y-90862104D01*
X132355974Y-90962187D01*
X132177641Y-91091752D01*
X132177636Y-91091756D01*
X132021756Y-91247636D01*
X132021752Y-91247641D01*
X131892187Y-91425974D01*
X131792104Y-91622393D01*
X131792103Y-91622396D01*
X131723985Y-91832047D01*
X131702786Y-91965891D01*
X131689500Y-92049778D01*
X129410500Y-92049778D01*
X129376015Y-91832049D01*
X129333273Y-91700500D01*
X129307896Y-91622396D01*
X129307895Y-91622393D01*
X129273237Y-91554375D01*
X129207815Y-91425978D01*
X129164160Y-91365892D01*
X129078247Y-91247641D01*
X129078243Y-91247636D01*
X128922363Y-91091756D01*
X128922358Y-91091752D01*
X128744025Y-90962187D01*
X128744024Y-90962186D01*
X128744022Y-90962185D01*
X128681096Y-90930122D01*
X128547606Y-90862104D01*
X128547603Y-90862103D01*
X128337952Y-90793985D01*
X128163736Y-90766392D01*
X128120222Y-90759500D01*
X127899778Y-90759500D01*
X127856270Y-90766391D01*
X127682047Y-90793985D01*
X127472396Y-90862103D01*
X127472393Y-90862104D01*
X127275974Y-90962187D01*
X127097641Y-91091752D01*
X127097636Y-91091756D01*
X126941756Y-91247636D01*
X126941752Y-91247641D01*
X126812187Y-91425974D01*
X126712104Y-91622393D01*
X126712103Y-91622396D01*
X126643985Y-91832047D01*
X126622786Y-91965891D01*
X126609500Y-92049778D01*
X124850500Y-92049778D01*
X124850500Y-90034108D01*
X144399500Y-90034108D01*
X144399500Y-90165891D01*
X144433608Y-90293187D01*
X144441766Y-90307316D01*
X144499500Y-90407314D01*
X144592686Y-90500500D01*
X144706814Y-90566392D01*
X144834108Y-90600500D01*
X144834110Y-90600500D01*
X144965890Y-90600500D01*
X144965892Y-90600500D01*
X145093186Y-90566392D01*
X145207314Y-90500500D01*
X145300500Y-90407314D01*
X145366392Y-90293186D01*
X145400500Y-90165892D01*
X145400500Y-90034108D01*
X145373705Y-89934108D01*
X146599500Y-89934108D01*
X146599500Y-90065891D01*
X146633608Y-90193187D01*
X146666554Y-90250250D01*
X146699500Y-90307314D01*
X146792686Y-90400500D01*
X146906814Y-90466392D01*
X147034108Y-90500500D01*
X147034110Y-90500500D01*
X147165890Y-90500500D01*
X147165892Y-90500500D01*
X147293186Y-90466392D01*
X147407314Y-90400500D01*
X147500500Y-90307314D01*
X147542766Y-90234108D01*
X156199500Y-90234108D01*
X156199500Y-90365892D01*
X156216554Y-90429539D01*
X156233608Y-90493187D01*
X156266554Y-90550250D01*
X156299500Y-90607314D01*
X156392686Y-90700500D01*
X156506814Y-90766392D01*
X156634108Y-90800500D01*
X156634110Y-90800500D01*
X156765890Y-90800500D01*
X156765892Y-90800500D01*
X156893186Y-90766392D01*
X157007314Y-90700500D01*
X157100500Y-90607314D01*
X157166392Y-90493186D01*
X157200500Y-90365892D01*
X157200500Y-90234108D01*
X157166392Y-90106814D01*
X157100500Y-89992686D01*
X157007314Y-89899500D01*
X156950250Y-89866554D01*
X156893187Y-89833608D01*
X156793188Y-89806814D01*
X156765892Y-89799500D01*
X156634108Y-89799500D01*
X156506812Y-89833608D01*
X156392686Y-89899500D01*
X156392683Y-89899502D01*
X156299502Y-89992683D01*
X156299500Y-89992686D01*
X156233608Y-90106812D01*
X156199500Y-90234108D01*
X147542766Y-90234108D01*
X147566392Y-90193186D01*
X147600500Y-90065892D01*
X147600500Y-89934108D01*
X147566392Y-89806814D01*
X147500500Y-89692686D01*
X147407314Y-89599500D01*
X147322442Y-89550499D01*
X147293187Y-89533608D01*
X147228931Y-89516391D01*
X147165892Y-89499500D01*
X147034108Y-89499500D01*
X146906812Y-89533608D01*
X146792686Y-89599500D01*
X146792683Y-89599502D01*
X146699502Y-89692683D01*
X146699500Y-89692686D01*
X146633608Y-89806812D01*
X146599500Y-89934108D01*
X145373705Y-89934108D01*
X145366392Y-89906814D01*
X145300500Y-89792686D01*
X145207314Y-89699500D01*
X145150250Y-89666554D01*
X145093187Y-89633608D01*
X145029539Y-89616554D01*
X144965892Y-89599500D01*
X144834108Y-89599500D01*
X144706812Y-89633608D01*
X144592686Y-89699500D01*
X144592683Y-89699502D01*
X144499502Y-89792683D01*
X144499500Y-89792686D01*
X144433608Y-89906812D01*
X144399500Y-90034108D01*
X124850500Y-90034108D01*
X124850500Y-88984108D01*
X170899500Y-88984108D01*
X170899500Y-89115891D01*
X170933608Y-89243187D01*
X170966554Y-89300250D01*
X170999500Y-89357314D01*
X171092686Y-89450500D01*
X171206814Y-89516392D01*
X171334108Y-89550500D01*
X171334110Y-89550500D01*
X171465890Y-89550500D01*
X171465892Y-89550500D01*
X171593186Y-89516392D01*
X171707314Y-89450500D01*
X171800500Y-89357314D01*
X171866392Y-89243186D01*
X171900500Y-89115892D01*
X171900500Y-88984108D01*
X171866392Y-88856814D01*
X171800500Y-88742686D01*
X171707314Y-88649500D01*
X171622439Y-88600497D01*
X171593187Y-88583608D01*
X171529539Y-88566554D01*
X171465892Y-88549500D01*
X171334108Y-88549500D01*
X171206812Y-88583608D01*
X171092686Y-88649500D01*
X171092683Y-88649502D01*
X170999502Y-88742683D01*
X170999500Y-88742686D01*
X170933608Y-88856812D01*
X170899500Y-88984108D01*
X124850500Y-88984108D01*
X124850500Y-88134108D01*
X134599500Y-88134108D01*
X134599500Y-88265892D01*
X134600467Y-88269500D01*
X134633608Y-88393187D01*
X134666554Y-88450250D01*
X134699500Y-88507314D01*
X134792686Y-88600500D01*
X134906814Y-88666392D01*
X135034108Y-88700500D01*
X135034110Y-88700500D01*
X135165890Y-88700500D01*
X135165892Y-88700500D01*
X135293186Y-88666392D01*
X135407314Y-88600500D01*
X135500500Y-88507314D01*
X135566392Y-88393186D01*
X135600500Y-88265892D01*
X135600500Y-88134108D01*
X135566392Y-88006814D01*
X135500500Y-87892686D01*
X135407314Y-87799500D01*
X135350250Y-87766554D01*
X135293187Y-87733608D01*
X135229539Y-87716554D01*
X135165892Y-87699500D01*
X135034108Y-87699500D01*
X134906812Y-87733608D01*
X134792686Y-87799500D01*
X134792683Y-87799502D01*
X134699502Y-87892683D01*
X134699500Y-87892686D01*
X134633608Y-88006812D01*
X134618771Y-88062186D01*
X134599500Y-88134108D01*
X124850500Y-88134108D01*
X124850500Y-86734108D01*
X127199500Y-86734108D01*
X127199500Y-86865891D01*
X127233608Y-86993187D01*
X127263034Y-87044154D01*
X127299500Y-87107314D01*
X127392686Y-87200500D01*
X127506814Y-87266392D01*
X127634108Y-87300500D01*
X127634110Y-87300500D01*
X127765890Y-87300500D01*
X127765892Y-87300500D01*
X127821578Y-87285579D01*
X152299500Y-87285579D01*
X152299500Y-87417362D01*
X152333608Y-87544658D01*
X152366554Y-87601721D01*
X152399500Y-87658785D01*
X152492686Y-87751971D01*
X152606814Y-87817863D01*
X152734108Y-87851971D01*
X152734110Y-87851971D01*
X152865890Y-87851971D01*
X152865892Y-87851971D01*
X152993186Y-87817863D01*
X153107314Y-87751971D01*
X153200500Y-87658785D01*
X153266392Y-87544657D01*
X153300500Y-87417363D01*
X153300500Y-87285579D01*
X153266392Y-87158285D01*
X153200500Y-87044157D01*
X153107314Y-86950971D01*
X153078107Y-86934108D01*
X153499500Y-86934108D01*
X153499500Y-87065892D01*
X153516554Y-87129539D01*
X153533608Y-87193187D01*
X153566554Y-87250250D01*
X153599500Y-87307314D01*
X153692686Y-87400500D01*
X153806814Y-87466392D01*
X153934108Y-87500500D01*
X153934110Y-87500500D01*
X154065890Y-87500500D01*
X154065892Y-87500500D01*
X154193186Y-87466392D01*
X154307314Y-87400500D01*
X154320956Y-87386858D01*
X156584750Y-87386858D01*
X156584750Y-87518642D01*
X156601804Y-87582289D01*
X156618858Y-87645937D01*
X156636107Y-87675812D01*
X156684750Y-87760064D01*
X156777936Y-87853250D01*
X156892064Y-87919142D01*
X157019358Y-87953250D01*
X157019360Y-87953250D01*
X157151140Y-87953250D01*
X157151142Y-87953250D01*
X157278436Y-87919142D01*
X157392564Y-87853250D01*
X157442706Y-87803108D01*
X160193500Y-87803108D01*
X160193500Y-87934891D01*
X160227608Y-88062187D01*
X160260554Y-88119250D01*
X160293500Y-88176314D01*
X160386686Y-88269500D01*
X160500814Y-88335392D01*
X160628108Y-88369500D01*
X160628110Y-88369500D01*
X160759890Y-88369500D01*
X160759892Y-88369500D01*
X160887186Y-88335392D01*
X161001314Y-88269500D01*
X161094500Y-88176314D01*
X161160392Y-88062186D01*
X161194500Y-87934892D01*
X161194500Y-87803108D01*
X161160392Y-87675814D01*
X161094500Y-87561686D01*
X161001314Y-87468500D01*
X160944250Y-87435554D01*
X160887187Y-87402608D01*
X160823539Y-87385554D01*
X160759892Y-87368500D01*
X160628108Y-87368500D01*
X160500812Y-87402608D01*
X160386686Y-87468500D01*
X160386683Y-87468502D01*
X160293502Y-87561683D01*
X160293500Y-87561686D01*
X160227608Y-87675812D01*
X160193500Y-87803108D01*
X157442706Y-87803108D01*
X157485750Y-87760064D01*
X157497536Y-87739649D01*
X157501388Y-87732979D01*
X157501388Y-87732978D01*
X157544222Y-87658787D01*
X157551642Y-87645936D01*
X157585750Y-87518642D01*
X157585750Y-87386858D01*
X157551642Y-87259564D01*
X157485750Y-87145436D01*
X157392564Y-87052250D01*
X157335500Y-87019304D01*
X157278437Y-86986358D01*
X157214789Y-86969304D01*
X157151142Y-86952250D01*
X157019358Y-86952250D01*
X156892062Y-86986358D01*
X156777936Y-87052250D01*
X156777933Y-87052252D01*
X156684752Y-87145433D01*
X156684750Y-87145436D01*
X156618858Y-87259562D01*
X156606063Y-87307316D01*
X156584750Y-87386858D01*
X154320956Y-87386858D01*
X154400500Y-87307314D01*
X154466392Y-87193186D01*
X154500500Y-87065892D01*
X154500500Y-86934108D01*
X154466392Y-86806814D01*
X154462747Y-86800500D01*
X154455520Y-86787982D01*
X154455519Y-86787981D01*
X154424415Y-86734108D01*
X170449500Y-86734108D01*
X170449500Y-86865891D01*
X170483608Y-86993187D01*
X170513034Y-87044154D01*
X170549500Y-87107314D01*
X170642686Y-87200500D01*
X170756814Y-87266392D01*
X170884108Y-87300500D01*
X170884110Y-87300500D01*
X171015890Y-87300500D01*
X171015892Y-87300500D01*
X171143186Y-87266392D01*
X171257314Y-87200500D01*
X171350500Y-87107314D01*
X171416392Y-86993186D01*
X171450500Y-86865892D01*
X171450500Y-86734108D01*
X171416392Y-86606814D01*
X171350500Y-86492686D01*
X171257314Y-86399500D01*
X171199100Y-86365890D01*
X171143187Y-86333608D01*
X171079539Y-86316554D01*
X171015892Y-86299500D01*
X170884108Y-86299500D01*
X170756812Y-86333608D01*
X170642686Y-86399500D01*
X170642683Y-86399502D01*
X170549502Y-86492683D01*
X170549500Y-86492686D01*
X170483608Y-86606812D01*
X170449500Y-86734108D01*
X154424415Y-86734108D01*
X154419445Y-86725500D01*
X154400500Y-86692686D01*
X154307314Y-86599500D01*
X154250250Y-86566554D01*
X154193187Y-86533608D01*
X154129539Y-86516554D01*
X154065892Y-86499500D01*
X153934108Y-86499500D01*
X153806812Y-86533608D01*
X153692686Y-86599500D01*
X153692683Y-86599502D01*
X153599502Y-86692683D01*
X153599500Y-86692686D01*
X153533608Y-86806812D01*
X153517778Y-86865892D01*
X153499500Y-86934108D01*
X153078107Y-86934108D01*
X153050250Y-86918025D01*
X152993187Y-86885079D01*
X152921571Y-86865890D01*
X152865892Y-86850971D01*
X152734108Y-86850971D01*
X152606812Y-86885079D01*
X152492686Y-86950971D01*
X152492683Y-86950973D01*
X152399502Y-87044154D01*
X152399500Y-87044157D01*
X152333608Y-87158283D01*
X152299500Y-87285579D01*
X127821578Y-87285579D01*
X127893186Y-87266392D01*
X128007314Y-87200500D01*
X128100500Y-87107314D01*
X128166392Y-86993186D01*
X128200500Y-86865892D01*
X128200500Y-86734108D01*
X128166392Y-86606814D01*
X128100500Y-86492686D01*
X128007314Y-86399500D01*
X127893186Y-86333608D01*
X127765892Y-86299500D01*
X127634108Y-86299500D01*
X127506812Y-86333608D01*
X127392686Y-86399500D01*
X127392683Y-86399502D01*
X127299502Y-86492683D01*
X127299500Y-86492686D01*
X127233608Y-86606812D01*
X127199500Y-86734108D01*
X124850500Y-86734108D01*
X124850500Y-86234108D01*
X140799500Y-86234108D01*
X140799500Y-86365891D01*
X140833608Y-86493187D01*
X140856200Y-86532316D01*
X140899500Y-86607314D01*
X140992686Y-86700500D01*
X141106814Y-86766392D01*
X141234108Y-86800500D01*
X141234110Y-86800500D01*
X141365890Y-86800500D01*
X141365892Y-86800500D01*
X141493186Y-86766392D01*
X141607314Y-86700500D01*
X141700500Y-86607314D01*
X141766392Y-86493186D01*
X141800500Y-86365892D01*
X141800500Y-86234108D01*
X141780404Y-86159108D01*
X149799500Y-86159108D01*
X149799500Y-86290892D01*
X149810946Y-86333608D01*
X149833608Y-86418187D01*
X149866554Y-86475250D01*
X149899500Y-86532314D01*
X149992686Y-86625500D01*
X150106814Y-86691392D01*
X150234108Y-86725500D01*
X150234110Y-86725500D01*
X150365890Y-86725500D01*
X150365892Y-86725500D01*
X150493186Y-86691392D01*
X150607314Y-86625500D01*
X150700500Y-86532314D01*
X150766392Y-86418186D01*
X150800500Y-86290892D01*
X150800500Y-86159108D01*
X150766392Y-86031814D01*
X150700500Y-85917686D01*
X150607314Y-85824500D01*
X150550250Y-85791554D01*
X150493187Y-85758608D01*
X150429539Y-85741554D01*
X150365892Y-85724500D01*
X150234108Y-85724500D01*
X150106812Y-85758608D01*
X149992686Y-85824500D01*
X149992683Y-85824502D01*
X149899502Y-85917683D01*
X149899500Y-85917686D01*
X149833608Y-86031812D01*
X149813512Y-86106814D01*
X149799500Y-86159108D01*
X141780404Y-86159108D01*
X141766392Y-86106814D01*
X141700500Y-85992686D01*
X141607314Y-85899500D01*
X141550250Y-85866554D01*
X141493187Y-85833608D01*
X141429539Y-85816554D01*
X141365892Y-85799500D01*
X141234108Y-85799500D01*
X141106812Y-85833608D01*
X140992686Y-85899500D01*
X140992683Y-85899502D01*
X140899502Y-85992683D01*
X140899500Y-85992686D01*
X140833608Y-86106812D01*
X140799500Y-86234108D01*
X124850500Y-86234108D01*
X124850500Y-83906379D01*
X163619500Y-83906379D01*
X163619500Y-84093620D01*
X163656025Y-84277243D01*
X163656027Y-84277251D01*
X163727676Y-84450228D01*
X163727681Y-84450237D01*
X163831697Y-84605907D01*
X163831700Y-84605911D01*
X163964088Y-84738299D01*
X163964092Y-84738302D01*
X164119762Y-84842318D01*
X164119768Y-84842321D01*
X164119769Y-84842322D01*
X164292749Y-84913973D01*
X164476369Y-84950497D01*
X164476379Y-84950499D01*
X164476383Y-84950500D01*
X164476384Y-84950500D01*
X165183617Y-84950500D01*
X165183618Y-84950499D01*
X165367251Y-84913973D01*
X165540231Y-84842322D01*
X165695908Y-84738302D01*
X165828302Y-84605908D01*
X165909686Y-84484108D01*
X172149500Y-84484108D01*
X172149500Y-84615891D01*
X172183608Y-84743187D01*
X172216554Y-84800250D01*
X172249500Y-84857314D01*
X172342686Y-84950500D01*
X172456814Y-85016392D01*
X172584108Y-85050500D01*
X172584110Y-85050500D01*
X172715890Y-85050500D01*
X172715892Y-85050500D01*
X172843186Y-85016392D01*
X172957314Y-84950500D01*
X173050500Y-84857314D01*
X173116392Y-84743186D01*
X173150500Y-84615892D01*
X173150500Y-84484108D01*
X173116392Y-84356814D01*
X173050500Y-84242686D01*
X172957314Y-84149500D01*
X172900250Y-84116554D01*
X172843187Y-84083608D01*
X172779539Y-84066554D01*
X172715892Y-84049500D01*
X172584108Y-84049500D01*
X172456812Y-84083608D01*
X172342686Y-84149500D01*
X172342683Y-84149502D01*
X172249502Y-84242683D01*
X172249500Y-84242686D01*
X172183608Y-84356812D01*
X172149500Y-84484108D01*
X165909686Y-84484108D01*
X165932322Y-84450231D01*
X166003973Y-84277251D01*
X166040500Y-84093616D01*
X166040500Y-83906384D01*
X166003973Y-83722749D01*
X165932322Y-83549769D01*
X165932321Y-83549768D01*
X165932318Y-83549762D01*
X165828302Y-83394092D01*
X165828299Y-83394088D01*
X165695911Y-83261700D01*
X165695907Y-83261697D01*
X165540237Y-83157681D01*
X165540228Y-83157676D01*
X165367251Y-83086027D01*
X165367243Y-83086025D01*
X165183620Y-83049500D01*
X165183616Y-83049500D01*
X164476384Y-83049500D01*
X164476379Y-83049500D01*
X164292756Y-83086025D01*
X164292748Y-83086027D01*
X164119771Y-83157676D01*
X164119762Y-83157681D01*
X163964092Y-83261697D01*
X163964088Y-83261700D01*
X163831700Y-83394088D01*
X163831697Y-83394092D01*
X163727681Y-83549762D01*
X163727676Y-83549771D01*
X163656027Y-83722748D01*
X163656025Y-83722756D01*
X163619500Y-83906379D01*
X124850500Y-83906379D01*
X124850500Y-82734108D01*
X131999500Y-82734108D01*
X131999500Y-82865891D01*
X132033608Y-82993187D01*
X132041393Y-83006670D01*
X132099500Y-83107314D01*
X132192686Y-83200500D01*
X132306814Y-83266392D01*
X132434108Y-83300500D01*
X132434110Y-83300500D01*
X132565890Y-83300500D01*
X132565892Y-83300500D01*
X132693186Y-83266392D01*
X132807314Y-83200500D01*
X132900500Y-83107314D01*
X132966392Y-82993186D01*
X133000500Y-82865892D01*
X133000500Y-82734108D01*
X132966392Y-82606814D01*
X132900500Y-82492686D01*
X132807314Y-82399500D01*
X132750250Y-82366554D01*
X132693187Y-82333608D01*
X132629539Y-82316554D01*
X132565892Y-82299500D01*
X132434108Y-82299500D01*
X132306812Y-82333608D01*
X132192686Y-82399500D01*
X132192683Y-82399502D01*
X132099502Y-82492683D01*
X132099500Y-82492686D01*
X132033608Y-82606812D01*
X131999500Y-82734108D01*
X124850500Y-82734108D01*
X124850500Y-80334108D01*
X127399500Y-80334108D01*
X127399500Y-80465891D01*
X127433608Y-80593187D01*
X127466554Y-80650250D01*
X127499500Y-80707314D01*
X127592686Y-80800500D01*
X127706814Y-80866392D01*
X127834108Y-80900500D01*
X127834110Y-80900500D01*
X127965890Y-80900500D01*
X127965892Y-80900500D01*
X128093186Y-80866392D01*
X128149103Y-80834108D01*
X135399500Y-80834108D01*
X135399500Y-80965891D01*
X135433608Y-81093187D01*
X135445613Y-81113979D01*
X135499500Y-81207314D01*
X135592686Y-81300500D01*
X135706814Y-81366392D01*
X135834108Y-81400500D01*
X135834110Y-81400500D01*
X135965890Y-81400500D01*
X135965892Y-81400500D01*
X136093186Y-81366392D01*
X136207314Y-81300500D01*
X136300500Y-81207314D01*
X136313898Y-81184108D01*
X146849500Y-81184108D01*
X146849500Y-81315891D01*
X146883608Y-81443187D01*
X146916554Y-81500250D01*
X146949500Y-81557314D01*
X147042686Y-81650500D01*
X147156814Y-81716392D01*
X147284108Y-81750500D01*
X147284110Y-81750500D01*
X147415890Y-81750500D01*
X147415892Y-81750500D01*
X147543186Y-81716392D01*
X147657314Y-81650500D01*
X147750500Y-81557314D01*
X147816392Y-81443186D01*
X147850500Y-81315892D01*
X147850500Y-81184108D01*
X147816392Y-81056814D01*
X147763898Y-80965892D01*
X147761820Y-80962292D01*
X147757560Y-80954915D01*
X147750500Y-80942686D01*
X147714193Y-80906379D01*
X163619500Y-80906379D01*
X163619500Y-81093620D01*
X163656025Y-81277243D01*
X163656027Y-81277251D01*
X163727676Y-81450228D01*
X163727681Y-81450237D01*
X163831697Y-81605907D01*
X163831700Y-81605911D01*
X163964088Y-81738299D01*
X163964092Y-81738302D01*
X164119762Y-81842318D01*
X164119768Y-81842321D01*
X164119769Y-81842322D01*
X164292749Y-81913973D01*
X164476379Y-81950499D01*
X164476383Y-81950500D01*
X164476384Y-81950500D01*
X165183617Y-81950500D01*
X165183618Y-81950499D01*
X165367251Y-81913973D01*
X165540231Y-81842322D01*
X165695908Y-81738302D01*
X165698952Y-81735258D01*
X167399500Y-81735258D01*
X167399500Y-81964741D01*
X167424446Y-82154215D01*
X167429452Y-82192238D01*
X167467332Y-82333608D01*
X167488842Y-82413887D01*
X167576650Y-82625876D01*
X167576657Y-82625890D01*
X167691392Y-82824617D01*
X167831081Y-83006661D01*
X167831089Y-83006670D01*
X167993330Y-83168911D01*
X167993338Y-83168918D01*
X168175382Y-83308607D01*
X168175385Y-83308608D01*
X168175388Y-83308611D01*
X168374112Y-83423344D01*
X168374117Y-83423346D01*
X168374123Y-83423349D01*
X168465480Y-83461190D01*
X168586113Y-83511158D01*
X168807762Y-83570548D01*
X169035266Y-83600500D01*
X169035273Y-83600500D01*
X169264727Y-83600500D01*
X169264734Y-83600500D01*
X169492238Y-83570548D01*
X169713887Y-83511158D01*
X169925888Y-83423344D01*
X170124612Y-83308611D01*
X170306661Y-83168919D01*
X170306665Y-83168914D01*
X170306670Y-83168911D01*
X170468911Y-83006670D01*
X170468914Y-83006665D01*
X170468919Y-83006661D01*
X170608611Y-82824612D01*
X170723344Y-82625888D01*
X170811158Y-82413887D01*
X170870548Y-82192238D01*
X170900500Y-81964734D01*
X170900500Y-81735266D01*
X170870548Y-81507762D01*
X170811158Y-81286113D01*
X170761190Y-81165480D01*
X170723349Y-81074123D01*
X170723346Y-81074117D01*
X170723344Y-81074112D01*
X170608611Y-80875388D01*
X170608608Y-80875385D01*
X170608607Y-80875382D01*
X170468918Y-80693338D01*
X170468911Y-80693330D01*
X170306670Y-80531089D01*
X170306661Y-80531081D01*
X170124617Y-80391392D01*
X169925890Y-80276657D01*
X169925876Y-80276650D01*
X169713887Y-80188842D01*
X169492238Y-80129452D01*
X169454215Y-80124446D01*
X169264741Y-80099500D01*
X169264734Y-80099500D01*
X169035266Y-80099500D01*
X169035258Y-80099500D01*
X168818715Y-80128009D01*
X168807762Y-80129452D01*
X168714076Y-80154554D01*
X168586112Y-80188842D01*
X168374123Y-80276650D01*
X168374109Y-80276657D01*
X168175382Y-80391392D01*
X167993338Y-80531081D01*
X167831081Y-80693338D01*
X167691392Y-80875382D01*
X167576657Y-81074109D01*
X167576650Y-81074123D01*
X167488842Y-81286112D01*
X167429453Y-81507759D01*
X167429451Y-81507770D01*
X167399500Y-81735258D01*
X165698952Y-81735258D01*
X165717819Y-81716391D01*
X165790685Y-81643526D01*
X165828299Y-81605911D01*
X165828302Y-81605908D01*
X165932322Y-81450231D01*
X166003973Y-81277251D01*
X166040500Y-81093616D01*
X166040500Y-80906384D01*
X166003973Y-80722749D01*
X165932322Y-80549769D01*
X165932321Y-80549768D01*
X165932318Y-80549762D01*
X165828302Y-80394092D01*
X165828299Y-80394088D01*
X165695911Y-80261700D01*
X165695907Y-80261697D01*
X165540237Y-80157681D01*
X165540228Y-80157676D01*
X165367251Y-80086027D01*
X165367243Y-80086025D01*
X165183620Y-80049500D01*
X165183616Y-80049500D01*
X164476384Y-80049500D01*
X164476379Y-80049500D01*
X164292756Y-80086025D01*
X164292748Y-80086027D01*
X164119771Y-80157676D01*
X164119762Y-80157681D01*
X163964092Y-80261697D01*
X163964088Y-80261700D01*
X163831700Y-80394088D01*
X163831697Y-80394092D01*
X163727681Y-80549762D01*
X163727676Y-80549771D01*
X163656027Y-80722748D01*
X163656025Y-80722756D01*
X163619500Y-80906379D01*
X147714193Y-80906379D01*
X147657314Y-80849500D01*
X147572439Y-80800497D01*
X147543187Y-80783608D01*
X147479539Y-80766554D01*
X147415892Y-80749500D01*
X147284108Y-80749500D01*
X147156812Y-80783608D01*
X147042686Y-80849500D01*
X147042683Y-80849502D01*
X146949502Y-80942683D01*
X146949500Y-80942686D01*
X146883608Y-81056812D01*
X146849500Y-81184108D01*
X136313898Y-81184108D01*
X136359755Y-81104680D01*
X136366391Y-81093188D01*
X136366392Y-81093186D01*
X136400500Y-80965892D01*
X136400500Y-80834108D01*
X136366392Y-80706814D01*
X136300500Y-80592686D01*
X136207314Y-80499500D01*
X136149100Y-80465890D01*
X136093187Y-80433608D01*
X136029539Y-80416554D01*
X135965892Y-80399500D01*
X135834108Y-80399500D01*
X135706812Y-80433608D01*
X135592686Y-80499500D01*
X135592683Y-80499502D01*
X135499502Y-80592683D01*
X135499500Y-80592686D01*
X135433608Y-80706812D01*
X135399500Y-80834108D01*
X128149103Y-80834108D01*
X128207314Y-80800500D01*
X128300500Y-80707314D01*
X128366392Y-80593186D01*
X128400500Y-80465892D01*
X128400500Y-80334108D01*
X128366392Y-80206814D01*
X128300500Y-80092686D01*
X128207314Y-79999500D01*
X128150250Y-79966554D01*
X128093187Y-79933608D01*
X128027061Y-79915890D01*
X127965892Y-79899500D01*
X127834108Y-79899500D01*
X127706812Y-79933608D01*
X127592686Y-79999500D01*
X127592683Y-79999502D01*
X127499502Y-80092683D01*
X127499500Y-80092686D01*
X127433608Y-80206812D01*
X127399500Y-80334108D01*
X124850500Y-80334108D01*
X124850500Y-79784108D01*
X148749500Y-79784108D01*
X148749500Y-79915891D01*
X148783608Y-80043187D01*
X148787253Y-80049500D01*
X148849500Y-80157314D01*
X148942686Y-80250500D01*
X149056814Y-80316392D01*
X149184108Y-80350500D01*
X149184110Y-80350500D01*
X149315890Y-80350500D01*
X149315892Y-80350500D01*
X149443186Y-80316392D01*
X149557314Y-80250500D01*
X149650500Y-80157314D01*
X149716392Y-80043186D01*
X149750500Y-79915892D01*
X149750500Y-79784108D01*
X149716392Y-79656814D01*
X149650500Y-79542686D01*
X149557314Y-79449500D01*
X149500250Y-79416554D01*
X149443187Y-79383608D01*
X149379539Y-79366554D01*
X149315892Y-79349500D01*
X149184108Y-79349500D01*
X149056812Y-79383608D01*
X148942686Y-79449500D01*
X148942683Y-79449502D01*
X148849502Y-79542683D01*
X148849500Y-79542686D01*
X148783608Y-79656812D01*
X148749500Y-79784108D01*
X124850500Y-79784108D01*
X124850500Y-77934108D01*
X138799500Y-77934108D01*
X138799500Y-78065891D01*
X138833608Y-78193187D01*
X138866554Y-78250250D01*
X138899500Y-78307314D01*
X138992686Y-78400500D01*
X139106814Y-78466392D01*
X139234108Y-78500500D01*
X139234110Y-78500500D01*
X139365890Y-78500500D01*
X139365892Y-78500500D01*
X139493186Y-78466392D01*
X139607314Y-78400500D01*
X139700500Y-78307314D01*
X139766392Y-78193186D01*
X139768824Y-78184108D01*
X148799500Y-78184108D01*
X148799500Y-78315891D01*
X148833608Y-78443187D01*
X148847005Y-78466391D01*
X148899500Y-78557314D01*
X148992686Y-78650500D01*
X149106814Y-78716392D01*
X149234108Y-78750500D01*
X149234110Y-78750500D01*
X149365890Y-78750500D01*
X149365892Y-78750500D01*
X149493186Y-78716392D01*
X149607314Y-78650500D01*
X149700500Y-78557314D01*
X149766392Y-78443186D01*
X149800500Y-78315892D01*
X149800500Y-78184108D01*
X149766392Y-78056814D01*
X149700500Y-77942686D01*
X149664193Y-77906379D01*
X163619500Y-77906379D01*
X163619500Y-78093620D01*
X163656025Y-78277243D01*
X163656027Y-78277251D01*
X163727676Y-78450228D01*
X163727681Y-78450237D01*
X163831697Y-78605907D01*
X163831700Y-78605911D01*
X163964088Y-78738299D01*
X163964092Y-78738302D01*
X164119762Y-78842318D01*
X164119768Y-78842321D01*
X164119769Y-78842322D01*
X164292749Y-78913973D01*
X164476379Y-78950499D01*
X164476383Y-78950500D01*
X164476384Y-78950500D01*
X165183617Y-78950500D01*
X165183618Y-78950499D01*
X165367251Y-78913973D01*
X165540231Y-78842322D01*
X165695908Y-78738302D01*
X165828302Y-78605908D01*
X165932322Y-78450231D01*
X166003973Y-78277251D01*
X166040500Y-78093616D01*
X166040500Y-77906384D01*
X166003973Y-77722749D01*
X165932322Y-77549769D01*
X165932321Y-77549768D01*
X165932318Y-77549762D01*
X165828302Y-77394092D01*
X165828299Y-77394088D01*
X165695911Y-77261700D01*
X165695907Y-77261697D01*
X165540237Y-77157681D01*
X165540228Y-77157676D01*
X165511478Y-77145768D01*
X165367251Y-77086027D01*
X165367243Y-77086025D01*
X165183620Y-77049500D01*
X165183616Y-77049500D01*
X164476384Y-77049500D01*
X164476379Y-77049500D01*
X164292756Y-77086025D01*
X164292748Y-77086027D01*
X164119771Y-77157676D01*
X164119762Y-77157681D01*
X163964092Y-77261697D01*
X163964088Y-77261700D01*
X163831700Y-77394088D01*
X163831697Y-77394092D01*
X163727681Y-77549762D01*
X163727676Y-77549771D01*
X163656027Y-77722748D01*
X163656025Y-77722756D01*
X163619500Y-77906379D01*
X149664193Y-77906379D01*
X149607314Y-77849500D01*
X149533380Y-77806814D01*
X149493187Y-77783608D01*
X149429539Y-77766554D01*
X149365892Y-77749500D01*
X149234108Y-77749500D01*
X149106812Y-77783608D01*
X148992686Y-77849500D01*
X148992683Y-77849502D01*
X148899502Y-77942683D01*
X148899500Y-77942686D01*
X148833608Y-78056812D01*
X148799500Y-78184108D01*
X139768824Y-78184108D01*
X139800500Y-78065892D01*
X139800500Y-77934108D01*
X139766392Y-77806814D01*
X139700500Y-77692686D01*
X139607314Y-77599500D01*
X139550250Y-77566554D01*
X139493187Y-77533608D01*
X139429539Y-77516554D01*
X139365892Y-77499500D01*
X139234108Y-77499500D01*
X139106812Y-77533608D01*
X138992686Y-77599500D01*
X138992683Y-77599502D01*
X138899502Y-77692683D01*
X138899500Y-77692686D01*
X138833608Y-77806812D01*
X138799500Y-77934108D01*
X124850500Y-77934108D01*
X124850500Y-77035258D01*
X167399500Y-77035258D01*
X167399500Y-77264741D01*
X167424446Y-77454215D01*
X167429452Y-77492238D01*
X167483161Y-77692686D01*
X167488842Y-77713887D01*
X167576650Y-77925876D01*
X167576657Y-77925890D01*
X167691392Y-78124617D01*
X167831081Y-78306661D01*
X167831089Y-78306670D01*
X167993330Y-78468911D01*
X167993338Y-78468918D01*
X168175382Y-78608607D01*
X168175385Y-78608608D01*
X168175388Y-78608611D01*
X168374112Y-78723344D01*
X168374117Y-78723346D01*
X168374123Y-78723349D01*
X168439672Y-78750500D01*
X168586113Y-78811158D01*
X168807762Y-78870548D01*
X169035266Y-78900500D01*
X169035273Y-78900500D01*
X169264727Y-78900500D01*
X169264734Y-78900500D01*
X169492238Y-78870548D01*
X169713887Y-78811158D01*
X169925888Y-78723344D01*
X170124612Y-78608611D01*
X170306661Y-78468919D01*
X170306665Y-78468914D01*
X170306670Y-78468911D01*
X170468911Y-78306670D01*
X170468914Y-78306665D01*
X170468919Y-78306661D01*
X170608611Y-78124612D01*
X170723344Y-77925888D01*
X170811158Y-77713887D01*
X170870548Y-77492238D01*
X170900500Y-77264734D01*
X170900500Y-77035266D01*
X170870548Y-76807762D01*
X170811158Y-76586113D01*
X170723344Y-76374112D01*
X170608611Y-76175388D01*
X170608608Y-76175385D01*
X170608607Y-76175382D01*
X170473648Y-75999502D01*
X170468919Y-75993339D01*
X170468918Y-75993338D01*
X170468911Y-75993330D01*
X170306670Y-75831089D01*
X170306661Y-75831081D01*
X170124617Y-75691392D01*
X169925890Y-75576657D01*
X169925876Y-75576650D01*
X169713887Y-75488842D01*
X169712342Y-75488428D01*
X169492238Y-75429452D01*
X169454215Y-75424446D01*
X169264741Y-75399500D01*
X169264734Y-75399500D01*
X169035266Y-75399500D01*
X169035258Y-75399500D01*
X168818715Y-75428009D01*
X168807762Y-75429452D01*
X168722275Y-75452358D01*
X168586112Y-75488842D01*
X168374123Y-75576650D01*
X168374109Y-75576657D01*
X168175382Y-75691392D01*
X167993338Y-75831081D01*
X167831081Y-75993338D01*
X167691392Y-76175382D01*
X167576657Y-76374109D01*
X167576650Y-76374123D01*
X167488842Y-76586112D01*
X167429453Y-76807759D01*
X167429451Y-76807770D01*
X167399500Y-77035258D01*
X124850500Y-77035258D01*
X124850500Y-74429778D01*
X127159500Y-74429778D01*
X127159500Y-74650221D01*
X127193985Y-74867952D01*
X127262103Y-75077603D01*
X127262104Y-75077606D01*
X127362187Y-75274025D01*
X127491752Y-75452358D01*
X127491756Y-75452363D01*
X127647636Y-75608243D01*
X127647641Y-75608247D01*
X127762082Y-75691392D01*
X127825978Y-75737815D01*
X127939661Y-75795740D01*
X128022393Y-75837895D01*
X128022396Y-75837896D01*
X128127221Y-75871955D01*
X128232049Y-75906015D01*
X128449778Y-75940500D01*
X128449779Y-75940500D01*
X128670221Y-75940500D01*
X128670222Y-75940500D01*
X128887951Y-75906015D01*
X129097606Y-75837895D01*
X129294022Y-75737815D01*
X129472365Y-75608242D01*
X129628242Y-75452365D01*
X129757815Y-75274022D01*
X129857895Y-75077606D01*
X129926015Y-74867951D01*
X129960500Y-74650222D01*
X129960500Y-74429778D01*
X132239500Y-74429778D01*
X132239500Y-74650221D01*
X132273985Y-74867952D01*
X132342103Y-75077603D01*
X132342104Y-75077606D01*
X132442187Y-75274025D01*
X132571752Y-75452358D01*
X132571756Y-75452363D01*
X132727636Y-75608243D01*
X132727641Y-75608247D01*
X132842082Y-75691392D01*
X132905978Y-75737815D01*
X133019661Y-75795740D01*
X133102393Y-75837895D01*
X133102396Y-75837896D01*
X133207221Y-75871955D01*
X133312049Y-75906015D01*
X133529778Y-75940500D01*
X133529779Y-75940500D01*
X133750221Y-75940500D01*
X133750222Y-75940500D01*
X133860485Y-75923036D01*
X141747400Y-75923036D01*
X141747400Y-76054819D01*
X141781508Y-76182115D01*
X141814454Y-76239178D01*
X141847400Y-76296242D01*
X141940586Y-76389428D01*
X142054714Y-76455320D01*
X142182008Y-76489428D01*
X142182010Y-76489428D01*
X142313790Y-76489428D01*
X142313792Y-76489428D01*
X142441086Y-76455320D01*
X142555214Y-76389428D01*
X142610534Y-76334108D01*
X144499500Y-76334108D01*
X144499500Y-76465892D01*
X144516554Y-76529539D01*
X144533608Y-76593187D01*
X144566554Y-76650250D01*
X144599500Y-76707314D01*
X144692686Y-76800500D01*
X144806814Y-76866392D01*
X144934108Y-76900500D01*
X144934110Y-76900500D01*
X145065890Y-76900500D01*
X145065892Y-76900500D01*
X145193186Y-76866392D01*
X145307314Y-76800500D01*
X145400500Y-76707314D01*
X145466392Y-76593186D01*
X145500500Y-76465892D01*
X145500500Y-76334108D01*
X145466392Y-76206814D01*
X145400500Y-76092686D01*
X145307314Y-75999500D01*
X145222442Y-75950499D01*
X145193187Y-75933608D01*
X145129539Y-75916554D01*
X145065892Y-75899500D01*
X144934108Y-75899500D01*
X144806812Y-75933608D01*
X144692686Y-75999500D01*
X144692683Y-75999502D01*
X144599502Y-76092683D01*
X144599500Y-76092686D01*
X144533608Y-76206812D01*
X144499500Y-76334108D01*
X142610534Y-76334108D01*
X142648400Y-76296242D01*
X142714292Y-76182114D01*
X142748400Y-76054820D01*
X142748400Y-75923036D01*
X142714292Y-75795742D01*
X142648400Y-75681614D01*
X142555214Y-75588428D01*
X142496030Y-75554258D01*
X142441087Y-75522536D01*
X142377439Y-75505482D01*
X142313792Y-75488428D01*
X142182008Y-75488428D01*
X142054712Y-75522536D01*
X141940586Y-75588428D01*
X141940583Y-75588430D01*
X141847402Y-75681611D01*
X141847400Y-75681614D01*
X141781508Y-75795740D01*
X141747400Y-75923036D01*
X133860485Y-75923036D01*
X133967951Y-75906015D01*
X134177606Y-75837895D01*
X134374022Y-75737815D01*
X134552365Y-75608242D01*
X134708242Y-75452365D01*
X134837815Y-75274022D01*
X134937895Y-75077606D01*
X135006015Y-74867951D01*
X135040500Y-74650222D01*
X135040500Y-74429778D01*
X135006015Y-74212049D01*
X134948199Y-74034108D01*
X142649500Y-74034108D01*
X142649500Y-74165892D01*
X142661867Y-74212047D01*
X142683608Y-74293187D01*
X142696717Y-74315892D01*
X142749500Y-74407314D01*
X142842686Y-74500500D01*
X142956814Y-74566392D01*
X143084108Y-74600500D01*
X143084110Y-74600500D01*
X143215890Y-74600500D01*
X143215892Y-74600500D01*
X143343186Y-74566392D01*
X143457314Y-74500500D01*
X143512083Y-74445731D01*
X163619500Y-74445731D01*
X163619500Y-75554258D01*
X163622354Y-75584698D01*
X163622354Y-75584699D01*
X163667206Y-75712881D01*
X163667207Y-75712882D01*
X163747850Y-75822150D01*
X163857118Y-75902793D01*
X163985302Y-75947646D01*
X163985301Y-75947646D01*
X163989271Y-75948018D01*
X164015735Y-75950500D01*
X165644264Y-75950499D01*
X165674698Y-75947646D01*
X165802882Y-75902793D01*
X165912150Y-75822150D01*
X165992793Y-75712882D01*
X166037646Y-75584698D01*
X166040500Y-75554265D01*
X166040499Y-74445736D01*
X166037646Y-74415302D01*
X165992793Y-74287118D01*
X165916769Y-74184108D01*
X173249500Y-74184108D01*
X173249500Y-74315891D01*
X173283608Y-74443187D01*
X173285080Y-74445736D01*
X173349500Y-74557314D01*
X173442686Y-74650500D01*
X173556814Y-74716392D01*
X173684108Y-74750500D01*
X173684110Y-74750500D01*
X173815890Y-74750500D01*
X173815892Y-74750500D01*
X173943186Y-74716392D01*
X174057314Y-74650500D01*
X174150500Y-74557314D01*
X174216392Y-74443186D01*
X174250500Y-74315892D01*
X174250500Y-74184108D01*
X174216392Y-74056814D01*
X174213816Y-74052353D01*
X174184975Y-74002399D01*
X174150500Y-73942686D01*
X174057314Y-73849500D01*
X173958910Y-73792686D01*
X173943187Y-73783608D01*
X173879539Y-73766554D01*
X173815892Y-73749500D01*
X173684108Y-73749500D01*
X173556812Y-73783608D01*
X173442686Y-73849500D01*
X173442683Y-73849502D01*
X173349502Y-73942683D01*
X173349500Y-73942686D01*
X173283608Y-74056812D01*
X173249500Y-74184108D01*
X165916769Y-74184108D01*
X165912150Y-74177850D01*
X165802882Y-74097207D01*
X165802881Y-74097206D01*
X165674695Y-74052353D01*
X165674698Y-74052353D01*
X165644268Y-74049500D01*
X164015741Y-74049500D01*
X163985301Y-74052354D01*
X163985300Y-74052354D01*
X163857118Y-74097206D01*
X163747850Y-74177850D01*
X163667206Y-74287118D01*
X163622353Y-74415302D01*
X163619500Y-74445731D01*
X143512083Y-74445731D01*
X143550500Y-74407314D01*
X143616392Y-74293186D01*
X143650500Y-74165892D01*
X143650500Y-74034108D01*
X143616392Y-73906814D01*
X143550500Y-73792686D01*
X143457314Y-73699500D01*
X143400250Y-73666554D01*
X143343187Y-73633608D01*
X143279539Y-73616554D01*
X143215892Y-73599500D01*
X143084108Y-73599500D01*
X142956812Y-73633608D01*
X142842686Y-73699500D01*
X142842683Y-73699502D01*
X142749502Y-73792683D01*
X142749500Y-73792686D01*
X142683608Y-73906812D01*
X142673997Y-73942683D01*
X142649500Y-74034108D01*
X134948199Y-74034108D01*
X134937895Y-74002394D01*
X134937895Y-74002393D01*
X134889193Y-73906812D01*
X134837815Y-73805978D01*
X134712582Y-73633608D01*
X134708247Y-73627641D01*
X134708243Y-73627636D01*
X134552363Y-73471756D01*
X134552358Y-73471752D01*
X134374025Y-73342187D01*
X134374024Y-73342186D01*
X134374022Y-73342185D01*
X134287099Y-73297895D01*
X134177606Y-73242104D01*
X134177603Y-73242103D01*
X133967952Y-73173985D01*
X133859086Y-73156742D01*
X133750222Y-73139500D01*
X133529778Y-73139500D01*
X133457201Y-73150995D01*
X133312047Y-73173985D01*
X133102396Y-73242103D01*
X133102393Y-73242104D01*
X132905974Y-73342187D01*
X132727641Y-73471752D01*
X132727636Y-73471756D01*
X132571756Y-73627636D01*
X132571752Y-73627641D01*
X132442187Y-73805974D01*
X132342104Y-74002393D01*
X132342103Y-74002396D01*
X132273985Y-74212047D01*
X132239500Y-74429778D01*
X129960500Y-74429778D01*
X129926015Y-74212049D01*
X129874128Y-74052354D01*
X129857896Y-74002396D01*
X129857895Y-74002393D01*
X129809193Y-73906812D01*
X129757815Y-73805978D01*
X129632582Y-73633608D01*
X129628247Y-73627641D01*
X129628243Y-73627636D01*
X129472363Y-73471756D01*
X129472358Y-73471752D01*
X129294025Y-73342187D01*
X129294024Y-73342186D01*
X129294022Y-73342185D01*
X129207099Y-73297895D01*
X129097606Y-73242104D01*
X129097603Y-73242103D01*
X128887952Y-73173985D01*
X128779086Y-73156742D01*
X128670222Y-73139500D01*
X128449778Y-73139500D01*
X128377201Y-73150995D01*
X128232047Y-73173985D01*
X128022396Y-73242103D01*
X128022393Y-73242104D01*
X127825974Y-73342187D01*
X127647641Y-73471752D01*
X127647636Y-73471756D01*
X127491756Y-73627636D01*
X127491752Y-73627641D01*
X127362187Y-73805974D01*
X127262104Y-74002393D01*
X127262103Y-74002396D01*
X127193985Y-74212047D01*
X127159500Y-74429778D01*
X124850500Y-74429778D01*
X124850500Y-71889778D01*
X129699500Y-71889778D01*
X129699500Y-72110222D01*
X129708317Y-72165890D01*
X129733985Y-72327952D01*
X129802103Y-72537603D01*
X129802104Y-72537606D01*
X129902187Y-72734025D01*
X130031752Y-72912358D01*
X130031756Y-72912363D01*
X130187636Y-73068243D01*
X130187641Y-73068247D01*
X130333179Y-73173985D01*
X130365978Y-73197815D01*
X130494375Y-73263237D01*
X130562393Y-73297895D01*
X130562396Y-73297896D01*
X130667221Y-73331955D01*
X130772049Y-73366015D01*
X130989778Y-73400500D01*
X130989779Y-73400500D01*
X131210221Y-73400500D01*
X131210222Y-73400500D01*
X131427951Y-73366015D01*
X131637606Y-73297895D01*
X131834022Y-73197815D01*
X132012365Y-73068242D01*
X132168242Y-72912365D01*
X132297815Y-72734022D01*
X132397895Y-72537606D01*
X132466015Y-72327951D01*
X132500500Y-72110222D01*
X132500500Y-71889778D01*
X132466015Y-71672049D01*
X132466014Y-71672045D01*
X132447252Y-71614298D01*
X132437443Y-71584108D01*
X143199500Y-71584108D01*
X143199500Y-71715891D01*
X143233608Y-71843187D01*
X143260508Y-71889778D01*
X143299500Y-71957314D01*
X143392686Y-72050500D01*
X143491521Y-72107563D01*
X143496125Y-72110221D01*
X143506814Y-72116392D01*
X143634108Y-72150500D01*
X143634110Y-72150500D01*
X143765890Y-72150500D01*
X143765892Y-72150500D01*
X143893186Y-72116392D01*
X144007314Y-72050500D01*
X144023706Y-72034108D01*
X164299500Y-72034108D01*
X164299500Y-72165891D01*
X164333608Y-72293187D01*
X164353680Y-72327952D01*
X164399500Y-72407314D01*
X164492686Y-72500500D01*
X164606814Y-72566392D01*
X164734108Y-72600500D01*
X164734110Y-72600500D01*
X164865890Y-72600500D01*
X164865892Y-72600500D01*
X164993186Y-72566392D01*
X165107314Y-72500500D01*
X165200500Y-72407314D01*
X165266392Y-72293186D01*
X165300500Y-72165892D01*
X165300500Y-72034108D01*
X165266392Y-71906814D01*
X165200500Y-71792686D01*
X165107314Y-71699500D01*
X165050250Y-71666554D01*
X164993187Y-71633608D01*
X164921119Y-71614298D01*
X164865892Y-71599500D01*
X164734108Y-71599500D01*
X164606812Y-71633608D01*
X164492686Y-71699500D01*
X164492683Y-71699502D01*
X164399502Y-71792683D01*
X164399500Y-71792686D01*
X164333608Y-71906812D01*
X164299500Y-72034108D01*
X144023706Y-72034108D01*
X144100500Y-71957314D01*
X144166392Y-71843186D01*
X144200500Y-71715892D01*
X144200500Y-71584108D01*
X144166392Y-71456814D01*
X144100500Y-71342686D01*
X144007314Y-71249500D01*
X143950250Y-71216554D01*
X143893187Y-71183608D01*
X143829539Y-71166554D01*
X143765892Y-71149500D01*
X143634108Y-71149500D01*
X143506812Y-71183608D01*
X143392686Y-71249500D01*
X143392683Y-71249502D01*
X143299502Y-71342683D01*
X143299500Y-71342686D01*
X143233608Y-71456812D01*
X143199500Y-71584108D01*
X132437443Y-71584108D01*
X132397896Y-71462396D01*
X132397895Y-71462393D01*
X132363237Y-71394375D01*
X132297815Y-71265978D01*
X132218868Y-71157316D01*
X132168247Y-71087641D01*
X132168243Y-71087636D01*
X132012363Y-70931756D01*
X132012358Y-70931752D01*
X131834025Y-70802187D01*
X131834024Y-70802186D01*
X131834022Y-70802185D01*
X131747089Y-70757890D01*
X131637606Y-70702104D01*
X131637603Y-70702103D01*
X131427952Y-70633985D01*
X131319086Y-70616742D01*
X131210222Y-70599500D01*
X130989778Y-70599500D01*
X130917201Y-70610995D01*
X130772047Y-70633985D01*
X130562396Y-70702103D01*
X130562393Y-70702104D01*
X130365974Y-70802187D01*
X130187641Y-70931752D01*
X130187636Y-70931756D01*
X130031756Y-71087636D01*
X130031752Y-71087641D01*
X129902187Y-71265974D01*
X129802104Y-71462393D01*
X129802103Y-71462396D01*
X129733985Y-71672047D01*
X129733985Y-71672049D01*
X129699500Y-71889778D01*
X124850500Y-71889778D01*
X124850500Y-69349778D01*
X127159500Y-69349778D01*
X127159500Y-69570221D01*
X127193985Y-69787952D01*
X127262103Y-69997603D01*
X127262104Y-69997606D01*
X127292528Y-70057314D01*
X127347851Y-70165891D01*
X127362187Y-70194025D01*
X127491752Y-70372358D01*
X127491756Y-70372363D01*
X127647636Y-70528243D01*
X127647641Y-70528247D01*
X127747086Y-70600497D01*
X127825978Y-70657815D01*
X127954375Y-70723237D01*
X128022393Y-70757895D01*
X128022396Y-70757896D01*
X128127221Y-70791955D01*
X128232049Y-70826015D01*
X128449778Y-70860500D01*
X128449779Y-70860500D01*
X128670221Y-70860500D01*
X128670222Y-70860500D01*
X128887951Y-70826015D01*
X129097606Y-70757895D01*
X129294022Y-70657815D01*
X129472365Y-70528242D01*
X129628242Y-70372365D01*
X129757815Y-70194022D01*
X129857895Y-69997606D01*
X129926015Y-69787951D01*
X129960500Y-69570222D01*
X129960500Y-69349778D01*
X132239500Y-69349778D01*
X132239500Y-69570221D01*
X132273985Y-69787952D01*
X132342103Y-69997603D01*
X132342104Y-69997606D01*
X132372528Y-70057314D01*
X132427851Y-70165891D01*
X132442187Y-70194025D01*
X132571752Y-70372358D01*
X132571756Y-70372363D01*
X132727636Y-70528243D01*
X132727641Y-70528247D01*
X132827086Y-70600497D01*
X132905978Y-70657815D01*
X133034375Y-70723237D01*
X133102393Y-70757895D01*
X133102396Y-70757896D01*
X133207221Y-70791955D01*
X133312049Y-70826015D01*
X133529778Y-70860500D01*
X133529779Y-70860500D01*
X133750221Y-70860500D01*
X133750222Y-70860500D01*
X133967951Y-70826015D01*
X134096929Y-70784108D01*
X155549500Y-70784108D01*
X155549500Y-70915891D01*
X155583608Y-71043187D01*
X155609271Y-71087635D01*
X155649500Y-71157314D01*
X155742686Y-71250500D01*
X155856814Y-71316392D01*
X155984108Y-71350500D01*
X155984110Y-71350500D01*
X156115890Y-71350500D01*
X156115892Y-71350500D01*
X156243186Y-71316392D01*
X156357314Y-71250500D01*
X156450500Y-71157314D01*
X156516392Y-71043186D01*
X156550500Y-70915892D01*
X156550500Y-70784108D01*
X156516392Y-70656814D01*
X156450500Y-70542686D01*
X156357314Y-70449500D01*
X156300250Y-70416554D01*
X156243187Y-70383608D01*
X156179539Y-70366554D01*
X156115892Y-70349500D01*
X155984108Y-70349500D01*
X155856812Y-70383608D01*
X155742686Y-70449500D01*
X155742683Y-70449502D01*
X155649502Y-70542683D01*
X155649500Y-70542686D01*
X155583608Y-70656812D01*
X155549500Y-70784108D01*
X134096929Y-70784108D01*
X134177606Y-70757895D01*
X134374022Y-70657815D01*
X134552365Y-70528242D01*
X134708242Y-70372365D01*
X134837815Y-70194022D01*
X134937895Y-69997606D01*
X135006015Y-69787951D01*
X135038301Y-69584108D01*
X139499500Y-69584108D01*
X139499500Y-69715891D01*
X139533608Y-69843187D01*
X139562185Y-69892683D01*
X139599500Y-69957314D01*
X139692686Y-70050500D01*
X139806814Y-70116392D01*
X139934108Y-70150500D01*
X139934110Y-70150500D01*
X140065890Y-70150500D01*
X140065892Y-70150500D01*
X140193186Y-70116392D01*
X140307314Y-70050500D01*
X140323706Y-70034108D01*
X142549500Y-70034108D01*
X142549500Y-70165891D01*
X142583608Y-70293187D01*
X142616121Y-70349500D01*
X142649500Y-70407314D01*
X142742686Y-70500500D01*
X142856814Y-70566392D01*
X142984108Y-70600500D01*
X142984110Y-70600500D01*
X143115890Y-70600500D01*
X143115892Y-70600500D01*
X143243186Y-70566392D01*
X143357314Y-70500500D01*
X143450500Y-70407314D01*
X143516392Y-70293186D01*
X143550500Y-70165892D01*
X143550500Y-70034108D01*
X158842000Y-70034108D01*
X158842000Y-70165891D01*
X158876108Y-70293187D01*
X158908621Y-70349500D01*
X158942000Y-70407314D01*
X159035186Y-70500500D01*
X159149314Y-70566392D01*
X159276608Y-70600500D01*
X159276610Y-70600500D01*
X159408390Y-70600500D01*
X159408392Y-70600500D01*
X159535686Y-70566392D01*
X159649814Y-70500500D01*
X159743000Y-70407314D01*
X159808892Y-70293186D01*
X159843000Y-70165892D01*
X159843000Y-70134108D01*
X170099500Y-70134108D01*
X170099500Y-70265891D01*
X170133608Y-70393187D01*
X170141766Y-70407316D01*
X170199500Y-70507314D01*
X170292686Y-70600500D01*
X170350684Y-70633985D01*
X170405265Y-70665498D01*
X170406814Y-70666392D01*
X170534108Y-70700500D01*
X170534110Y-70700500D01*
X170665890Y-70700500D01*
X170665892Y-70700500D01*
X170793186Y-70666392D01*
X170907314Y-70600500D01*
X171000500Y-70507314D01*
X171066392Y-70393186D01*
X171100500Y-70265892D01*
X171100500Y-70134108D01*
X171066392Y-70006814D01*
X171000500Y-69892686D01*
X170907314Y-69799500D01*
X170879371Y-69783367D01*
X170879370Y-69783366D01*
X170793188Y-69733609D01*
X170793187Y-69733608D01*
X170793186Y-69733608D01*
X170665892Y-69699500D01*
X170534108Y-69699500D01*
X170406812Y-69733608D01*
X170292686Y-69799500D01*
X170292683Y-69799502D01*
X170199502Y-69892683D01*
X170199500Y-69892686D01*
X170133608Y-70006812D01*
X170099500Y-70134108D01*
X159843000Y-70134108D01*
X159843000Y-70034108D01*
X159808892Y-69906814D01*
X159743000Y-69792686D01*
X159649814Y-69699500D01*
X159623154Y-69684108D01*
X173149500Y-69684108D01*
X173149500Y-69815891D01*
X173183608Y-69943187D01*
X173191766Y-69957316D01*
X173249500Y-70057314D01*
X173342686Y-70150500D01*
X173456814Y-70216392D01*
X173584108Y-70250500D01*
X173584110Y-70250500D01*
X173715890Y-70250500D01*
X173715892Y-70250500D01*
X173843186Y-70216392D01*
X173957314Y-70150500D01*
X174050500Y-70057314D01*
X174116392Y-69943186D01*
X174150500Y-69815892D01*
X174150500Y-69684108D01*
X174116392Y-69556814D01*
X174050500Y-69442686D01*
X173957314Y-69349500D01*
X173900250Y-69316554D01*
X173843187Y-69283608D01*
X173779539Y-69266554D01*
X173715892Y-69249500D01*
X173584108Y-69249500D01*
X173456812Y-69283608D01*
X173342686Y-69349500D01*
X173342683Y-69349502D01*
X173249502Y-69442683D01*
X173249500Y-69442686D01*
X173183608Y-69556812D01*
X173149500Y-69684108D01*
X159623154Y-69684108D01*
X159592750Y-69666554D01*
X159535687Y-69633608D01*
X159472039Y-69616554D01*
X159408392Y-69599500D01*
X159276608Y-69599500D01*
X159149312Y-69633608D01*
X159035186Y-69699500D01*
X159035183Y-69699502D01*
X158942002Y-69792683D01*
X158942000Y-69792686D01*
X158876108Y-69906812D01*
X158842000Y-70034108D01*
X143550500Y-70034108D01*
X143516392Y-69906814D01*
X143450500Y-69792686D01*
X143357314Y-69699500D01*
X143300250Y-69666554D01*
X143243187Y-69633608D01*
X143179539Y-69616554D01*
X143115892Y-69599500D01*
X142984108Y-69599500D01*
X142856812Y-69633608D01*
X142742686Y-69699500D01*
X142742683Y-69699502D01*
X142649502Y-69792683D01*
X142649500Y-69792686D01*
X142583608Y-69906812D01*
X142549500Y-70034108D01*
X140323706Y-70034108D01*
X140400500Y-69957314D01*
X140466392Y-69843186D01*
X140500500Y-69715892D01*
X140500500Y-69584108D01*
X140466392Y-69456814D01*
X140400500Y-69342686D01*
X140307314Y-69249500D01*
X140250250Y-69216554D01*
X140193187Y-69183608D01*
X140129539Y-69166554D01*
X140065892Y-69149500D01*
X139934108Y-69149500D01*
X139806812Y-69183608D01*
X139692686Y-69249500D01*
X139692683Y-69249502D01*
X139599502Y-69342683D01*
X139599500Y-69342686D01*
X139533608Y-69456812D01*
X139499500Y-69584108D01*
X135038301Y-69584108D01*
X135040500Y-69570222D01*
X135040500Y-69349778D01*
X135006015Y-69132049D01*
X134937895Y-68922394D01*
X134937895Y-68922393D01*
X134875786Y-68800500D01*
X134837815Y-68725978D01*
X134821260Y-68703192D01*
X134708247Y-68547641D01*
X134708243Y-68547636D01*
X134552363Y-68391756D01*
X134552358Y-68391752D01*
X134473017Y-68334108D01*
X144899500Y-68334108D01*
X144899500Y-68465891D01*
X144933608Y-68593187D01*
X144966554Y-68650250D01*
X144999500Y-68707314D01*
X145092686Y-68800500D01*
X145206814Y-68866392D01*
X145334108Y-68900500D01*
X145334110Y-68900500D01*
X145465890Y-68900500D01*
X145465892Y-68900500D01*
X145593186Y-68866392D01*
X145707314Y-68800500D01*
X145800500Y-68707314D01*
X145866392Y-68593186D01*
X145900500Y-68465892D01*
X145900500Y-68334108D01*
X145866392Y-68206814D01*
X145866354Y-68206749D01*
X145840579Y-68162105D01*
X145800500Y-68092686D01*
X145800495Y-68092681D01*
X145797562Y-68088858D01*
X145772367Y-68023689D01*
X145786405Y-67955244D01*
X145835218Y-67905253D01*
X145903309Y-67889589D01*
X145943387Y-67898808D01*
X146009003Y-67925987D01*
X146156087Y-67955244D01*
X146163653Y-67956749D01*
X146163656Y-67956750D01*
X146163658Y-67956750D01*
X146321344Y-67956750D01*
X146321345Y-67956749D01*
X146475997Y-67925987D01*
X146621679Y-67865644D01*
X146752789Y-67778039D01*
X146864289Y-67666539D01*
X146951894Y-67535429D01*
X147012237Y-67389747D01*
X147043000Y-67235092D01*
X147043000Y-67077408D01*
X147043000Y-67077405D01*
X147042999Y-67077403D01*
X147024558Y-66984696D01*
X147012237Y-66922753D01*
X147009602Y-66916391D01*
X146951897Y-66777077D01*
X146951890Y-66777064D01*
X146896971Y-66694872D01*
X146864289Y-66645961D01*
X146864286Y-66645957D01*
X146852437Y-66634108D01*
X147699500Y-66634108D01*
X147699500Y-66765892D01*
X147702497Y-66777077D01*
X147733608Y-66893187D01*
X147756946Y-66933608D01*
X147799500Y-67007314D01*
X147892686Y-67100500D01*
X148006814Y-67166392D01*
X148134108Y-67200500D01*
X148134110Y-67200500D01*
X148265890Y-67200500D01*
X148265892Y-67200500D01*
X148393186Y-67166392D01*
X148507314Y-67100500D01*
X148600500Y-67007314D01*
X148666392Y-66893186D01*
X148700500Y-66765892D01*
X148700500Y-66634108D01*
X148687103Y-66584108D01*
X151899500Y-66584108D01*
X151899500Y-66715892D01*
X151912897Y-66765890D01*
X151933608Y-66843187D01*
X151962476Y-66893186D01*
X151999500Y-66957314D01*
X152092686Y-67050500D01*
X152206814Y-67116392D01*
X152334108Y-67150500D01*
X152334110Y-67150500D01*
X152465890Y-67150500D01*
X152465892Y-67150500D01*
X152593186Y-67116392D01*
X152707314Y-67050500D01*
X152800500Y-66957314D01*
X152866392Y-66843186D01*
X152900500Y-66715892D01*
X152900500Y-66584108D01*
X152866392Y-66456814D01*
X152860644Y-66446859D01*
X152800503Y-66342691D01*
X152800502Y-66342690D01*
X152800500Y-66342686D01*
X152741922Y-66284108D01*
X154349500Y-66284108D01*
X154349500Y-66415891D01*
X154383608Y-66543187D01*
X154416554Y-66600250D01*
X154449500Y-66657314D01*
X154542686Y-66750500D01*
X154656814Y-66816392D01*
X154784108Y-66850500D01*
X154784110Y-66850500D01*
X154915890Y-66850500D01*
X154915892Y-66850500D01*
X155043186Y-66816392D01*
X155157314Y-66750500D01*
X155250500Y-66657314D01*
X155263898Y-66634108D01*
X156899500Y-66634108D01*
X156899500Y-66765892D01*
X156902497Y-66777077D01*
X156933608Y-66893187D01*
X156956946Y-66933608D01*
X156999500Y-67007314D01*
X157092686Y-67100500D01*
X157206814Y-67166392D01*
X157334108Y-67200500D01*
X157334110Y-67200500D01*
X157465890Y-67200500D01*
X157465892Y-67200500D01*
X157593186Y-67166392D01*
X157707314Y-67100500D01*
X157755034Y-67052780D01*
X165192000Y-67052780D01*
X165192000Y-67259719D01*
X165232368Y-67462662D01*
X165232370Y-67462670D01*
X165311558Y-67653846D01*
X165426524Y-67825907D01*
X165572842Y-67972225D01*
X165572845Y-67972227D01*
X165744902Y-68087191D01*
X165936080Y-68166380D01*
X166139030Y-68206749D01*
X166139034Y-68206750D01*
X166139035Y-68206750D01*
X166345966Y-68206750D01*
X166345967Y-68206749D01*
X166548920Y-68166380D01*
X166740098Y-68087191D01*
X166912155Y-67972227D01*
X167058477Y-67825905D01*
X167173441Y-67653848D01*
X167252630Y-67462670D01*
X167278202Y-67334108D01*
X172549500Y-67334108D01*
X172549500Y-67465891D01*
X172583608Y-67593187D01*
X172616554Y-67650250D01*
X172649500Y-67707314D01*
X172742686Y-67800500D01*
X172820145Y-67845221D01*
X172855523Y-67865647D01*
X172856814Y-67866392D01*
X172984108Y-67900500D01*
X172984110Y-67900500D01*
X173115890Y-67900500D01*
X173115892Y-67900500D01*
X173243186Y-67866392D01*
X173357314Y-67800500D01*
X173450500Y-67707314D01*
X173516392Y-67593186D01*
X173550500Y-67465892D01*
X173550500Y-67334108D01*
X173516392Y-67206814D01*
X173450500Y-67092686D01*
X173357314Y-66999500D01*
X173300250Y-66966554D01*
X173243187Y-66933608D01*
X173178931Y-66916391D01*
X173115892Y-66899500D01*
X172984108Y-66899500D01*
X172856812Y-66933608D01*
X172742686Y-66999500D01*
X172742683Y-66999502D01*
X172649502Y-67092683D01*
X172649500Y-67092686D01*
X172583608Y-67206812D01*
X172549500Y-67334108D01*
X167278202Y-67334108D01*
X167293000Y-67259715D01*
X167293000Y-67052785D01*
X167252630Y-66849830D01*
X167178765Y-66671505D01*
X167173443Y-66658655D01*
X167157041Y-66634108D01*
X170199500Y-66634108D01*
X170199500Y-66765892D01*
X170202497Y-66777077D01*
X170233608Y-66893187D01*
X170256946Y-66933608D01*
X170299500Y-67007314D01*
X170392686Y-67100500D01*
X170506814Y-67166392D01*
X170634108Y-67200500D01*
X170634110Y-67200500D01*
X170765890Y-67200500D01*
X170765892Y-67200500D01*
X170893186Y-67166392D01*
X171007314Y-67100500D01*
X171100500Y-67007314D01*
X171166392Y-66893186D01*
X171200500Y-66765892D01*
X171200500Y-66634108D01*
X171166392Y-66506814D01*
X171100500Y-66392686D01*
X171007314Y-66299500D01*
X170933380Y-66256814D01*
X170893187Y-66233608D01*
X170829539Y-66216554D01*
X170765892Y-66199500D01*
X170634108Y-66199500D01*
X170506812Y-66233608D01*
X170392686Y-66299500D01*
X170392683Y-66299502D01*
X170299502Y-66392683D01*
X170299500Y-66392686D01*
X170233608Y-66506812D01*
X170218290Y-66563981D01*
X170199500Y-66634108D01*
X167157041Y-66634108D01*
X167058475Y-66486592D01*
X166912157Y-66340274D01*
X166777799Y-66250500D01*
X166740098Y-66225309D01*
X166639423Y-66183608D01*
X166548920Y-66146120D01*
X166548912Y-66146118D01*
X166345969Y-66105750D01*
X166345965Y-66105750D01*
X166139035Y-66105750D01*
X166139030Y-66105750D01*
X165936087Y-66146118D01*
X165936079Y-66146120D01*
X165744903Y-66225308D01*
X165572842Y-66340274D01*
X165426524Y-66486592D01*
X165311558Y-66658653D01*
X165232370Y-66849829D01*
X165232368Y-66849837D01*
X165192000Y-67052780D01*
X157755034Y-67052780D01*
X157800500Y-67007314D01*
X157866392Y-66893186D01*
X157900500Y-66765892D01*
X157900500Y-66634108D01*
X157866392Y-66506814D01*
X157800500Y-66392686D01*
X157707314Y-66299500D01*
X157633380Y-66256814D01*
X157593187Y-66233608D01*
X157529539Y-66216554D01*
X157465892Y-66199500D01*
X157334108Y-66199500D01*
X157206812Y-66233608D01*
X157092686Y-66299500D01*
X157092683Y-66299502D01*
X156999502Y-66392683D01*
X156999500Y-66392686D01*
X156933608Y-66506812D01*
X156918290Y-66563981D01*
X156899500Y-66634108D01*
X155263898Y-66634108D01*
X155316392Y-66543186D01*
X155350500Y-66415892D01*
X155350500Y-66284108D01*
X155316392Y-66156814D01*
X155250500Y-66042686D01*
X155157314Y-65949500D01*
X155043186Y-65883608D01*
X154915892Y-65849500D01*
X154784108Y-65849500D01*
X154656812Y-65883608D01*
X154542686Y-65949500D01*
X154542683Y-65949502D01*
X154449502Y-66042683D01*
X154449500Y-66042686D01*
X154383608Y-66156812D01*
X154349500Y-66284108D01*
X152741922Y-66284108D01*
X152707314Y-66249500D01*
X152620712Y-66199500D01*
X152593187Y-66183608D01*
X152529539Y-66166554D01*
X152465892Y-66149500D01*
X152334108Y-66149500D01*
X152206812Y-66183608D01*
X152092686Y-66249500D01*
X152092683Y-66249502D01*
X151999502Y-66342683D01*
X151999500Y-66342686D01*
X151933608Y-66456812D01*
X151910464Y-66543188D01*
X151899500Y-66584108D01*
X148687103Y-66584108D01*
X148666392Y-66506814D01*
X148600500Y-66392686D01*
X148507314Y-66299500D01*
X148433380Y-66256814D01*
X148393187Y-66233608D01*
X148329539Y-66216554D01*
X148265892Y-66199500D01*
X148134108Y-66199500D01*
X148006812Y-66233608D01*
X147892686Y-66299500D01*
X147892683Y-66299502D01*
X147799502Y-66392683D01*
X147799500Y-66392686D01*
X147733608Y-66506812D01*
X147718290Y-66563981D01*
X147699500Y-66634108D01*
X146852437Y-66634108D01*
X146752792Y-66534463D01*
X146752788Y-66534460D01*
X146621685Y-66446859D01*
X146621672Y-66446852D01*
X146476001Y-66386514D01*
X146475989Y-66386511D01*
X146321345Y-66355750D01*
X146321342Y-66355750D01*
X146163658Y-66355750D01*
X146163655Y-66355750D01*
X146009010Y-66386511D01*
X146008998Y-66386514D01*
X145863327Y-66446852D01*
X145863314Y-66446859D01*
X145732211Y-66534460D01*
X145732207Y-66534463D01*
X145620713Y-66645957D01*
X145620710Y-66645961D01*
X145533109Y-66777064D01*
X145533102Y-66777077D01*
X145472764Y-66922748D01*
X145472761Y-66922760D01*
X145442000Y-67077403D01*
X145442000Y-67235096D01*
X145472761Y-67389739D01*
X145472764Y-67389751D01*
X145533102Y-67535422D01*
X145533109Y-67535435D01*
X145620710Y-67666538D01*
X145620713Y-67666542D01*
X145668377Y-67714206D01*
X145701862Y-67775529D01*
X145696878Y-67845221D01*
X145655006Y-67901154D01*
X145589542Y-67925571D01*
X145548603Y-67921662D01*
X145520918Y-67914244D01*
X145465892Y-67899500D01*
X145334108Y-67899500D01*
X145206812Y-67933608D01*
X145092686Y-67999500D01*
X145092683Y-67999502D01*
X144999502Y-68092683D01*
X144999500Y-68092686D01*
X144933608Y-68206812D01*
X144899500Y-68334108D01*
X134473017Y-68334108D01*
X134374025Y-68262187D01*
X134374024Y-68262186D01*
X134374022Y-68262185D01*
X134311096Y-68230122D01*
X134177606Y-68162104D01*
X134177603Y-68162103D01*
X133967952Y-68093985D01*
X133859086Y-68076742D01*
X133750222Y-68059500D01*
X133529778Y-68059500D01*
X133457201Y-68070995D01*
X133312047Y-68093985D01*
X133102396Y-68162103D01*
X133102393Y-68162104D01*
X132905974Y-68262187D01*
X132727641Y-68391752D01*
X132727636Y-68391756D01*
X132571756Y-68547636D01*
X132571752Y-68547641D01*
X132442187Y-68725974D01*
X132342104Y-68922393D01*
X132342103Y-68922396D01*
X132273985Y-69132047D01*
X132239500Y-69349778D01*
X129960500Y-69349778D01*
X129926015Y-69132049D01*
X129857895Y-68922394D01*
X129857895Y-68922393D01*
X129795786Y-68800500D01*
X129757815Y-68725978D01*
X129741260Y-68703192D01*
X129628247Y-68547641D01*
X129628243Y-68547636D01*
X129472363Y-68391756D01*
X129472358Y-68391752D01*
X129294025Y-68262187D01*
X129294024Y-68262186D01*
X129294022Y-68262185D01*
X129231096Y-68230122D01*
X129097606Y-68162104D01*
X129097603Y-68162103D01*
X128887952Y-68093985D01*
X128779086Y-68076742D01*
X128670222Y-68059500D01*
X128449778Y-68059500D01*
X128377201Y-68070995D01*
X128232047Y-68093985D01*
X128022396Y-68162103D01*
X128022393Y-68162104D01*
X127825974Y-68262187D01*
X127647641Y-68391752D01*
X127647636Y-68391756D01*
X127491756Y-68547636D01*
X127491752Y-68547641D01*
X127362187Y-68725974D01*
X127262104Y-68922393D01*
X127262103Y-68922396D01*
X127193985Y-69132047D01*
X127159500Y-69349778D01*
X124850500Y-69349778D01*
X124850500Y-66384108D01*
X135887000Y-66384108D01*
X135887000Y-66515891D01*
X135921108Y-66643187D01*
X135950949Y-66694872D01*
X135987000Y-66757314D01*
X136080186Y-66850500D01*
X136194314Y-66916392D01*
X136321608Y-66950500D01*
X136321610Y-66950500D01*
X136453390Y-66950500D01*
X136453392Y-66950500D01*
X136580686Y-66916392D01*
X136694814Y-66850500D01*
X136788000Y-66757314D01*
X136853892Y-66643186D01*
X136888000Y-66515892D01*
X136888000Y-66384108D01*
X136853892Y-66256814D01*
X136788000Y-66142686D01*
X136694814Y-66049500D01*
X136637750Y-66016554D01*
X136580687Y-65983608D01*
X136517039Y-65966554D01*
X136453392Y-65949500D01*
X136321608Y-65949500D01*
X136194312Y-65983608D01*
X136080186Y-66049500D01*
X136080183Y-66049502D01*
X135987002Y-66142683D01*
X135987000Y-66142686D01*
X135921108Y-66256812D01*
X135887000Y-66384108D01*
X124850500Y-66384108D01*
X124850500Y-65784108D01*
X168949500Y-65784108D01*
X168949500Y-65915891D01*
X168983608Y-66043187D01*
X169016554Y-66100250D01*
X169049500Y-66157314D01*
X169142686Y-66250500D01*
X169256814Y-66316392D01*
X169384108Y-66350500D01*
X169384110Y-66350500D01*
X169515890Y-66350500D01*
X169515892Y-66350500D01*
X169643186Y-66316392D01*
X169757314Y-66250500D01*
X169850500Y-66157314D01*
X169916392Y-66043186D01*
X169950500Y-65915892D01*
X169950500Y-65784108D01*
X169916392Y-65656814D01*
X169850500Y-65542686D01*
X169757314Y-65449500D01*
X169700250Y-65416554D01*
X169643187Y-65383608D01*
X169579539Y-65366554D01*
X169515892Y-65349500D01*
X169384108Y-65349500D01*
X169256812Y-65383608D01*
X169142686Y-65449500D01*
X169142683Y-65449502D01*
X169049502Y-65542683D01*
X169049500Y-65542686D01*
X168983608Y-65656812D01*
X168949500Y-65784108D01*
X124850500Y-65784108D01*
X124850500Y-65184108D01*
X142099500Y-65184108D01*
X142099500Y-65315891D01*
X142133608Y-65443187D01*
X142166554Y-65500250D01*
X142199500Y-65557314D01*
X142292686Y-65650500D01*
X142406814Y-65716392D01*
X142534108Y-65750500D01*
X142534110Y-65750500D01*
X142665890Y-65750500D01*
X142665892Y-65750500D01*
X142793186Y-65716392D01*
X142907314Y-65650500D01*
X143000500Y-65557314D01*
X143066392Y-65443186D01*
X143100500Y-65315892D01*
X143100500Y-65184108D01*
X143066392Y-65056814D01*
X143000500Y-64942686D01*
X142907314Y-64849500D01*
X142850250Y-64816554D01*
X142793187Y-64783608D01*
X142729539Y-64766554D01*
X142665892Y-64749500D01*
X142534108Y-64749500D01*
X142406812Y-64783608D01*
X142292686Y-64849500D01*
X142292683Y-64849502D01*
X142199502Y-64942683D01*
X142199500Y-64942686D01*
X142133608Y-65056812D01*
X142099500Y-65184108D01*
X124850500Y-65184108D01*
X124850500Y-64084108D01*
X148399500Y-64084108D01*
X148399500Y-64215891D01*
X148433608Y-64343187D01*
X148465609Y-64398613D01*
X148499500Y-64457314D01*
X148592686Y-64550500D01*
X148706814Y-64616392D01*
X148834108Y-64650500D01*
X148834110Y-64650500D01*
X148965890Y-64650500D01*
X148965892Y-64650500D01*
X149093186Y-64616392D01*
X149207314Y-64550500D01*
X149300500Y-64457314D01*
X149346771Y-64377169D01*
X149397338Y-64328954D01*
X149465945Y-64315731D01*
X149530810Y-64341699D01*
X149571338Y-64398613D01*
X149573933Y-64407077D01*
X149583608Y-64443187D01*
X149591766Y-64457316D01*
X149649500Y-64557314D01*
X149742686Y-64650500D01*
X149856814Y-64716392D01*
X149984108Y-64750500D01*
X149984110Y-64750500D01*
X150115890Y-64750500D01*
X150115892Y-64750500D01*
X150177068Y-64734108D01*
X167699500Y-64734108D01*
X167699500Y-64865891D01*
X167733608Y-64993187D01*
X167766554Y-65050250D01*
X167799500Y-65107314D01*
X167892686Y-65200500D01*
X168006814Y-65266392D01*
X168134108Y-65300500D01*
X168134110Y-65300500D01*
X168265890Y-65300500D01*
X168265892Y-65300500D01*
X168393186Y-65266392D01*
X168507314Y-65200500D01*
X168600500Y-65107314D01*
X168666392Y-64993186D01*
X168700500Y-64865892D01*
X168700500Y-64734108D01*
X168666392Y-64606814D01*
X168642764Y-64565890D01*
X168600503Y-64492691D01*
X168600502Y-64492690D01*
X168600500Y-64492686D01*
X168541922Y-64434108D01*
X171999500Y-64434108D01*
X171999500Y-64565891D01*
X172033608Y-64693187D01*
X172066121Y-64749500D01*
X172099500Y-64807314D01*
X172192686Y-64900500D01*
X172306814Y-64966392D01*
X172434108Y-65000500D01*
X172434110Y-65000500D01*
X172565890Y-65000500D01*
X172565892Y-65000500D01*
X172693186Y-64966392D01*
X172807314Y-64900500D01*
X172900500Y-64807314D01*
X172966392Y-64693186D01*
X173000500Y-64565892D01*
X173000500Y-64434108D01*
X172966392Y-64306814D01*
X172900500Y-64192686D01*
X172807314Y-64099500D01*
X172733380Y-64056814D01*
X172693187Y-64033608D01*
X172629539Y-64016554D01*
X172565892Y-63999500D01*
X172434108Y-63999500D01*
X172306812Y-64033608D01*
X172192686Y-64099500D01*
X172192683Y-64099502D01*
X172099502Y-64192683D01*
X172099500Y-64192686D01*
X172033608Y-64306812D01*
X171999500Y-64434108D01*
X168541922Y-64434108D01*
X168507314Y-64399500D01*
X168450250Y-64366554D01*
X168393187Y-64333608D01*
X168293188Y-64306814D01*
X168265892Y-64299500D01*
X168134108Y-64299500D01*
X168006812Y-64333608D01*
X167892686Y-64399500D01*
X167892683Y-64399502D01*
X167799502Y-64492683D01*
X167799500Y-64492686D01*
X167733608Y-64606812D01*
X167699500Y-64734108D01*
X150177068Y-64734108D01*
X150243186Y-64716392D01*
X150357314Y-64650500D01*
X150450500Y-64557314D01*
X150516392Y-64443186D01*
X150550500Y-64315892D01*
X150550500Y-64184108D01*
X150516392Y-64056814D01*
X150450500Y-63942686D01*
X150357314Y-63849500D01*
X150300250Y-63816554D01*
X150243187Y-63783608D01*
X150179539Y-63766554D01*
X150115892Y-63749500D01*
X149984108Y-63749500D01*
X149856812Y-63783608D01*
X149742686Y-63849500D01*
X149742683Y-63849502D01*
X149649502Y-63942683D01*
X149649495Y-63942692D01*
X149603227Y-64022830D01*
X149552660Y-64071045D01*
X149484053Y-64084267D01*
X149419188Y-64058299D01*
X149378660Y-64001384D01*
X149376071Y-63992940D01*
X149366392Y-63956814D01*
X149300500Y-63842686D01*
X149207314Y-63749500D01*
X149150250Y-63716554D01*
X149093187Y-63683608D01*
X149029539Y-63666554D01*
X148965892Y-63649500D01*
X148834108Y-63649500D01*
X148706812Y-63683608D01*
X148592686Y-63749500D01*
X148592683Y-63749502D01*
X148499502Y-63842683D01*
X148499500Y-63842686D01*
X148433608Y-63956812D01*
X148399500Y-64084108D01*
X124850500Y-64084108D01*
X124850500Y-62234108D01*
X167299500Y-62234108D01*
X167299500Y-62365892D01*
X167310464Y-62406812D01*
X167333608Y-62493187D01*
X167366554Y-62550250D01*
X167399500Y-62607314D01*
X167492686Y-62700500D01*
X167606814Y-62766392D01*
X167734108Y-62800500D01*
X167734110Y-62800500D01*
X167865890Y-62800500D01*
X167865892Y-62800500D01*
X167993186Y-62766392D01*
X168107314Y-62700500D01*
X168200500Y-62607314D01*
X168266392Y-62493186D01*
X168300500Y-62365892D01*
X168300500Y-62234108D01*
X168266392Y-62106814D01*
X168200500Y-61992686D01*
X168107314Y-61899500D01*
X168050250Y-61866554D01*
X167993187Y-61833608D01*
X167897066Y-61807853D01*
X167865892Y-61799500D01*
X167734108Y-61799500D01*
X167606812Y-61833608D01*
X167492686Y-61899500D01*
X167492683Y-61899502D01*
X167399504Y-61992682D01*
X167399500Y-61992686D01*
X167333608Y-62106812D01*
X167323997Y-62142682D01*
X167299500Y-62234108D01*
X124850500Y-62234108D01*
X124850500Y-59482706D01*
X124850618Y-59477298D01*
X124854255Y-59393987D01*
X124867690Y-59086255D01*
X124868629Y-59075524D01*
X124873687Y-59037106D01*
X126199500Y-59037106D01*
X126199500Y-59362893D01*
X126235974Y-59686604D01*
X126235976Y-59686620D01*
X126308467Y-60004226D01*
X126308471Y-60004238D01*
X126416066Y-60311725D01*
X126557413Y-60605234D01*
X126611033Y-60690570D01*
X126730739Y-60881081D01*
X126933857Y-61135783D01*
X127164217Y-61366143D01*
X127418919Y-61569261D01*
X127694763Y-61742585D01*
X127988278Y-61883935D01*
X128219217Y-61964744D01*
X128295761Y-61991528D01*
X128295773Y-61991532D01*
X128613383Y-62064024D01*
X128937106Y-62100499D01*
X128937107Y-62100500D01*
X128937111Y-62100500D01*
X129262893Y-62100500D01*
X129262893Y-62100499D01*
X129586617Y-62064024D01*
X129904227Y-61991532D01*
X130211722Y-61883935D01*
X130505237Y-61742585D01*
X130781081Y-61569261D01*
X130825161Y-61534108D01*
X161899500Y-61534108D01*
X161899500Y-61665891D01*
X161933608Y-61793187D01*
X161937253Y-61799500D01*
X161999500Y-61907314D01*
X162092686Y-62000500D01*
X162177560Y-62049502D01*
X162202712Y-62064024D01*
X162206814Y-62066392D01*
X162334108Y-62100500D01*
X162334110Y-62100500D01*
X162465890Y-62100500D01*
X162465892Y-62100500D01*
X162593186Y-62066392D01*
X162707314Y-62000500D01*
X162800500Y-61907314D01*
X162866392Y-61793186D01*
X162900500Y-61665892D01*
X162900500Y-61534108D01*
X162866392Y-61406814D01*
X162800500Y-61292686D01*
X162707314Y-61199500D01*
X162649968Y-61166391D01*
X162593187Y-61133608D01*
X162529539Y-61116554D01*
X162465892Y-61099500D01*
X162334108Y-61099500D01*
X162206812Y-61133608D01*
X162092686Y-61199500D01*
X162092683Y-61199502D01*
X161999502Y-61292683D01*
X161999500Y-61292686D01*
X161933608Y-61406812D01*
X161899500Y-61534108D01*
X130825161Y-61534108D01*
X131035783Y-61366143D01*
X131266143Y-61135783D01*
X131469261Y-60881081D01*
X131642585Y-60605237D01*
X131749076Y-60384108D01*
X142449500Y-60384108D01*
X142449500Y-60515892D01*
X142463031Y-60566390D01*
X142483608Y-60643187D01*
X142516554Y-60700250D01*
X142549500Y-60757314D01*
X142642686Y-60850500D01*
X142756814Y-60916392D01*
X142884108Y-60950500D01*
X142884110Y-60950500D01*
X143015890Y-60950500D01*
X143015892Y-60950500D01*
X143143186Y-60916392D01*
X143257314Y-60850500D01*
X143350500Y-60757314D01*
X143416392Y-60643186D01*
X143418824Y-60634108D01*
X157499500Y-60634108D01*
X157499500Y-60765891D01*
X157533608Y-60893187D01*
X157547005Y-60916391D01*
X157599500Y-61007314D01*
X157692686Y-61100500D01*
X157806814Y-61166392D01*
X157934108Y-61200500D01*
X157934110Y-61200500D01*
X158065890Y-61200500D01*
X158065892Y-61200500D01*
X158193186Y-61166392D01*
X158307314Y-61100500D01*
X158400500Y-61007314D01*
X158466392Y-60893186D01*
X158500500Y-60765892D01*
X158500500Y-60634108D01*
X158466392Y-60506814D01*
X158400500Y-60392686D01*
X158307314Y-60299500D01*
X158233380Y-60256814D01*
X158193187Y-60233608D01*
X158129539Y-60216554D01*
X158065892Y-60199500D01*
X157934108Y-60199500D01*
X157806812Y-60233608D01*
X157692686Y-60299500D01*
X157692683Y-60299502D01*
X157599502Y-60392683D01*
X157599500Y-60392686D01*
X157533608Y-60506812D01*
X157499500Y-60634108D01*
X143418824Y-60634108D01*
X143450500Y-60515892D01*
X143450500Y-60384108D01*
X143416392Y-60256814D01*
X143350500Y-60142686D01*
X143257314Y-60049500D01*
X143230654Y-60034108D01*
X151149500Y-60034108D01*
X151149500Y-60165891D01*
X151183608Y-60293187D01*
X151200347Y-60322179D01*
X151249500Y-60407314D01*
X151342686Y-60500500D01*
X151441521Y-60557563D01*
X151456810Y-60566390D01*
X151456814Y-60566392D01*
X151584108Y-60600500D01*
X151584110Y-60600500D01*
X151715890Y-60600500D01*
X151715892Y-60600500D01*
X151843186Y-60566392D01*
X151957314Y-60500500D01*
X152050500Y-60407314D01*
X152116392Y-60293186D01*
X152150500Y-60165892D01*
X152150500Y-60034108D01*
X152116392Y-59906814D01*
X152110807Y-59897141D01*
X152065827Y-59819233D01*
X152065826Y-59819232D01*
X152050500Y-59792686D01*
X152023172Y-59765358D01*
X165949500Y-59765358D01*
X165949500Y-59897142D01*
X165954658Y-59916391D01*
X165983608Y-60024437D01*
X165998080Y-60049502D01*
X166049500Y-60138564D01*
X166142686Y-60231750D01*
X166256814Y-60297642D01*
X166384108Y-60331750D01*
X166384110Y-60331750D01*
X166515890Y-60331750D01*
X166515892Y-60331750D01*
X166643186Y-60297642D01*
X166757314Y-60231750D01*
X166850500Y-60138564D01*
X166916392Y-60024436D01*
X166950500Y-59897142D01*
X166950500Y-59765358D01*
X166916392Y-59638064D01*
X166850500Y-59523936D01*
X166782024Y-59455460D01*
X166748539Y-59394137D01*
X166753523Y-59324445D01*
X166795395Y-59268512D01*
X166807705Y-59260392D01*
X166813912Y-59256808D01*
X166857314Y-59231750D01*
X166950500Y-59138564D01*
X167009077Y-59037106D01*
X168431391Y-59037106D01*
X168431391Y-59362893D01*
X168467865Y-59686604D01*
X168467867Y-59686620D01*
X168540358Y-60004226D01*
X168540362Y-60004238D01*
X168647957Y-60311725D01*
X168789304Y-60605234D01*
X168842924Y-60690570D01*
X168962630Y-60881081D01*
X169165748Y-61135783D01*
X169396108Y-61366143D01*
X169650810Y-61569261D01*
X169926654Y-61742585D01*
X170220169Y-61883935D01*
X170451108Y-61964744D01*
X170527652Y-61991528D01*
X170527664Y-61991532D01*
X170775439Y-62048085D01*
X170836418Y-62082194D01*
X170869276Y-62143855D01*
X170863581Y-62213492D01*
X170835529Y-62256656D01*
X170799503Y-62292682D01*
X170799500Y-62292686D01*
X170733608Y-62406812D01*
X170699500Y-62534108D01*
X170699500Y-62665891D01*
X170733608Y-62793187D01*
X170766554Y-62850250D01*
X170799500Y-62907314D01*
X170892686Y-63000500D01*
X171006814Y-63066392D01*
X171134108Y-63100500D01*
X171134110Y-63100500D01*
X171265890Y-63100500D01*
X171265892Y-63100500D01*
X171393186Y-63066392D01*
X171507314Y-63000500D01*
X171600500Y-62907314D01*
X171666392Y-62793186D01*
X171700500Y-62665892D01*
X171700500Y-62534108D01*
X171666392Y-62406814D01*
X171600500Y-62292686D01*
X171599141Y-62291327D01*
X171598362Y-62289901D01*
X171595553Y-62286240D01*
X171596124Y-62285801D01*
X171565656Y-62230004D01*
X171570640Y-62160312D01*
X171612512Y-62104379D01*
X171672939Y-62080426D01*
X171818493Y-62064026D01*
X171818498Y-62064025D01*
X171818508Y-62064024D01*
X172136118Y-61991532D01*
X172414817Y-61894010D01*
X172484595Y-61890449D01*
X172545222Y-61925177D01*
X172577450Y-61987171D01*
X172571045Y-62056746D01*
X172543453Y-62098732D01*
X172499503Y-62142682D01*
X172499500Y-62142686D01*
X172433608Y-62256812D01*
X172425841Y-62285801D01*
X172399500Y-62384108D01*
X172399500Y-62515892D01*
X172416554Y-62579539D01*
X172433608Y-62643187D01*
X172446717Y-62665892D01*
X172499500Y-62757314D01*
X172592686Y-62850500D01*
X172706814Y-62916392D01*
X172834108Y-62950500D01*
X172834110Y-62950500D01*
X172965890Y-62950500D01*
X172965892Y-62950500D01*
X173093186Y-62916392D01*
X173207314Y-62850500D01*
X173300500Y-62757314D01*
X173366392Y-62643186D01*
X173400500Y-62515892D01*
X173400500Y-62384108D01*
X173366392Y-62256814D01*
X173300500Y-62142686D01*
X173207314Y-62049500D01*
X173106911Y-61991532D01*
X173093187Y-61983608D01*
X173029539Y-61966554D01*
X172965892Y-61949500D01*
X172838238Y-61949500D01*
X172771199Y-61929815D01*
X172725444Y-61877011D01*
X172715500Y-61807853D01*
X172744525Y-61744297D01*
X172772264Y-61720507D01*
X173012972Y-61569261D01*
X173267674Y-61366143D01*
X173498034Y-61135783D01*
X173701152Y-60881081D01*
X173874476Y-60605237D01*
X174015826Y-60311722D01*
X174123423Y-60004227D01*
X174195915Y-59686617D01*
X174232391Y-59362889D01*
X174232391Y-59037111D01*
X174195915Y-58713383D01*
X174123423Y-58395773D01*
X174112605Y-58364858D01*
X174055094Y-58200500D01*
X174015826Y-58088278D01*
X173908729Y-57865890D01*
X173874477Y-57794765D01*
X173836364Y-57734108D01*
X173701152Y-57518919D01*
X173498034Y-57264217D01*
X173267674Y-57033857D01*
X173267671Y-57033855D01*
X173142595Y-56934110D01*
X173012972Y-56830739D01*
X172737128Y-56657415D01*
X172737125Y-56657413D01*
X172443616Y-56516066D01*
X172136129Y-56408471D01*
X172136117Y-56408467D01*
X171818511Y-56335976D01*
X171818495Y-56335974D01*
X171494784Y-56299500D01*
X171494780Y-56299500D01*
X171169002Y-56299500D01*
X171168998Y-56299500D01*
X170845286Y-56335974D01*
X170845270Y-56335976D01*
X170527664Y-56408467D01*
X170527652Y-56408471D01*
X170220165Y-56516066D01*
X169926656Y-56657413D01*
X169650811Y-56830738D01*
X169396108Y-57033856D01*
X169165747Y-57264217D01*
X168962629Y-57518920D01*
X168789304Y-57794765D01*
X168647957Y-58088274D01*
X168540362Y-58395761D01*
X168540358Y-58395773D01*
X168467867Y-58713379D01*
X168467865Y-58713395D01*
X168431391Y-59037106D01*
X167009077Y-59037106D01*
X167016392Y-59024436D01*
X167050500Y-58897142D01*
X167050500Y-58765358D01*
X167016392Y-58638064D01*
X166950500Y-58523936D01*
X166857314Y-58430750D01*
X166843910Y-58423011D01*
X166795696Y-58372446D01*
X166782472Y-58303839D01*
X166808440Y-58238974D01*
X166843909Y-58208239D01*
X166857314Y-58200500D01*
X166950500Y-58107314D01*
X167016392Y-57993186D01*
X167050500Y-57865892D01*
X167050500Y-57734108D01*
X167016392Y-57606814D01*
X166950500Y-57492686D01*
X166857314Y-57399500D01*
X166857312Y-57399499D01*
X166856890Y-57399175D01*
X166856622Y-57398808D01*
X166851567Y-57393753D01*
X166852355Y-57392964D01*
X166815687Y-57342748D01*
X166811532Y-57273002D01*
X166844692Y-57213121D01*
X166919250Y-57138564D01*
X166985142Y-57024436D01*
X167019250Y-56897142D01*
X167019250Y-56765358D01*
X166985142Y-56638064D01*
X166919250Y-56523936D01*
X166826064Y-56430750D01*
X166769000Y-56397804D01*
X166711937Y-56364858D01*
X166648289Y-56347804D01*
X166584642Y-56330750D01*
X166452858Y-56330750D01*
X166325562Y-56364858D01*
X166211436Y-56430750D01*
X166211433Y-56430752D01*
X166118252Y-56523933D01*
X166118250Y-56523936D01*
X166052358Y-56638062D01*
X166047173Y-56657415D01*
X166018250Y-56765358D01*
X166018250Y-56897142D01*
X166035304Y-56960789D01*
X166052358Y-57024437D01*
X166076292Y-57065891D01*
X166118250Y-57138564D01*
X166211436Y-57231750D01*
X166211442Y-57231753D01*
X166211857Y-57232072D01*
X166212124Y-57232438D01*
X166217183Y-57237497D01*
X166216394Y-57238285D01*
X166253061Y-57288499D01*
X166257218Y-57358245D01*
X166224055Y-57418131D01*
X166149500Y-57492686D01*
X166083608Y-57606812D01*
X166049500Y-57734108D01*
X166049500Y-57865891D01*
X166083608Y-57993187D01*
X166116554Y-58050250D01*
X166149500Y-58107314D01*
X166242686Y-58200500D01*
X166253478Y-58206730D01*
X166256090Y-58208239D01*
X166304304Y-58258806D01*
X166317526Y-58327414D01*
X166291558Y-58392278D01*
X166256090Y-58423011D01*
X166242689Y-58430748D01*
X166242683Y-58430752D01*
X166149502Y-58523933D01*
X166149500Y-58523936D01*
X166083608Y-58638062D01*
X166049500Y-58765358D01*
X166049500Y-58897141D01*
X166083608Y-59024437D01*
X166098080Y-59049502D01*
X166149500Y-59138564D01*
X166149502Y-59138566D01*
X166217975Y-59207039D01*
X166251460Y-59268362D01*
X166246476Y-59338054D01*
X166204604Y-59393987D01*
X166192297Y-59402106D01*
X166142686Y-59430750D01*
X166142683Y-59430752D01*
X166049502Y-59523933D01*
X166049500Y-59523936D01*
X165983608Y-59638062D01*
X165962620Y-59716392D01*
X165949500Y-59765358D01*
X152023172Y-59765358D01*
X151957314Y-59699500D01*
X151872442Y-59650499D01*
X151843187Y-59633608D01*
X151762580Y-59612010D01*
X151715892Y-59599500D01*
X151584108Y-59599500D01*
X151456812Y-59633608D01*
X151342686Y-59699500D01*
X151342683Y-59699502D01*
X151249502Y-59792683D01*
X151249500Y-59792686D01*
X151183608Y-59906812D01*
X151149500Y-60034108D01*
X143230654Y-60034108D01*
X143178899Y-60004227D01*
X143143187Y-59983608D01*
X143079539Y-59966554D01*
X143015892Y-59949500D01*
X142884108Y-59949500D01*
X142756812Y-59983608D01*
X142642686Y-60049500D01*
X142642683Y-60049502D01*
X142549502Y-60142683D01*
X142549500Y-60142686D01*
X142483608Y-60256812D01*
X142463529Y-60331749D01*
X142449500Y-60384108D01*
X131749076Y-60384108D01*
X131783935Y-60311722D01*
X131891532Y-60004227D01*
X131964024Y-59686617D01*
X131998109Y-59384108D01*
X145049500Y-59384108D01*
X145049500Y-59515892D01*
X145060732Y-59557812D01*
X145083608Y-59643187D01*
X145108675Y-59686604D01*
X145149500Y-59757314D01*
X145242686Y-59850500D01*
X145323472Y-59897142D01*
X145356810Y-59916390D01*
X145356814Y-59916392D01*
X145484108Y-59950500D01*
X145484110Y-59950500D01*
X145615890Y-59950500D01*
X145615892Y-59950500D01*
X145743186Y-59916392D01*
X145857314Y-59850500D01*
X145950500Y-59757314D01*
X146016392Y-59643186D01*
X146050500Y-59515892D01*
X146050500Y-59384108D01*
X146016392Y-59256814D01*
X146016389Y-59256808D01*
X146005520Y-59237982D01*
X146005519Y-59237981D01*
X145974415Y-59184108D01*
X146524497Y-59184108D01*
X146524497Y-59315891D01*
X146558605Y-59443187D01*
X146581422Y-59482706D01*
X146624497Y-59557314D01*
X146717683Y-59650500D01*
X146831811Y-59716392D01*
X146959105Y-59750500D01*
X146959107Y-59750500D01*
X147090887Y-59750500D01*
X147090889Y-59750500D01*
X147218183Y-59716392D01*
X147332311Y-59650500D01*
X147337311Y-59645499D01*
X147398629Y-59612010D01*
X147468321Y-59616988D01*
X147512679Y-59645493D01*
X147517686Y-59650500D01*
X147631814Y-59716392D01*
X147759108Y-59750500D01*
X147759110Y-59750500D01*
X147890890Y-59750500D01*
X147890892Y-59750500D01*
X148018186Y-59716392D01*
X148132314Y-59650500D01*
X148225500Y-59557314D01*
X148291392Y-59443186D01*
X148325500Y-59315892D01*
X148325500Y-59184108D01*
X148291392Y-59056814D01*
X148225500Y-58942686D01*
X148132314Y-58849500D01*
X148104371Y-58833367D01*
X148104370Y-58833366D01*
X148018188Y-58783609D01*
X148018187Y-58783608D01*
X148018186Y-58783608D01*
X147890892Y-58749500D01*
X147759108Y-58749500D01*
X147631813Y-58783608D01*
X147579844Y-58813612D01*
X147517686Y-58849500D01*
X147517684Y-58849501D01*
X147517682Y-58849503D01*
X147512675Y-58854510D01*
X147451350Y-58887992D01*
X147381659Y-58883005D01*
X147337317Y-58854506D01*
X147332313Y-58849502D01*
X147332311Y-58849500D01*
X147275247Y-58816554D01*
X147218184Y-58783608D01*
X147150072Y-58765358D01*
X147090889Y-58749500D01*
X146959105Y-58749500D01*
X146831809Y-58783608D01*
X146717683Y-58849500D01*
X146717680Y-58849502D01*
X146624499Y-58942683D01*
X146624497Y-58942686D01*
X146558605Y-59056812D01*
X146524497Y-59184108D01*
X145974415Y-59184108D01*
X145950500Y-59142686D01*
X145857314Y-59049500D01*
X145774240Y-59001537D01*
X145743187Y-58983608D01*
X145679539Y-58966554D01*
X145615892Y-58949500D01*
X145484108Y-58949500D01*
X145356812Y-58983608D01*
X145242686Y-59049500D01*
X145242683Y-59049502D01*
X145149502Y-59142683D01*
X145149500Y-59142686D01*
X145083608Y-59256812D01*
X145055184Y-59362893D01*
X145049500Y-59384108D01*
X131998109Y-59384108D01*
X132000500Y-59362889D01*
X132000500Y-59037111D01*
X131966359Y-58734108D01*
X152749500Y-58734108D01*
X152749500Y-58865892D01*
X152755422Y-58887992D01*
X152783608Y-58993187D01*
X152801650Y-59024436D01*
X152849500Y-59107314D01*
X152942686Y-59200500D01*
X153056814Y-59266392D01*
X153184108Y-59300500D01*
X153184110Y-59300500D01*
X153315890Y-59300500D01*
X153315892Y-59300500D01*
X153443186Y-59266392D01*
X153557314Y-59200500D01*
X153650500Y-59107314D01*
X153716392Y-58993186D01*
X153750500Y-58865892D01*
X153750500Y-58734108D01*
X153716392Y-58606814D01*
X153650500Y-58492686D01*
X153557314Y-58399500D01*
X153500250Y-58366554D01*
X153443187Y-58333608D01*
X153379539Y-58316554D01*
X153315892Y-58299500D01*
X153184108Y-58299500D01*
X153056812Y-58333608D01*
X152942686Y-58399500D01*
X152942683Y-58399502D01*
X152849502Y-58492683D01*
X152849500Y-58492686D01*
X152783608Y-58606812D01*
X152762718Y-58684778D01*
X152749500Y-58734108D01*
X131966359Y-58734108D01*
X131964024Y-58713383D01*
X131891532Y-58395773D01*
X131880714Y-58364858D01*
X131823203Y-58200500D01*
X131783935Y-58088278D01*
X131783932Y-58088273D01*
X131783930Y-58088266D01*
X131731687Y-57979782D01*
X131709691Y-57934108D01*
X153949500Y-57934108D01*
X153949500Y-58065892D01*
X153966554Y-58129539D01*
X153983608Y-58193187D01*
X154010044Y-58238974D01*
X154049500Y-58307314D01*
X154142686Y-58400500D01*
X154256814Y-58466392D01*
X154384108Y-58500500D01*
X154384110Y-58500500D01*
X154515890Y-58500500D01*
X154515892Y-58500500D01*
X154643186Y-58466392D01*
X154757314Y-58400500D01*
X154850500Y-58307314D01*
X154916392Y-58193186D01*
X154950500Y-58065892D01*
X154950500Y-57934108D01*
X154916392Y-57806814D01*
X154909435Y-57794765D01*
X154874416Y-57734110D01*
X154850500Y-57692686D01*
X154757314Y-57599500D01*
X154700250Y-57566554D01*
X154643187Y-57533608D01*
X154579539Y-57516554D01*
X154515892Y-57499500D01*
X154384108Y-57499500D01*
X154256812Y-57533608D01*
X154142686Y-57599500D01*
X154142683Y-57599502D01*
X154049502Y-57692683D01*
X154049500Y-57692686D01*
X153983608Y-57806812D01*
X153949500Y-57934108D01*
X131709691Y-57934108D01*
X131642586Y-57794765D01*
X131604473Y-57734108D01*
X131469261Y-57518919D01*
X131266143Y-57264217D01*
X131035783Y-57033857D01*
X131035782Y-57033856D01*
X131035781Y-57033855D01*
X131022078Y-57022927D01*
X130910702Y-56934108D01*
X158599500Y-56934108D01*
X158599500Y-57065891D01*
X158633608Y-57193187D01*
X158645115Y-57213117D01*
X158699500Y-57307314D01*
X158792686Y-57400500D01*
X158906814Y-57466392D01*
X159034108Y-57500500D01*
X159034110Y-57500500D01*
X159165890Y-57500500D01*
X159165892Y-57500500D01*
X159293186Y-57466392D01*
X159407314Y-57400500D01*
X159500500Y-57307314D01*
X159566392Y-57193186D01*
X159600500Y-57065892D01*
X159600500Y-56934108D01*
X159566392Y-56806814D01*
X159500500Y-56692686D01*
X159407314Y-56599500D01*
X159322442Y-56550499D01*
X159293187Y-56533608D01*
X159227714Y-56516065D01*
X159165892Y-56499500D01*
X159034108Y-56499500D01*
X158906812Y-56533608D01*
X158792686Y-56599500D01*
X158792683Y-56599502D01*
X158699502Y-56692683D01*
X158699500Y-56692686D01*
X158633608Y-56806812D01*
X158599500Y-56934108D01*
X130910702Y-56934108D01*
X130864348Y-56897142D01*
X130781081Y-56830739D01*
X130505237Y-56657415D01*
X130505234Y-56657413D01*
X130211725Y-56516066D01*
X129904238Y-56408471D01*
X129904226Y-56408467D01*
X129586620Y-56335976D01*
X129586604Y-56335974D01*
X129262893Y-56299500D01*
X129262889Y-56299500D01*
X128937111Y-56299500D01*
X128937107Y-56299500D01*
X128613395Y-56335974D01*
X128613379Y-56335976D01*
X128295773Y-56408467D01*
X128295761Y-56408471D01*
X127988274Y-56516066D01*
X127694765Y-56657413D01*
X127418920Y-56830738D01*
X127164217Y-57033856D01*
X126933856Y-57264217D01*
X126730738Y-57518920D01*
X126557413Y-57794765D01*
X126416066Y-58088274D01*
X126308471Y-58395761D01*
X126308467Y-58395773D01*
X126235976Y-58713379D01*
X126235974Y-58713395D01*
X126199500Y-59037106D01*
X124873687Y-59037106D01*
X124919367Y-58690137D01*
X124921240Y-58679510D01*
X125005375Y-58300004D01*
X125008166Y-58289589D01*
X125125057Y-57918857D01*
X125128741Y-57908736D01*
X125277499Y-57549603D01*
X125282057Y-57539829D01*
X125461551Y-57195024D01*
X125466933Y-57185703D01*
X125675788Y-56857867D01*
X125681979Y-56849024D01*
X125918613Y-56540638D01*
X125925551Y-56532369D01*
X126188158Y-56245784D01*
X126195784Y-56238158D01*
X126473031Y-55984108D01*
X139099500Y-55984108D01*
X139099500Y-56115891D01*
X139133608Y-56243187D01*
X139147005Y-56266391D01*
X139199500Y-56357314D01*
X139292686Y-56450500D01*
X139391521Y-56507563D01*
X139406247Y-56516065D01*
X139406814Y-56516392D01*
X139534108Y-56550500D01*
X139534110Y-56550500D01*
X139665890Y-56550500D01*
X139665892Y-56550500D01*
X139793186Y-56516392D01*
X139907314Y-56450500D01*
X140000500Y-56357314D01*
X140066392Y-56243186D01*
X140100500Y-56115892D01*
X140100500Y-55984108D01*
X140066392Y-55856814D01*
X140000500Y-55742686D01*
X139991922Y-55734108D01*
X148499500Y-55734108D01*
X148499500Y-55865892D01*
X148502640Y-55877609D01*
X148533608Y-55993187D01*
X148566554Y-56050250D01*
X148599500Y-56107314D01*
X148692686Y-56200500D01*
X148806814Y-56266392D01*
X148934108Y-56300500D01*
X148934110Y-56300500D01*
X149065890Y-56300500D01*
X149065892Y-56300500D01*
X149193186Y-56266392D01*
X149307314Y-56200500D01*
X149400500Y-56107314D01*
X149466392Y-55993186D01*
X149500500Y-55865892D01*
X149500500Y-55734108D01*
X149466392Y-55606814D01*
X149400500Y-55492686D01*
X149307314Y-55399500D01*
X149250250Y-55366554D01*
X149193187Y-55333608D01*
X149129539Y-55316554D01*
X149065892Y-55299500D01*
X148934108Y-55299500D01*
X148806812Y-55333608D01*
X148692686Y-55399500D01*
X148692683Y-55399502D01*
X148599502Y-55492683D01*
X148599500Y-55492686D01*
X148533608Y-55606812D01*
X148522170Y-55649500D01*
X148499500Y-55734108D01*
X139991922Y-55734108D01*
X139907314Y-55649500D01*
X139833380Y-55606814D01*
X139793187Y-55583608D01*
X139729539Y-55566554D01*
X139665892Y-55549500D01*
X139534108Y-55549500D01*
X139406812Y-55583608D01*
X139292686Y-55649500D01*
X139292683Y-55649502D01*
X139199502Y-55742683D01*
X139199500Y-55742686D01*
X139133608Y-55856812D01*
X139099500Y-55984108D01*
X126473031Y-55984108D01*
X126482369Y-55975551D01*
X126490638Y-55968613D01*
X126799035Y-55731971D01*
X126807867Y-55725788D01*
X127135703Y-55516933D01*
X127145024Y-55511551D01*
X127489829Y-55332057D01*
X127499603Y-55327499D01*
X127858736Y-55178741D01*
X127868857Y-55175057D01*
X128239589Y-55058166D01*
X128250004Y-55055375D01*
X128629510Y-54971240D01*
X128640137Y-54969367D01*
X129025524Y-54918629D01*
X129036255Y-54917690D01*
X129414776Y-54901164D01*
X129427298Y-54900618D01*
X129432706Y-54900500D01*
X129495892Y-54900500D01*
X170604108Y-54900500D01*
X170667294Y-54900500D01*
X170672702Y-54900618D01*
G37*
%TD.AperFunction*%
%TD*%
M02*
