%TF.GenerationSoftware,KiCad,Pcbnew,10.0.1*%
%TF.CreationDate,2026-05-11T01:31:14-07:00*%
%TF.ProjectId,SMU V3,534d5520-5633-42e6-9b69-6361645f7063,rev?*%
%TF.SameCoordinates,Original*%
%TF.FileFunction,Copper,L4,Bot*%
%TF.FilePolarity,Positive*%
%FSLAX46Y46*%
G04 Gerber Fmt 4.6, Leading zero omitted, Abs format (unit mm)*
G04 Created by KiCad (PCBNEW 10.0.1) date 2026-05-11 01:31:14*
%MOMM*%
%LPD*%
G01*
G04 APERTURE LIST*
G04 Aperture macros list*
%AMRoundRect*
0 Rectangle with rounded corners*
0 $1 Rounding radius*
0 $2 $3 $4 $5 $6 $7 $8 $9 X,Y pos of 4 corners*
0 Add a 4 corners polygon primitive as box body*
4,1,4,$2,$3,$4,$5,$6,$7,$8,$9,$2,$3,0*
0 Add four circle primitives for the rounded corners*
1,1,$1+$1,$2,$3*
1,1,$1+$1,$4,$5*
1,1,$1+$1,$6,$7*
1,1,$1+$1,$8,$9*
0 Add four rect primitives between the rounded corners*
20,1,$1+$1,$2,$3,$4,$5,0*
20,1,$1+$1,$4,$5,$6,$7,0*
20,1,$1+$1,$6,$7,$8,$9,0*
20,1,$1+$1,$8,$9,$2,$3,0*%
G04 Aperture macros list end*
%TA.AperFunction,SMDPad,CuDef*%
%ADD10RoundRect,0.250000X-0.750000X1.650000X-0.750000X-1.650000X0.750000X-1.650000X0.750000X1.650000X0*%
%TD*%
%TA.AperFunction,ComponentPad*%
%ADD11C,2.400000*%
%TD*%
%TA.AperFunction,ComponentPad*%
%ADD12RoundRect,0.250001X-0.759999X0.499999X-0.759999X-0.499999X0.759999X-0.499999X0.759999X0.499999X0*%
%TD*%
%TA.AperFunction,ComponentPad*%
%ADD13O,2.020000X1.500000*%
%TD*%
%TA.AperFunction,ComponentPad*%
%ADD14C,0.800000*%
%TD*%
%TA.AperFunction,ComponentPad*%
%ADD15C,5.400000*%
%TD*%
%TA.AperFunction,ComponentPad*%
%ADD16C,5.600000*%
%TD*%
%TA.AperFunction,SMDPad,CuDef*%
%ADD17RoundRect,0.250000X1.650000X0.750000X-1.650000X0.750000X-1.650000X-0.750000X1.650000X-0.750000X0*%
%TD*%
%TA.AperFunction,ViaPad*%
%ADD18C,0.600000*%
%TD*%
%TA.AperFunction,Conductor*%
%ADD19C,0.200000*%
%TD*%
%TA.AperFunction,Conductor*%
%ADD20C,1.600000*%
%TD*%
G04 APERTURE END LIST*
D10*
%TO.P,TP301,1*%
%TO.N,GND*%
X139450000Y-73650000D03*
%TD*%
D11*
%TO.P,J1101,1*%
%TO.N,/Antenna1/ANT1_OUT_RF*%
X131100000Y-72000000D03*
%TO.P,J1101,2*%
%TO.N,GND*%
X128560000Y-69460000D03*
X128560000Y-74540000D03*
X133640000Y-69460000D03*
X133640000Y-74540000D03*
%TD*%
D12*
%TO.P,J402,1,VBATT+_1*%
%TO.N,/Main IO/VBATT+*%
X164830000Y-75000000D03*
D13*
%TO.P,J402,2,GND_2*%
%TO.N,GND*%
X164830000Y-78000000D03*
%TO.P,J402,3,CANL_3*%
%TO.N,/CAN+*%
X164830000Y-81000000D03*
%TO.P,J402,4,CANH_4*%
%TO.N,/CAN-*%
X164830000Y-84000000D03*
%TD*%
D14*
%TO.P,H104,1,1_1*%
%TO.N,GND*%
X169306891Y-59200000D03*
X169900000Y-57768109D03*
X169900000Y-60631891D03*
X171331891Y-57175000D03*
D15*
X171331891Y-59200000D03*
D14*
X171331891Y-61225000D03*
X172763782Y-57768109D03*
X172763782Y-60631891D03*
X173356891Y-59200000D03*
%TD*%
D12*
%TO.P,J401,1,VBATT+_1*%
%TO.N,/Main IO/VBATT+*%
X164935000Y-93700000D03*
D13*
%TO.P,J401,2,GND_2*%
%TO.N,GND*%
X164935000Y-96700000D03*
%TO.P,J401,3,CANL_3*%
%TO.N,/CAN+*%
X164935000Y-99700000D03*
%TO.P,J401,4,CANH_4*%
%TO.N,/CAN-*%
X164935000Y-102700000D03*
%TD*%
D14*
%TO.P,H102,1,1_1*%
%TO.N,GND*%
X169375000Y-126750000D03*
X169968109Y-125318109D03*
X169968109Y-128181891D03*
X171400000Y-124725000D03*
D15*
X171400000Y-126750000D03*
D14*
X171400000Y-128775000D03*
X172831891Y-125318109D03*
X172831891Y-128181891D03*
X173425000Y-126750000D03*
%TD*%
D16*
%TO.P,MCU201,NC*%
%TO.N,N/C*%
X140512500Y-120206250D03*
X171722500Y-120206250D03*
%TD*%
D14*
%TO.P,H103,1,1_1*%
%TO.N,GND*%
X127075000Y-126750000D03*
X127668109Y-125318109D03*
X127668109Y-128181891D03*
X129100000Y-124725000D03*
D15*
X129100000Y-126750000D03*
D14*
X129100000Y-128775000D03*
X130531891Y-125318109D03*
X130531891Y-128181891D03*
X131125000Y-126750000D03*
%TD*%
%TO.P,H101,1,1_1*%
%TO.N,GND*%
X127075000Y-59200000D03*
X127668109Y-57768109D03*
X127668109Y-60631891D03*
X129100000Y-57175000D03*
D15*
X129100000Y-59200000D03*
D14*
X129100000Y-61225000D03*
X130531891Y-57768109D03*
X130531891Y-60631891D03*
X131125000Y-59200000D03*
%TD*%
D11*
%TO.P,J1201,1*%
%TO.N,/Antenna2/ANT2_OUT_RF*%
X130550000Y-94700000D03*
%TO.P,J1201,2*%
%TO.N,GND*%
X128010000Y-92160000D03*
X128010000Y-97240000D03*
X133090000Y-92160000D03*
X133090000Y-97240000D03*
%TD*%
D17*
%TO.P,TP502,1*%
%TO.N,/GPS1.UART_TX*%
X144000000Y-82500000D03*
%TD*%
%TO.P,TP501,1*%
%TO.N,/GPS1.UART_RX*%
X143900000Y-78100000D03*
%TD*%
%TO.P,TP602,1*%
%TO.N,/IMU_SPI.MISO*%
X144500000Y-56750000D03*
%TD*%
%TO.P,TP503,1*%
%TO.N,/GPS/GPS2.UART_RX*%
X145300000Y-93150000D03*
%TD*%
%TO.P,TP504,1*%
%TO.N,/GPS/GPS2.UART_TX*%
X145300000Y-98450000D03*
%TD*%
%TO.P,TP601,1*%
%TO.N,/IMU_SPI.CS*%
X139150000Y-61450000D03*
%TD*%
%TO.P,TP604,1*%
%TO.N,/IMU_SPI.SCK*%
X139150000Y-58450000D03*
%TD*%
%TO.P,TP603,1*%
%TO.N,/IMU_SPI.MOSI*%
X156200000Y-62600000D03*
%TD*%
D18*
%TO.N,GND*%
X163267500Y-109610000D03*
X146850000Y-106493750D03*
X163267500Y-107960000D03*
X161171500Y-113168750D03*
%TO.N,+5V*%
X153706500Y-105518750D03*
%TO.N,GND*%
X161171500Y-110618750D03*
X163167500Y-112810000D03*
X161271500Y-115668750D03*
X163217500Y-111210000D03*
X158644000Y-104073750D03*
X136221500Y-112443750D03*
X161221500Y-108118750D03*
X145000000Y-76400000D03*
X164169843Y-122869346D03*
X166550000Y-58831250D03*
X135100000Y-88200000D03*
X143050000Y-70100000D03*
X152600000Y-101200000D03*
X140000000Y-69650000D03*
X170600000Y-70200000D03*
X147800000Y-112800000D03*
X141347346Y-103870205D03*
X146300000Y-102600000D03*
X172900000Y-62450000D03*
X128600000Y-120400000D03*
X170700000Y-66700000D03*
X163600000Y-115000000D03*
X140700000Y-94700000D03*
X159100000Y-57000000D03*
X166550000Y-57800000D03*
X151200000Y-112800000D03*
X171200000Y-62600000D03*
X149100000Y-98000000D03*
X156700000Y-90300000D03*
X150200000Y-106800000D03*
X136700000Y-92800000D03*
X150000000Y-94000000D03*
X127900000Y-80400000D03*
X154112500Y-102075000D03*
X136400000Y-104300000D03*
X139300000Y-78000000D03*
X172500000Y-64500000D03*
X142247900Y-75988928D03*
X174100000Y-94250000D03*
X141300000Y-86300000D03*
X152300000Y-120200000D03*
X160694000Y-87869000D03*
X138800000Y-91300000D03*
X157085250Y-87452750D03*
X167800000Y-62300000D03*
X166450000Y-59831250D03*
X166518750Y-56831250D03*
X164800000Y-72100000D03*
X149250000Y-79850000D03*
X153300000Y-106700000D03*
X158000000Y-60700000D03*
X173050000Y-67400000D03*
X154817325Y-121751749D03*
X161600000Y-104900000D03*
X171400000Y-89050000D03*
X136387500Y-66450000D03*
X127700000Y-86800000D03*
X132500000Y-82800000D03*
X162400000Y-61600000D03*
X174350000Y-105000000D03*
X159342500Y-70100000D03*
X143700000Y-71650000D03*
X155350000Y-93250000D03*
X173650000Y-69750000D03*
X144900000Y-90100000D03*
X143150000Y-74100000D03*
X150100000Y-112800000D03*
X145400000Y-68400000D03*
X169450000Y-65850000D03*
X147100000Y-90000000D03*
X129406709Y-104517234D03*
X159000000Y-102650000D03*
X144900000Y-106600000D03*
X168200000Y-64800000D03*
X173750000Y-74250000D03*
X155562500Y-101350000D03*
X154100000Y-113600000D03*
X148855373Y-112792089D03*
X170950000Y-86800000D03*
X154000000Y-87000000D03*
X133200000Y-120600000D03*
X148000000Y-122000000D03*
X154500000Y-91900000D03*
X135900000Y-80900000D03*
X172650000Y-84550000D03*
%TO.N,/Main IO/VBATT+*%
X127700000Y-110600000D03*
X129100000Y-109700000D03*
X128100000Y-112100000D03*
X127000000Y-112300000D03*
X130100000Y-108400000D03*
X133138239Y-109309346D03*
X133500000Y-108400000D03*
X128300000Y-113300000D03*
X130300000Y-109500000D03*
X131700000Y-109400000D03*
%TO.N,+5V*%
X162632500Y-104700000D03*
X158250000Y-101600000D03*
X163100000Y-56850000D03*
X160350000Y-75675000D03*
X162950000Y-59950000D03*
X163050000Y-57900000D03*
X138387500Y-66000000D03*
X142237500Y-66850000D03*
X158450000Y-75700000D03*
X163950000Y-123850000D03*
X162950000Y-58950000D03*
%TO.N,/GPS2.WKUP*%
X152800000Y-87351471D03*
X148900000Y-64150000D03*
%TO.N,/GPS2.PPS*%
X150050000Y-64250000D03*
X150300000Y-86225000D03*
%TO.N,/GPS/GPS2.UART_TX*%
X142200000Y-97200000D03*
%TO.N,/GPS/GPS2.UART_RX*%
X146250000Y-95300000D03*
%TO.N,/CAN+*%
X147024997Y-59250000D03*
%TO.N,/CAN-*%
X147825000Y-59250000D03*
%TO.N,/GPS1.UART_RX*%
X148200000Y-66700000D03*
X149300000Y-78250000D03*
%TO.N,/GPS1.UART_TX*%
X147350000Y-81250000D03*
X152400000Y-66650000D03*
%TO.N,/IMU/IMU_INT2*%
X142600000Y-65250000D03*
X151650000Y-60100000D03*
%TO.N,/IMU/IMU_INT1*%
X153250000Y-58800000D03*
X139600000Y-56050000D03*
%TO.N,/IMU_SPI.MOSI*%
X154450000Y-58000000D03*
%TO.N,/IMU_SPI.MISO*%
X149000000Y-55800000D03*
%TO.N,/IMU_SPI.SCK*%
X145550000Y-59450000D03*
%TO.N,/IMU_SPI.CS*%
X142950000Y-60450000D03*
%TO.N,/Microcontroller/GPS_RTK*%
X157400000Y-66700000D03*
X158750000Y-124400000D03*
%TO.N,/Microcontroller/GPS_Standard*%
X156050000Y-70850000D03*
X145950000Y-126300000D03*
%TO.N,/Microcontroller/GPS_Error*%
X137150000Y-126500000D03*
X154850000Y-66350000D03*
%TD*%
%TO.N,/GPS2.WKUP*%
D19*
X148900000Y-63750000D02*
X148900000Y-64150000D01*
X149150000Y-63500000D02*
X148900000Y-63750000D01*
X151475000Y-63500000D02*
X149150000Y-63500000D01*
X153750000Y-65775000D02*
X151475000Y-63500000D01*
X152800000Y-87351471D02*
X153750000Y-86401471D01*
X153750000Y-86401471D02*
X153750000Y-65775000D01*
%TO.N,/Main IO/VBATT+*%
D20*
X164935000Y-89671245D02*
X171700000Y-82906245D01*
X164935000Y-93700000D02*
X164935000Y-89671245D01*
X171700000Y-76093755D02*
X170206245Y-74600000D01*
X170206245Y-74600000D02*
X165230000Y-74600000D01*
X171700000Y-82906245D02*
X171700000Y-76093755D01*
X165230000Y-74600000D02*
X164830000Y-75000000D01*
%TO.N,/GPS2.PPS*%
D19*
X151700000Y-84825000D02*
X150300000Y-86225000D01*
X151700000Y-64750000D02*
X151700000Y-84825000D01*
X150050000Y-64250000D02*
X151200000Y-64250000D01*
X151200000Y-64250000D02*
X151700000Y-64750000D01*
%TO.N,/GPS/GPS2.UART_TX*%
X145300000Y-98450000D02*
X144050000Y-97200000D01*
X144050000Y-97200000D02*
X142200000Y-97200000D01*
%TO.N,/GPS/GPS2.UART_RX*%
X146200000Y-95250000D02*
X146250000Y-95300000D01*
X146200000Y-93100000D02*
X146200000Y-95250000D01*
%TO.N,/CAN+*%
X161525000Y-80058603D02*
X162466397Y-81000000D01*
X166140000Y-84710000D02*
X161700000Y-89150000D01*
X162466397Y-81000000D02*
X164830000Y-81000000D01*
X147576471Y-58650000D02*
X147624997Y-58650000D01*
X161700000Y-89150000D02*
X161700000Y-98884314D01*
X166140000Y-82310000D02*
X166140000Y-84710000D01*
X147225000Y-59001471D02*
X147576471Y-58650000D01*
X147624997Y-58650000D02*
X149999997Y-56275000D01*
X161700000Y-98884314D02*
X162515686Y-99700000D01*
X161525000Y-60606802D02*
X161525000Y-80058603D01*
X147225000Y-59049997D02*
X147225000Y-59001471D01*
X164830000Y-81000000D02*
X166140000Y-82310000D01*
X157193198Y-56275000D02*
X161525000Y-60606802D01*
X162515686Y-99700000D02*
X164935000Y-99700000D01*
X147024997Y-59250000D02*
X147225000Y-59049997D01*
X149999997Y-56275000D02*
X157193198Y-56275000D01*
%TO.N,/CAN-*%
X161075000Y-60793198D02*
X161075000Y-80245000D01*
X150186394Y-56725000D02*
X157006802Y-56725000D01*
X147825000Y-59250000D02*
X147825000Y-59086394D01*
X157006802Y-56725000D02*
X161075000Y-60793198D01*
X164830000Y-84000000D02*
X161300000Y-87530000D01*
X147825000Y-59086394D02*
X150186394Y-56725000D01*
X163400000Y-101165000D02*
X164935000Y-102700000D01*
X163400000Y-101150000D02*
X163400000Y-101165000D01*
X161300000Y-87530000D02*
X161300000Y-99050000D01*
X161075000Y-80245000D02*
X164830000Y-84000000D01*
X161300000Y-99050000D02*
X163400000Y-101150000D01*
%TO.N,/GPS1.UART_RX*%
X143900000Y-78100000D02*
X149150000Y-78100000D01*
X149300000Y-78250000D02*
X149300000Y-76550000D01*
X149300000Y-76550000D02*
X149300000Y-67800000D01*
X149300000Y-67800000D02*
X148200000Y-66700000D01*
X149150000Y-78100000D02*
X149300000Y-78250000D01*
%TO.N,/GPS1.UART_TX*%
X148450000Y-88150000D02*
X147450000Y-87150000D01*
X147450000Y-82800000D02*
X147450000Y-81350000D01*
X147450000Y-87150000D02*
X147450000Y-82800000D01*
X144000000Y-82500000D02*
X147150000Y-82500000D01*
X147150000Y-82500000D02*
X147450000Y-82800000D01*
X152300000Y-86500000D02*
X150650000Y-88150000D01*
X152400000Y-66650000D02*
X152300000Y-66750000D01*
X152300000Y-66750000D02*
X152300000Y-86500000D01*
X150650000Y-88150000D02*
X148450000Y-88150000D01*
X147450000Y-81350000D02*
X147350000Y-81250000D01*
%TO.N,/IMU/IMU_INT2*%
X146600000Y-64250000D02*
X143600000Y-64250000D01*
X143600000Y-64250000D02*
X142600000Y-65250000D01*
X151650000Y-60100000D02*
X150750000Y-60100000D01*
X150750000Y-60100000D02*
X146600000Y-64250000D01*
%TO.N,/IMU/IMU_INT1*%
X137000000Y-63200000D02*
X145450000Y-63200000D01*
X134500000Y-57050000D02*
X134500000Y-60700000D01*
X149850000Y-58800000D02*
X153250000Y-58800000D01*
X139600000Y-56050000D02*
X135500000Y-56050000D01*
X145450000Y-63200000D02*
X149850000Y-58800000D01*
X135500000Y-56050000D02*
X134500000Y-57050000D01*
X134500000Y-60700000D02*
X137000000Y-63200000D01*
%TO.N,/IMU_SPI.MOSI*%
X156200000Y-59750000D02*
X154450000Y-58000000D01*
X156200000Y-62600000D02*
X156200000Y-59750000D01*
%TO.N,/IMU_SPI.MISO*%
X144500000Y-56750000D02*
X148050000Y-56750000D01*
X148050000Y-56750000D02*
X149000000Y-55800000D01*
%TO.N,/IMU_SPI.SCK*%
X137350000Y-58450000D02*
X144550000Y-58450000D01*
X144550000Y-58450000D02*
X145550000Y-59450000D01*
%TO.N,/IMU_SPI.CS*%
X139150000Y-61450000D02*
X141950000Y-61450000D01*
X141950000Y-61450000D02*
X142950000Y-60450000D01*
%TO.N,/Microcontroller/GPS_RTK*%
X157650000Y-124350000D02*
X157650000Y-101351471D01*
X158750000Y-124400000D02*
X157700000Y-124400000D01*
X157650000Y-101351471D02*
X157685250Y-101316221D01*
X157685250Y-66985250D02*
X157400000Y-66700000D01*
X157700000Y-124400000D02*
X157650000Y-124350000D01*
X157685250Y-101316221D02*
X157685250Y-66985250D01*
%TO.N,/Microcontroller/GPS_Standard*%
X156000000Y-70900000D02*
X156050000Y-70850000D01*
X156100000Y-78750000D02*
X156000000Y-78650000D01*
X146950000Y-125300000D02*
X146950000Y-108379465D01*
X156000000Y-78650000D02*
X156000000Y-70900000D01*
X146950000Y-108379465D02*
X156100000Y-99229465D01*
X145950000Y-126300000D02*
X146950000Y-125300000D01*
X156100000Y-99229465D02*
X156100000Y-78750000D01*
%TO.N,/Microcontroller/GPS_Error*%
X144300000Y-122600000D02*
X144300000Y-110463779D01*
X140300000Y-126600000D02*
X144300000Y-122600000D01*
X144300000Y-110463779D02*
X147800000Y-106963779D01*
X137250000Y-126600000D02*
X140300000Y-126600000D01*
X147800000Y-97751471D02*
X154850000Y-90701471D01*
X137150000Y-126500000D02*
X137250000Y-126600000D01*
X147800000Y-106963779D02*
X147800000Y-97751471D01*
X154850000Y-90701471D02*
X154850000Y-66350000D01*
%TD*%
%TA.AperFunction,Conductor*%
%TO.N,/Main IO/VBATT+*%
G36*
X134874540Y-107519685D02*
G01*
X134920295Y-107572489D01*
X134926360Y-107588664D01*
X135981471Y-111137676D01*
X135981706Y-111207545D01*
X135959271Y-111250684D01*
X131577146Y-116703995D01*
X131519809Y-116743923D01*
X131449987Y-116746514D01*
X131403473Y-116723507D01*
X131378851Y-116703995D01*
X126259202Y-112646915D01*
X126218887Y-112589852D01*
X126214534Y-112525875D01*
X127180365Y-107600141D01*
X127212581Y-107538141D01*
X127273202Y-107503402D01*
X127302048Y-107500000D01*
X134807501Y-107500000D01*
X134874540Y-107519685D01*
G37*
%TD.AperFunction*%
%TD*%
%TA.AperFunction,Conductor*%
%TO.N,GND*%
G36*
X170668593Y-54900528D02*
G01*
X170671417Y-54900589D01*
X170674016Y-54900675D01*
X170685810Y-54901189D01*
X170685818Y-54901192D01*
X170685819Y-54901190D01*
X171061044Y-54917572D01*
X171066413Y-54917923D01*
X171071818Y-54918397D01*
X171077144Y-54918981D01*
X171457217Y-54969018D01*
X171462487Y-54969829D01*
X171467850Y-54970775D01*
X171473094Y-54971817D01*
X171847369Y-55054793D01*
X171852597Y-55056072D01*
X171857808Y-55057469D01*
X171857819Y-55057472D01*
X171862997Y-55058982D01*
X171976822Y-55094870D01*
X172228577Y-55174248D01*
X172233662Y-55175974D01*
X172238740Y-55177823D01*
X172243761Y-55179776D01*
X172597906Y-55326468D01*
X172602826Y-55328633D01*
X172605592Y-55329923D01*
X172607759Y-55330934D01*
X172612593Y-55333319D01*
X172739726Y-55399500D01*
X172918754Y-55492696D01*
X172952562Y-55510295D01*
X172957290Y-55512888D01*
X172961969Y-55515590D01*
X172966573Y-55518384D01*
X173017823Y-55551034D01*
X173172384Y-55649500D01*
X173289878Y-55724352D01*
X173294291Y-55727300D01*
X173298799Y-55730457D01*
X173303110Y-55733618D01*
X173607226Y-55966975D01*
X173611409Y-55970332D01*
X173615588Y-55973838D01*
X173619624Y-55977379D01*
X173682006Y-56034541D01*
X173902207Y-56236318D01*
X173906115Y-56240059D01*
X173909939Y-56243883D01*
X173913669Y-56247779D01*
X174099426Y-56450498D01*
X174172612Y-56530366D01*
X174176162Y-56534414D01*
X174179662Y-56538584D01*
X174183018Y-56542765D01*
X174416374Y-56846880D01*
X174419547Y-56851207D01*
X174422683Y-56855687D01*
X174425669Y-56860157D01*
X174461174Y-56915889D01*
X174461177Y-56915892D01*
X174625927Y-57174498D01*
X174625928Y-57174498D01*
X174631592Y-57183388D01*
X174634407Y-57188027D01*
X174634409Y-57188030D01*
X174637116Y-57192720D01*
X174639710Y-57197449D01*
X174691641Y-57297206D01*
X174783606Y-57473871D01*
X174816679Y-57537403D01*
X174819075Y-57542261D01*
X174821368Y-57547179D01*
X174823544Y-57552125D01*
X174970214Y-57906216D01*
X174972173Y-57911254D01*
X174974016Y-57916317D01*
X174975756Y-57921443D01*
X174989770Y-57965889D01*
X174989772Y-57965892D01*
X175091015Y-58286994D01*
X175092527Y-58292182D01*
X175093923Y-58297391D01*
X175095211Y-58302652D01*
X175178171Y-58676862D01*
X175179226Y-58682165D01*
X175180164Y-58687484D01*
X175180987Y-58692834D01*
X175231013Y-59072816D01*
X175231602Y-59078197D01*
X175232073Y-59083582D01*
X175232427Y-59088969D01*
X175233229Y-59107309D01*
X175233229Y-59107318D01*
X175246976Y-59422200D01*
X175249322Y-59475925D01*
X175249410Y-59478625D01*
X175249470Y-59481370D01*
X175249500Y-59484080D01*
X175249500Y-125715918D01*
X175249470Y-125718626D01*
X175249410Y-125721373D01*
X175249322Y-125724074D01*
X175232428Y-126111019D01*
X175232073Y-126116433D01*
X175231601Y-126121820D01*
X175231013Y-126127182D01*
X175180987Y-126507164D01*
X175180164Y-126512514D01*
X175179226Y-126517833D01*
X175178171Y-126523136D01*
X175095211Y-126897346D01*
X175093924Y-126902603D01*
X175093924Y-126902604D01*
X175092530Y-126907806D01*
X175091017Y-126912998D01*
X174975761Y-127278543D01*
X174974023Y-127283662D01*
X174972176Y-127288737D01*
X174970214Y-127293783D01*
X174823544Y-127647873D01*
X174821368Y-127652819D01*
X174819075Y-127657737D01*
X174816679Y-127662595D01*
X174639709Y-128002552D01*
X174637109Y-128007292D01*
X174634406Y-128011974D01*
X174631597Y-128016602D01*
X174425676Y-128339831D01*
X174422678Y-128344320D01*
X174419569Y-128348761D01*
X174416363Y-128353133D01*
X174183037Y-128657209D01*
X174179645Y-128661435D01*
X174176174Y-128665571D01*
X174172612Y-128669632D01*
X173913680Y-128952207D01*
X173909939Y-128956115D01*
X173906115Y-128959939D01*
X173902207Y-128963680D01*
X173619632Y-129222612D01*
X173615571Y-129226174D01*
X173611435Y-129229645D01*
X173607209Y-129233037D01*
X173303133Y-129466363D01*
X173298761Y-129469569D01*
X173294320Y-129472678D01*
X173289831Y-129475676D01*
X172966602Y-129681597D01*
X172961974Y-129684406D01*
X172957292Y-129687109D01*
X172952552Y-129689709D01*
X172612595Y-129866679D01*
X172607737Y-129869075D01*
X172602819Y-129871368D01*
X172597873Y-129873544D01*
X172243783Y-130020214D01*
X172238737Y-130022176D01*
X172233662Y-130024023D01*
X172228543Y-130025761D01*
X171862998Y-130141017D01*
X171857806Y-130142530D01*
X171852604Y-130143924D01*
X171847346Y-130145211D01*
X171473136Y-130228171D01*
X171467833Y-130229226D01*
X171462514Y-130230164D01*
X171457164Y-130230987D01*
X171077182Y-130281013D01*
X171071820Y-130281601D01*
X171067526Y-130281977D01*
X171066427Y-130282073D01*
X171061019Y-130282428D01*
X170674075Y-130299322D01*
X170671374Y-130299410D01*
X170668627Y-130299470D01*
X170665919Y-130299500D01*
X129434081Y-130299500D01*
X129431374Y-130299470D01*
X129428626Y-130299410D01*
X129425924Y-130299322D01*
X129038984Y-130282428D01*
X129033582Y-130282074D01*
X129028189Y-130281602D01*
X129022815Y-130281013D01*
X128936793Y-130269688D01*
X128936792Y-130269688D01*
X128642836Y-130230987D01*
X128637499Y-130230166D01*
X128632177Y-130229228D01*
X128626862Y-130228171D01*
X128252652Y-130145211D01*
X128247394Y-130143924D01*
X128242192Y-130142530D01*
X128237000Y-130141017D01*
X127871455Y-130025761D01*
X127866336Y-130024023D01*
X127861261Y-130022176D01*
X127856215Y-130020214D01*
X127502125Y-129873544D01*
X127497179Y-129871368D01*
X127492261Y-129869075D01*
X127487403Y-129866679D01*
X127376100Y-129808738D01*
X127147450Y-129689710D01*
X127142716Y-129687113D01*
X127138023Y-129684404D01*
X127133389Y-129681592D01*
X126865567Y-129510970D01*
X126810156Y-129475669D01*
X126805687Y-129472683D01*
X126801207Y-129469547D01*
X126796880Y-129466374D01*
X126492778Y-129233028D01*
X126488584Y-129229662D01*
X126484414Y-129226162D01*
X126480366Y-129222612D01*
X126197791Y-128963680D01*
X126193883Y-128959939D01*
X126190059Y-128956115D01*
X126186318Y-128952207D01*
X125927386Y-128669632D01*
X125923838Y-128665588D01*
X125920332Y-128661409D01*
X125916975Y-128657226D01*
X125683618Y-128353110D01*
X125680457Y-128348799D01*
X125677300Y-128344291D01*
X125674322Y-128339831D01*
X125494860Y-128058133D01*
X125468360Y-128016535D01*
X125465593Y-128011974D01*
X125462884Y-128007282D01*
X125460295Y-128002562D01*
X125460290Y-128002552D01*
X125283306Y-127662568D01*
X125280916Y-127657722D01*
X125278625Y-127652807D01*
X125276454Y-127647872D01*
X125129776Y-127293761D01*
X125127820Y-127288732D01*
X125125974Y-127283662D01*
X125124242Y-127278558D01*
X125124237Y-127278543D01*
X125025817Y-126966391D01*
X125008982Y-126912997D01*
X125007472Y-126907819D01*
X125006643Y-126904725D01*
X125006072Y-126902597D01*
X125004789Y-126897353D01*
X125004787Y-126897346D01*
X124921825Y-126523127D01*
X124920770Y-126517819D01*
X124919835Y-126512516D01*
X124919012Y-126507170D01*
X124909393Y-126434106D01*
X136649500Y-126434106D01*
X136649500Y-126434108D01*
X136649500Y-126565892D01*
X136666554Y-126629539D01*
X136683608Y-126693187D01*
X136716554Y-126750250D01*
X136749500Y-126807314D01*
X136842686Y-126900500D01*
X136842687Y-126900501D01*
X136842689Y-126900502D01*
X136859880Y-126910427D01*
X136941521Y-126957563D01*
X136956810Y-126966390D01*
X136956814Y-126966392D01*
X137084108Y-127000500D01*
X137084110Y-127000500D01*
X137215890Y-127000500D01*
X137215892Y-127000500D01*
X137343186Y-126966392D01*
X137414406Y-126925272D01*
X137444308Y-126912888D01*
X137474774Y-126904725D01*
X137506866Y-126900500D01*
X140339560Y-126900500D01*
X140339562Y-126900500D01*
X140415989Y-126880021D01*
X140484511Y-126840460D01*
X140540460Y-126784511D01*
X144540460Y-122784511D01*
X144580021Y-122715989D01*
X144600500Y-122639562D01*
X144600500Y-110657441D01*
X144605522Y-110622508D01*
X144612934Y-110597263D01*
X144644228Y-110544521D01*
X146425214Y-108763535D01*
X146453457Y-108742391D01*
X146463391Y-108736967D01*
X146531661Y-108722114D01*
X146597126Y-108746528D01*
X146638999Y-108802460D01*
X146639001Y-108802464D01*
X146641682Y-108809652D01*
X146649500Y-108852986D01*
X146649500Y-125106336D01*
X146649499Y-125106338D01*
X146649500Y-125106339D01*
X146644476Y-125141273D01*
X146637064Y-125166514D01*
X146605769Y-125219258D01*
X146074454Y-125750573D01*
X146046203Y-125771722D01*
X146023115Y-125784330D01*
X145963685Y-125799500D01*
X145884108Y-125799500D01*
X145756808Y-125833609D01*
X145756806Y-125833610D01*
X145642696Y-125899493D01*
X145642682Y-125899502D01*
X145642677Y-125899506D01*
X145549506Y-125992677D01*
X145549502Y-125992682D01*
X145549493Y-125992696D01*
X145483610Y-126106806D01*
X145483609Y-126106808D01*
X145460599Y-126192686D01*
X145449500Y-126234108D01*
X145449500Y-126365891D01*
X145466554Y-126429539D01*
X145483608Y-126493188D01*
X145499378Y-126520501D01*
X145549497Y-126607310D01*
X145549499Y-126607312D01*
X145549500Y-126607314D01*
X145642686Y-126700500D01*
X145756814Y-126766392D01*
X145884108Y-126800500D01*
X145884110Y-126800500D01*
X146015890Y-126800500D01*
X146015892Y-126800500D01*
X146143186Y-126766392D01*
X146257314Y-126700500D01*
X146350500Y-126607314D01*
X146416392Y-126493186D01*
X146450500Y-126365892D01*
X146450500Y-126293661D01*
X146455522Y-126258728D01*
X146462934Y-126233483D01*
X146494228Y-126180741D01*
X146775470Y-125899500D01*
X147190460Y-125484511D01*
X147230022Y-125415988D01*
X147250500Y-125339562D01*
X147250500Y-125260438D01*
X147250500Y-108573127D01*
X147255522Y-108538194D01*
X147262934Y-108512949D01*
X147294228Y-108460207D01*
X150301578Y-105452858D01*
X153206000Y-105452858D01*
X153206000Y-105584641D01*
X153223054Y-105648289D01*
X153240108Y-105711938D01*
X153273054Y-105769000D01*
X153306000Y-105826064D01*
X153399186Y-105919250D01*
X153513314Y-105985142D01*
X153640608Y-106019250D01*
X153640610Y-106019250D01*
X153772390Y-106019250D01*
X153772392Y-106019250D01*
X153899686Y-105985142D01*
X154013814Y-105919250D01*
X154107000Y-105826064D01*
X154172892Y-105711936D01*
X154207000Y-105584642D01*
X154207000Y-105452858D01*
X154172892Y-105325564D01*
X154172887Y-105325556D01*
X154164063Y-105310271D01*
X154107000Y-105211436D01*
X154013814Y-105118250D01*
X153956750Y-105085304D01*
X153899687Y-105052358D01*
X153836039Y-105035304D01*
X153772392Y-105018250D01*
X153772391Y-105018250D01*
X153640608Y-105018250D01*
X153513308Y-105052359D01*
X153513306Y-105052360D01*
X153399196Y-105118243D01*
X153399182Y-105118252D01*
X153399177Y-105118256D01*
X153306006Y-105211427D01*
X153306002Y-105211432D01*
X153305993Y-105211446D01*
X153240110Y-105325556D01*
X153240109Y-105325558D01*
X153240108Y-105325562D01*
X153206000Y-105452858D01*
X150301578Y-105452858D01*
X150397386Y-105357050D01*
X153331688Y-102422748D01*
X156340460Y-99413976D01*
X156352375Y-99393339D01*
X156380021Y-99345454D01*
X156400500Y-99269027D01*
X156400500Y-78710438D01*
X156380021Y-78634011D01*
X156380017Y-78634004D01*
X156340464Y-78565495D01*
X156340458Y-78565487D01*
X156340456Y-78565485D01*
X156340453Y-78565480D01*
X156339730Y-78564516D01*
X156330106Y-78549554D01*
X156318490Y-78528282D01*
X156315666Y-78523109D01*
X156300500Y-78463685D01*
X156300500Y-71372722D01*
X156305522Y-71337790D01*
X156310823Y-71319735D01*
X156344232Y-71264926D01*
X156352261Y-71257272D01*
X156352260Y-71257270D01*
X156373027Y-71237472D01*
X156373669Y-71235783D01*
X156384797Y-71223016D01*
X156450500Y-71157314D01*
X156516392Y-71043186D01*
X156550500Y-70915892D01*
X156550500Y-70784108D01*
X156516392Y-70656814D01*
X156516387Y-70656806D01*
X156489938Y-70610995D01*
X156450500Y-70542686D01*
X156357314Y-70449500D01*
X156282833Y-70406498D01*
X156282821Y-70406491D01*
X156243188Y-70383608D01*
X156179539Y-70366554D01*
X156115892Y-70349500D01*
X156115891Y-70349500D01*
X155984108Y-70349500D01*
X155856808Y-70383609D01*
X155856806Y-70383610D01*
X155742696Y-70449493D01*
X155742682Y-70449502D01*
X155742677Y-70449506D01*
X155649506Y-70542677D01*
X155649502Y-70542682D01*
X155649493Y-70542696D01*
X155583610Y-70656806D01*
X155583609Y-70656808D01*
X155583608Y-70656812D01*
X155549500Y-70784108D01*
X155549500Y-70915891D01*
X155553749Y-70931749D01*
X155583608Y-71043188D01*
X155600956Y-71073234D01*
X155600957Y-71073236D01*
X155649500Y-71157314D01*
X155649502Y-71157316D01*
X155650574Y-71158388D01*
X155671723Y-71186639D01*
X155684331Y-71209728D01*
X155699500Y-71269157D01*
X155699500Y-78689563D01*
X155713151Y-78740512D01*
X155719976Y-78765984D01*
X155719977Y-78765986D01*
X155719978Y-78765988D01*
X155719979Y-78765990D01*
X155731650Y-78786204D01*
X155733589Y-78789562D01*
X155759540Y-78834511D01*
X155765538Y-78840509D01*
X155773017Y-78852469D01*
X155776675Y-78865524D01*
X155781870Y-78874132D01*
X155783218Y-78873563D01*
X155788039Y-78884964D01*
X155786552Y-78885592D01*
X155799500Y-78936316D01*
X155799500Y-99035802D01*
X155799499Y-99035804D01*
X155799500Y-99035805D01*
X155794476Y-99070739D01*
X155787064Y-99095980D01*
X155755769Y-99148724D01*
X148324788Y-106579705D01*
X148296538Y-106600854D01*
X148286611Y-106606275D01*
X148218338Y-106621129D01*
X148152873Y-106596715D01*
X148111000Y-106540783D01*
X148108313Y-106533577D01*
X148100500Y-106490257D01*
X148100500Y-97945133D01*
X148105522Y-97910200D01*
X148112934Y-97884955D01*
X148144228Y-97832213D01*
X151606257Y-94370185D01*
X155090460Y-90885982D01*
X155130022Y-90817459D01*
X155150500Y-90741033D01*
X155150500Y-90661909D01*
X155150500Y-66826501D01*
X155153721Y-66798421D01*
X155154521Y-66794978D01*
X155156768Y-66787326D01*
X155156983Y-66784388D01*
X155159112Y-66775233D01*
X155160509Y-66772757D01*
X155166933Y-66752162D01*
X155166957Y-66752109D01*
X155192232Y-66715580D01*
X155250500Y-66657314D01*
X155263900Y-66634104D01*
X156899500Y-66634104D01*
X156899500Y-66634108D01*
X156899500Y-66765892D01*
X156905243Y-66787326D01*
X156933608Y-66893187D01*
X156963920Y-66945688D01*
X156999500Y-67007314D01*
X157092686Y-67100500D01*
X157206814Y-67166392D01*
X157275623Y-67184829D01*
X157308063Y-67198720D01*
X157321409Y-67206854D01*
X157368407Y-67258546D01*
X157372281Y-67266519D01*
X157384750Y-67320711D01*
X157384750Y-101160348D01*
X157380525Y-101192441D01*
X157362163Y-101260968D01*
X157359774Y-101273566D01*
X157349500Y-101311908D01*
X157349500Y-124389563D01*
X157363150Y-124440509D01*
X157363151Y-124440509D01*
X157363152Y-124440513D01*
X157369979Y-124465990D01*
X157369980Y-124465991D01*
X157369981Y-124465995D01*
X157370003Y-124466048D01*
X157370489Y-124466873D01*
X157407689Y-124531307D01*
X157409074Y-124533882D01*
X157409458Y-124534429D01*
X157409540Y-124534511D01*
X157515489Y-124640460D01*
X157584012Y-124680022D01*
X157660438Y-124700500D01*
X157739562Y-124700500D01*
X158273494Y-124700500D01*
X158308426Y-124705521D01*
X158333670Y-124712934D01*
X158386416Y-124744230D01*
X158442686Y-124800500D01*
X158556814Y-124866392D01*
X158684108Y-124900500D01*
X158684110Y-124900500D01*
X158815890Y-124900500D01*
X158815892Y-124900500D01*
X158943186Y-124866392D01*
X159057314Y-124800500D01*
X159150500Y-124707314D01*
X159216392Y-124593186D01*
X159250500Y-124465892D01*
X159250500Y-124334108D01*
X159216392Y-124206814D01*
X159150500Y-124092686D01*
X159057314Y-123999500D01*
X159000250Y-123966554D01*
X158943187Y-123933608D01*
X158877061Y-123915890D01*
X158815892Y-123899500D01*
X158804980Y-123899500D01*
X158684108Y-123899500D01*
X158556808Y-123933609D01*
X158556806Y-123933610D01*
X158442696Y-123999493D01*
X158442683Y-123999501D01*
X158391610Y-124050574D01*
X158365802Y-124070353D01*
X158364558Y-124071068D01*
X158352077Y-124077884D01*
X158346529Y-124081449D01*
X158343904Y-124082961D01*
X158312773Y-124090473D01*
X158282035Y-124099500D01*
X158092330Y-124099500D01*
X158057389Y-124094475D01*
X158042390Y-124090070D01*
X157983644Y-124052327D01*
X157982457Y-124050958D01*
X157954977Y-123996083D01*
X157953332Y-123988521D01*
X157950500Y-123962168D01*
X157950500Y-123784108D01*
X163449500Y-123784108D01*
X163449500Y-123915891D01*
X163471902Y-123999500D01*
X163483609Y-124043189D01*
X163495152Y-124063182D01*
X163495153Y-124063183D01*
X163549500Y-124157314D01*
X163642686Y-124250500D01*
X163756814Y-124316392D01*
X163884108Y-124350500D01*
X163884110Y-124350500D01*
X164015890Y-124350500D01*
X164015892Y-124350500D01*
X164143186Y-124316392D01*
X164257314Y-124250500D01*
X164350500Y-124157314D01*
X164416392Y-124043186D01*
X164450500Y-123915892D01*
X164450500Y-123784108D01*
X164416392Y-123656814D01*
X164416387Y-123656806D01*
X164407563Y-123641521D01*
X164350500Y-123542686D01*
X164257314Y-123449500D01*
X164200250Y-123416554D01*
X164143187Y-123383608D01*
X164079539Y-123366554D01*
X164015892Y-123349500D01*
X164015891Y-123349500D01*
X163884108Y-123349500D01*
X163756808Y-123383609D01*
X163756806Y-123383610D01*
X163642696Y-123449493D01*
X163642682Y-123449502D01*
X163642677Y-123449506D01*
X163549506Y-123542677D01*
X163549502Y-123542682D01*
X163549493Y-123542696D01*
X163483610Y-123656806D01*
X163483609Y-123656808D01*
X163483608Y-123656812D01*
X163449500Y-123784108D01*
X157950500Y-123784108D01*
X157950500Y-120037736D01*
X168722000Y-120037736D01*
X168722000Y-120374762D01*
X168759731Y-120709641D01*
X168834723Y-121038202D01*
X168834727Y-121038218D01*
X168834734Y-121038239D01*
X168946029Y-121356297D01*
X168946035Y-121356311D01*
X169092251Y-121659931D01*
X169092455Y-121660289D01*
X169093141Y-121661348D01*
X169271554Y-121945289D01*
X169481675Y-122208773D01*
X169719977Y-122447075D01*
X169983461Y-122657196D01*
X170268814Y-122836496D01*
X170572449Y-122982719D01*
X170811348Y-123066313D01*
X170890534Y-123094022D01*
X170890546Y-123094026D01*
X171219106Y-123169017D01*
X171219111Y-123169017D01*
X171219113Y-123169018D01*
X171219112Y-123169018D01*
X171340764Y-123182724D01*
X171536595Y-123204788D01*
X171544198Y-123206750D01*
X171891007Y-123206750D01*
X171916505Y-123206750D01*
X171921639Y-123203946D01*
X171934108Y-123201892D01*
X172168268Y-123175509D01*
X172225887Y-123169018D01*
X172225888Y-123169017D01*
X172225894Y-123169017D01*
X172554454Y-123094026D01*
X172872551Y-122982719D01*
X173176186Y-122836496D01*
X173461539Y-122657196D01*
X173725023Y-122447075D01*
X173963325Y-122208773D01*
X174173446Y-121945289D01*
X174352746Y-121659936D01*
X174498969Y-121356301D01*
X174610276Y-121038204D01*
X174685267Y-120709644D01*
X174723000Y-120374754D01*
X174723000Y-120037746D01*
X174685267Y-119702856D01*
X174610276Y-119374296D01*
X174610270Y-119374280D01*
X174582563Y-119295098D01*
X174498969Y-119056199D01*
X174352746Y-118752564D01*
X174173446Y-118467211D01*
X173963325Y-118203727D01*
X173725023Y-117965425D01*
X173461539Y-117755304D01*
X173177598Y-117576891D01*
X173176539Y-117576205D01*
X173176181Y-117576001D01*
X172872561Y-117429785D01*
X172872547Y-117429779D01*
X172554489Y-117318484D01*
X172554468Y-117318477D01*
X172554456Y-117318474D01*
X172554453Y-117318473D01*
X172467130Y-117298542D01*
X172225891Y-117243481D01*
X171891012Y-117205750D01*
X171891008Y-117205750D01*
X171891004Y-117205750D01*
X171553996Y-117205750D01*
X171553991Y-117205750D01*
X171553986Y-117205750D01*
X171219107Y-117243481D01*
X170890546Y-117318473D01*
X170890530Y-117318477D01*
X170890509Y-117318484D01*
X170572451Y-117429779D01*
X170572437Y-117429785D01*
X170268818Y-117576000D01*
X169983459Y-117755304D01*
X169983457Y-117755305D01*
X169719983Y-117965417D01*
X169481667Y-118203733D01*
X169271555Y-118467207D01*
X169271554Y-118467209D01*
X169092250Y-118752568D01*
X168946035Y-119056187D01*
X168946029Y-119056201D01*
X168834734Y-119374259D01*
X168834727Y-119374280D01*
X168834723Y-119374296D01*
X168759731Y-119702857D01*
X168722000Y-120037736D01*
X157950500Y-120037736D01*
X157950500Y-104634108D01*
X162132000Y-104634108D01*
X162132000Y-104765891D01*
X162149054Y-104829539D01*
X162166108Y-104893188D01*
X162199054Y-104950250D01*
X162232000Y-105007314D01*
X162325186Y-105100500D01*
X162439314Y-105166392D01*
X162566608Y-105200500D01*
X162566610Y-105200500D01*
X162698390Y-105200500D01*
X162698392Y-105200500D01*
X162825686Y-105166392D01*
X162939814Y-105100500D01*
X163033000Y-105007314D01*
X163098892Y-104893186D01*
X163133000Y-104765892D01*
X163133000Y-104634108D01*
X163098892Y-104506814D01*
X163098887Y-104506806D01*
X163090063Y-104491521D01*
X163033000Y-104392686D01*
X162939814Y-104299500D01*
X162882750Y-104266554D01*
X162825687Y-104233608D01*
X162762039Y-104216554D01*
X162698392Y-104199500D01*
X162698391Y-104199500D01*
X162566608Y-104199500D01*
X162439308Y-104233609D01*
X162439306Y-104233610D01*
X162325196Y-104299493D01*
X162325182Y-104299502D01*
X162325177Y-104299506D01*
X162232006Y-104392677D01*
X162232002Y-104392682D01*
X162231993Y-104392696D01*
X162166110Y-104506806D01*
X162166109Y-104506808D01*
X162166108Y-104506812D01*
X162132000Y-104634108D01*
X157950500Y-104634108D01*
X157950500Y-102217333D01*
X157955522Y-102182400D01*
X157958377Y-102172677D01*
X157959433Y-102169081D01*
X157997206Y-102110304D01*
X158060758Y-102081279D01*
X158064590Y-102080728D01*
X158069185Y-102080068D01*
X158118916Y-102083032D01*
X158128076Y-102085486D01*
X158184108Y-102100500D01*
X158184111Y-102100500D01*
X158315890Y-102100500D01*
X158315892Y-102100500D01*
X158443186Y-102066392D01*
X158557314Y-102000500D01*
X158650500Y-101907314D01*
X158716392Y-101793186D01*
X158750500Y-101665892D01*
X158750500Y-101534108D01*
X158716392Y-101406814D01*
X158650500Y-101292686D01*
X158557314Y-101199500D01*
X158500250Y-101166554D01*
X158443187Y-101133608D01*
X158379539Y-101116554D01*
X158315892Y-101099500D01*
X158315891Y-101099500D01*
X158184105Y-101099500D01*
X158159056Y-101106211D01*
X158124020Y-101110399D01*
X158110147Y-101110069D01*
X158043595Y-101088796D01*
X157999109Y-101034919D01*
X157999107Y-101034915D01*
X157995761Y-101027101D01*
X157985750Y-100978290D01*
X157985750Y-76242496D01*
X157990772Y-76207563D01*
X157991212Y-76206064D01*
X157994683Y-76194244D01*
X158004327Y-76179236D01*
X158009358Y-76162118D01*
X158022824Y-76150454D01*
X158032456Y-76135467D01*
X158048686Y-76128054D01*
X158062172Y-76116374D01*
X158095986Y-76106451D01*
X158096007Y-76106442D01*
X158097649Y-76106206D01*
X158155831Y-76111770D01*
X158160563Y-76113408D01*
X158166502Y-76116120D01*
X158166804Y-76116164D01*
X158167034Y-76116363D01*
X158182001Y-76123199D01*
X158256810Y-76166390D01*
X158256811Y-76166390D01*
X158256814Y-76166392D01*
X158384108Y-76200500D01*
X158384110Y-76200500D01*
X158515890Y-76200500D01*
X158515892Y-76200500D01*
X158643186Y-76166392D01*
X158757314Y-76100500D01*
X158850500Y-76007314D01*
X158916392Y-75893186D01*
X158950500Y-75765892D01*
X158950500Y-75634108D01*
X158916392Y-75506814D01*
X158914249Y-75503103D01*
X158904666Y-75486504D01*
X158904664Y-75486500D01*
X158904664Y-75486499D01*
X158850502Y-75392689D01*
X158850497Y-75392683D01*
X158757316Y-75299502D01*
X158757314Y-75299500D01*
X158669761Y-75248951D01*
X158669761Y-75248950D01*
X158669759Y-75248950D01*
X158643187Y-75233608D01*
X158579539Y-75216554D01*
X158515892Y-75199500D01*
X158515891Y-75199500D01*
X158384106Y-75199500D01*
X158258624Y-75233121D01*
X158258625Y-75233122D01*
X158256812Y-75233607D01*
X158187185Y-75273806D01*
X158154427Y-75286921D01*
X158140943Y-75290193D01*
X158123129Y-75289345D01*
X158105800Y-75293549D01*
X158088956Y-75287719D01*
X158071152Y-75286872D01*
X158056625Y-75276528D01*
X158039773Y-75270696D01*
X158014241Y-75246350D01*
X158014237Y-75246347D01*
X158013223Y-75245058D01*
X157988935Y-75191858D01*
X157987985Y-75186932D01*
X157987369Y-75180476D01*
X157987258Y-75180197D01*
X157987315Y-75179900D01*
X157985750Y-75163493D01*
X157985750Y-66945688D01*
X157985749Y-66945684D01*
X157977767Y-66915893D01*
X157965272Y-66869265D01*
X157965271Y-66869261D01*
X157954052Y-66849829D01*
X157931129Y-66810125D01*
X157922863Y-66792846D01*
X157908840Y-66756568D01*
X157900500Y-66711861D01*
X157900500Y-66634110D01*
X157900500Y-66634108D01*
X157866392Y-66506814D01*
X157866387Y-66506806D01*
X157837524Y-66456814D01*
X157800500Y-66392686D01*
X157707314Y-66299500D01*
X157650250Y-66266554D01*
X157593187Y-66233608D01*
X157511823Y-66211807D01*
X157511823Y-66211806D01*
X157465893Y-66199500D01*
X157465892Y-66199500D01*
X157334108Y-66199500D01*
X157206808Y-66233609D01*
X157206806Y-66233610D01*
X157092696Y-66299493D01*
X157092682Y-66299502D01*
X157092677Y-66299506D01*
X156999506Y-66392677D01*
X156999502Y-66392682D01*
X156999500Y-66392686D01*
X156933610Y-66506806D01*
X156933609Y-66506809D01*
X156933608Y-66506811D01*
X156933608Y-66506812D01*
X156912897Y-66584108D01*
X156912896Y-66584107D01*
X156899500Y-66634104D01*
X155263900Y-66634104D01*
X155316392Y-66543186D01*
X155350500Y-66415892D01*
X155350500Y-66284108D01*
X155316392Y-66156814D01*
X155316387Y-66156806D01*
X155283341Y-66099569D01*
X155250500Y-66042686D01*
X155157314Y-65949500D01*
X155100250Y-65916554D01*
X155043187Y-65883608D01*
X154966842Y-65863152D01*
X154959578Y-65861205D01*
X154959574Y-65861204D01*
X154915893Y-65849500D01*
X154915892Y-65849500D01*
X154784108Y-65849500D01*
X154656808Y-65883609D01*
X154656806Y-65883610D01*
X154542696Y-65949493D01*
X154542682Y-65949502D01*
X154542677Y-65949506D01*
X154449506Y-66042677D01*
X154449502Y-66042682D01*
X154449493Y-66042696D01*
X154383610Y-66156806D01*
X154383609Y-66156808D01*
X154365255Y-66225307D01*
X154349500Y-66284108D01*
X154349500Y-66415891D01*
X154358505Y-66449498D01*
X154383608Y-66543188D01*
X154407233Y-66584106D01*
X154416554Y-66600250D01*
X154449500Y-66657314D01*
X154449502Y-66657316D01*
X154506106Y-66713920D01*
X154510898Y-66720102D01*
X154512609Y-66724464D01*
X154521723Y-66736639D01*
X154534331Y-66759728D01*
X154549500Y-66819157D01*
X154549500Y-90507808D01*
X154544476Y-90542745D01*
X154537064Y-90567986D01*
X154505769Y-90620730D01*
X147615489Y-97511010D01*
X147615488Y-97511012D01*
X147586664Y-97539834D01*
X147579229Y-97547270D01*
X147550974Y-97568420D01*
X147538791Y-97575072D01*
X147521369Y-97578861D01*
X147517905Y-97580753D01*
X147513967Y-97580471D01*
X147470518Y-97589922D01*
X147405060Y-97565507D01*
X147401803Y-97563069D01*
X147366651Y-97522064D01*
X147366346Y-97521491D01*
X147358765Y-97504186D01*
X147352793Y-97487118D01*
X147272150Y-97377850D01*
X147162882Y-97297207D01*
X147162880Y-97297206D01*
X147034704Y-97252354D01*
X147034702Y-97252353D01*
X147034700Y-97252353D01*
X147004270Y-97249500D01*
X147004266Y-97249500D01*
X147004264Y-97249500D01*
X144593663Y-97249500D01*
X144593662Y-97249499D01*
X144593662Y-97249500D01*
X144558727Y-97244477D01*
X144533485Y-97237065D01*
X144480740Y-97205769D01*
X144234520Y-96959548D01*
X144234509Y-96959538D01*
X144234503Y-96959534D01*
X144210929Y-96945925D01*
X144210928Y-96945924D01*
X144165991Y-96919980D01*
X144165990Y-96919979D01*
X144165988Y-96919978D01*
X144165986Y-96919977D01*
X144140511Y-96913151D01*
X144140511Y-96913150D01*
X144089563Y-96899500D01*
X144089562Y-96899500D01*
X144089560Y-96899500D01*
X142676506Y-96899500D01*
X142676505Y-96899499D01*
X142676505Y-96899500D01*
X142641570Y-96894477D01*
X142616328Y-96887065D01*
X142563583Y-96855769D01*
X142507316Y-96799502D01*
X142507314Y-96799500D01*
X142450250Y-96766554D01*
X142393187Y-96733608D01*
X142329539Y-96716554D01*
X142265892Y-96699500D01*
X142265891Y-96699500D01*
X142134108Y-96699500D01*
X142006808Y-96733609D01*
X142006806Y-96733610D01*
X141892696Y-96799493D01*
X141892682Y-96799502D01*
X141892677Y-96799506D01*
X141799506Y-96892677D01*
X141799502Y-96892682D01*
X141799493Y-96892696D01*
X141733611Y-97006804D01*
X141733607Y-97006813D01*
X141731912Y-97013143D01*
X141731911Y-97013147D01*
X141699500Y-97134108D01*
X141699500Y-97265891D01*
X141711705Y-97311443D01*
X141711706Y-97311446D01*
X141713675Y-97318793D01*
X141733608Y-97393187D01*
X141766554Y-97450250D01*
X141770876Y-97457736D01*
X141770877Y-97457738D01*
X141772870Y-97461190D01*
X141799500Y-97507314D01*
X141892686Y-97600500D01*
X142006814Y-97666392D01*
X142134108Y-97700500D01*
X142134110Y-97700500D01*
X142265890Y-97700500D01*
X142265892Y-97700500D01*
X142393186Y-97666392D01*
X142507314Y-97600500D01*
X142558395Y-97549418D01*
X142586640Y-97528275D01*
X142609732Y-97515667D01*
X142669157Y-97500500D01*
X143059117Y-97500500D01*
X143094049Y-97505521D01*
X143108332Y-97509715D01*
X143167109Y-97547489D01*
X143195663Y-97608024D01*
X143197827Y-97620825D01*
X143199165Y-97642839D01*
X143199500Y-97642839D01*
X143199500Y-97645738D01*
X143199500Y-99254269D01*
X143200884Y-99269027D01*
X143201812Y-99278929D01*
X143201978Y-99282499D01*
X143202353Y-99284703D01*
X143242522Y-99399496D01*
X143247205Y-99412878D01*
X143247205Y-99412879D01*
X143247206Y-99412880D01*
X143247207Y-99412882D01*
X143327850Y-99522150D01*
X143437118Y-99602793D01*
X143447378Y-99606383D01*
X143565299Y-99647646D01*
X143565302Y-99647646D01*
X143565303Y-99647647D01*
X143583742Y-99649375D01*
X143595730Y-99650500D01*
X143595734Y-99650500D01*
X143595739Y-99650500D01*
X147004270Y-99650500D01*
X147004271Y-99650500D01*
X147005576Y-99650377D01*
X147034699Y-99647646D01*
X147034701Y-99647646D01*
X147098790Y-99625219D01*
X147162882Y-99602793D01*
X147272150Y-99522150D01*
X147272158Y-99522138D01*
X147275029Y-99519269D01*
X147280475Y-99515533D01*
X147282617Y-99512286D01*
X147287709Y-99508202D01*
X147298937Y-99499677D01*
X147309415Y-99495687D01*
X147312529Y-99493553D01*
X147325309Y-99487896D01*
X147332300Y-99486973D01*
X147364231Y-99474816D01*
X147387449Y-99479701D01*
X147394579Y-99478761D01*
X147403948Y-99483172D01*
X147432603Y-99489202D01*
X147447079Y-99503481D01*
X147457792Y-99508526D01*
X147466841Y-99522976D01*
X147482342Y-99538266D01*
X147483922Y-99541113D01*
X147487953Y-99556686D01*
X147494877Y-99567741D01*
X147494701Y-99582750D01*
X147499500Y-99601284D01*
X147499500Y-106770116D01*
X147494476Y-106805053D01*
X147487064Y-106830294D01*
X147455769Y-106883038D01*
X144059545Y-110279260D01*
X144059544Y-110279262D01*
X144059526Y-110279287D01*
X144020485Y-110346909D01*
X144020010Y-110347715D01*
X144019977Y-110347793D01*
X143999500Y-110424216D01*
X143999500Y-122406337D01*
X143999499Y-122406339D01*
X143999500Y-122406340D01*
X143994476Y-122441274D01*
X143987064Y-122466515D01*
X143955769Y-122519259D01*
X140224455Y-126250573D01*
X140196204Y-126271722D01*
X140173116Y-126284330D01*
X140113686Y-126299500D01*
X137701590Y-126299500D01*
X137701587Y-126299499D01*
X137701586Y-126299500D01*
X137666652Y-126294476D01*
X137648597Y-126289174D01*
X137593795Y-126255771D01*
X137586608Y-126248234D01*
X137568961Y-126224662D01*
X137559799Y-126208793D01*
X137550500Y-126192686D01*
X137457314Y-126099500D01*
X137400250Y-126066554D01*
X137343187Y-126033608D01*
X137279539Y-126016554D01*
X137215892Y-125999500D01*
X137215891Y-125999500D01*
X137084108Y-125999500D01*
X136956808Y-126033609D01*
X136956806Y-126033610D01*
X136842696Y-126099493D01*
X136842682Y-126099502D01*
X136842677Y-126099506D01*
X136749506Y-126192677D01*
X136749502Y-126192682D01*
X136749493Y-126192696D01*
X136683610Y-126306806D01*
X136683609Y-126306809D01*
X136667778Y-126365892D01*
X136649500Y-126434106D01*
X124909393Y-126434106D01*
X124868979Y-126127137D01*
X124868397Y-126121820D01*
X124867923Y-126116411D01*
X124867571Y-126111022D01*
X124864191Y-126033610D01*
X124850676Y-125724029D01*
X124850589Y-125721373D01*
X124850528Y-125718579D01*
X124850500Y-125715962D01*
X124850500Y-120037736D01*
X137512000Y-120037736D01*
X137512000Y-120374762D01*
X137549731Y-120709641D01*
X137624723Y-121038202D01*
X137624727Y-121038218D01*
X137624734Y-121038239D01*
X137736029Y-121356297D01*
X137736035Y-121356311D01*
X137882251Y-121659931D01*
X137882455Y-121660289D01*
X137883141Y-121661348D01*
X138061554Y-121945289D01*
X138271675Y-122208773D01*
X138509977Y-122447075D01*
X138773461Y-122657196D01*
X139058814Y-122836496D01*
X139362449Y-122982719D01*
X139601348Y-123066313D01*
X139680534Y-123094022D01*
X139680546Y-123094026D01*
X140009106Y-123169017D01*
X140009111Y-123169017D01*
X140009113Y-123169018D01*
X140009112Y-123169018D01*
X140130764Y-123182724D01*
X140326595Y-123204788D01*
X140334198Y-123206750D01*
X140681007Y-123206750D01*
X140706505Y-123206750D01*
X140711639Y-123203946D01*
X140724108Y-123201892D01*
X140958268Y-123175509D01*
X141015887Y-123169018D01*
X141015888Y-123169017D01*
X141015894Y-123169017D01*
X141344454Y-123094026D01*
X141662551Y-122982719D01*
X141966186Y-122836496D01*
X142251539Y-122657196D01*
X142515023Y-122447075D01*
X142753325Y-122208773D01*
X142963446Y-121945289D01*
X143142746Y-121659936D01*
X143288969Y-121356301D01*
X143400276Y-121038204D01*
X143475267Y-120709644D01*
X143513000Y-120374754D01*
X143513000Y-120037746D01*
X143475267Y-119702856D01*
X143400276Y-119374296D01*
X143400270Y-119374280D01*
X143372563Y-119295098D01*
X143288969Y-119056199D01*
X143142746Y-118752564D01*
X142963446Y-118467211D01*
X142753325Y-118203727D01*
X142515023Y-117965425D01*
X142251539Y-117755304D01*
X141967598Y-117576891D01*
X141966539Y-117576205D01*
X141966181Y-117576001D01*
X141662561Y-117429785D01*
X141662547Y-117429779D01*
X141344489Y-117318484D01*
X141344468Y-117318477D01*
X141344456Y-117318474D01*
X141344453Y-117318473D01*
X141257130Y-117298542D01*
X141015891Y-117243481D01*
X140681012Y-117205750D01*
X140681008Y-117205750D01*
X140681004Y-117205750D01*
X140343996Y-117205750D01*
X140343991Y-117205750D01*
X140343986Y-117205750D01*
X140009107Y-117243481D01*
X139680546Y-117318473D01*
X139680530Y-117318477D01*
X139680509Y-117318484D01*
X139362451Y-117429779D01*
X139362437Y-117429785D01*
X139058818Y-117576000D01*
X138773459Y-117755304D01*
X138773457Y-117755305D01*
X138509983Y-117965417D01*
X138271667Y-118203733D01*
X138061555Y-118467207D01*
X138061554Y-118467209D01*
X137882250Y-118752568D01*
X137736035Y-119056187D01*
X137736029Y-119056201D01*
X137624734Y-119374259D01*
X137624727Y-119374280D01*
X137624723Y-119374296D01*
X137549731Y-119702857D01*
X137512000Y-120037736D01*
X124850500Y-120037736D01*
X124850500Y-112539811D01*
X126009508Y-112539811D01*
X126009508Y-112539830D01*
X126013859Y-112603783D01*
X126013860Y-112603797D01*
X126013861Y-112603802D01*
X126016221Y-112623864D01*
X126016221Y-112623866D01*
X126016222Y-112623867D01*
X126051049Y-112708430D01*
X126091364Y-112765493D01*
X126131570Y-112807975D01*
X126131576Y-112807980D01*
X131275835Y-116884563D01*
X131275839Y-116884566D01*
X131275841Y-116884567D01*
X131312363Y-116907706D01*
X131358877Y-116930713D01*
X131367751Y-116934842D01*
X131457608Y-116951873D01*
X131527430Y-116949282D01*
X131552445Y-116946815D01*
X131637245Y-116912562D01*
X131694582Y-116872634D01*
X131737335Y-116832718D01*
X136119460Y-111379407D01*
X136141589Y-111345501D01*
X136164024Y-111302362D01*
X136167154Y-111296085D01*
X136187205Y-111206854D01*
X136186970Y-111136985D01*
X136178450Y-111079115D01*
X135123339Y-107530103D01*
X135118778Y-107516515D01*
X135112713Y-107500340D01*
X135075601Y-107437915D01*
X135029846Y-107385111D01*
X135029840Y-107385104D01*
X135012258Y-107367160D01*
X135012257Y-107367159D01*
X135012255Y-107367157D01*
X135012253Y-107367156D01*
X135012251Y-107367154D01*
X134932441Y-107322511D01*
X134932436Y-107322509D01*
X134865404Y-107302826D01*
X134865400Y-107302825D01*
X134865399Y-107302825D01*
X134807501Y-107294500D01*
X134807497Y-107294500D01*
X127302057Y-107294500D01*
X127302048Y-107294500D01*
X127291732Y-107295106D01*
X127277967Y-107295914D01*
X127249135Y-107299315D01*
X127171025Y-107325103D01*
X127110427Y-107359828D01*
X127110410Y-107359839D01*
X127089399Y-107373651D01*
X127089397Y-107373653D01*
X127030228Y-107443388D01*
X127030227Y-107443390D01*
X126998014Y-107505385D01*
X126978705Y-107560598D01*
X126978703Y-107560605D01*
X126012874Y-112486333D01*
X126012872Y-112486348D01*
X126009508Y-112539811D01*
X124850500Y-112539811D01*
X124850500Y-97128574D01*
X126310000Y-97128574D01*
X126310000Y-97351424D01*
X126339083Y-97572344D01*
X126339086Y-97572357D01*
X126339091Y-97572382D01*
X126391800Y-97769095D01*
X126396763Y-97787618D01*
X126427325Y-97861399D01*
X126482047Y-97993508D01*
X126482058Y-97993527D01*
X126593466Y-98186494D01*
X126593478Y-98186511D01*
X126644039Y-98252402D01*
X126644040Y-98252403D01*
X126644043Y-98252403D01*
X127184779Y-97711665D01*
X127246100Y-97678182D01*
X127315791Y-97683166D01*
X127371725Y-97725037D01*
X127375559Y-97730456D01*
X127388596Y-97749967D01*
X127388601Y-97749973D01*
X127500026Y-97861398D01*
X127500031Y-97861402D01*
X127519538Y-97874436D01*
X127564344Y-97928047D01*
X127573053Y-97997372D01*
X127542899Y-98060400D01*
X127538330Y-98065220D01*
X126997595Y-98605954D01*
X126997595Y-98605957D01*
X127063505Y-98656532D01*
X127063507Y-98656533D01*
X127256485Y-98767949D01*
X127256497Y-98767954D01*
X127462381Y-98853236D01*
X127595279Y-98888845D01*
X127677616Y-98910907D01*
X127677620Y-98910907D01*
X127677632Y-98910911D01*
X127677645Y-98910914D01*
X127898575Y-98940000D01*
X128121418Y-98940000D01*
X128121425Y-98940000D01*
X128342354Y-98910914D01*
X128342367Y-98910911D01*
X128557618Y-98853236D01*
X128763502Y-98767954D01*
X128763514Y-98767949D01*
X128956498Y-98656530D01*
X129022403Y-98605957D01*
X129022404Y-98605956D01*
X128481668Y-98065220D01*
X128448183Y-98003897D01*
X128453167Y-97934205D01*
X128495039Y-97878272D01*
X128500426Y-97874459D01*
X128519970Y-97861401D01*
X128631401Y-97749970D01*
X128644436Y-97730461D01*
X128698043Y-97685656D01*
X128767368Y-97676945D01*
X128830397Y-97707096D01*
X128835220Y-97711668D01*
X129375955Y-98252403D01*
X129375956Y-98252404D01*
X129375957Y-98252403D01*
X129426530Y-98186498D01*
X129537949Y-97993514D01*
X129537954Y-97993502D01*
X129623236Y-97787618D01*
X129680911Y-97572367D01*
X129680914Y-97572354D01*
X129710000Y-97351424D01*
X129710000Y-97128575D01*
X129710000Y-97128574D01*
X131390000Y-97128574D01*
X131390000Y-97351424D01*
X131419083Y-97572344D01*
X131419086Y-97572357D01*
X131419091Y-97572382D01*
X131471800Y-97769095D01*
X131476763Y-97787618D01*
X131507325Y-97861399D01*
X131562047Y-97993508D01*
X131562058Y-97993527D01*
X131673466Y-98186494D01*
X131673478Y-98186511D01*
X131724039Y-98252402D01*
X131724040Y-98252403D01*
X131724043Y-98252403D01*
X132264779Y-97711665D01*
X132326100Y-97678182D01*
X132395791Y-97683166D01*
X132451725Y-97725037D01*
X132455559Y-97730456D01*
X132468596Y-97749967D01*
X132468601Y-97749973D01*
X132580026Y-97861398D01*
X132580031Y-97861402D01*
X132599538Y-97874436D01*
X132644344Y-97928047D01*
X132653053Y-97997372D01*
X132622899Y-98060400D01*
X132618330Y-98065220D01*
X132077595Y-98605954D01*
X132077595Y-98605957D01*
X132143505Y-98656532D01*
X132143507Y-98656533D01*
X132336485Y-98767949D01*
X132336497Y-98767954D01*
X132542381Y-98853236D01*
X132675279Y-98888845D01*
X132757616Y-98910907D01*
X132757620Y-98910907D01*
X132757632Y-98910911D01*
X132757645Y-98910914D01*
X132978575Y-98940000D01*
X133201418Y-98940000D01*
X133201425Y-98940000D01*
X133422354Y-98910914D01*
X133422367Y-98910911D01*
X133637618Y-98853236D01*
X133843502Y-98767954D01*
X133843514Y-98767949D01*
X134036498Y-98656530D01*
X134102403Y-98605957D01*
X134102404Y-98605956D01*
X133561668Y-98065220D01*
X133528183Y-98003897D01*
X133533167Y-97934205D01*
X133575039Y-97878272D01*
X133580426Y-97874459D01*
X133599970Y-97861401D01*
X133711401Y-97749970D01*
X133724436Y-97730461D01*
X133778043Y-97685656D01*
X133847368Y-97676945D01*
X133910397Y-97707096D01*
X133915220Y-97711668D01*
X134455955Y-98252403D01*
X134455956Y-98252404D01*
X134455957Y-98252403D01*
X134506530Y-98186498D01*
X134617949Y-97993514D01*
X134617954Y-97993502D01*
X134703236Y-97787618D01*
X134760911Y-97572367D01*
X134760914Y-97572354D01*
X134790000Y-97351424D01*
X134790000Y-97128575D01*
X134760914Y-96907645D01*
X134760911Y-96907632D01*
X134756906Y-96892686D01*
X134730439Y-96793906D01*
X134703236Y-96692381D01*
X134617954Y-96486497D01*
X134617949Y-96486485D01*
X134506533Y-96293507D01*
X134506532Y-96293505D01*
X134455957Y-96227595D01*
X134455956Y-96227595D01*
X134455955Y-96227595D01*
X134455954Y-96227595D01*
X133915220Y-96768329D01*
X133853897Y-96801814D01*
X133784205Y-96796830D01*
X133728272Y-96754958D01*
X133724437Y-96749539D01*
X133711401Y-96730030D01*
X133711398Y-96730026D01*
X133599973Y-96618601D01*
X133599967Y-96618596D01*
X133580456Y-96605559D01*
X133535651Y-96551946D01*
X133526945Y-96482621D01*
X133557101Y-96419594D01*
X133561645Y-96414799D01*
X134102403Y-95874043D01*
X134102403Y-95874040D01*
X134036504Y-95823473D01*
X134036491Y-95823464D01*
X133843520Y-95712054D01*
X133843508Y-95712047D01*
X133750216Y-95673403D01*
X133637618Y-95626763D01*
X133637611Y-95626761D01*
X133422382Y-95569091D01*
X133422367Y-95569088D01*
X133422354Y-95569085D01*
X133422350Y-95569084D01*
X133422344Y-95569083D01*
X133201426Y-95540000D01*
X133201425Y-95540000D01*
X132978575Y-95540000D01*
X132978574Y-95540000D01*
X132757654Y-95569083D01*
X132757641Y-95569086D01*
X132757616Y-95569091D01*
X132542387Y-95626761D01*
X132542383Y-95626762D01*
X132542381Y-95626763D01*
X132542379Y-95626764D01*
X132336490Y-95712047D01*
X132336471Y-95712058D01*
X132143508Y-95823463D01*
X132077595Y-95874040D01*
X132077595Y-95874043D01*
X132618331Y-96414778D01*
X132651816Y-96476101D01*
X132646832Y-96545792D01*
X132604961Y-96601726D01*
X132599543Y-96605560D01*
X132580028Y-96618599D01*
X132468599Y-96730028D01*
X132455560Y-96749543D01*
X132401946Y-96794347D01*
X132332621Y-96803053D01*
X132269594Y-96772897D01*
X132264778Y-96768331D01*
X131724043Y-96227595D01*
X131724040Y-96227595D01*
X131673463Y-96293508D01*
X131562058Y-96486471D01*
X131562047Y-96486490D01*
X131476764Y-96692379D01*
X131476761Y-96692387D01*
X131419091Y-96907616D01*
X131419086Y-96907641D01*
X131419083Y-96907654D01*
X131390000Y-97128574D01*
X129710000Y-97128574D01*
X129680914Y-96907645D01*
X129680911Y-96907632D01*
X129676906Y-96892686D01*
X129650439Y-96793906D01*
X129623236Y-96692381D01*
X129537954Y-96486497D01*
X129537949Y-96486485D01*
X129426533Y-96293507D01*
X129426532Y-96293505D01*
X129375957Y-96227595D01*
X129375956Y-96227595D01*
X129375955Y-96227595D01*
X129375954Y-96227595D01*
X128835220Y-96768329D01*
X128773897Y-96801814D01*
X128704205Y-96796830D01*
X128648272Y-96754958D01*
X128644437Y-96749539D01*
X128631401Y-96730030D01*
X128631398Y-96730026D01*
X128519973Y-96618601D01*
X128519967Y-96618596D01*
X128500456Y-96605559D01*
X128455651Y-96551946D01*
X128446945Y-96482621D01*
X128477101Y-96419594D01*
X128481645Y-96414799D01*
X129022403Y-95874043D01*
X129022403Y-95874040D01*
X128956504Y-95823473D01*
X128956491Y-95823464D01*
X128763520Y-95712054D01*
X128763508Y-95712047D01*
X128670216Y-95673403D01*
X128557618Y-95626763D01*
X128557611Y-95626761D01*
X128342382Y-95569091D01*
X128342367Y-95569088D01*
X128342354Y-95569085D01*
X128342350Y-95569084D01*
X128342344Y-95569083D01*
X128121426Y-95540000D01*
X128121425Y-95540000D01*
X127898575Y-95540000D01*
X127898574Y-95540000D01*
X127677654Y-95569083D01*
X127677641Y-95569086D01*
X127677616Y-95569091D01*
X127462387Y-95626761D01*
X127462383Y-95626762D01*
X127462381Y-95626763D01*
X127462379Y-95626764D01*
X127256490Y-95712047D01*
X127256471Y-95712058D01*
X127063508Y-95823463D01*
X126997595Y-95874040D01*
X126997595Y-95874043D01*
X127538331Y-96414778D01*
X127571816Y-96476101D01*
X127566832Y-96545792D01*
X127524961Y-96601726D01*
X127519543Y-96605560D01*
X127500028Y-96618599D01*
X127388599Y-96730028D01*
X127375560Y-96749543D01*
X127321946Y-96794347D01*
X127252621Y-96803053D01*
X127189594Y-96772897D01*
X127184778Y-96768331D01*
X126644043Y-96227595D01*
X126644040Y-96227595D01*
X126593463Y-96293508D01*
X126482058Y-96486471D01*
X126482047Y-96486490D01*
X126396764Y-96692379D01*
X126396761Y-96692387D01*
X126339091Y-96907616D01*
X126339086Y-96907641D01*
X126339083Y-96907654D01*
X126310000Y-97128574D01*
X124850500Y-97128574D01*
X124850500Y-94589772D01*
X129149500Y-94589772D01*
X129149500Y-94810226D01*
X129183985Y-95027955D01*
X129252094Y-95237579D01*
X129252102Y-95237602D01*
X129252104Y-95237606D01*
X129352187Y-95434026D01*
X129450311Y-95569083D01*
X129481752Y-95612358D01*
X129481756Y-95612363D01*
X129481761Y-95612369D01*
X129637627Y-95768235D01*
X129637636Y-95768243D01*
X129637660Y-95768261D01*
X129711178Y-95821675D01*
X129711182Y-95821677D01*
X129815978Y-95897815D01*
X129944375Y-95963237D01*
X130012393Y-95997895D01*
X130012396Y-95997896D01*
X130117221Y-96031955D01*
X130222049Y-96066015D01*
X130439778Y-96100500D01*
X130439779Y-96100500D01*
X130660221Y-96100500D01*
X130660222Y-96100500D01*
X130877951Y-96066015D01*
X131087606Y-95997895D01*
X131284022Y-95897815D01*
X131300727Y-95885678D01*
X131330673Y-95863921D01*
X131330676Y-95863918D01*
X131352436Y-95848109D01*
X131388819Y-95821677D01*
X131456285Y-95772659D01*
X131457724Y-95771742D01*
X131461492Y-95768900D01*
X131463282Y-95767575D01*
X131501617Y-95739722D01*
X131516090Y-95714517D01*
X131530110Y-95700497D01*
X131618242Y-95612365D01*
X131747815Y-95434022D01*
X131847895Y-95237606D01*
X131916015Y-95027951D01*
X131950500Y-94810222D01*
X131950500Y-94589778D01*
X131916015Y-94372049D01*
X131867310Y-94222149D01*
X131847896Y-94162396D01*
X131847895Y-94162393D01*
X131813237Y-94094375D01*
X131747815Y-93965978D01*
X131649684Y-93830911D01*
X131649683Y-93830908D01*
X131618261Y-93787660D01*
X131618243Y-93787636D01*
X131603841Y-93773234D01*
X131462359Y-93631752D01*
X131388816Y-93578321D01*
X131386347Y-93576527D01*
X131291916Y-93507920D01*
X131291576Y-93507630D01*
X131284009Y-93502175D01*
X131283602Y-93501970D01*
X131221098Y-93470123D01*
X131221096Y-93470122D01*
X131087606Y-93402104D01*
X131087602Y-93402102D01*
X131087579Y-93402094D01*
X130877954Y-93333985D01*
X130877955Y-93333985D01*
X130769086Y-93316742D01*
X130660227Y-93299500D01*
X130660222Y-93299500D01*
X130439778Y-93299500D01*
X130439774Y-93299500D01*
X130381716Y-93308696D01*
X130367201Y-93310995D01*
X130222043Y-93333985D01*
X130012419Y-93402094D01*
X130012396Y-93402102D01*
X130012392Y-93402104D01*
X129815972Y-93502187D01*
X129637658Y-93631739D01*
X129637629Y-93631761D01*
X129481761Y-93787629D01*
X129481739Y-93787658D01*
X129352187Y-93965972D01*
X129252104Y-94162392D01*
X129252102Y-94162396D01*
X129252094Y-94162419D01*
X129183985Y-94372043D01*
X129149500Y-94589772D01*
X124850500Y-94589772D01*
X124850500Y-92048574D01*
X126310000Y-92048574D01*
X126310000Y-92271424D01*
X126339083Y-92492344D01*
X126339086Y-92492357D01*
X126339091Y-92492382D01*
X126386675Y-92669970D01*
X126396763Y-92707618D01*
X126427325Y-92781399D01*
X126482047Y-92913508D01*
X126482058Y-92913527D01*
X126593466Y-93106494D01*
X126593478Y-93106511D01*
X126644039Y-93172402D01*
X126644040Y-93172403D01*
X126644043Y-93172403D01*
X127184779Y-92631665D01*
X127246100Y-92598182D01*
X127315791Y-92603166D01*
X127371725Y-92645037D01*
X127375559Y-92650456D01*
X127388596Y-92669967D01*
X127388601Y-92669973D01*
X127500026Y-92781398D01*
X127500031Y-92781402D01*
X127519538Y-92794436D01*
X127564344Y-92848047D01*
X127573053Y-92917372D01*
X127542899Y-92980400D01*
X127538330Y-92985220D01*
X126997595Y-93525954D01*
X126997595Y-93525957D01*
X127063505Y-93576532D01*
X127063507Y-93576533D01*
X127256485Y-93687949D01*
X127256497Y-93687954D01*
X127462381Y-93773236D01*
X127608557Y-93812403D01*
X127677616Y-93830907D01*
X127677620Y-93830907D01*
X127677632Y-93830911D01*
X127677645Y-93830914D01*
X127898575Y-93860000D01*
X128121418Y-93860000D01*
X128121425Y-93860000D01*
X128342354Y-93830914D01*
X128342367Y-93830911D01*
X128557618Y-93773236D01*
X128763502Y-93687954D01*
X128763514Y-93687949D01*
X128956498Y-93576530D01*
X129022403Y-93525957D01*
X129022404Y-93525956D01*
X128481668Y-92985220D01*
X128448183Y-92923897D01*
X128453167Y-92854205D01*
X128495039Y-92798272D01*
X128500426Y-92794459D01*
X128519970Y-92781401D01*
X128631401Y-92669970D01*
X128644436Y-92650461D01*
X128698043Y-92605656D01*
X128767368Y-92596945D01*
X128830397Y-92627096D01*
X128835220Y-92631668D01*
X129375955Y-93172403D01*
X129375956Y-93172404D01*
X129375957Y-93172403D01*
X129426530Y-93106498D01*
X129537949Y-92913514D01*
X129537954Y-92913502D01*
X129623236Y-92707618D01*
X129680911Y-92492367D01*
X129680914Y-92492354D01*
X129710000Y-92271424D01*
X129710000Y-92048575D01*
X129710000Y-92048574D01*
X131390000Y-92048574D01*
X131390000Y-92271424D01*
X131419083Y-92492344D01*
X131419086Y-92492357D01*
X131419091Y-92492382D01*
X131466675Y-92669970D01*
X131476763Y-92707618D01*
X131507325Y-92781399D01*
X131562047Y-92913508D01*
X131562058Y-92913527D01*
X131673466Y-93106494D01*
X131673478Y-93106511D01*
X131724039Y-93172402D01*
X131724040Y-93172403D01*
X131724043Y-93172403D01*
X132264779Y-92631665D01*
X132326100Y-92598182D01*
X132395791Y-92603166D01*
X132451725Y-92645037D01*
X132455559Y-92650456D01*
X132468596Y-92669967D01*
X132468601Y-92669973D01*
X132580026Y-92781398D01*
X132580031Y-92781402D01*
X132599538Y-92794436D01*
X132644344Y-92848047D01*
X132653053Y-92917372D01*
X132622899Y-92980400D01*
X132618330Y-92985220D01*
X132077595Y-93525954D01*
X132077595Y-93525957D01*
X132143505Y-93576532D01*
X132143507Y-93576533D01*
X132336485Y-93687949D01*
X132336497Y-93687954D01*
X132542381Y-93773236D01*
X132688557Y-93812403D01*
X132757616Y-93830907D01*
X132757620Y-93830907D01*
X132757632Y-93830911D01*
X132757645Y-93830914D01*
X132978575Y-93860000D01*
X133201418Y-93860000D01*
X133201425Y-93860000D01*
X133422354Y-93830914D01*
X133422367Y-93830911D01*
X133637618Y-93773236D01*
X133843502Y-93687954D01*
X133843514Y-93687949D01*
X134036498Y-93576530D01*
X134102403Y-93525957D01*
X134102404Y-93525956D01*
X133561668Y-92985220D01*
X133528183Y-92923897D01*
X133533167Y-92854205D01*
X133575039Y-92798272D01*
X133580426Y-92794459D01*
X133599970Y-92781401D01*
X133711401Y-92669970D01*
X133724436Y-92650461D01*
X133778043Y-92605656D01*
X133847368Y-92596945D01*
X133910397Y-92627096D01*
X133915220Y-92631668D01*
X134455955Y-93172403D01*
X134455956Y-93172404D01*
X134455957Y-93172403D01*
X134506530Y-93106498D01*
X134617949Y-92913514D01*
X134617954Y-92913502D01*
X134703236Y-92707618D01*
X134760911Y-92492367D01*
X134760914Y-92492354D01*
X134780218Y-92345730D01*
X143199500Y-92345730D01*
X143199500Y-93954269D01*
X143200598Y-93965978D01*
X143201812Y-93978929D01*
X143201978Y-93982499D01*
X143202353Y-93984703D01*
X143242522Y-94099496D01*
X143247206Y-94112880D01*
X143247207Y-94112882D01*
X143327850Y-94222150D01*
X143437117Y-94302792D01*
X143437118Y-94302793D01*
X143565299Y-94347646D01*
X143565303Y-94347647D01*
X143583742Y-94349375D01*
X143595730Y-94350500D01*
X143595734Y-94350500D01*
X145757671Y-94350500D01*
X145792606Y-94355523D01*
X145807604Y-94359927D01*
X145866355Y-94397672D01*
X145866379Y-94397700D01*
X145866382Y-94397702D01*
X145866383Y-94397704D01*
X145867542Y-94399041D01*
X145895018Y-94453902D01*
X145896663Y-94461460D01*
X145899500Y-94487831D01*
X145899500Y-94873494D01*
X145899499Y-94873496D01*
X145899500Y-94873497D01*
X145894476Y-94908431D01*
X145887064Y-94933672D01*
X145855769Y-94986416D01*
X145849510Y-94992674D01*
X145849505Y-94992679D01*
X145849502Y-94992683D01*
X145849500Y-94992686D01*
X145849497Y-94992690D01*
X145849493Y-94992696D01*
X145783610Y-95106806D01*
X145783609Y-95106808D01*
X145783608Y-95106812D01*
X145749500Y-95234108D01*
X145749500Y-95365891D01*
X145766554Y-95429539D01*
X145783608Y-95493188D01*
X145792021Y-95507759D01*
X145792023Y-95507762D01*
X145849500Y-95607314D01*
X145942686Y-95700500D01*
X146056814Y-95766392D01*
X146184108Y-95800500D01*
X146184110Y-95800500D01*
X146315890Y-95800500D01*
X146315892Y-95800500D01*
X146443186Y-95766392D01*
X146557314Y-95700500D01*
X146650500Y-95607314D01*
X146716392Y-95493186D01*
X146750500Y-95365892D01*
X146750500Y-95234108D01*
X146716392Y-95106814D01*
X146716387Y-95106806D01*
X146697510Y-95074109D01*
X146650500Y-94992686D01*
X146586419Y-94928605D01*
X146583442Y-94925524D01*
X146552522Y-94892390D01*
X146552675Y-94892192D01*
X146536748Y-94875487D01*
X146536296Y-94875002D01*
X146531920Y-94866285D01*
X146506447Y-94819627D01*
X146503993Y-94809508D01*
X146500500Y-94780283D01*
X146500500Y-94492329D01*
X146505523Y-94457393D01*
X146509927Y-94442395D01*
X146519557Y-94427404D01*
X146524567Y-94410324D01*
X146547672Y-94383644D01*
X146549041Y-94382457D01*
X146603920Y-94354977D01*
X146611479Y-94353333D01*
X146637832Y-94350500D01*
X147004271Y-94350500D01*
X147005576Y-94350377D01*
X147034699Y-94347646D01*
X147034701Y-94347646D01*
X147098790Y-94325219D01*
X147162882Y-94302793D01*
X147272150Y-94222150D01*
X147352793Y-94112882D01*
X147375219Y-94048790D01*
X147397646Y-93984701D01*
X147397646Y-93984699D01*
X147400500Y-93954269D01*
X147400500Y-92345730D01*
X147398187Y-92321078D01*
X147398020Y-92317502D01*
X147397646Y-92315300D01*
X147397646Y-92315298D01*
X147352793Y-92187119D01*
X147352792Y-92187117D01*
X147352792Y-92187116D01*
X147272151Y-92077851D01*
X147272150Y-92077850D01*
X147162882Y-91997207D01*
X147162880Y-91997206D01*
X147034704Y-91952354D01*
X147034702Y-91952353D01*
X147034700Y-91952353D01*
X147004270Y-91949500D01*
X147004266Y-91949500D01*
X147004264Y-91949500D01*
X143595734Y-91949500D01*
X143595730Y-91949500D01*
X143577074Y-91951249D01*
X143571069Y-91951812D01*
X143567499Y-91951978D01*
X143565297Y-91952353D01*
X143437118Y-91997206D01*
X143327849Y-92077849D01*
X143247206Y-92187118D01*
X143202353Y-92315297D01*
X143201978Y-92317499D01*
X143201812Y-92321069D01*
X143199500Y-92345730D01*
X134780218Y-92345730D01*
X134782731Y-92326646D01*
X134782956Y-92324930D01*
X134790000Y-92271426D01*
X134790000Y-92048575D01*
X134760914Y-91827645D01*
X134760911Y-91827632D01*
X134703236Y-91612381D01*
X134617954Y-91406497D01*
X134617949Y-91406485D01*
X134506533Y-91213507D01*
X134506532Y-91213505D01*
X134455957Y-91147595D01*
X134455956Y-91147595D01*
X134455955Y-91147595D01*
X134455954Y-91147595D01*
X133915220Y-91688329D01*
X133853897Y-91721814D01*
X133784205Y-91716830D01*
X133728272Y-91674958D01*
X133724437Y-91669539D01*
X133711401Y-91650030D01*
X133711398Y-91650026D01*
X133599973Y-91538601D01*
X133599967Y-91538596D01*
X133580456Y-91525559D01*
X133535651Y-91471946D01*
X133526945Y-91402621D01*
X133557101Y-91339594D01*
X133561645Y-91334799D01*
X134102403Y-90794043D01*
X134102403Y-90794040D01*
X134036504Y-90743473D01*
X134036491Y-90743464D01*
X133843520Y-90632054D01*
X133843508Y-90632047D01*
X133748462Y-90592677D01*
X133637618Y-90546763D01*
X133637611Y-90546761D01*
X133422382Y-90489091D01*
X133422367Y-90489088D01*
X133422354Y-90489085D01*
X133422350Y-90489084D01*
X133422344Y-90489083D01*
X133201426Y-90460000D01*
X133201425Y-90460000D01*
X132978575Y-90460000D01*
X132978574Y-90460000D01*
X132757654Y-90489083D01*
X132757641Y-90489086D01*
X132757616Y-90489091D01*
X132542387Y-90546761D01*
X132542383Y-90546762D01*
X132542381Y-90546763D01*
X132542379Y-90546764D01*
X132336490Y-90632047D01*
X132336471Y-90632058D01*
X132143508Y-90743463D01*
X132077595Y-90794040D01*
X132077595Y-90794043D01*
X132618331Y-91334778D01*
X132651816Y-91396101D01*
X132646832Y-91465792D01*
X132604961Y-91521726D01*
X132599543Y-91525560D01*
X132580028Y-91538599D01*
X132468599Y-91650028D01*
X132455560Y-91669543D01*
X132401946Y-91714347D01*
X132332621Y-91723053D01*
X132269594Y-91692897D01*
X132264778Y-91688331D01*
X131724043Y-91147595D01*
X131724040Y-91147595D01*
X131673463Y-91213508D01*
X131562058Y-91406471D01*
X131562047Y-91406490D01*
X131476764Y-91612379D01*
X131476761Y-91612387D01*
X131419091Y-91827616D01*
X131419086Y-91827641D01*
X131419083Y-91827654D01*
X131390000Y-92048574D01*
X129710000Y-92048574D01*
X129680914Y-91827645D01*
X129680911Y-91827632D01*
X129623236Y-91612381D01*
X129537954Y-91406497D01*
X129537949Y-91406485D01*
X129426533Y-91213507D01*
X129426532Y-91213505D01*
X129375957Y-91147595D01*
X129375956Y-91147595D01*
X129375955Y-91147595D01*
X129375954Y-91147595D01*
X128835220Y-91688329D01*
X128773897Y-91721814D01*
X128704205Y-91716830D01*
X128648272Y-91674958D01*
X128644437Y-91669539D01*
X128631401Y-91650030D01*
X128631398Y-91650026D01*
X128519973Y-91538601D01*
X128519967Y-91538596D01*
X128500456Y-91525559D01*
X128455651Y-91471946D01*
X128446945Y-91402621D01*
X128477101Y-91339594D01*
X128481645Y-91334799D01*
X129022403Y-90794043D01*
X129022403Y-90794041D01*
X128956504Y-90743473D01*
X128956503Y-90743472D01*
X128956496Y-90743467D01*
X128956487Y-90743462D01*
X128763520Y-90632054D01*
X128763508Y-90632047D01*
X128668462Y-90592677D01*
X128557618Y-90546763D01*
X128557611Y-90546761D01*
X128342382Y-90489091D01*
X128342367Y-90489088D01*
X128342354Y-90489085D01*
X128342350Y-90489084D01*
X128342344Y-90489083D01*
X128121426Y-90460000D01*
X128121425Y-90460000D01*
X127898575Y-90460000D01*
X127898574Y-90460000D01*
X127677654Y-90489083D01*
X127677641Y-90489086D01*
X127677616Y-90489091D01*
X127462387Y-90546761D01*
X127462383Y-90546762D01*
X127462381Y-90546763D01*
X127462379Y-90546764D01*
X127256490Y-90632047D01*
X127256471Y-90632058D01*
X127063508Y-90743463D01*
X126997595Y-90794040D01*
X126997595Y-90794043D01*
X127538331Y-91334778D01*
X127571816Y-91396101D01*
X127566832Y-91465792D01*
X127524961Y-91521726D01*
X127519543Y-91525560D01*
X127500028Y-91538599D01*
X127388599Y-91650028D01*
X127375560Y-91669543D01*
X127321946Y-91714347D01*
X127252621Y-91723053D01*
X127189594Y-91692897D01*
X127184778Y-91688331D01*
X126644043Y-91147595D01*
X126644040Y-91147595D01*
X126593463Y-91213508D01*
X126482058Y-91406471D01*
X126482047Y-91406490D01*
X126396764Y-91612379D01*
X126396761Y-91612387D01*
X126339091Y-91827616D01*
X126339086Y-91827641D01*
X126339083Y-91827654D01*
X126310000Y-92048574D01*
X124850500Y-92048574D01*
X124850500Y-81695730D01*
X141899500Y-81695730D01*
X141899500Y-83304269D01*
X141900750Y-83317598D01*
X141901812Y-83328929D01*
X141901978Y-83332499D01*
X141902353Y-83334701D01*
X141947205Y-83462878D01*
X141947204Y-83462878D01*
X141947207Y-83462882D01*
X142027850Y-83572150D01*
X142110313Y-83633010D01*
X142137118Y-83652793D01*
X142265299Y-83697646D01*
X142265303Y-83697647D01*
X142283742Y-83699375D01*
X142295730Y-83700500D01*
X142295734Y-83700500D01*
X142295739Y-83700500D01*
X145704270Y-83700500D01*
X145704271Y-83700500D01*
X145705576Y-83700377D01*
X145734699Y-83697646D01*
X145734701Y-83697646D01*
X145798790Y-83675219D01*
X145862882Y-83652793D01*
X145972150Y-83572150D01*
X146052793Y-83462882D01*
X146081739Y-83380159D01*
X146097646Y-83334701D01*
X146097646Y-83334699D01*
X146100500Y-83304269D01*
X146100500Y-82942329D01*
X146105523Y-82907393D01*
X146109927Y-82892395D01*
X146147672Y-82833644D01*
X146147700Y-82833619D01*
X146147699Y-82833619D01*
X146149041Y-82832456D01*
X146203920Y-82804977D01*
X146211479Y-82803333D01*
X146237832Y-82800500D01*
X146956338Y-82800500D01*
X146988573Y-82804763D01*
X146989933Y-82805129D01*
X147003607Y-82809144D01*
X147010066Y-82810549D01*
X147012970Y-82811331D01*
X147040296Y-82828031D01*
X147068409Y-82843380D01*
X147068416Y-82843387D01*
X147100573Y-82875544D01*
X147121723Y-82903796D01*
X147134331Y-82926885D01*
X147149500Y-82986314D01*
X147149500Y-87189562D01*
X147151061Y-87195389D01*
X147151063Y-87195395D01*
X147152224Y-87199727D01*
X147169979Y-87265990D01*
X147169980Y-87265991D01*
X147183576Y-87289540D01*
X147184028Y-87290323D01*
X147184030Y-87290328D01*
X147195503Y-87310199D01*
X147209540Y-87334511D01*
X148265489Y-88390460D01*
X148324826Y-88424718D01*
X148324831Y-88424723D01*
X148324832Y-88424722D01*
X148333995Y-88430013D01*
X148333999Y-88430015D01*
X148334008Y-88430020D01*
X148334012Y-88430022D01*
X148410438Y-88450500D01*
X148410440Y-88450500D01*
X150689560Y-88450500D01*
X150689562Y-88450500D01*
X150765989Y-88430021D01*
X150834511Y-88390460D01*
X150890460Y-88334511D01*
X152091473Y-87133496D01*
X152105577Y-87125402D01*
X152115170Y-87114961D01*
X152119711Y-87112354D01*
X152129652Y-87106926D01*
X152142730Y-87104081D01*
X152147686Y-87101238D01*
X152157612Y-87098634D01*
X152166576Y-87098894D01*
X152197924Y-87092075D01*
X152220397Y-87100457D01*
X152227453Y-87100662D01*
X152235243Y-87105994D01*
X152263388Y-87116492D01*
X152276848Y-87134472D01*
X152285109Y-87140127D01*
X152290313Y-87152459D01*
X152305260Y-87172425D01*
X152305315Y-87172574D01*
X152305529Y-87173150D01*
X152308446Y-87195425D01*
X152312276Y-87204499D01*
X152310770Y-87213171D01*
X152312730Y-87228128D01*
X152312516Y-87230368D01*
X152308854Y-87250665D01*
X152304748Y-87265990D01*
X152299500Y-87285577D01*
X152299500Y-87417362D01*
X152312253Y-87464958D01*
X152333608Y-87544659D01*
X152366554Y-87601721D01*
X152399500Y-87658785D01*
X152492686Y-87751971D01*
X152591521Y-87809034D01*
X152598704Y-87813181D01*
X152606814Y-87817863D01*
X152606816Y-87817863D01*
X152606817Y-87817864D01*
X152621216Y-87821722D01*
X152734108Y-87851971D01*
X152734110Y-87851971D01*
X152865890Y-87851971D01*
X152865892Y-87851971D01*
X152993186Y-87817863D01*
X153107314Y-87751971D01*
X153200500Y-87658785D01*
X153266392Y-87544657D01*
X153300500Y-87417363D01*
X153300500Y-87345132D01*
X153305522Y-87310199D01*
X153312934Y-87284954D01*
X153344228Y-87232212D01*
X153625470Y-86950971D01*
X153990460Y-86585982D01*
X154030021Y-86517460D01*
X154050500Y-86441033D01*
X154050500Y-65735438D01*
X154030021Y-65659011D01*
X154025107Y-65650499D01*
X153990464Y-65590495D01*
X153990458Y-65590487D01*
X153990457Y-65590486D01*
X153990453Y-65590481D01*
X151659517Y-63259545D01*
X151659515Y-63259544D01*
X151659512Y-63259541D01*
X151659504Y-63259535D01*
X151634164Y-63244905D01*
X151591872Y-63220488D01*
X151591050Y-63220004D01*
X151590995Y-63219981D01*
X151590991Y-63219980D01*
X151590990Y-63219979D01*
X151565513Y-63213152D01*
X151565509Y-63213150D01*
X151514563Y-63199500D01*
X151514562Y-63199500D01*
X149110438Y-63199500D01*
X149072224Y-63209739D01*
X149072221Y-63209739D01*
X149034010Y-63219978D01*
X149033939Y-63220008D01*
X149033130Y-63220485D01*
X148965508Y-63259526D01*
X148965483Y-63259544D01*
X148965481Y-63259545D01*
X148659545Y-63565481D01*
X148659544Y-63565483D01*
X148659526Y-63565508D01*
X148627151Y-63621583D01*
X148627148Y-63621591D01*
X148619982Y-63634004D01*
X148619979Y-63634009D01*
X148603411Y-63695842D01*
X148602504Y-63698680D01*
X148601802Y-63699716D01*
X148597778Y-63711117D01*
X148580692Y-63749711D01*
X148554990Y-63787194D01*
X148499501Y-63842684D01*
X148499499Y-63842686D01*
X148433608Y-63956810D01*
X148419480Y-64009540D01*
X148399500Y-64084108D01*
X148399500Y-64215891D01*
X148433608Y-64343187D01*
X148465609Y-64398613D01*
X148499500Y-64457314D01*
X148592686Y-64550500D01*
X148706814Y-64616392D01*
X148834108Y-64650500D01*
X148834110Y-64650500D01*
X148965890Y-64650500D01*
X148965892Y-64650500D01*
X149093186Y-64616392D01*
X149207314Y-64550500D01*
X149300500Y-64457314D01*
X149337861Y-64392601D01*
X149359670Y-64364869D01*
X149367865Y-64357055D01*
X149429965Y-64325044D01*
X149499518Y-64331688D01*
X149554438Y-64374880D01*
X149554442Y-64374887D01*
X149558891Y-64381136D01*
X149577652Y-64420960D01*
X149583607Y-64443186D01*
X149610902Y-64490460D01*
X149610903Y-64490462D01*
X149649497Y-64557310D01*
X149649499Y-64557313D01*
X149649500Y-64557314D01*
X149742686Y-64650500D01*
X149856814Y-64716392D01*
X149984108Y-64750500D01*
X149984110Y-64750500D01*
X150115890Y-64750500D01*
X150115892Y-64750500D01*
X150243186Y-64716392D01*
X150357314Y-64650500D01*
X150408395Y-64599418D01*
X150436640Y-64578275D01*
X150459732Y-64565667D01*
X150519157Y-64550500D01*
X151006337Y-64550500D01*
X151041269Y-64555521D01*
X151066513Y-64562934D01*
X151119259Y-64594230D01*
X151350574Y-64825545D01*
X151371723Y-64853796D01*
X151384331Y-64876885D01*
X151399500Y-64936314D01*
X151399500Y-84631336D01*
X151394476Y-84666273D01*
X151387064Y-84691514D01*
X151355769Y-84744258D01*
X150424454Y-85675573D01*
X150407612Y-85688181D01*
X150396203Y-85696722D01*
X150373115Y-85709330D01*
X150313685Y-85724500D01*
X150234108Y-85724500D01*
X150106808Y-85758609D01*
X150106806Y-85758610D01*
X149992696Y-85824493D01*
X149992682Y-85824502D01*
X149992677Y-85824506D01*
X149899506Y-85917677D01*
X149899502Y-85917682D01*
X149899493Y-85917696D01*
X149833610Y-86031806D01*
X149833609Y-86031808D01*
X149833608Y-86031812D01*
X149799500Y-86159108D01*
X149799500Y-86290891D01*
X149803639Y-86306337D01*
X149833608Y-86418188D01*
X149846797Y-86441031D01*
X149866554Y-86475250D01*
X149899500Y-86532314D01*
X149992686Y-86625500D01*
X150106814Y-86691392D01*
X150234108Y-86725500D01*
X150234110Y-86725500D01*
X150365890Y-86725500D01*
X150365892Y-86725500D01*
X150493186Y-86691392D01*
X150607314Y-86625500D01*
X150700500Y-86532314D01*
X150766392Y-86418186D01*
X150800500Y-86290892D01*
X150800500Y-86218661D01*
X150805522Y-86183728D01*
X150812934Y-86158483D01*
X150844228Y-86105741D01*
X151261789Y-85688181D01*
X151775216Y-85174752D01*
X151803466Y-85153605D01*
X151813396Y-85148183D01*
X151830806Y-85144396D01*
X151846445Y-85135855D01*
X151864237Y-85137125D01*
X151881668Y-85133334D01*
X151898363Y-85139561D01*
X151916137Y-85140831D01*
X151930419Y-85151519D01*
X151947132Y-85157754D01*
X151957812Y-85172020D01*
X151972076Y-85182695D01*
X151988994Y-85213670D01*
X151991676Y-85220858D01*
X151999500Y-85264206D01*
X151999500Y-86306337D01*
X151994476Y-86341274D01*
X151987064Y-86366515D01*
X151955769Y-86419259D01*
X150574455Y-87800573D01*
X150557614Y-87813180D01*
X150546204Y-87821722D01*
X150523116Y-87834330D01*
X150463686Y-87849500D01*
X148643663Y-87849500D01*
X148608727Y-87844477D01*
X148583485Y-87837065D01*
X148530740Y-87805769D01*
X147799426Y-87074455D01*
X147799421Y-87074450D01*
X147778274Y-87046199D01*
X147765667Y-87023110D01*
X147750500Y-86963685D01*
X147750500Y-81606863D01*
X147754723Y-81574776D01*
X147762887Y-81544304D01*
X147775275Y-81514402D01*
X147816389Y-81443191D01*
X147816388Y-81443191D01*
X147816392Y-81443186D01*
X147850500Y-81315892D01*
X147850500Y-81184108D01*
X147816392Y-81056814D01*
X147750500Y-80942686D01*
X147657314Y-80849500D01*
X147600250Y-80816554D01*
X147543187Y-80783608D01*
X147479539Y-80766554D01*
X147415892Y-80749500D01*
X147415891Y-80749500D01*
X147284108Y-80749500D01*
X147156808Y-80783609D01*
X147156806Y-80783610D01*
X147042696Y-80849493D01*
X147042682Y-80849502D01*
X147042677Y-80849506D01*
X146949506Y-80942677D01*
X146949502Y-80942682D01*
X146949493Y-80942696D01*
X146883609Y-81056808D01*
X146883608Y-81056812D01*
X146873748Y-81093616D01*
X146873747Y-81093618D01*
X146873746Y-81093620D01*
X146849500Y-81184108D01*
X146849500Y-81315892D01*
X146857891Y-81347208D01*
X146876950Y-81418338D01*
X146883608Y-81443187D01*
X146885480Y-81446430D01*
X146888037Y-81450859D01*
X146888038Y-81450859D01*
X146949500Y-81557314D01*
X147042686Y-81650500D01*
X147068317Y-81665298D01*
X147072059Y-81667458D01*
X147099802Y-81689275D01*
X147112786Y-81702892D01*
X147143548Y-81759227D01*
X147146004Y-81769350D01*
X147149500Y-81798586D01*
X147149500Y-82057670D01*
X147144475Y-82092614D01*
X147140070Y-82107612D01*
X147130439Y-82122601D01*
X147125432Y-82139675D01*
X147102327Y-82166355D01*
X147100958Y-82167542D01*
X147046097Y-82195018D01*
X147038539Y-82196663D01*
X147012168Y-82199500D01*
X146242330Y-82199500D01*
X146207389Y-82194475D01*
X146192390Y-82190070D01*
X146177402Y-82180440D01*
X146160324Y-82175432D01*
X146133644Y-82152327D01*
X146132457Y-82150958D01*
X146104977Y-82096083D01*
X146103332Y-82088521D01*
X146100500Y-82062168D01*
X146100500Y-81695728D01*
X146099387Y-81683862D01*
X146099386Y-81683861D01*
X146097646Y-81665300D01*
X146097646Y-81665298D01*
X146064006Y-81569163D01*
X146052793Y-81537118D01*
X145972150Y-81427850D01*
X145862882Y-81347207D01*
X145862880Y-81347206D01*
X145826852Y-81334599D01*
X145734704Y-81302354D01*
X145734702Y-81302353D01*
X145734700Y-81302353D01*
X145704270Y-81299500D01*
X145704266Y-81299500D01*
X145704264Y-81299500D01*
X142295734Y-81299500D01*
X142295730Y-81299500D01*
X142277074Y-81301249D01*
X142271069Y-81301812D01*
X142267499Y-81301978D01*
X142265297Y-81302353D01*
X142137118Y-81347206D01*
X142027849Y-81427849D01*
X141947206Y-81537118D01*
X141902353Y-81665297D01*
X141901978Y-81667499D01*
X141901877Y-81669664D01*
X141901901Y-81670070D01*
X141901850Y-81670655D01*
X141899500Y-81695730D01*
X124850500Y-81695730D01*
X124850500Y-77295730D01*
X141799500Y-77295730D01*
X141799500Y-78904269D01*
X141801265Y-78923094D01*
X141801812Y-78928929D01*
X141801978Y-78932499D01*
X141802353Y-78934699D01*
X141802353Y-78934701D01*
X141847206Y-79062880D01*
X141847207Y-79062882D01*
X141927850Y-79172150D01*
X141991631Y-79219222D01*
X142037118Y-79252793D01*
X142165299Y-79297646D01*
X142165303Y-79297647D01*
X142183742Y-79299375D01*
X142195730Y-79300500D01*
X142195734Y-79300500D01*
X142195739Y-79300500D01*
X145604270Y-79300500D01*
X145604271Y-79300500D01*
X145605576Y-79300377D01*
X145634699Y-79297646D01*
X145634701Y-79297646D01*
X145698790Y-79275219D01*
X145762882Y-79252793D01*
X145872150Y-79172150D01*
X145952793Y-79062882D01*
X145991087Y-78953444D01*
X145997646Y-78934701D01*
X145997646Y-78934699D01*
X146000500Y-78904269D01*
X146000500Y-78542329D01*
X146005523Y-78507393D01*
X146006864Y-78502828D01*
X146009927Y-78492394D01*
X146047672Y-78433644D01*
X146047700Y-78433619D01*
X146047699Y-78433619D01*
X146049041Y-78432456D01*
X146103920Y-78404977D01*
X146111479Y-78403333D01*
X146137832Y-78400500D01*
X148719542Y-78400500D01*
X148739245Y-78403333D01*
X148754476Y-78405523D01*
X148772530Y-78410824D01*
X148827342Y-78444234D01*
X148834530Y-78451773D01*
X148852170Y-78475339D01*
X148890848Y-78542329D01*
X148899500Y-78557314D01*
X148992686Y-78650500D01*
X149106814Y-78716392D01*
X149234108Y-78750500D01*
X149234110Y-78750500D01*
X149365890Y-78750500D01*
X149365892Y-78750500D01*
X149493186Y-78716392D01*
X149607314Y-78650500D01*
X149700500Y-78557314D01*
X149766392Y-78443186D01*
X149800500Y-78315892D01*
X149800500Y-78184108D01*
X149766392Y-78056814D01*
X149700500Y-77942686D01*
X149649425Y-77891611D01*
X149649423Y-77891608D01*
X149649422Y-77891608D01*
X149628272Y-77863353D01*
X149615666Y-77840265D01*
X149600500Y-77780842D01*
X149600500Y-67760439D01*
X149600500Y-67760438D01*
X149580021Y-67684011D01*
X149569933Y-67666538D01*
X149562607Y-67653848D01*
X149540468Y-67615501D01*
X149540460Y-67615489D01*
X149540453Y-67615481D01*
X148749426Y-66824455D01*
X148749421Y-66824450D01*
X148728274Y-66796199D01*
X148715667Y-66773110D01*
X148700500Y-66713685D01*
X148700500Y-66634110D01*
X148700500Y-66634108D01*
X148666392Y-66506814D01*
X148666387Y-66506806D01*
X148637524Y-66456814D01*
X148600500Y-66392686D01*
X148507314Y-66299500D01*
X148450250Y-66266554D01*
X148393187Y-66233608D01*
X148311823Y-66211807D01*
X148311823Y-66211806D01*
X148265893Y-66199500D01*
X148265892Y-66199500D01*
X148134108Y-66199500D01*
X148006808Y-66233609D01*
X148006806Y-66233610D01*
X147892696Y-66299493D01*
X147892682Y-66299502D01*
X147892677Y-66299506D01*
X147799506Y-66392677D01*
X147799502Y-66392682D01*
X147799500Y-66392686D01*
X147733610Y-66506806D01*
X147733609Y-66506809D01*
X147733608Y-66506811D01*
X147733608Y-66506812D01*
X147712897Y-66584108D01*
X147712896Y-66584107D01*
X147699500Y-66634104D01*
X147699500Y-66634108D01*
X147699500Y-66765892D01*
X147705243Y-66787326D01*
X147733608Y-66893187D01*
X147763920Y-66945688D01*
X147799500Y-67007314D01*
X147892686Y-67100500D01*
X148006814Y-67166392D01*
X148134108Y-67200500D01*
X148134110Y-67200500D01*
X148206337Y-67200500D01*
X148241269Y-67205521D01*
X148266513Y-67212934D01*
X148319259Y-67244230D01*
X148950573Y-67875544D01*
X148971723Y-67903796D01*
X148984331Y-67926885D01*
X148999500Y-67986314D01*
X148999500Y-77657670D01*
X148999499Y-77657676D01*
X148999500Y-77657679D01*
X148994475Y-77692614D01*
X148990070Y-77707612D01*
X148952327Y-77766355D01*
X148952292Y-77766385D01*
X148952291Y-77766387D01*
X148952289Y-77766387D01*
X148950958Y-77767542D01*
X148896097Y-77795018D01*
X148888539Y-77796663D01*
X148862168Y-77799500D01*
X146142330Y-77799500D01*
X146142325Y-77799499D01*
X146142323Y-77799500D01*
X146107389Y-77794475D01*
X146092390Y-77790070D01*
X146033644Y-77752327D01*
X146033615Y-77752293D01*
X146033614Y-77752293D01*
X146033613Y-77752291D01*
X146032457Y-77750958D01*
X146004977Y-77696083D01*
X146003332Y-77688521D01*
X146000500Y-77662168D01*
X146000500Y-77295728D01*
X145998188Y-77271079D01*
X145998020Y-77267502D01*
X145997646Y-77265300D01*
X145997646Y-77265298D01*
X145952793Y-77137119D01*
X145952792Y-77137117D01*
X145952792Y-77137116D01*
X145872151Y-77027851D01*
X145872150Y-77027850D01*
X145762882Y-76947207D01*
X145762880Y-76947206D01*
X145634704Y-76902354D01*
X145634702Y-76902353D01*
X145634700Y-76902353D01*
X145604270Y-76899500D01*
X145604266Y-76899500D01*
X145604264Y-76899500D01*
X142195734Y-76899500D01*
X142195730Y-76899500D01*
X142177074Y-76901249D01*
X142171069Y-76901812D01*
X142167499Y-76901978D01*
X142165297Y-76902353D01*
X142037118Y-76947206D01*
X141927849Y-77027849D01*
X141847206Y-77137118D01*
X141802353Y-77265297D01*
X141801978Y-77267499D01*
X141801877Y-77269664D01*
X141801901Y-77270070D01*
X141801850Y-77270655D01*
X141799500Y-77295730D01*
X124850500Y-77295730D01*
X124850500Y-74428574D01*
X126860000Y-74428574D01*
X126860000Y-74651424D01*
X126889083Y-74872344D01*
X126889086Y-74872357D01*
X126889091Y-74872382D01*
X126936675Y-75049970D01*
X126946763Y-75087618D01*
X126989815Y-75191553D01*
X127032047Y-75293508D01*
X127032052Y-75293517D01*
X127032054Y-75293520D01*
X127125845Y-75455974D01*
X127143466Y-75486494D01*
X127143470Y-75486500D01*
X127194037Y-75552400D01*
X127194040Y-75552403D01*
X127194043Y-75552403D01*
X127734779Y-75011665D01*
X127796100Y-74978182D01*
X127865791Y-74983166D01*
X127921725Y-75025037D01*
X127925559Y-75030456D01*
X127938596Y-75049967D01*
X127938601Y-75049973D01*
X128050026Y-75161398D01*
X128050031Y-75161402D01*
X128069538Y-75174436D01*
X128114344Y-75228047D01*
X128123053Y-75297372D01*
X128092899Y-75360400D01*
X128088330Y-75365220D01*
X127547595Y-75905954D01*
X127547595Y-75905957D01*
X127613505Y-75956532D01*
X127619406Y-75959939D01*
X127806485Y-76067949D01*
X127806497Y-76067954D01*
X128012381Y-76153236D01*
X128109417Y-76179236D01*
X128227616Y-76210907D01*
X128227620Y-76210907D01*
X128227632Y-76210911D01*
X128227645Y-76210914D01*
X128448575Y-76240000D01*
X128671418Y-76240000D01*
X128671425Y-76240000D01*
X128892354Y-76210914D01*
X128892367Y-76210911D01*
X129107618Y-76153236D01*
X129313502Y-76067954D01*
X129313514Y-76067949D01*
X129506498Y-75956530D01*
X129572403Y-75905957D01*
X129572404Y-75905956D01*
X129031668Y-75365220D01*
X128998183Y-75303897D01*
X129003167Y-75234205D01*
X129045039Y-75178272D01*
X129050426Y-75174459D01*
X129069970Y-75161401D01*
X129181401Y-75049970D01*
X129194436Y-75030461D01*
X129248043Y-74985656D01*
X129317368Y-74976945D01*
X129380397Y-75007096D01*
X129385220Y-75011668D01*
X129925955Y-75552403D01*
X129925956Y-75552404D01*
X129925957Y-75552403D01*
X129976530Y-75486498D01*
X130087949Y-75293514D01*
X130087954Y-75293502D01*
X130173236Y-75087618D01*
X130230911Y-74872367D01*
X130230914Y-74872354D01*
X130260000Y-74651424D01*
X130260000Y-74428575D01*
X130260000Y-74428574D01*
X131940000Y-74428574D01*
X131940000Y-74651424D01*
X131969083Y-74872344D01*
X131969086Y-74872357D01*
X131969091Y-74872382D01*
X132016675Y-75049970D01*
X132026763Y-75087618D01*
X132069815Y-75191553D01*
X132112047Y-75293508D01*
X132112052Y-75293517D01*
X132112054Y-75293520D01*
X132205845Y-75455974D01*
X132223466Y-75486494D01*
X132223470Y-75486500D01*
X132274037Y-75552400D01*
X132274040Y-75552403D01*
X132274043Y-75552403D01*
X132814779Y-75011665D01*
X132876100Y-74978182D01*
X132945791Y-74983166D01*
X133001725Y-75025037D01*
X133005559Y-75030456D01*
X133018596Y-75049967D01*
X133018601Y-75049973D01*
X133130026Y-75161398D01*
X133130031Y-75161402D01*
X133149538Y-75174436D01*
X133194344Y-75228047D01*
X133203053Y-75297372D01*
X133172899Y-75360400D01*
X133168330Y-75365220D01*
X132627595Y-75905954D01*
X132627595Y-75905957D01*
X132693505Y-75956532D01*
X132699406Y-75959939D01*
X132886485Y-76067949D01*
X132886497Y-76067954D01*
X133092381Y-76153236D01*
X133189417Y-76179236D01*
X133307616Y-76210907D01*
X133307620Y-76210907D01*
X133307632Y-76210911D01*
X133307645Y-76210914D01*
X133528575Y-76240000D01*
X133751418Y-76240000D01*
X133751425Y-76240000D01*
X133972354Y-76210914D01*
X133972367Y-76210911D01*
X134187618Y-76153236D01*
X134393502Y-76067954D01*
X134393514Y-76067949D01*
X134586498Y-75956530D01*
X134652403Y-75905957D01*
X134652404Y-75905956D01*
X134111668Y-75365220D01*
X134078183Y-75303897D01*
X134083167Y-75234205D01*
X134125039Y-75178272D01*
X134130426Y-75174459D01*
X134149970Y-75161401D01*
X134261401Y-75049970D01*
X134274436Y-75030461D01*
X134328043Y-74985656D01*
X134397368Y-74976945D01*
X134460397Y-75007096D01*
X134465220Y-75011668D01*
X135005955Y-75552403D01*
X135005956Y-75552404D01*
X135005957Y-75552403D01*
X135056530Y-75486498D01*
X135135340Y-75349995D01*
X137950001Y-75349995D01*
X137960493Y-75452694D01*
X137960494Y-75452696D01*
X138012323Y-75609108D01*
X138015641Y-75619119D01*
X138015643Y-75619124D01*
X138107684Y-75768345D01*
X138231654Y-75892315D01*
X138380875Y-75984356D01*
X138380880Y-75984358D01*
X138547299Y-76039504D01*
X138547300Y-76039504D01*
X138547302Y-76039505D01*
X138547309Y-76039506D01*
X138650019Y-76049999D01*
X139199999Y-76049999D01*
X139700000Y-76049999D01*
X140249960Y-76049999D01*
X140249972Y-76049999D01*
X140249986Y-76049998D01*
X140352697Y-76039505D01*
X140519119Y-75984358D01*
X140519124Y-75984356D01*
X140668345Y-75892315D01*
X140792315Y-75768345D01*
X140884356Y-75619124D01*
X140884358Y-75619119D01*
X140939505Y-75452697D01*
X140939506Y-75452690D01*
X140949999Y-75349986D01*
X140950000Y-75349973D01*
X140950000Y-73900000D01*
X139700000Y-73900000D01*
X139700000Y-76049999D01*
X139199999Y-76049999D01*
X139200000Y-76049998D01*
X139200000Y-73900000D01*
X137950001Y-73900000D01*
X137950001Y-75349995D01*
X135135340Y-75349995D01*
X135167949Y-75293514D01*
X135167954Y-75293502D01*
X135253236Y-75087618D01*
X135310911Y-74872367D01*
X135310914Y-74872354D01*
X135340000Y-74651424D01*
X135340000Y-74428575D01*
X135310914Y-74207645D01*
X135310911Y-74207632D01*
X135253236Y-73992381D01*
X135213351Y-73896091D01*
X135167952Y-73786492D01*
X135167949Y-73786485D01*
X135129329Y-73719594D01*
X135056532Y-73593505D01*
X135005957Y-73527595D01*
X135005956Y-73527595D01*
X135005955Y-73527595D01*
X135005954Y-73527595D01*
X134465220Y-74068329D01*
X134403897Y-74101814D01*
X134334205Y-74096830D01*
X134278272Y-74054958D01*
X134274437Y-74049539D01*
X134261401Y-74030030D01*
X134261398Y-74030026D01*
X134149973Y-73918601D01*
X134149967Y-73918596D01*
X134130456Y-73905559D01*
X134085651Y-73851946D01*
X134076945Y-73782621D01*
X134107101Y-73719594D01*
X134111645Y-73714799D01*
X134652403Y-73174043D01*
X134652403Y-73174040D01*
X134586504Y-73123473D01*
X134586491Y-73123464D01*
X134393520Y-73012054D01*
X134393508Y-73012047D01*
X134300216Y-72973403D01*
X134187618Y-72926763D01*
X134187611Y-72926761D01*
X133972382Y-72869091D01*
X133972367Y-72869088D01*
X133972354Y-72869085D01*
X133972350Y-72869084D01*
X133972344Y-72869083D01*
X133751426Y-72840000D01*
X133751425Y-72840000D01*
X133528575Y-72840000D01*
X133528574Y-72840000D01*
X133307654Y-72869083D01*
X133307641Y-72869086D01*
X133307616Y-72869091D01*
X133092387Y-72926761D01*
X133092383Y-72926762D01*
X133092381Y-72926763D01*
X133092379Y-72926764D01*
X132886490Y-73012047D01*
X132886471Y-73012058D01*
X132693508Y-73123463D01*
X132627595Y-73174040D01*
X132627595Y-73174043D01*
X133168331Y-73714778D01*
X133201816Y-73776101D01*
X133196832Y-73845792D01*
X133154961Y-73901726D01*
X133149543Y-73905560D01*
X133130028Y-73918599D01*
X133018599Y-74030028D01*
X133005560Y-74049543D01*
X132951946Y-74094347D01*
X132882621Y-74103053D01*
X132819594Y-74072897D01*
X132814778Y-74068331D01*
X132274043Y-73527595D01*
X132274040Y-73527595D01*
X132223463Y-73593508D01*
X132112058Y-73786471D01*
X132112047Y-73786490D01*
X132057326Y-73918596D01*
X132032037Y-73979650D01*
X132026764Y-73992379D01*
X132026761Y-73992387D01*
X131969091Y-74207616D01*
X131969086Y-74207641D01*
X131969083Y-74207654D01*
X131940000Y-74428574D01*
X130260000Y-74428574D01*
X130230914Y-74207645D01*
X130230911Y-74207632D01*
X130173236Y-73992381D01*
X130087954Y-73786497D01*
X130087949Y-73786485D01*
X129991092Y-73618724D01*
X129976532Y-73593505D01*
X129925957Y-73527595D01*
X129925956Y-73527595D01*
X129925955Y-73527595D01*
X129925954Y-73527595D01*
X129385220Y-74068329D01*
X129323897Y-74101814D01*
X129254205Y-74096830D01*
X129198272Y-74054958D01*
X129194437Y-74049539D01*
X129181401Y-74030030D01*
X129181398Y-74030026D01*
X129069973Y-73918601D01*
X129069967Y-73918596D01*
X129050456Y-73905559D01*
X129005651Y-73851946D01*
X128996945Y-73782621D01*
X129027101Y-73719594D01*
X129031645Y-73714799D01*
X129572403Y-73174043D01*
X129572403Y-73174040D01*
X129506504Y-73123473D01*
X129506491Y-73123464D01*
X129313520Y-73012054D01*
X129313508Y-73012047D01*
X129220216Y-72973403D01*
X129107618Y-72926763D01*
X129107611Y-72926761D01*
X128892382Y-72869091D01*
X128892367Y-72869088D01*
X128892354Y-72869085D01*
X128892350Y-72869084D01*
X128892344Y-72869083D01*
X128671426Y-72840000D01*
X128671425Y-72840000D01*
X128448575Y-72840000D01*
X128448574Y-72840000D01*
X128227654Y-72869083D01*
X128227641Y-72869086D01*
X128227616Y-72869091D01*
X128012387Y-72926761D01*
X128012383Y-72926762D01*
X128012381Y-72926763D01*
X128012379Y-72926764D01*
X127806490Y-73012047D01*
X127806471Y-73012058D01*
X127613508Y-73123463D01*
X127547595Y-73174040D01*
X127547595Y-73174043D01*
X128088331Y-73714778D01*
X128121816Y-73776101D01*
X128116832Y-73845792D01*
X128074961Y-73901726D01*
X128069543Y-73905560D01*
X128050028Y-73918599D01*
X127938599Y-74030028D01*
X127925560Y-74049543D01*
X127871946Y-74094347D01*
X127802621Y-74103053D01*
X127739594Y-74072897D01*
X127734778Y-74068331D01*
X127194043Y-73527595D01*
X127194040Y-73527595D01*
X127143463Y-73593508D01*
X127032058Y-73786471D01*
X127032047Y-73786490D01*
X126977326Y-73918596D01*
X126952037Y-73979650D01*
X126946764Y-73992379D01*
X126946761Y-73992387D01*
X126889091Y-74207616D01*
X126889086Y-74207641D01*
X126889083Y-74207654D01*
X126860000Y-74428574D01*
X124850500Y-74428574D01*
X124850500Y-71889772D01*
X129699500Y-71889772D01*
X129699500Y-72110226D01*
X129733985Y-72327955D01*
X129802094Y-72537579D01*
X129802102Y-72537602D01*
X129802104Y-72537606D01*
X129902187Y-72734026D01*
X129979181Y-72840000D01*
X130031752Y-72912358D01*
X130031756Y-72912363D01*
X130031761Y-72912369D01*
X130187627Y-73068235D01*
X130187636Y-73068243D01*
X130187660Y-73068261D01*
X130261178Y-73121675D01*
X130261182Y-73121677D01*
X130365978Y-73197815D01*
X130494375Y-73263237D01*
X130562393Y-73297895D01*
X130562396Y-73297896D01*
X130667221Y-73331955D01*
X130772049Y-73366015D01*
X130989778Y-73400500D01*
X130989779Y-73400500D01*
X131210221Y-73400500D01*
X131210222Y-73400500D01*
X131427951Y-73366015D01*
X131637606Y-73297895D01*
X131834022Y-73197815D01*
X131838810Y-73194335D01*
X131880673Y-73163921D01*
X131880676Y-73163918D01*
X131938819Y-73121677D01*
X132006285Y-73072659D01*
X132007724Y-73071742D01*
X132011492Y-73068900D01*
X132013282Y-73067575D01*
X132051617Y-73039722D01*
X132066090Y-73014517D01*
X132068562Y-73012045D01*
X132168242Y-72912365D01*
X132297815Y-72734022D01*
X132397895Y-72537606D01*
X132466015Y-72327951D01*
X132500500Y-72110222D01*
X132500500Y-71950007D01*
X137950000Y-71950007D01*
X137950000Y-71950010D01*
X137950000Y-71950013D01*
X137950000Y-73400000D01*
X139200000Y-73400000D01*
X139700000Y-73400000D01*
X140949999Y-73400000D01*
X140949999Y-71950028D01*
X140949998Y-71950013D01*
X140939505Y-71847302D01*
X140884358Y-71680880D01*
X140884356Y-71680875D01*
X140792315Y-71531654D01*
X140668345Y-71407684D01*
X140519124Y-71315643D01*
X140519119Y-71315641D01*
X140519110Y-71315638D01*
X140352699Y-71260494D01*
X140352694Y-71260493D01*
X140249991Y-71250000D01*
X140249986Y-71250000D01*
X139700000Y-71250000D01*
X139700000Y-73400000D01*
X139200000Y-73400000D01*
X139200000Y-71250000D01*
X138650037Y-71250000D01*
X138650028Y-71250000D01*
X138650012Y-71250001D01*
X138650002Y-71250001D01*
X138650002Y-71250002D01*
X138547304Y-71260493D01*
X138547302Y-71260494D01*
X138380887Y-71315638D01*
X138380879Y-71315641D01*
X138380877Y-71315642D01*
X138380875Y-71315643D01*
X138318673Y-71354010D01*
X138231652Y-71407685D01*
X138107685Y-71531652D01*
X138107684Y-71531654D01*
X138021089Y-71672047D01*
X138015641Y-71680879D01*
X138015638Y-71680888D01*
X137960494Y-71847299D01*
X137960493Y-71847304D01*
X137950000Y-71950007D01*
X132500500Y-71950007D01*
X132500500Y-71889778D01*
X132466015Y-71672049D01*
X132397895Y-71462394D01*
X132397895Y-71462393D01*
X132343120Y-71354893D01*
X132297815Y-71265978D01*
X132277105Y-71237472D01*
X132273361Y-71232319D01*
X132256948Y-71209728D01*
X132168247Y-71087641D01*
X132168243Y-71087636D01*
X132012359Y-70931752D01*
X131938816Y-70878321D01*
X131936347Y-70876527D01*
X131841916Y-70807920D01*
X131841576Y-70807630D01*
X131834009Y-70802175D01*
X131833602Y-70801970D01*
X131771098Y-70770123D01*
X131771096Y-70770122D01*
X131637606Y-70702104D01*
X131637602Y-70702102D01*
X131637579Y-70702094D01*
X131427954Y-70633985D01*
X131427955Y-70633985D01*
X131319086Y-70616742D01*
X131210227Y-70599500D01*
X131210222Y-70599500D01*
X130989778Y-70599500D01*
X130989774Y-70599500D01*
X130931716Y-70608696D01*
X130917201Y-70610995D01*
X130772043Y-70633985D01*
X130562419Y-70702094D01*
X130562396Y-70702102D01*
X130562392Y-70702104D01*
X130365972Y-70802187D01*
X130187658Y-70931739D01*
X130187629Y-70931761D01*
X130031761Y-71087629D01*
X130031739Y-71087658D01*
X129902187Y-71265972D01*
X129802104Y-71462392D01*
X129802102Y-71462396D01*
X129802094Y-71462419D01*
X129733985Y-71672043D01*
X129699500Y-71889772D01*
X124850500Y-71889772D01*
X124850500Y-69348574D01*
X126860000Y-69348574D01*
X126860000Y-69571424D01*
X126889083Y-69792344D01*
X126889086Y-69792357D01*
X126889091Y-69792382D01*
X126936675Y-69969970D01*
X126946763Y-70007618D01*
X126977325Y-70081399D01*
X127032047Y-70213508D01*
X127032052Y-70213517D01*
X127032054Y-70213520D01*
X127130253Y-70383609D01*
X127143466Y-70406494D01*
X127143478Y-70406511D01*
X127194039Y-70472402D01*
X127194040Y-70472403D01*
X127194043Y-70472403D01*
X127734779Y-69931665D01*
X127796100Y-69898182D01*
X127865791Y-69903166D01*
X127921725Y-69945037D01*
X127925559Y-69950456D01*
X127938596Y-69969967D01*
X127938601Y-69969973D01*
X128050026Y-70081398D01*
X128050031Y-70081402D01*
X128069538Y-70094436D01*
X128114344Y-70148047D01*
X128123053Y-70217372D01*
X128092899Y-70280400D01*
X128088330Y-70285220D01*
X127547595Y-70825954D01*
X127547595Y-70825957D01*
X127613505Y-70876532D01*
X127613507Y-70876533D01*
X127806485Y-70987949D01*
X127806497Y-70987954D01*
X128012381Y-71073236D01*
X128158557Y-71112403D01*
X128227616Y-71130907D01*
X128227620Y-71130907D01*
X128227632Y-71130911D01*
X128227645Y-71130914D01*
X128448575Y-71160000D01*
X128671418Y-71160000D01*
X128671425Y-71160000D01*
X128892354Y-71130914D01*
X128892367Y-71130911D01*
X129107618Y-71073236D01*
X129313502Y-70987954D01*
X129313514Y-70987949D01*
X129506498Y-70876530D01*
X129572403Y-70825957D01*
X129572404Y-70825956D01*
X129031668Y-70285220D01*
X128998183Y-70223897D01*
X129003167Y-70154205D01*
X129045039Y-70098272D01*
X129050426Y-70094459D01*
X129069970Y-70081401D01*
X129181401Y-69969970D01*
X129194436Y-69950461D01*
X129248043Y-69905656D01*
X129317368Y-69896945D01*
X129380397Y-69927096D01*
X129385220Y-69931668D01*
X129925955Y-70472403D01*
X129925956Y-70472404D01*
X129925957Y-70472403D01*
X129976530Y-70406498D01*
X130087949Y-70213514D01*
X130087954Y-70213502D01*
X130173236Y-70007618D01*
X130230911Y-69792367D01*
X130230914Y-69792354D01*
X130260000Y-69571424D01*
X130260000Y-69348575D01*
X130260000Y-69348574D01*
X131940000Y-69348574D01*
X131940000Y-69571424D01*
X131969083Y-69792344D01*
X131969086Y-69792357D01*
X131969091Y-69792382D01*
X132016675Y-69969970D01*
X132026763Y-70007618D01*
X132057325Y-70081399D01*
X132112047Y-70213508D01*
X132112052Y-70213517D01*
X132112054Y-70213520D01*
X132210253Y-70383609D01*
X132223466Y-70406494D01*
X132223478Y-70406511D01*
X132274039Y-70472402D01*
X132274040Y-70472403D01*
X132274043Y-70472403D01*
X132814779Y-69931665D01*
X132876100Y-69898182D01*
X132945791Y-69903166D01*
X133001725Y-69945037D01*
X133005559Y-69950456D01*
X133018596Y-69969967D01*
X133018601Y-69969973D01*
X133130026Y-70081398D01*
X133130031Y-70081402D01*
X133149538Y-70094436D01*
X133194344Y-70148047D01*
X133203053Y-70217372D01*
X133172899Y-70280400D01*
X133168330Y-70285220D01*
X132627595Y-70825954D01*
X132627595Y-70825957D01*
X132693505Y-70876532D01*
X132693507Y-70876533D01*
X132886485Y-70987949D01*
X132886497Y-70987954D01*
X133092381Y-71073236D01*
X133238557Y-71112403D01*
X133307616Y-71130907D01*
X133307620Y-71130907D01*
X133307632Y-71130911D01*
X133307645Y-71130914D01*
X133528575Y-71160000D01*
X133751418Y-71160000D01*
X133751425Y-71160000D01*
X133972354Y-71130914D01*
X133972367Y-71130911D01*
X134187618Y-71073236D01*
X134393502Y-70987954D01*
X134393514Y-70987949D01*
X134586498Y-70876530D01*
X134652403Y-70825957D01*
X134652404Y-70825956D01*
X134111668Y-70285220D01*
X134078183Y-70223897D01*
X134083167Y-70154205D01*
X134125039Y-70098272D01*
X134130426Y-70094459D01*
X134149970Y-70081401D01*
X134261401Y-69969970D01*
X134274436Y-69950461D01*
X134328043Y-69905656D01*
X134397368Y-69896945D01*
X134460397Y-69927096D01*
X134465220Y-69931668D01*
X135005955Y-70472403D01*
X135005956Y-70472404D01*
X135005957Y-70472403D01*
X135056530Y-70406498D01*
X135167949Y-70213514D01*
X135167954Y-70213502D01*
X135253236Y-70007618D01*
X135310911Y-69792367D01*
X135310914Y-69792354D01*
X135340000Y-69571424D01*
X135340000Y-69348575D01*
X135310914Y-69127645D01*
X135310911Y-69127632D01*
X135253236Y-68912381D01*
X135167954Y-68706497D01*
X135167949Y-68706485D01*
X135056533Y-68513507D01*
X135056532Y-68513505D01*
X135005957Y-68447595D01*
X135005956Y-68447595D01*
X135005955Y-68447595D01*
X135005954Y-68447595D01*
X134465220Y-68988329D01*
X134403897Y-69021814D01*
X134334205Y-69016830D01*
X134278272Y-68974958D01*
X134274437Y-68969539D01*
X134261401Y-68950030D01*
X134261398Y-68950026D01*
X134149973Y-68838601D01*
X134149967Y-68838596D01*
X134130456Y-68825559D01*
X134085651Y-68771946D01*
X134076945Y-68702621D01*
X134107101Y-68639594D01*
X134111645Y-68634799D01*
X134652403Y-68094043D01*
X134652403Y-68094040D01*
X134652402Y-68094039D01*
X134586511Y-68043478D01*
X134586494Y-68043466D01*
X134586487Y-68043462D01*
X134393520Y-67932054D01*
X134393508Y-67932047D01*
X134287537Y-67888152D01*
X134187618Y-67846763D01*
X134187611Y-67846761D01*
X133972382Y-67789091D01*
X133972367Y-67789088D01*
X133972354Y-67789085D01*
X133972350Y-67789084D01*
X133972344Y-67789083D01*
X133751426Y-67760000D01*
X133751425Y-67760000D01*
X133528575Y-67760000D01*
X133528574Y-67760000D01*
X133307654Y-67789083D01*
X133307641Y-67789086D01*
X133307616Y-67789091D01*
X133092387Y-67846761D01*
X133092383Y-67846762D01*
X133092381Y-67846763D01*
X133092379Y-67846764D01*
X132886490Y-67932047D01*
X132886471Y-67932058D01*
X132693508Y-68043463D01*
X132627595Y-68094040D01*
X132627595Y-68094043D01*
X133168331Y-68634778D01*
X133201816Y-68696101D01*
X133196832Y-68765792D01*
X133154961Y-68821726D01*
X133149543Y-68825560D01*
X133130028Y-68838599D01*
X133018599Y-68950028D01*
X133005560Y-68969543D01*
X132951946Y-69014347D01*
X132882621Y-69023053D01*
X132819594Y-68992897D01*
X132814778Y-68988331D01*
X132274043Y-68447595D01*
X132274040Y-68447595D01*
X132223463Y-68513508D01*
X132112058Y-68706471D01*
X132112047Y-68706490D01*
X132026764Y-68912379D01*
X132026761Y-68912387D01*
X131969091Y-69127616D01*
X131969086Y-69127641D01*
X131969083Y-69127654D01*
X131940000Y-69348574D01*
X130260000Y-69348574D01*
X130230914Y-69127645D01*
X130230911Y-69127632D01*
X130173236Y-68912381D01*
X130087954Y-68706497D01*
X130087949Y-68706485D01*
X129976533Y-68513507D01*
X129976532Y-68513505D01*
X129925957Y-68447595D01*
X129925956Y-68447595D01*
X129925955Y-68447595D01*
X129925954Y-68447595D01*
X129385220Y-68988329D01*
X129323897Y-69021814D01*
X129254205Y-69016830D01*
X129198272Y-68974958D01*
X129194437Y-68969539D01*
X129181401Y-68950030D01*
X129181398Y-68950026D01*
X129069973Y-68838601D01*
X129069967Y-68838596D01*
X129050456Y-68825559D01*
X129005651Y-68771946D01*
X128996945Y-68702621D01*
X129027101Y-68639594D01*
X129031645Y-68634799D01*
X129572403Y-68094043D01*
X129572403Y-68094041D01*
X129506504Y-68043473D01*
X129506503Y-68043472D01*
X129506496Y-68043467D01*
X129506487Y-68043462D01*
X129313520Y-67932054D01*
X129313508Y-67932047D01*
X129207537Y-67888152D01*
X129107618Y-67846763D01*
X129107611Y-67846761D01*
X128892382Y-67789091D01*
X128892367Y-67789088D01*
X128892354Y-67789085D01*
X128892350Y-67789084D01*
X128892344Y-67789083D01*
X128671426Y-67760000D01*
X128671425Y-67760000D01*
X128448575Y-67760000D01*
X128448574Y-67760000D01*
X128227654Y-67789083D01*
X128227641Y-67789086D01*
X128227616Y-67789091D01*
X128012387Y-67846761D01*
X128012383Y-67846762D01*
X128012381Y-67846763D01*
X128012379Y-67846764D01*
X127806490Y-67932047D01*
X127806471Y-67932058D01*
X127613508Y-68043463D01*
X127547595Y-68094040D01*
X127547595Y-68094043D01*
X128088331Y-68634778D01*
X128121816Y-68696101D01*
X128116832Y-68765792D01*
X128074961Y-68821726D01*
X128069543Y-68825560D01*
X128050028Y-68838599D01*
X127938599Y-68950028D01*
X127925560Y-68969543D01*
X127871946Y-69014347D01*
X127802621Y-69023053D01*
X127739594Y-68992897D01*
X127734778Y-68988331D01*
X127194043Y-68447595D01*
X127194040Y-68447595D01*
X127143463Y-68513508D01*
X127032058Y-68706471D01*
X127032047Y-68706490D01*
X126946764Y-68912379D01*
X126946761Y-68912387D01*
X126889091Y-69127616D01*
X126889086Y-69127641D01*
X126889083Y-69127654D01*
X126860000Y-69348574D01*
X124850500Y-69348574D01*
X124850500Y-66784108D01*
X141737000Y-66784108D01*
X141737000Y-66915892D01*
X141754054Y-66979539D01*
X141771108Y-67043187D01*
X141790863Y-67077403D01*
X141837000Y-67157314D01*
X141930186Y-67250500D01*
X142044314Y-67316392D01*
X142171608Y-67350500D01*
X142171610Y-67350500D01*
X142303390Y-67350500D01*
X142303392Y-67350500D01*
X142430686Y-67316392D01*
X142544814Y-67250500D01*
X142560216Y-67235098D01*
X145441999Y-67235098D01*
X145472757Y-67389721D01*
X145472764Y-67389752D01*
X145533098Y-67535415D01*
X145533103Y-67535424D01*
X145533113Y-67535441D01*
X145620710Y-67666538D01*
X145620712Y-67666541D01*
X145620717Y-67666547D01*
X145732201Y-67778031D01*
X145732207Y-67778036D01*
X145732211Y-67778039D01*
X145863314Y-67865640D01*
X145863327Y-67865647D01*
X146005343Y-67924471D01*
X146009003Y-67925987D01*
X146009006Y-67925987D01*
X146009010Y-67925989D01*
X146092779Y-67942651D01*
X146163653Y-67956749D01*
X146163656Y-67956750D01*
X146163658Y-67956750D01*
X146321344Y-67956750D01*
X146321345Y-67956749D01*
X146475997Y-67925987D01*
X146621679Y-67865644D01*
X146752789Y-67778039D01*
X146864289Y-67666539D01*
X146951894Y-67535429D01*
X147012237Y-67389747D01*
X147043000Y-67235092D01*
X147043000Y-67077408D01*
X147043000Y-67077405D01*
X147043000Y-67077221D01*
X147042564Y-67075216D01*
X147019112Y-66957316D01*
X147012237Y-66922753D01*
X147009394Y-66915890D01*
X146951897Y-66777077D01*
X146951890Y-66777064D01*
X146864289Y-66645961D01*
X146864286Y-66645957D01*
X146864281Y-66645951D01*
X146752797Y-66534467D01*
X146752791Y-66534462D01*
X146752790Y-66534461D01*
X146621691Y-66446863D01*
X146621690Y-66446862D01*
X146621685Y-66446859D01*
X146621672Y-66446852D01*
X146621665Y-66446848D01*
X146476002Y-66386514D01*
X146475971Y-66386507D01*
X146321347Y-66355750D01*
X146321345Y-66355750D01*
X146321342Y-66355750D01*
X146163658Y-66355750D01*
X146163655Y-66355750D01*
X146163653Y-66355750D01*
X146009027Y-66386507D01*
X146008996Y-66386514D01*
X145863333Y-66446848D01*
X145863324Y-66446853D01*
X145863307Y-66446863D01*
X145732208Y-66534461D01*
X145732207Y-66534462D01*
X145732201Y-66534467D01*
X145620717Y-66645951D01*
X145620712Y-66645957D01*
X145620711Y-66645958D01*
X145533113Y-66777057D01*
X145533107Y-66777068D01*
X145533098Y-66777083D01*
X145472764Y-66922746D01*
X145472757Y-66922777D01*
X145442000Y-67077400D01*
X145442000Y-67077403D01*
X145442000Y-67235096D01*
X145442000Y-67235098D01*
X145441999Y-67235098D01*
X142560216Y-67235098D01*
X142638000Y-67157314D01*
X142703892Y-67043186D01*
X142738000Y-66915892D01*
X142738000Y-66784108D01*
X142703892Y-66656814D01*
X142703887Y-66656806D01*
X142690780Y-66634104D01*
X142638000Y-66542686D01*
X142544814Y-66449500D01*
X142446410Y-66392686D01*
X142430687Y-66383608D01*
X142367039Y-66366554D01*
X142303392Y-66349500D01*
X142303391Y-66349500D01*
X142171608Y-66349500D01*
X142044308Y-66383609D01*
X142044306Y-66383610D01*
X141930196Y-66449493D01*
X141930182Y-66449502D01*
X141930177Y-66449506D01*
X141837006Y-66542677D01*
X141837002Y-66542682D01*
X141836993Y-66542696D01*
X141771110Y-66656806D01*
X141771109Y-66656807D01*
X141738888Y-66777056D01*
X141738887Y-66777064D01*
X141737000Y-66784108D01*
X124850500Y-66784108D01*
X124850500Y-65934108D01*
X137887000Y-65934108D01*
X137887000Y-66065891D01*
X137896024Y-66099569D01*
X137921108Y-66193188D01*
X137931858Y-66211806D01*
X137939654Y-66225309D01*
X137987000Y-66307314D01*
X138080186Y-66400500D01*
X138194314Y-66466392D01*
X138321608Y-66500500D01*
X138321610Y-66500500D01*
X138453390Y-66500500D01*
X138453392Y-66500500D01*
X138580686Y-66466392D01*
X138694814Y-66400500D01*
X138788000Y-66307314D01*
X138853892Y-66193186D01*
X138888000Y-66065892D01*
X138888000Y-65934108D01*
X138853892Y-65806814D01*
X138853887Y-65806806D01*
X138812684Y-65735440D01*
X138788000Y-65692686D01*
X138694814Y-65599500D01*
X138637750Y-65566554D01*
X138580687Y-65533608D01*
X138517039Y-65516554D01*
X138453392Y-65499500D01*
X138453391Y-65499500D01*
X138321608Y-65499500D01*
X138194308Y-65533609D01*
X138194306Y-65533610D01*
X138080196Y-65599493D01*
X138080182Y-65599502D01*
X138080177Y-65599506D01*
X137987006Y-65692677D01*
X137987002Y-65692682D01*
X137986993Y-65692696D01*
X137921110Y-65806806D01*
X137921109Y-65806808D01*
X137921108Y-65806812D01*
X137887000Y-65934108D01*
X124850500Y-65934108D01*
X124850500Y-65184108D01*
X142099500Y-65184108D01*
X142099500Y-65315891D01*
X142116554Y-65379539D01*
X142133608Y-65443188D01*
X142166121Y-65499500D01*
X142199500Y-65557314D01*
X142292686Y-65650500D01*
X142406814Y-65716392D01*
X142534108Y-65750500D01*
X142534110Y-65750500D01*
X142665890Y-65750500D01*
X142665892Y-65750500D01*
X142793186Y-65716392D01*
X142907314Y-65650500D01*
X143000500Y-65557314D01*
X143066392Y-65443186D01*
X143100500Y-65315892D01*
X143100500Y-65243661D01*
X143105522Y-65208728D01*
X143112934Y-65183483D01*
X143144228Y-65130741D01*
X143675547Y-64599423D01*
X143703797Y-64578275D01*
X143726889Y-64565667D01*
X143786314Y-64550500D01*
X146639560Y-64550500D01*
X146639562Y-64550500D01*
X146715989Y-64530021D01*
X146784511Y-64490460D01*
X146840460Y-64434511D01*
X150825552Y-60449418D01*
X150853797Y-60428275D01*
X150876889Y-60415667D01*
X150936314Y-60400500D01*
X151173494Y-60400500D01*
X151208426Y-60405521D01*
X151233670Y-60412934D01*
X151286416Y-60444230D01*
X151342686Y-60500500D01*
X151456814Y-60566392D01*
X151584108Y-60600500D01*
X151584110Y-60600500D01*
X151715890Y-60600500D01*
X151715892Y-60600500D01*
X151843186Y-60566392D01*
X151957314Y-60500500D01*
X152050500Y-60407314D01*
X152116392Y-60293186D01*
X152150500Y-60165892D01*
X152150500Y-60034108D01*
X152116392Y-59906814D01*
X152050500Y-59792686D01*
X151957314Y-59699500D01*
X151938167Y-59688445D01*
X151881833Y-59655920D01*
X151881828Y-59655918D01*
X151872442Y-59650499D01*
X151843187Y-59633608D01*
X151762580Y-59612010D01*
X151757352Y-59610609D01*
X151757349Y-59610608D01*
X151715893Y-59599500D01*
X151715892Y-59599500D01*
X151584108Y-59599500D01*
X151456808Y-59633609D01*
X151456806Y-59633610D01*
X151342696Y-59699493D01*
X151342683Y-59699501D01*
X151291608Y-59750576D01*
X151269125Y-59767407D01*
X151263357Y-59771725D01*
X151240272Y-59784331D01*
X151180843Y-59799500D01*
X150710436Y-59799500D01*
X150643044Y-59817557D01*
X150643039Y-59817559D01*
X150634962Y-59819723D01*
X150634003Y-59819981D01*
X150634002Y-59819981D01*
X150581154Y-59850495D01*
X150581146Y-59850500D01*
X150565494Y-59859535D01*
X150565492Y-59859536D01*
X150565483Y-59859544D01*
X146524455Y-63900573D01*
X146501804Y-63917530D01*
X146496204Y-63921722D01*
X146473116Y-63934330D01*
X146413686Y-63949500D01*
X143560436Y-63949500D01*
X143484011Y-63969977D01*
X143484008Y-63969978D01*
X143415499Y-64009533D01*
X143415485Y-64009542D01*
X143415480Y-64009546D01*
X142724454Y-64700573D01*
X142706133Y-64714288D01*
X142696203Y-64721722D01*
X142673115Y-64734330D01*
X142613685Y-64749500D01*
X142534108Y-64749500D01*
X142406808Y-64783609D01*
X142406806Y-64783610D01*
X142292696Y-64849493D01*
X142292682Y-64849502D01*
X142292677Y-64849506D01*
X142199506Y-64942677D01*
X142199502Y-64942682D01*
X142199493Y-64942696D01*
X142133610Y-65056806D01*
X142133609Y-65056808D01*
X142133608Y-65056812D01*
X142099500Y-65184108D01*
X124850500Y-65184108D01*
X124850500Y-59484036D01*
X124850529Y-59481376D01*
X124850529Y-59481370D01*
X124850589Y-59478624D01*
X124850671Y-59476062D01*
X124852865Y-59425833D01*
X124867573Y-59088918D01*
X124867924Y-59083582D01*
X124868396Y-59078181D01*
X124868982Y-59072841D01*
X124919018Y-58692785D01*
X124919829Y-58687513D01*
X124920774Y-58682152D01*
X124921818Y-58676899D01*
X125004796Y-58302613D01*
X125006079Y-58297376D01*
X125007469Y-58292190D01*
X125008980Y-58287006D01*
X125033406Y-58209539D01*
X125124245Y-57921429D01*
X125125976Y-57916331D01*
X125127828Y-57911242D01*
X125129757Y-57906281D01*
X125276469Y-57552088D01*
X125278636Y-57547164D01*
X125280930Y-57542243D01*
X125283291Y-57537457D01*
X125460314Y-57197398D01*
X125462881Y-57192720D01*
X125465612Y-57187989D01*
X125468376Y-57183436D01*
X125578588Y-57010438D01*
X134199500Y-57010438D01*
X134199500Y-60739563D01*
X134213151Y-60790512D01*
X134219977Y-60815986D01*
X134219978Y-60815988D01*
X134219979Y-60815990D01*
X134239902Y-60850496D01*
X134239903Y-60850499D01*
X134259537Y-60884507D01*
X134259539Y-60884510D01*
X134259540Y-60884511D01*
X134268666Y-60893637D01*
X136815541Y-63440512D01*
X136816056Y-63440890D01*
X136818666Y-63442295D01*
X136884004Y-63480017D01*
X136884011Y-63480021D01*
X136960438Y-63500500D01*
X136960440Y-63500500D01*
X145489560Y-63500500D01*
X145489562Y-63500500D01*
X145565989Y-63480021D01*
X145634511Y-63440460D01*
X145690460Y-63384511D01*
X149925552Y-59149418D01*
X149953797Y-59128275D01*
X149976889Y-59115667D01*
X150036314Y-59100500D01*
X152773494Y-59100500D01*
X152808426Y-59105521D01*
X152833670Y-59112934D01*
X152886416Y-59144230D01*
X152942686Y-59200500D01*
X153056814Y-59266392D01*
X153184108Y-59300500D01*
X153184110Y-59300500D01*
X153315890Y-59300500D01*
X153315892Y-59300500D01*
X153443186Y-59266392D01*
X153557314Y-59200500D01*
X153650500Y-59107314D01*
X153716392Y-58993186D01*
X153750500Y-58865892D01*
X153750500Y-58734108D01*
X153716392Y-58606814D01*
X153650500Y-58492686D01*
X153557314Y-58399500D01*
X153467364Y-58347567D01*
X153443187Y-58333608D01*
X153349152Y-58308412D01*
X153344775Y-58307239D01*
X153344766Y-58307236D01*
X153315893Y-58299500D01*
X153315892Y-58299500D01*
X153184108Y-58299500D01*
X153056808Y-58333609D01*
X153056806Y-58333610D01*
X152942696Y-58399493D01*
X152942683Y-58399501D01*
X152891608Y-58450576D01*
X152873291Y-58464288D01*
X152863357Y-58471725D01*
X152840272Y-58484331D01*
X152780843Y-58499500D01*
X149810436Y-58499500D01*
X149734011Y-58519977D01*
X149734008Y-58519978D01*
X149665499Y-58559533D01*
X149665485Y-58559542D01*
X149665480Y-58559546D01*
X145374455Y-62850573D01*
X145346204Y-62871722D01*
X145323116Y-62884330D01*
X145263686Y-62899500D01*
X137193663Y-62899500D01*
X137158727Y-62894477D01*
X137133485Y-62887065D01*
X137132623Y-62886511D01*
X137131600Y-62886495D01*
X137080740Y-62855769D01*
X134870704Y-60645733D01*
X137049500Y-60645733D01*
X137049500Y-62254265D01*
X137051812Y-62278929D01*
X137051978Y-62282499D01*
X137052353Y-62284699D01*
X137052353Y-62284701D01*
X137097206Y-62412880D01*
X137097207Y-62412882D01*
X137177850Y-62522150D01*
X137287117Y-62602792D01*
X137287118Y-62602793D01*
X137415299Y-62647646D01*
X137415303Y-62647647D01*
X137433742Y-62649375D01*
X137445730Y-62650500D01*
X137445734Y-62650500D01*
X137445739Y-62650500D01*
X140854270Y-62650500D01*
X140854271Y-62650500D01*
X140855576Y-62650377D01*
X140884699Y-62647646D01*
X140884701Y-62647646D01*
X140948790Y-62625219D01*
X141012882Y-62602793D01*
X141122150Y-62522150D01*
X141202793Y-62412882D01*
X141225219Y-62348790D01*
X141247646Y-62284701D01*
X141247646Y-62284699D01*
X141250500Y-62254269D01*
X141250500Y-61892329D01*
X141255523Y-61857393D01*
X141259927Y-61842395D01*
X141260520Y-61841472D01*
X141297672Y-61783644D01*
X141297700Y-61783619D01*
X141297699Y-61783619D01*
X141299041Y-61782456D01*
X141353920Y-61754977D01*
X141361479Y-61753333D01*
X141387832Y-61750500D01*
X141989560Y-61750500D01*
X141989562Y-61750500D01*
X142065989Y-61730021D01*
X142134511Y-61690460D01*
X142190460Y-61634511D01*
X142825549Y-60999419D01*
X142853800Y-60978273D01*
X142876890Y-60965666D01*
X142936313Y-60950500D01*
X143015890Y-60950500D01*
X143015892Y-60950500D01*
X143143186Y-60916392D01*
X143257314Y-60850500D01*
X143350500Y-60757314D01*
X143416392Y-60643186D01*
X143450500Y-60515892D01*
X143450500Y-60384108D01*
X143416392Y-60256814D01*
X143413816Y-60252353D01*
X143413815Y-60252351D01*
X143413810Y-60252341D01*
X143407565Y-60241524D01*
X143407565Y-60241525D01*
X143407563Y-60241521D01*
X143350500Y-60142686D01*
X143257314Y-60049500D01*
X143199100Y-60015890D01*
X143143187Y-59983608D01*
X143079539Y-59966554D01*
X143015892Y-59949500D01*
X143015891Y-59949500D01*
X142884108Y-59949500D01*
X142756808Y-59983609D01*
X142756806Y-59983610D01*
X142642696Y-60049493D01*
X142642682Y-60049502D01*
X142642677Y-60049506D01*
X142549506Y-60142677D01*
X142549502Y-60142682D01*
X142549493Y-60142696D01*
X142483610Y-60256806D01*
X142483609Y-60256808D01*
X142449500Y-60384108D01*
X142449500Y-60456336D01*
X142449499Y-60456338D01*
X142449500Y-60456339D01*
X142444476Y-60491273D01*
X142437064Y-60516514D01*
X142405769Y-60569258D01*
X141874455Y-61100573D01*
X141846204Y-61121722D01*
X141823116Y-61134330D01*
X141763686Y-61149500D01*
X141392330Y-61149500D01*
X141392325Y-61149499D01*
X141392323Y-61149500D01*
X141357389Y-61144475D01*
X141342390Y-61140070D01*
X141283644Y-61102327D01*
X141283615Y-61102293D01*
X141283614Y-61102293D01*
X141283613Y-61102291D01*
X141282457Y-61100958D01*
X141254977Y-61046083D01*
X141253332Y-61038521D01*
X141250500Y-61012168D01*
X141250500Y-60645728D01*
X141249392Y-60633919D01*
X141247646Y-60615300D01*
X141247646Y-60615298D01*
X141212861Y-60515890D01*
X141202793Y-60487118D01*
X141122150Y-60377850D01*
X141012882Y-60297207D01*
X141012880Y-60297206D01*
X141001392Y-60293186D01*
X140884704Y-60252354D01*
X140884702Y-60252353D01*
X140884700Y-60252353D01*
X140854270Y-60249500D01*
X140854266Y-60249500D01*
X140854264Y-60249500D01*
X137445734Y-60249500D01*
X137445730Y-60249500D01*
X137427074Y-60251249D01*
X137421069Y-60251812D01*
X137417499Y-60251978D01*
X137415297Y-60252353D01*
X137287118Y-60297206D01*
X137177849Y-60377849D01*
X137097206Y-60487118D01*
X137052353Y-60615297D01*
X137051978Y-60617499D01*
X137051812Y-60621069D01*
X137049739Y-60643187D01*
X137049500Y-60645733D01*
X134870704Y-60645733D01*
X134849426Y-60624455D01*
X134828274Y-60596199D01*
X134815667Y-60573110D01*
X134800500Y-60513685D01*
X134800500Y-57645730D01*
X137049500Y-57645730D01*
X137049500Y-59254269D01*
X137049786Y-59257316D01*
X137051812Y-59278929D01*
X137051978Y-59282499D01*
X137052353Y-59284699D01*
X137052353Y-59284701D01*
X137097206Y-59412880D01*
X137097207Y-59412882D01*
X137177850Y-59522150D01*
X137287118Y-59602793D01*
X137313459Y-59612010D01*
X137415299Y-59647646D01*
X137415304Y-59647646D01*
X137415307Y-59647647D01*
X137426892Y-59648733D01*
X137445730Y-59650500D01*
X137445734Y-59650500D01*
X137445739Y-59650500D01*
X140854270Y-59650500D01*
X140854271Y-59650500D01*
X140855576Y-59650377D01*
X140884699Y-59647646D01*
X140884701Y-59647646D01*
X140948790Y-59625219D01*
X141012882Y-59602793D01*
X141122150Y-59522150D01*
X141202793Y-59412882D01*
X141236731Y-59315892D01*
X141247646Y-59284701D01*
X141247646Y-59284699D01*
X141250500Y-59254269D01*
X141250500Y-58892329D01*
X141253133Y-58874019D01*
X141255523Y-58857393D01*
X141259927Y-58842395D01*
X141297672Y-58783644D01*
X141297700Y-58783619D01*
X141297699Y-58783619D01*
X141299041Y-58782456D01*
X141353920Y-58754977D01*
X141361479Y-58753333D01*
X141387832Y-58750500D01*
X144356337Y-58750500D01*
X144384808Y-58754593D01*
X144391269Y-58755521D01*
X144416513Y-58762934D01*
X144469259Y-58794230D01*
X145000573Y-59325544D01*
X145021723Y-59353796D01*
X145034331Y-59376885D01*
X145049500Y-59436314D01*
X145049500Y-59515895D01*
X145060731Y-59557811D01*
X145060732Y-59557811D01*
X145060732Y-59557812D01*
X145083608Y-59643187D01*
X145083609Y-59643188D01*
X145083608Y-59643188D01*
X145097270Y-59666850D01*
X145100933Y-59673194D01*
X145149500Y-59757314D01*
X145242686Y-59850500D01*
X145356814Y-59916392D01*
X145484108Y-59950500D01*
X145484110Y-59950500D01*
X145615890Y-59950500D01*
X145615892Y-59950500D01*
X145743186Y-59916392D01*
X145857314Y-59850500D01*
X145950500Y-59757314D01*
X146016392Y-59643186D01*
X146050500Y-59515892D01*
X146050500Y-59384108D01*
X146032221Y-59315888D01*
X146524496Y-59315888D01*
X146524497Y-59315890D01*
X146524497Y-59315892D01*
X146533769Y-59350497D01*
X146558605Y-59443187D01*
X146581422Y-59482706D01*
X146624497Y-59557314D01*
X146717683Y-59650500D01*
X146802555Y-59699501D01*
X146831807Y-59716390D01*
X146831811Y-59716392D01*
X146959105Y-59750500D01*
X146959107Y-59750500D01*
X147090887Y-59750500D01*
X147090889Y-59750500D01*
X147218183Y-59716392D01*
X147332311Y-59650500D01*
X147332320Y-59650490D01*
X147334937Y-59648483D01*
X147350998Y-59638023D01*
X147366678Y-59629459D01*
X147434890Y-59614600D01*
X147436697Y-59614729D01*
X147494953Y-59634102D01*
X147501468Y-59638289D01*
X147510950Y-59645930D01*
X147511240Y-59645553D01*
X147517681Y-59650495D01*
X147517686Y-59650500D01*
X147602558Y-59699501D01*
X147631810Y-59716390D01*
X147631814Y-59716392D01*
X147759108Y-59750500D01*
X147759110Y-59750500D01*
X147890890Y-59750500D01*
X147890892Y-59750500D01*
X148018186Y-59716392D01*
X148132314Y-59650500D01*
X148225500Y-59557314D01*
X148291392Y-59443186D01*
X148325500Y-59315892D01*
X148325500Y-59184108D01*
X148312031Y-59133843D01*
X148307842Y-59098800D01*
X148308077Y-59088960D01*
X148308290Y-59079988D01*
X148326371Y-59018408D01*
X148331795Y-59009508D01*
X148349989Y-58986373D01*
X149402255Y-57934108D01*
X153949500Y-57934108D01*
X153949500Y-58065894D01*
X153951434Y-58073110D01*
X153956813Y-58093186D01*
X153969418Y-58140227D01*
X153983608Y-58193187D01*
X153991763Y-58207313D01*
X153991765Y-58207315D01*
X154049497Y-58307310D01*
X154049499Y-58307312D01*
X154049500Y-58307314D01*
X154142686Y-58400500D01*
X154256814Y-58466392D01*
X154384108Y-58500500D01*
X154384110Y-58500500D01*
X154456337Y-58500500D01*
X154481114Y-58504062D01*
X154491269Y-58505521D01*
X154516513Y-58512934D01*
X154569259Y-58544230D01*
X155850573Y-59825544D01*
X155871723Y-59853796D01*
X155884331Y-59876885D01*
X155899500Y-59936314D01*
X155899500Y-61257670D01*
X155899499Y-61257676D01*
X155899500Y-61257679D01*
X155894475Y-61292614D01*
X155890070Y-61307612D01*
X155852327Y-61366355D01*
X155852292Y-61366385D01*
X155852291Y-61366387D01*
X155852289Y-61366387D01*
X155850958Y-61367542D01*
X155796097Y-61395018D01*
X155788539Y-61396663D01*
X155762168Y-61399500D01*
X154495730Y-61399500D01*
X154477074Y-61401249D01*
X154471069Y-61401812D01*
X154467499Y-61401978D01*
X154465297Y-61402353D01*
X154337118Y-61447206D01*
X154227849Y-61527849D01*
X154147206Y-61637118D01*
X154102353Y-61765297D01*
X154101978Y-61767499D01*
X154101812Y-61771069D01*
X154100636Y-61783619D01*
X154099500Y-61795733D01*
X154099500Y-63404265D01*
X154101812Y-63428929D01*
X154101978Y-63432499D01*
X154102353Y-63434699D01*
X154102353Y-63434701D01*
X154147206Y-63562880D01*
X154147207Y-63562882D01*
X154227850Y-63672150D01*
X154332942Y-63749711D01*
X154337118Y-63752793D01*
X154465299Y-63797646D01*
X154465303Y-63797647D01*
X154483532Y-63799356D01*
X154495730Y-63800500D01*
X154495734Y-63800500D01*
X154495739Y-63800500D01*
X157904270Y-63800500D01*
X157904271Y-63800500D01*
X157909843Y-63799977D01*
X157934699Y-63797646D01*
X157934701Y-63797646D01*
X158014370Y-63769768D01*
X158062882Y-63752793D01*
X158172150Y-63672150D01*
X158252793Y-63562882D01*
X158295629Y-63440464D01*
X158297646Y-63434701D01*
X158297646Y-63434699D01*
X158300500Y-63404269D01*
X158300500Y-61795730D01*
X158299366Y-61783644D01*
X158298188Y-61771079D01*
X158298020Y-61767502D01*
X158297646Y-61765300D01*
X158297646Y-61765298D01*
X158252793Y-61637119D01*
X158252792Y-61637117D01*
X158252792Y-61637116D01*
X158250872Y-61634515D01*
X158247274Y-61629641D01*
X158172150Y-61527850D01*
X158062882Y-61447207D01*
X158062880Y-61447206D01*
X157934704Y-61402354D01*
X157934702Y-61402353D01*
X157934700Y-61402353D01*
X157904270Y-61399500D01*
X157904266Y-61399500D01*
X157904264Y-61399500D01*
X156642330Y-61399500D01*
X156642325Y-61399499D01*
X156642323Y-61399500D01*
X156607389Y-61394475D01*
X156592390Y-61390070D01*
X156533644Y-61352327D01*
X156533615Y-61352293D01*
X156533614Y-61352293D01*
X156533613Y-61352291D01*
X156532457Y-61350958D01*
X156504977Y-61296083D01*
X156503332Y-61288521D01*
X156500500Y-61262168D01*
X156500500Y-59710439D01*
X156500500Y-59710438D01*
X156494001Y-59686186D01*
X156490520Y-59673192D01*
X156490518Y-59673186D01*
X156480022Y-59634012D01*
X156440460Y-59565489D01*
X154999421Y-58124450D01*
X154978274Y-58096199D01*
X154965667Y-58073110D01*
X154950500Y-58013685D01*
X154950500Y-57934110D01*
X154950500Y-57934108D01*
X154916392Y-57806814D01*
X154916387Y-57806806D01*
X154907563Y-57791521D01*
X154850500Y-57692686D01*
X154757314Y-57599500D01*
X154678967Y-57554266D01*
X154643187Y-57533608D01*
X154579539Y-57516554D01*
X154515892Y-57499500D01*
X154515891Y-57499500D01*
X154384108Y-57499500D01*
X154256808Y-57533609D01*
X154256806Y-57533610D01*
X154142696Y-57599493D01*
X154142682Y-57599502D01*
X154142677Y-57599506D01*
X154049506Y-57692677D01*
X154049502Y-57692682D01*
X154049493Y-57692696D01*
X153983610Y-57806806D01*
X153983609Y-57806808D01*
X153949500Y-57934108D01*
X149402255Y-57934108D01*
X150261946Y-57074418D01*
X150290191Y-57053275D01*
X150313283Y-57040667D01*
X150372708Y-57025500D01*
X156813139Y-57025500D01*
X156848071Y-57030521D01*
X156873315Y-57037934D01*
X156926061Y-57069230D01*
X160725574Y-60868743D01*
X160746723Y-60896994D01*
X160759331Y-60920083D01*
X160774500Y-60979512D01*
X160774500Y-75109552D01*
X160769475Y-75144493D01*
X160765564Y-75157810D01*
X160727787Y-75216586D01*
X160664229Y-75245608D01*
X160664200Y-75245612D01*
X160662590Y-75245843D01*
X160604425Y-75240281D01*
X160599692Y-75238643D01*
X160578247Y-75228849D01*
X160543193Y-75208610D01*
X160543190Y-75208609D01*
X160543187Y-75208608D01*
X160479539Y-75191554D01*
X160479538Y-75191553D01*
X160429969Y-75178272D01*
X160415892Y-75174500D01*
X160415891Y-75174500D01*
X160284108Y-75174500D01*
X160156808Y-75208609D01*
X160156806Y-75208610D01*
X160042696Y-75274493D01*
X160042682Y-75274502D01*
X160042677Y-75274506D01*
X159949506Y-75367677D01*
X159949502Y-75367682D01*
X159949493Y-75367696D01*
X159883610Y-75481806D01*
X159883609Y-75481809D01*
X159883608Y-75481811D01*
X159883608Y-75481812D01*
X159882352Y-75486499D01*
X159864198Y-75554254D01*
X159856040Y-75584699D01*
X159849500Y-75609108D01*
X159849500Y-75740892D01*
X159856199Y-75765892D01*
X159860412Y-75781619D01*
X159860413Y-75781620D01*
X159883608Y-75868188D01*
X159898041Y-75893186D01*
X159905415Y-75905957D01*
X159949500Y-75982314D01*
X160042686Y-76075500D01*
X160156814Y-76141392D01*
X160284108Y-76175500D01*
X160284110Y-76175500D01*
X160415890Y-76175500D01*
X160415892Y-76175500D01*
X160543186Y-76141392D01*
X160573067Y-76124139D01*
X160605822Y-76111026D01*
X160619312Y-76107754D01*
X160689102Y-76111078D01*
X160745988Y-76151570D01*
X160746995Y-76152851D01*
X160771309Y-76206064D01*
X160772258Y-76210987D01*
X160774500Y-76234458D01*
X160774500Y-80284561D01*
X160792558Y-80351955D01*
X160794980Y-80360993D01*
X160816576Y-80398398D01*
X160818148Y-80401120D01*
X160818158Y-80401136D01*
X160834538Y-80429510D01*
X160834540Y-80429512D01*
X163734083Y-83329054D01*
X163734084Y-83329055D01*
X163755235Y-83357310D01*
X163762727Y-83371031D01*
X163777578Y-83439303D01*
X163777054Y-83446629D01*
X163756473Y-83506671D01*
X163727682Y-83549760D01*
X163727675Y-83549772D01*
X163656027Y-83722748D01*
X163656021Y-83722773D01*
X163619500Y-83906376D01*
X163619500Y-83906379D01*
X163619500Y-84093620D01*
X163619500Y-84093622D01*
X163619499Y-84093622D01*
X163656021Y-84277225D01*
X163656027Y-84277252D01*
X163727671Y-84450218D01*
X163727679Y-84450235D01*
X163727681Y-84450238D01*
X163727686Y-84450246D01*
X163752200Y-84486934D01*
X163752202Y-84486936D01*
X163767435Y-84518773D01*
X163772107Y-84533692D01*
X163773357Y-84603551D01*
X163773354Y-84603560D01*
X163771410Y-84610645D01*
X163739511Y-84665515D01*
X161115490Y-87289539D01*
X161115489Y-87289540D01*
X161059545Y-87345482D01*
X161059540Y-87345487D01*
X161059526Y-87345508D01*
X161020485Y-87413130D01*
X161020010Y-87413936D01*
X161019977Y-87414013D01*
X161006326Y-87464958D01*
X161006327Y-87464959D01*
X160999500Y-87490439D01*
X160999500Y-99089559D01*
X160999499Y-99089559D01*
X160999992Y-99091399D01*
X161007836Y-99120671D01*
X161019979Y-99165989D01*
X161028297Y-99180396D01*
X161032234Y-99192040D01*
X161032292Y-99193497D01*
X161042910Y-99205707D01*
X161059535Y-99234504D01*
X161059537Y-99234506D01*
X161059541Y-99234512D01*
X161059545Y-99234517D01*
X163121756Y-101296727D01*
X163132448Y-101308919D01*
X163134612Y-101311739D01*
X163148346Y-101340188D01*
X163154824Y-101345567D01*
X163155210Y-101345182D01*
X163159377Y-101349349D01*
X163159472Y-101349428D01*
X163159544Y-101349516D01*
X163839083Y-102029054D01*
X163839084Y-102029055D01*
X163860235Y-102057310D01*
X163867727Y-102071031D01*
X163882578Y-102139303D01*
X163882054Y-102146629D01*
X163861473Y-102206671D01*
X163832682Y-102249760D01*
X163832675Y-102249772D01*
X163761027Y-102422748D01*
X163761021Y-102422773D01*
X163724500Y-102606376D01*
X163724500Y-102606379D01*
X163724500Y-102793620D01*
X163724500Y-102793622D01*
X163724499Y-102793622D01*
X163761021Y-102977225D01*
X163761027Y-102977252D01*
X163832672Y-103150222D01*
X163832677Y-103150232D01*
X163936698Y-103305909D01*
X163936699Y-103305910D01*
X163936704Y-103305916D01*
X164069082Y-103438294D01*
X164069088Y-103438299D01*
X164069089Y-103438300D01*
X164224761Y-103542318D01*
X164224766Y-103542320D01*
X164224768Y-103542321D01*
X164224769Y-103542322D01*
X164397749Y-103613973D01*
X164569389Y-103648114D01*
X164578408Y-103649908D01*
X164580643Y-103650409D01*
X164581381Y-103650500D01*
X165288617Y-103650500D01*
X165292737Y-103650500D01*
X165300586Y-103648118D01*
X165472251Y-103613973D01*
X165645231Y-103542322D01*
X165800908Y-103438302D01*
X165933302Y-103305908D01*
X166037322Y-103150231D01*
X166108973Y-102977251D01*
X166145500Y-102793616D01*
X166145500Y-102606384D01*
X166108973Y-102422749D01*
X166037322Y-102249769D01*
X166037321Y-102249768D01*
X166037318Y-102249762D01*
X166037318Y-102249761D01*
X165933300Y-102094089D01*
X165933299Y-102094088D01*
X165933294Y-102094082D01*
X165800916Y-101961704D01*
X165800910Y-101961699D01*
X165800909Y-101961698D01*
X165645231Y-101857677D01*
X165645232Y-101857677D01*
X165645222Y-101857672D01*
X165472252Y-101786027D01*
X165472225Y-101786021D01*
X165288622Y-101749500D01*
X165288620Y-101749500D01*
X165288616Y-101749500D01*
X164581384Y-101749500D01*
X164581379Y-101749500D01*
X164581376Y-101749500D01*
X164520486Y-101761611D01*
X164520486Y-101761612D01*
X164485243Y-101763502D01*
X164464344Y-101761632D01*
X164407423Y-101741835D01*
X164401802Y-101738151D01*
X164382093Y-101722122D01*
X163678242Y-101018271D01*
X163667547Y-101006076D01*
X163657736Y-100993290D01*
X163648724Y-100979802D01*
X163640465Y-100965497D01*
X163640461Y-100965491D01*
X163640456Y-100965485D01*
X163640450Y-100965478D01*
X162899759Y-100224788D01*
X162878610Y-100196538D01*
X162873188Y-100186608D01*
X162858335Y-100118338D01*
X162882749Y-100052873D01*
X162938679Y-100011001D01*
X162942558Y-100009554D01*
X162945894Y-100008311D01*
X162989208Y-100000500D01*
X163669973Y-100000500D01*
X163704909Y-100005523D01*
X163719907Y-100009927D01*
X163734904Y-100019565D01*
X163752010Y-100024588D01*
X163778684Y-100047701D01*
X163787603Y-100057994D01*
X163808451Y-100091745D01*
X163832672Y-100150222D01*
X163832677Y-100150232D01*
X163936693Y-100305901D01*
X163936701Y-100305913D01*
X164069082Y-100438294D01*
X164069088Y-100438299D01*
X164069089Y-100438300D01*
X164224761Y-100542318D01*
X164224766Y-100542320D01*
X164224768Y-100542321D01*
X164224769Y-100542322D01*
X164397749Y-100613973D01*
X164569389Y-100648114D01*
X164578408Y-100649908D01*
X164580643Y-100650409D01*
X164581381Y-100650500D01*
X165288617Y-100650500D01*
X165292737Y-100650500D01*
X165300586Y-100648118D01*
X165472251Y-100613973D01*
X165645231Y-100542322D01*
X165800908Y-100438302D01*
X165803952Y-100435258D01*
X167504500Y-100435258D01*
X167504500Y-100664741D01*
X167529446Y-100854215D01*
X167534452Y-100892238D01*
X167563589Y-101000979D01*
X167593021Y-101110824D01*
X167593842Y-101113886D01*
X167593845Y-101113896D01*
X167681652Y-101325881D01*
X167681655Y-101325887D01*
X167681657Y-101325890D01*
X167796392Y-101524617D01*
X167796395Y-101524621D01*
X167796399Y-101524627D01*
X167936079Y-101706659D01*
X167936081Y-101706661D01*
X167936089Y-101706670D01*
X168022605Y-101793186D01*
X168098325Y-101868906D01*
X168098332Y-101868913D01*
X168098338Y-101868918D01*
X168280583Y-102008762D01*
X168282149Y-102009628D01*
X168282338Y-102009737D01*
X168479112Y-102123344D01*
X168479117Y-102123346D01*
X168479123Y-102123349D01*
X168570480Y-102161190D01*
X168570481Y-102161191D01*
X168621685Y-102182400D01*
X168691113Y-102211158D01*
X168912762Y-102270548D01*
X169140266Y-102300500D01*
X169140273Y-102300500D01*
X169369727Y-102300500D01*
X169369734Y-102300500D01*
X169597238Y-102270548D01*
X169818887Y-102211158D01*
X170030888Y-102123344D01*
X170229612Y-102008611D01*
X170411661Y-101868919D01*
X170411665Y-101868914D01*
X170411670Y-101868911D01*
X170487395Y-101793186D01*
X170569070Y-101711512D01*
X170569840Y-101710822D01*
X170573422Y-101707167D01*
X170573895Y-101706689D01*
X170573905Y-101706675D01*
X170573911Y-101706670D01*
X170573914Y-101706665D01*
X170573919Y-101706661D01*
X170574028Y-101706518D01*
X170574322Y-101706143D01*
X170574322Y-101706142D01*
X170577716Y-101701795D01*
X170578216Y-101701061D01*
X170713607Y-101524617D01*
X170713606Y-101524617D01*
X170713611Y-101524612D01*
X170828344Y-101325888D01*
X170916158Y-101113887D01*
X170975548Y-100892238D01*
X171005500Y-100664734D01*
X171005500Y-100435266D01*
X170975548Y-100207762D01*
X170916158Y-99986113D01*
X170916153Y-99986102D01*
X170836425Y-99793620D01*
X170836425Y-99793619D01*
X170833406Y-99786331D01*
X170828349Y-99774123D01*
X170828346Y-99774117D01*
X170828344Y-99774112D01*
X170756976Y-99650498D01*
X170718570Y-99583976D01*
X170718566Y-99583971D01*
X170713611Y-99575388D01*
X170713608Y-99575385D01*
X170713607Y-99575382D01*
X170588913Y-99412880D01*
X170573919Y-99393339D01*
X170573918Y-99393338D01*
X170573911Y-99393330D01*
X170411670Y-99231089D01*
X170411661Y-99231081D01*
X170411659Y-99231079D01*
X170229620Y-99091393D01*
X170229615Y-99091390D01*
X170226451Y-99089564D01*
X170226442Y-99089559D01*
X170133332Y-99035802D01*
X170030888Y-98976656D01*
X170030876Y-98976650D01*
X169962961Y-98948519D01*
X169818896Y-98888845D01*
X169818889Y-98888843D01*
X169818887Y-98888842D01*
X169597238Y-98829452D01*
X169559215Y-98824446D01*
X169369742Y-98799500D01*
X169369741Y-98799500D01*
X169369734Y-98799500D01*
X169140266Y-98799500D01*
X169140258Y-98799500D01*
X169140250Y-98799500D01*
X168976755Y-98821025D01*
X168923715Y-98828009D01*
X168923709Y-98828009D01*
X168912768Y-98829450D01*
X168912756Y-98829453D01*
X168823998Y-98853236D01*
X168691112Y-98888842D01*
X168691102Y-98888845D01*
X168479117Y-98976652D01*
X168280388Y-99091388D01*
X168280371Y-99091399D01*
X168098342Y-99231077D01*
X168098332Y-99231086D01*
X167936086Y-99393332D01*
X167936083Y-99393336D01*
X167936081Y-99393338D01*
X167898272Y-99442610D01*
X167796399Y-99575371D01*
X167796388Y-99575388D01*
X167681652Y-99774117D01*
X167593845Y-99986102D01*
X167593842Y-99986112D01*
X167534453Y-100207759D01*
X167534452Y-100207763D01*
X167534450Y-100207773D01*
X167534448Y-100207789D01*
X167516577Y-100343526D01*
X167504500Y-100435258D01*
X165803952Y-100435258D01*
X165895685Y-100343526D01*
X165933299Y-100305911D01*
X165933302Y-100305908D01*
X166037322Y-100150231D01*
X166108973Y-99977251D01*
X166145500Y-99793616D01*
X166145500Y-99606384D01*
X166145499Y-99606381D01*
X166145499Y-99606379D01*
X166144786Y-99602793D01*
X166108973Y-99422749D01*
X166037322Y-99249769D01*
X166037321Y-99249768D01*
X166037318Y-99249762D01*
X166037318Y-99249761D01*
X165933300Y-99094089D01*
X165933299Y-99094088D01*
X165933294Y-99094082D01*
X165800916Y-98961704D01*
X165800910Y-98961699D01*
X165800909Y-98961698D01*
X165645231Y-98857677D01*
X165645232Y-98857677D01*
X165645222Y-98857672D01*
X165472252Y-98786027D01*
X165472225Y-98786021D01*
X165288622Y-98749500D01*
X165288620Y-98749500D01*
X165288616Y-98749500D01*
X164581384Y-98749500D01*
X164581379Y-98749500D01*
X164581377Y-98749500D01*
X164397773Y-98786021D01*
X164397746Y-98786027D01*
X164224776Y-98857672D01*
X164224766Y-98857677D01*
X164069089Y-98961698D01*
X164069088Y-98961699D01*
X164069082Y-98961704D01*
X163936704Y-99094082D01*
X163936699Y-99094088D01*
X163936698Y-99094089D01*
X163832682Y-99249760D01*
X163832676Y-99249770D01*
X163832672Y-99249777D01*
X163809185Y-99306483D01*
X163809184Y-99306484D01*
X163809184Y-99306486D01*
X163791174Y-99336839D01*
X163781368Y-99349007D01*
X163723984Y-99388851D01*
X163711064Y-99393152D01*
X163671898Y-99399500D01*
X162709349Y-99399500D01*
X162674413Y-99394477D01*
X162649171Y-99387065D01*
X162596426Y-99355769D01*
X162049426Y-98808769D01*
X162049421Y-98808764D01*
X162028274Y-98780513D01*
X162015667Y-98757424D01*
X162000500Y-98697999D01*
X162000500Y-96450000D01*
X163449016Y-96450000D01*
X164312397Y-96450000D01*
X164379436Y-96469685D01*
X164425191Y-96522489D01*
X164435135Y-96591647D01*
X164432175Y-96606077D01*
X164425000Y-96632857D01*
X164425000Y-96767143D01*
X164432171Y-96793909D01*
X164430509Y-96863756D01*
X164391347Y-96921618D01*
X164327119Y-96949123D01*
X164312397Y-96950000D01*
X163449016Y-96950000D01*
X163455780Y-96992712D01*
X163455782Y-96992722D01*
X163516582Y-97179841D01*
X163582713Y-97309628D01*
X163605904Y-97355143D01*
X163721555Y-97514321D01*
X163860678Y-97653444D01*
X164019856Y-97769095D01*
X164195164Y-97858418D01*
X164382294Y-97919221D01*
X164576618Y-97950000D01*
X164685000Y-97950000D01*
X164685000Y-97322603D01*
X164704685Y-97255564D01*
X164757489Y-97209809D01*
X164826647Y-97199865D01*
X164841077Y-97202824D01*
X164867857Y-97210000D01*
X165002140Y-97210000D01*
X165002143Y-97210000D01*
X165028909Y-97202828D01*
X165098756Y-97204491D01*
X165156618Y-97243653D01*
X165184123Y-97307881D01*
X165185000Y-97322603D01*
X165185000Y-97950000D01*
X165293381Y-97950000D01*
X165293382Y-97950000D01*
X165487705Y-97919221D01*
X165674835Y-97858418D01*
X165850143Y-97769095D01*
X166009321Y-97653444D01*
X166148444Y-97514321D01*
X166264095Y-97355143D01*
X166353418Y-97179837D01*
X166414218Y-96992716D01*
X166420984Y-96950000D01*
X166420983Y-96950000D01*
X165557603Y-96950000D01*
X165490564Y-96930315D01*
X165444809Y-96877511D01*
X165434865Y-96808353D01*
X165437824Y-96793922D01*
X165445000Y-96767143D01*
X165445000Y-96632857D01*
X165437828Y-96606090D01*
X165439491Y-96536244D01*
X165478653Y-96478382D01*
X165542881Y-96450877D01*
X165557603Y-96450000D01*
X166420984Y-96450000D01*
X166420984Y-96449999D01*
X166415264Y-96413887D01*
X166414218Y-96407283D01*
X166353418Y-96220162D01*
X166264095Y-96044856D01*
X166148444Y-95885678D01*
X166009321Y-95746555D01*
X165993771Y-95735257D01*
X167504500Y-95735257D01*
X167504500Y-95964741D01*
X167515048Y-96044856D01*
X167534452Y-96192239D01*
X167543165Y-96224756D01*
X167560057Y-96287799D01*
X167593842Y-96413887D01*
X167593843Y-96413890D01*
X167593845Y-96413896D01*
X167681652Y-96625881D01*
X167681655Y-96625887D01*
X167681657Y-96625890D01*
X167796392Y-96824617D01*
X167796395Y-96824621D01*
X167796399Y-96824627D01*
X167936079Y-97006659D01*
X167936081Y-97006661D01*
X167936089Y-97006670D01*
X168057983Y-97128564D01*
X168098325Y-97168906D01*
X168098332Y-97168913D01*
X168098338Y-97168918D01*
X168280583Y-97308762D01*
X168282149Y-97309628D01*
X168282338Y-97309737D01*
X168479112Y-97423344D01*
X168479117Y-97423346D01*
X168479123Y-97423349D01*
X168570480Y-97461190D01*
X168570481Y-97461191D01*
X168630796Y-97486174D01*
X168691113Y-97511158D01*
X168912762Y-97570548D01*
X169140266Y-97600500D01*
X169140273Y-97600500D01*
X169369727Y-97600500D01*
X169369734Y-97600500D01*
X169597238Y-97570548D01*
X169818887Y-97511158D01*
X170030888Y-97423344D01*
X170229612Y-97308611D01*
X170411661Y-97168919D01*
X170411665Y-97168914D01*
X170411670Y-97168911D01*
X170452017Y-97128564D01*
X170569070Y-97011512D01*
X170569840Y-97010822D01*
X170573422Y-97007167D01*
X170573895Y-97006689D01*
X170573905Y-97006675D01*
X170573911Y-97006670D01*
X170573914Y-97006665D01*
X170573919Y-97006661D01*
X170574028Y-97006518D01*
X170574322Y-97006143D01*
X170574322Y-97006142D01*
X170577716Y-97001795D01*
X170578216Y-97001061D01*
X170584619Y-96992716D01*
X170713611Y-96824612D01*
X170828344Y-96625888D01*
X170916158Y-96413887D01*
X170975548Y-96192238D01*
X171005500Y-95964734D01*
X171005500Y-95735266D01*
X170975548Y-95507762D01*
X170916158Y-95286113D01*
X170841887Y-95106808D01*
X170828349Y-95074123D01*
X170828346Y-95074117D01*
X170828344Y-95074112D01*
X170714691Y-94877259D01*
X170713764Y-94875587D01*
X170713598Y-94875371D01*
X170573918Y-94693338D01*
X170573911Y-94693330D01*
X170411670Y-94531089D01*
X170411661Y-94531081D01*
X170411659Y-94531079D01*
X170229616Y-94391390D01*
X170229612Y-94391388D01*
X170196114Y-94372048D01*
X170196108Y-94372046D01*
X170192885Y-94370185D01*
X170044817Y-94284698D01*
X170030890Y-94276657D01*
X170030882Y-94276653D01*
X170030881Y-94276652D01*
X169818896Y-94188845D01*
X169818889Y-94188843D01*
X169818887Y-94188842D01*
X169597238Y-94129452D01*
X169559215Y-94124446D01*
X169369742Y-94099500D01*
X169369741Y-94099500D01*
X169369734Y-94099500D01*
X169140266Y-94099500D01*
X169140258Y-94099500D01*
X169140250Y-94099500D01*
X168976755Y-94121025D01*
X168923715Y-94128009D01*
X168923709Y-94128009D01*
X168912764Y-94129451D01*
X168912760Y-94129452D01*
X168819076Y-94154553D01*
X168819076Y-94154554D01*
X168789724Y-94162419D01*
X168691107Y-94188843D01*
X168479117Y-94276652D01*
X168280388Y-94391388D01*
X168280371Y-94391399D01*
X168098342Y-94531077D01*
X168098332Y-94531086D01*
X167936086Y-94693332D01*
X167936077Y-94693342D01*
X167796399Y-94875371D01*
X167796388Y-94875388D01*
X167681652Y-95074117D01*
X167593845Y-95286102D01*
X167593842Y-95286112D01*
X167534453Y-95507759D01*
X167534451Y-95507770D01*
X167534449Y-95507779D01*
X167534448Y-95507789D01*
X167504500Y-95735257D01*
X165993771Y-95735257D01*
X165850143Y-95630904D01*
X165813709Y-95612340D01*
X165674839Y-95541583D01*
X165674838Y-95541582D01*
X165674835Y-95541581D01*
X165487705Y-95480778D01*
X165293382Y-95450000D01*
X165293381Y-95450000D01*
X165185000Y-95450000D01*
X165185000Y-96077396D01*
X165165315Y-96144435D01*
X165112511Y-96190190D01*
X165043353Y-96200134D01*
X165028909Y-96197171D01*
X165002147Y-96190000D01*
X165002143Y-96190000D01*
X164867857Y-96190000D01*
X164867852Y-96190000D01*
X164841091Y-96197171D01*
X164771241Y-96195507D01*
X164713379Y-96156344D01*
X164685877Y-96092115D01*
X164685000Y-96077396D01*
X164685000Y-95450000D01*
X164576618Y-95450000D01*
X164492633Y-95463301D01*
X164382299Y-95480777D01*
X164382297Y-95480777D01*
X164382294Y-95480778D01*
X164195164Y-95541581D01*
X164195161Y-95541582D01*
X164195159Y-95541583D01*
X164019855Y-95630904D01*
X163860676Y-95746556D01*
X163721557Y-95885675D01*
X163721557Y-95885676D01*
X163721555Y-95885678D01*
X163605904Y-96044856D01*
X163605901Y-96044860D01*
X163605900Y-96044863D01*
X163516582Y-96220157D01*
X163455780Y-96407284D01*
X163449016Y-96450000D01*
X162000500Y-96450000D01*
X162000500Y-89343662D01*
X162005522Y-89308729D01*
X162012934Y-89283484D01*
X162044228Y-89230742D01*
X164187564Y-87087407D01*
X166380460Y-84894511D01*
X166410591Y-84842322D01*
X166420021Y-84825989D01*
X166440500Y-84749562D01*
X166440500Y-82270438D01*
X166437580Y-82259540D01*
X166420022Y-82194012D01*
X166380460Y-82125489D01*
X165925915Y-81670944D01*
X165925260Y-81670070D01*
X165904763Y-81642688D01*
X165897271Y-81628967D01*
X165882419Y-81560710D01*
X165882943Y-81553382D01*
X165903526Y-81493326D01*
X165908013Y-81486611D01*
X165932322Y-81450231D01*
X166003973Y-81277251D01*
X166025809Y-81167472D01*
X166040500Y-81093618D01*
X166040500Y-80906383D01*
X166040499Y-80906379D01*
X166003973Y-80722749D01*
X165932322Y-80549769D01*
X165932321Y-80549768D01*
X165932318Y-80549762D01*
X165851970Y-80429512D01*
X165828302Y-80394090D01*
X165695916Y-80261704D01*
X165695910Y-80261699D01*
X165695909Y-80261698D01*
X165540231Y-80157677D01*
X165540232Y-80157677D01*
X165540222Y-80157672D01*
X165367252Y-80086027D01*
X165367225Y-80086021D01*
X165183622Y-80049500D01*
X165183620Y-80049500D01*
X165183616Y-80049500D01*
X164476384Y-80049500D01*
X164476379Y-80049500D01*
X164476377Y-80049500D01*
X164292773Y-80086021D01*
X164292746Y-80086027D01*
X164119776Y-80157672D01*
X164119766Y-80157677D01*
X163964089Y-80261698D01*
X163964088Y-80261699D01*
X163964082Y-80261704D01*
X163831704Y-80394082D01*
X163831700Y-80394087D01*
X163831698Y-80394091D01*
X163727682Y-80549760D01*
X163727676Y-80549770D01*
X163727672Y-80549777D01*
X163704185Y-80606483D01*
X163704184Y-80606484D01*
X163704184Y-80606486D01*
X163686174Y-80636839D01*
X163676368Y-80649007D01*
X163618984Y-80688851D01*
X163606064Y-80693152D01*
X163566898Y-80699500D01*
X162660060Y-80699500D01*
X162625124Y-80694477D01*
X162599882Y-80687065D01*
X162547137Y-80655769D01*
X161874426Y-79983058D01*
X161874421Y-79983053D01*
X161853274Y-79954802D01*
X161840667Y-79931713D01*
X161825500Y-79872288D01*
X161825500Y-77750000D01*
X163344016Y-77750000D01*
X164207397Y-77750000D01*
X164274436Y-77769685D01*
X164320191Y-77822489D01*
X164330135Y-77891647D01*
X164327175Y-77906077D01*
X164320000Y-77932857D01*
X164320000Y-78067143D01*
X164327171Y-78093909D01*
X164325509Y-78163756D01*
X164286347Y-78221618D01*
X164222119Y-78249123D01*
X164207397Y-78250000D01*
X163344016Y-78250000D01*
X163349575Y-78285098D01*
X163350782Y-78292722D01*
X163411582Y-78479841D01*
X163477193Y-78608608D01*
X163500904Y-78655143D01*
X163616555Y-78814321D01*
X163755678Y-78953444D01*
X163914856Y-79069095D01*
X164090164Y-79158418D01*
X164277294Y-79219221D01*
X164471618Y-79250000D01*
X164580000Y-79250000D01*
X164580000Y-78622603D01*
X164599685Y-78555564D01*
X164652489Y-78509809D01*
X164721647Y-78499865D01*
X164736077Y-78502824D01*
X164762857Y-78510000D01*
X164897140Y-78510000D01*
X164897143Y-78510000D01*
X164923909Y-78502828D01*
X164993756Y-78504491D01*
X165051618Y-78543653D01*
X165079123Y-78607881D01*
X165080000Y-78622603D01*
X165080000Y-79250000D01*
X165188381Y-79250000D01*
X165188382Y-79250000D01*
X165382705Y-79219221D01*
X165569835Y-79158418D01*
X165745143Y-79069095D01*
X165904321Y-78953444D01*
X166043444Y-78814321D01*
X166159095Y-78655143D01*
X166248418Y-78479837D01*
X166309218Y-78292716D01*
X166315984Y-78250000D01*
X166315983Y-78250000D01*
X165452603Y-78250000D01*
X165385564Y-78230315D01*
X165339809Y-78177511D01*
X165329865Y-78108353D01*
X165332824Y-78093922D01*
X165340000Y-78067143D01*
X165340000Y-77932857D01*
X165332828Y-77906090D01*
X165334491Y-77836244D01*
X165373653Y-77778382D01*
X165437881Y-77750877D01*
X165452603Y-77750000D01*
X166315984Y-77750000D01*
X166315984Y-77749999D01*
X166310264Y-77713887D01*
X166309218Y-77707283D01*
X166248418Y-77520162D01*
X166159095Y-77344856D01*
X166043444Y-77185678D01*
X165904321Y-77046555D01*
X165745143Y-76930904D01*
X165569835Y-76841581D01*
X165382705Y-76780778D01*
X165188382Y-76750000D01*
X165188381Y-76750000D01*
X165080000Y-76750000D01*
X165080000Y-77377396D01*
X165060315Y-77444435D01*
X165007511Y-77490190D01*
X164938353Y-77500134D01*
X164923909Y-77497171D01*
X164897147Y-77490000D01*
X164897143Y-77490000D01*
X164762857Y-77490000D01*
X164762852Y-77490000D01*
X164736091Y-77497171D01*
X164666241Y-77495507D01*
X164608379Y-77456344D01*
X164580877Y-77392115D01*
X164580000Y-77377396D01*
X164580000Y-76750000D01*
X164471618Y-76750000D01*
X164387633Y-76763301D01*
X164277299Y-76780777D01*
X164277297Y-76780777D01*
X164277294Y-76780778D01*
X164090164Y-76841581D01*
X164090161Y-76841582D01*
X164090159Y-76841583D01*
X163914855Y-76930904D01*
X163755676Y-77046556D01*
X163616557Y-77185675D01*
X163616557Y-77185676D01*
X163616555Y-77185678D01*
X163500904Y-77344856D01*
X163500901Y-77344860D01*
X163500900Y-77344863D01*
X163411582Y-77520157D01*
X163350780Y-77707284D01*
X163344016Y-77750000D01*
X161825500Y-77750000D01*
X161825500Y-74445731D01*
X163619500Y-74445731D01*
X163619500Y-75554258D01*
X163622354Y-75584698D01*
X163622354Y-75584699D01*
X163667206Y-75712881D01*
X163687878Y-75740891D01*
X163706330Y-75765892D01*
X163747848Y-75822148D01*
X163747850Y-75822150D01*
X163857118Y-75902793D01*
X163985302Y-75947646D01*
X163985301Y-75947646D01*
X163989271Y-75948018D01*
X164012911Y-75950235D01*
X164015723Y-75950499D01*
X164015724Y-75950499D01*
X164015735Y-75950500D01*
X164473399Y-75950499D01*
X164497581Y-75952880D01*
X164521682Y-75957674D01*
X164533469Y-75960627D01*
X164538161Y-75962050D01*
X164538162Y-75962050D01*
X164538164Y-75962051D01*
X164704891Y-75995215D01*
X164723822Y-75998980D01*
X164726550Y-75999703D01*
X164731457Y-76000500D01*
X164928542Y-76000500D01*
X164932515Y-76000500D01*
X164939877Y-75998245D01*
X164939958Y-75998228D01*
X165121836Y-75962051D01*
X165125515Y-75960526D01*
X165126645Y-75960058D01*
X165137673Y-75957804D01*
X165137769Y-75957812D01*
X165138321Y-75957674D01*
X165138342Y-75957670D01*
X165148066Y-75955735D01*
X165162412Y-75952882D01*
X165186603Y-75950499D01*
X165644258Y-75950499D01*
X165644264Y-75950499D01*
X165674698Y-75947646D01*
X165802882Y-75902793D01*
X165912150Y-75822150D01*
X165992793Y-75712882D01*
X165997169Y-75700373D01*
X166013448Y-75669059D01*
X166022557Y-75656358D01*
X166077621Y-75613354D01*
X166081614Y-75611771D01*
X166088042Y-75609224D01*
X166133729Y-75600500D01*
X167910716Y-75600500D01*
X167945643Y-75605521D01*
X167956496Y-75608707D01*
X167971497Y-75618346D01*
X167988607Y-75623370D01*
X168000279Y-75636840D01*
X168015277Y-75646477D01*
X168022685Y-75662697D01*
X168034363Y-75676173D01*
X168036899Y-75693816D01*
X168044306Y-75710031D01*
X168041769Y-75727682D01*
X168044307Y-75745332D01*
X168034368Y-75779181D01*
X168034367Y-75779190D01*
X168034364Y-75779196D01*
X168032841Y-75782531D01*
X167995544Y-75829388D01*
X167993346Y-75831074D01*
X167993342Y-75831078D01*
X167993329Y-75831089D01*
X167831086Y-75993332D01*
X167831077Y-75993342D01*
X167691399Y-76175371D01*
X167691388Y-76175388D01*
X167576652Y-76374117D01*
X167488845Y-76586102D01*
X167488842Y-76586112D01*
X167429453Y-76807759D01*
X167429453Y-76807760D01*
X167429450Y-76807773D01*
X167429448Y-76807789D01*
X167399500Y-77035257D01*
X167399500Y-77264745D01*
X167403581Y-77295734D01*
X167403581Y-77295736D01*
X167429452Y-77492239D01*
X167438165Y-77524756D01*
X167455057Y-77587799D01*
X167488842Y-77713887D01*
X167488843Y-77713890D01*
X167488845Y-77713896D01*
X167576652Y-77925881D01*
X167576655Y-77925887D01*
X167576657Y-77925890D01*
X167691392Y-78124617D01*
X167691395Y-78124621D01*
X167691399Y-78124627D01*
X167820048Y-78292283D01*
X167831081Y-78306661D01*
X167831089Y-78306670D01*
X167924919Y-78400500D01*
X167993334Y-78468915D01*
X167993338Y-78468918D01*
X167993339Y-78468919D01*
X168043962Y-78507764D01*
X168119187Y-78565487D01*
X168175583Y-78608761D01*
X168177149Y-78609628D01*
X168177338Y-78609737D01*
X168374112Y-78723344D01*
X168374117Y-78723346D01*
X168374123Y-78723349D01*
X168439672Y-78750500D01*
X168525873Y-78786206D01*
X168586113Y-78811158D01*
X168807762Y-78870548D01*
X169035266Y-78900500D01*
X169035273Y-78900500D01*
X169264727Y-78900500D01*
X169264734Y-78900500D01*
X169492238Y-78870548D01*
X169713887Y-78811158D01*
X169925888Y-78723344D01*
X170124612Y-78608611D01*
X170306661Y-78468919D01*
X170306662Y-78468917D01*
X170306664Y-78468916D01*
X170306667Y-78468912D01*
X170306670Y-78468911D01*
X170468911Y-78306670D01*
X170475979Y-78299602D01*
X170476788Y-78300411D01*
X170492003Y-78285101D01*
X170500658Y-78278781D01*
X170517425Y-78272754D01*
X170531816Y-78262243D01*
X170549621Y-78261179D01*
X170566407Y-78255146D01*
X170583773Y-78259141D01*
X170601562Y-78258079D01*
X170617115Y-78266811D01*
X170634499Y-78270810D01*
X170646951Y-78283561D01*
X170662487Y-78292283D01*
X170683304Y-78320785D01*
X170685024Y-78324025D01*
X170699500Y-78382167D01*
X170699500Y-80610716D01*
X170694476Y-80645654D01*
X170691289Y-80656507D01*
X170653514Y-80715284D01*
X170589957Y-80744307D01*
X170520803Y-80734364D01*
X170517468Y-80732841D01*
X170500306Y-80719177D01*
X170497578Y-80718394D01*
X170483632Y-80705901D01*
X170471638Y-80696352D01*
X170471595Y-80696390D01*
X170471384Y-80696150D01*
X170470592Y-80695519D01*
X170468927Y-80693349D01*
X170468921Y-80693342D01*
X170468919Y-80693339D01*
X170468915Y-80693335D01*
X170468911Y-80693330D01*
X170306670Y-80531089D01*
X170306661Y-80531081D01*
X170306659Y-80531079D01*
X170124627Y-80391399D01*
X170124621Y-80391395D01*
X170124617Y-80391392D01*
X169925890Y-80276657D01*
X169925887Y-80276655D01*
X169925881Y-80276652D01*
X169713896Y-80188845D01*
X169713889Y-80188843D01*
X169713887Y-80188842D01*
X169492238Y-80129452D01*
X169454215Y-80124446D01*
X169264742Y-80099500D01*
X169264741Y-80099500D01*
X169264734Y-80099500D01*
X169035266Y-80099500D01*
X169035258Y-80099500D01*
X169035250Y-80099500D01*
X168871755Y-80121025D01*
X168818715Y-80128009D01*
X168818709Y-80128009D01*
X168807764Y-80129451D01*
X168807760Y-80129452D01*
X168714076Y-80154553D01*
X168714076Y-80154554D01*
X168657651Y-80169672D01*
X168586107Y-80188843D01*
X168374117Y-80276652D01*
X168175388Y-80391388D01*
X168175371Y-80391399D01*
X167993342Y-80531077D01*
X167993332Y-80531086D01*
X167831086Y-80693332D01*
X167831077Y-80693342D01*
X167691399Y-80875371D01*
X167691388Y-80875388D01*
X167576652Y-81074117D01*
X167488845Y-81286102D01*
X167488842Y-81286112D01*
X167429453Y-81507759D01*
X167429453Y-81507760D01*
X167429450Y-81507773D01*
X167429448Y-81507789D01*
X167404704Y-81695730D01*
X167399500Y-81735258D01*
X167399500Y-81964741D01*
X167422909Y-82142539D01*
X167427816Y-82179815D01*
X167429452Y-82192236D01*
X167429454Y-82192247D01*
X167442143Y-82239603D01*
X167450406Y-82270441D01*
X167481246Y-82385540D01*
X167488843Y-82413889D01*
X167488845Y-82413896D01*
X167576652Y-82625881D01*
X167576655Y-82625887D01*
X167576657Y-82625890D01*
X167691392Y-82824617D01*
X167691395Y-82824621D01*
X167691399Y-82824627D01*
X167831079Y-83006659D01*
X167831081Y-83006661D01*
X167831089Y-83006670D01*
X167932244Y-83107825D01*
X167993325Y-83168906D01*
X167993332Y-83168913D01*
X167993338Y-83168918D01*
X168175583Y-83308762D01*
X168177149Y-83309628D01*
X168177338Y-83309737D01*
X168374112Y-83423344D01*
X168374117Y-83423346D01*
X168374123Y-83423349D01*
X168465480Y-83461190D01*
X168465481Y-83461191D01*
X168525796Y-83486174D01*
X168586113Y-83511158D01*
X168807762Y-83570548D01*
X169035266Y-83600500D01*
X169035273Y-83600500D01*
X169264727Y-83600500D01*
X169264728Y-83600500D01*
X169264734Y-83600500D01*
X169264739Y-83600499D01*
X169268401Y-83600259D01*
X169295618Y-83601473D01*
X169306890Y-83603231D01*
X169370093Y-83633010D01*
X169407164Y-83692235D01*
X169406334Y-83762090D01*
X169405259Y-83765597D01*
X169374385Y-83816937D01*
X166815795Y-86375529D01*
X164297220Y-88894104D01*
X164297217Y-88894105D01*
X164297218Y-88894106D01*
X164227538Y-88963785D01*
X164227537Y-88963784D01*
X164157858Y-89033463D01*
X164048375Y-89197317D01*
X164048365Y-89197334D01*
X164048360Y-89197343D01*
X163972958Y-89379382D01*
X163972945Y-89379421D01*
X163934500Y-89572696D01*
X163934500Y-92737160D01*
X163934499Y-92737162D01*
X163934500Y-92737163D01*
X163929476Y-92772098D01*
X163923131Y-92793705D01*
X163894609Y-92843585D01*
X163891855Y-92846522D01*
X163885627Y-92852058D01*
X163885355Y-92852482D01*
X163884934Y-92852673D01*
X163875038Y-92861472D01*
X163852852Y-92877846D01*
X163848877Y-92882572D01*
X163846496Y-92886458D01*
X163772205Y-92987119D01*
X163727353Y-93115299D01*
X163727353Y-93115300D01*
X163727353Y-93115301D01*
X163727353Y-93115302D01*
X163724500Y-93145731D01*
X163724500Y-94254258D01*
X163727354Y-94284698D01*
X163727354Y-94284699D01*
X163772206Y-94412881D01*
X163772207Y-94412882D01*
X163852850Y-94522150D01*
X163962118Y-94602793D01*
X164090302Y-94647646D01*
X164090301Y-94647646D01*
X164094271Y-94648018D01*
X164117911Y-94650235D01*
X164120723Y-94650499D01*
X164120724Y-94650499D01*
X164120735Y-94650500D01*
X164578400Y-94650499D01*
X164602585Y-94652880D01*
X164626082Y-94657554D01*
X164636588Y-94660742D01*
X164643163Y-94662050D01*
X164643165Y-94662051D01*
X164643167Y-94662051D01*
X164643169Y-94662052D01*
X164655144Y-94664434D01*
X164836453Y-94700500D01*
X165033543Y-94700500D01*
X165033545Y-94700500D01*
X165121831Y-94682937D01*
X165226830Y-94662052D01*
X165226830Y-94662051D01*
X165226835Y-94662051D01*
X165226840Y-94662048D01*
X165229578Y-94661504D01*
X165229588Y-94661502D01*
X165270348Y-94653395D01*
X165270536Y-94654342D01*
X165294959Y-94650499D01*
X165749258Y-94650499D01*
X165749264Y-94650499D01*
X165779698Y-94647646D01*
X165907882Y-94602793D01*
X166017150Y-94522150D01*
X166097793Y-94412882D01*
X166131083Y-94317744D01*
X166142647Y-94284696D01*
X166144160Y-94268550D01*
X166145500Y-94254265D01*
X166145499Y-93145736D01*
X166142646Y-93115302D01*
X166097793Y-92987118D01*
X166092835Y-92980400D01*
X166017154Y-92877854D01*
X166017143Y-92877843D01*
X166000209Y-92865345D01*
X165975085Y-92840560D01*
X165961468Y-92822625D01*
X165938272Y-92770062D01*
X165937544Y-92766102D01*
X165936787Y-92757801D01*
X165936607Y-92757328D01*
X165936702Y-92756873D01*
X165935500Y-92743682D01*
X165935500Y-90154856D01*
X165940522Y-90119923D01*
X165947934Y-90094678D01*
X165979228Y-90041936D01*
X169206514Y-86814652D01*
X172477140Y-83544026D01*
X172531358Y-83462882D01*
X172586632Y-83380159D01*
X172590413Y-83371031D01*
X172616268Y-83308612D01*
X172639957Y-83251421D01*
X172639957Y-83251419D01*
X172639961Y-83251411D01*
X172639961Y-83251410D01*
X172641211Y-83248393D01*
X172662051Y-83198081D01*
X172700500Y-83004785D01*
X172700500Y-82807705D01*
X172700500Y-76198430D01*
X172700501Y-76198409D01*
X172700501Y-75995212D01*
X172700500Y-75995210D01*
X172692806Y-75956530D01*
X172662052Y-75801920D01*
X172603717Y-75661089D01*
X172586633Y-75619843D01*
X172586628Y-75619834D01*
X172477140Y-75455974D01*
X172477137Y-75455970D01*
X172477134Y-75455967D01*
X172477133Y-75455965D01*
X171000825Y-73979660D01*
X170996672Y-73975507D01*
X170996669Y-73975500D01*
X170985165Y-73962237D01*
X170959899Y-73928549D01*
X170936261Y-73915095D01*
X170844023Y-73822857D01*
X170844020Y-73822855D01*
X170680184Y-73713383D01*
X170680158Y-73713367D01*
X170680152Y-73713364D01*
X170607560Y-73683296D01*
X170551410Y-73660038D01*
X170514481Y-73644742D01*
X170502128Y-73639625D01*
X170499579Y-73638461D01*
X170498074Y-73637946D01*
X170401433Y-73618724D01*
X170401433Y-73618723D01*
X170401430Y-73618723D01*
X170304791Y-73599500D01*
X170304789Y-73599500D01*
X170304786Y-73599500D01*
X165328540Y-73599500D01*
X165131459Y-73599500D01*
X165131456Y-73599500D01*
X165037661Y-73618156D01*
X164953156Y-73634965D01*
X164953149Y-73634966D01*
X164938171Y-73637946D01*
X164938167Y-73637948D01*
X164938165Y-73637948D01*
X164938164Y-73637949D01*
X164933357Y-73639939D01*
X164933353Y-73639941D01*
X164915381Y-73647386D01*
X164915375Y-73647386D01*
X164915376Y-73647387D01*
X164860713Y-73670029D01*
X164860702Y-73670032D01*
X164860703Y-73670033D01*
X164761704Y-73711040D01*
X164761703Y-73711041D01*
X164744803Y-73718041D01*
X164744799Y-73718041D01*
X164744468Y-73718178D01*
X164735575Y-73727071D01*
X164592249Y-73822837D01*
X164592232Y-73822850D01*
X164592209Y-73822866D01*
X164592208Y-73822867D01*
X164414508Y-74000566D01*
X164414507Y-74000569D01*
X164386253Y-74021721D01*
X164363166Y-74034329D01*
X164303734Y-74049500D01*
X164015742Y-74049500D01*
X163997299Y-74051229D01*
X163991070Y-74051813D01*
X163987503Y-74051979D01*
X163985301Y-74052353D01*
X163857118Y-74097205D01*
X163747849Y-74177849D01*
X163667205Y-74287118D01*
X163622353Y-74415299D01*
X163622353Y-74415300D01*
X163622353Y-74415302D01*
X163619500Y-74445731D01*
X161825500Y-74445731D01*
X161825500Y-67259721D01*
X165191999Y-67259721D01*
X165232364Y-67462644D01*
X165232370Y-67462671D01*
X165295670Y-67615493D01*
X165295671Y-67615493D01*
X165311559Y-67653848D01*
X165331711Y-67684007D01*
X165331712Y-67684010D01*
X165426522Y-67825905D01*
X165426528Y-67825912D01*
X165572836Y-67972220D01*
X165572840Y-67972223D01*
X165572842Y-67972225D01*
X165572845Y-67972227D01*
X165572849Y-67972230D01*
X165572848Y-67972230D01*
X165572911Y-67972282D01*
X165572948Y-67972296D01*
X165744902Y-68087191D01*
X165936080Y-68166380D01*
X166127040Y-68204364D01*
X166136059Y-68206158D01*
X166138294Y-68206659D01*
X166139032Y-68206750D01*
X166345966Y-68206750D01*
X166350086Y-68206750D01*
X166357935Y-68204368D01*
X166548920Y-68166380D01*
X166740098Y-68087191D01*
X166912155Y-67972227D01*
X167058477Y-67825905D01*
X167173441Y-67653848D01*
X167252630Y-67462670D01*
X167293000Y-67259715D01*
X167293000Y-67052785D01*
X167252630Y-66849830D01*
X167173441Y-66658652D01*
X167058546Y-66486699D01*
X167058536Y-66486667D01*
X167058480Y-66486598D01*
X167058480Y-66486599D01*
X167058477Y-66486595D01*
X167058475Y-66486592D01*
X167058473Y-66486590D01*
X167058470Y-66486586D01*
X166912162Y-66340278D01*
X166912155Y-66340272D01*
X166829082Y-66284765D01*
X166829068Y-66284756D01*
X166826126Y-66282791D01*
X166740098Y-66225309D01*
X166707501Y-66211807D01*
X166548920Y-66146120D01*
X166548912Y-66146118D01*
X166548904Y-66146116D01*
X166548894Y-66146114D01*
X166345971Y-66105750D01*
X166345969Y-66105750D01*
X166345965Y-66105750D01*
X166139035Y-66105750D01*
X166139030Y-66105750D01*
X166139028Y-66105750D01*
X165936104Y-66146114D01*
X165936079Y-66146120D01*
X165744904Y-66225307D01*
X165572837Y-66340277D01*
X165426527Y-66486587D01*
X165311557Y-66658654D01*
X165255975Y-66792841D01*
X165232370Y-66849829D01*
X165232368Y-66849837D01*
X165217864Y-66922753D01*
X165192000Y-67052777D01*
X165192000Y-67052780D01*
X165192000Y-67259719D01*
X165192000Y-67259721D01*
X165191999Y-67259721D01*
X161825500Y-67259721D01*
X161825500Y-60567241D01*
X161825273Y-60566392D01*
X161805021Y-60490813D01*
X161802887Y-60487117D01*
X161795410Y-60474165D01*
X161795410Y-60474166D01*
X161765464Y-60422297D01*
X161765458Y-60422289D01*
X161765453Y-60422283D01*
X160227275Y-58884105D01*
X162449500Y-58884105D01*
X162449500Y-58884108D01*
X162449500Y-59015892D01*
X162466554Y-59079539D01*
X162483608Y-59143187D01*
X162516554Y-59200250D01*
X162549500Y-59257314D01*
X162549502Y-59257316D01*
X162642489Y-59350303D01*
X162646273Y-59354892D01*
X162646732Y-59355966D01*
X162650754Y-59360664D01*
X162662855Y-59377240D01*
X162686484Y-59442993D01*
X162670817Y-59511078D01*
X162665994Y-59519665D01*
X162645562Y-59546622D01*
X162549502Y-59642682D01*
X162549493Y-59642696D01*
X162483610Y-59756806D01*
X162483609Y-59756807D01*
X162483473Y-59757314D01*
X162472170Y-59799500D01*
X162472170Y-59799501D01*
X162472169Y-59799500D01*
X162449500Y-59884106D01*
X162449500Y-60015893D01*
X162458504Y-60049499D01*
X162458505Y-60049499D01*
X162458505Y-60049500D01*
X162483608Y-60143187D01*
X162483609Y-60143188D01*
X162496717Y-60165892D01*
X162549497Y-60257310D01*
X162549499Y-60257312D01*
X162549500Y-60257314D01*
X162642686Y-60350500D01*
X162756814Y-60416392D01*
X162884108Y-60450500D01*
X162884110Y-60450500D01*
X163015890Y-60450500D01*
X163015892Y-60450500D01*
X163143186Y-60416392D01*
X163257314Y-60350500D01*
X163350500Y-60257314D01*
X163416392Y-60143186D01*
X163450500Y-60015892D01*
X163450500Y-59884108D01*
X163416392Y-59756814D01*
X163416387Y-59756806D01*
X163393054Y-59716392D01*
X163350500Y-59642686D01*
X163261717Y-59553903D01*
X163249254Y-59539345D01*
X163237150Y-59522768D01*
X163213514Y-59457017D01*
X163216740Y-59442993D01*
X163229176Y-59388931D01*
X163229177Y-59388928D01*
X163233998Y-59380343D01*
X163254436Y-59353376D01*
X163257310Y-59350502D01*
X163257314Y-59350500D01*
X163350500Y-59257314D01*
X163416392Y-59143186D01*
X163450500Y-59015892D01*
X163450500Y-58884108D01*
X163416392Y-58756814D01*
X163416387Y-58756806D01*
X163403283Y-58734108D01*
X163350500Y-58642686D01*
X163272244Y-58564430D01*
X163259780Y-58549872D01*
X163243606Y-58527721D01*
X163219970Y-58461970D01*
X163220477Y-58459765D01*
X163235625Y-58393896D01*
X163238193Y-58389323D01*
X163284312Y-58342646D01*
X163357314Y-58300500D01*
X163450500Y-58207314D01*
X163516392Y-58093186D01*
X163550500Y-57965892D01*
X163550500Y-57834108D01*
X163516392Y-57706814D01*
X163516387Y-57706806D01*
X163481125Y-57645730D01*
X163450500Y-57592686D01*
X163357314Y-57499500D01*
X163357311Y-57499497D01*
X163357157Y-57499379D01*
X163342905Y-57486577D01*
X163341530Y-57485135D01*
X163330790Y-57473870D01*
X163298776Y-57411769D01*
X163305417Y-57342218D01*
X163306036Y-57340672D01*
X163339927Y-57293089D01*
X163343713Y-57289807D01*
X163362917Y-57276131D01*
X163407314Y-57250500D01*
X163500500Y-57157314D01*
X163566392Y-57043186D01*
X163600500Y-56915892D01*
X163600500Y-56784108D01*
X163566392Y-56656814D01*
X163566387Y-56656806D01*
X163505011Y-56550500D01*
X163500500Y-56542686D01*
X163407314Y-56449500D01*
X163319903Y-56399033D01*
X163293187Y-56383608D01*
X163229539Y-56366554D01*
X163165892Y-56349500D01*
X163165891Y-56349500D01*
X163034108Y-56349500D01*
X162906808Y-56383609D01*
X162906806Y-56383610D01*
X162792696Y-56449493D01*
X162792682Y-56449502D01*
X162792677Y-56449506D01*
X162699506Y-56542677D01*
X162699502Y-56542682D01*
X162699493Y-56542696D01*
X162633610Y-56656806D01*
X162633609Y-56656809D01*
X162633608Y-56656811D01*
X162633608Y-56656812D01*
X162608332Y-56751145D01*
X162599500Y-56784105D01*
X162599500Y-56784108D01*
X162599500Y-56915892D01*
X162604804Y-56935686D01*
X162633608Y-57043187D01*
X162656949Y-57083615D01*
X162666554Y-57100250D01*
X162699500Y-57157314D01*
X162792686Y-57250500D01*
X162797328Y-57253180D01*
X162819205Y-57276125D01*
X162851222Y-57338223D01*
X162844582Y-57407777D01*
X162844578Y-57407786D01*
X162843973Y-57409297D01*
X162810065Y-57456914D01*
X162806276Y-57460197D01*
X162787075Y-57473871D01*
X162747331Y-57496818D01*
X162742691Y-57499496D01*
X162742680Y-57499503D01*
X162649506Y-57592677D01*
X162649502Y-57592682D01*
X162649493Y-57592696D01*
X162583610Y-57706806D01*
X162583609Y-57706808D01*
X162583608Y-57706812D01*
X162549500Y-57834108D01*
X162549500Y-57965891D01*
X162583608Y-58093187D01*
X162604756Y-58129815D01*
X162649500Y-58207314D01*
X162649501Y-58207315D01*
X162732967Y-58290781D01*
X162737529Y-58296581D01*
X162737833Y-58297342D01*
X162740202Y-58300108D01*
X162756385Y-58322267D01*
X162780027Y-58388015D01*
X162764377Y-58456095D01*
X162761814Y-58460661D01*
X162715686Y-58507351D01*
X162642690Y-58549497D01*
X162642684Y-58549501D01*
X162642677Y-58549506D01*
X162549506Y-58642677D01*
X162549502Y-58642682D01*
X162549493Y-58642696D01*
X162483610Y-58756806D01*
X162483609Y-58756809D01*
X162483608Y-58756811D01*
X162483608Y-58756812D01*
X162454381Y-58865890D01*
X162453160Y-58870444D01*
X162449500Y-58884105D01*
X160227275Y-58884105D01*
X157377711Y-56034541D01*
X157377706Y-56034538D01*
X157367265Y-56028510D01*
X157367264Y-56028509D01*
X157356822Y-56022481D01*
X157356820Y-56022480D01*
X157356818Y-56022479D01*
X157340942Y-56013313D01*
X157333006Y-56008731D01*
X157333005Y-56008730D01*
X157309189Y-55994979D01*
X157268624Y-55984110D01*
X157268623Y-55984109D01*
X157232760Y-55974500D01*
X149960435Y-55974500D01*
X149960432Y-55974500D01*
X149924577Y-55984107D01*
X149924578Y-55984108D01*
X149884001Y-55994980D01*
X149884000Y-55994981D01*
X149852251Y-56013311D01*
X149852252Y-56013312D01*
X149836384Y-56022474D01*
X149836379Y-56022477D01*
X149836373Y-56022481D01*
X149830166Y-56026064D01*
X149821692Y-56030956D01*
X149815487Y-56034538D01*
X149815486Y-56034538D01*
X149815486Y-56034539D01*
X149815484Y-56034541D01*
X149742711Y-56107314D01*
X149599036Y-56250988D01*
X149450982Y-56399040D01*
X149450981Y-56399039D01*
X147522238Y-58327785D01*
X147496571Y-58347483D01*
X147441199Y-58379461D01*
X147441113Y-58379584D01*
X147425904Y-58389942D01*
X147410966Y-58398566D01*
X147410960Y-58398570D01*
X147409350Y-58399500D01*
X147409348Y-58399501D01*
X147404034Y-58402568D01*
X147391960Y-58409538D01*
X147391960Y-58409539D01*
X147391958Y-58409540D01*
X147391954Y-58409544D01*
X147100926Y-58700573D01*
X147079159Y-58716868D01*
X147072675Y-58721722D01*
X147049587Y-58734330D01*
X146990157Y-58749500D01*
X146959105Y-58749500D01*
X146831805Y-58783609D01*
X146831803Y-58783610D01*
X146717693Y-58849493D01*
X146717679Y-58849502D01*
X146717674Y-58849506D01*
X146624503Y-58942677D01*
X146624499Y-58942682D01*
X146624490Y-58942696D01*
X146558607Y-59056806D01*
X146558606Y-59056808D01*
X146524497Y-59184108D01*
X146524497Y-59315888D01*
X146524496Y-59315888D01*
X146032221Y-59315888D01*
X146016392Y-59256814D01*
X145950500Y-59142686D01*
X145857314Y-59049500D01*
X145799100Y-59015890D01*
X145743187Y-58983608D01*
X145679539Y-58966554D01*
X145615892Y-58949500D01*
X145615891Y-58949500D01*
X145543663Y-58949500D01*
X145543662Y-58949499D01*
X145543662Y-58949500D01*
X145508727Y-58944477D01*
X145483485Y-58937065D01*
X145430740Y-58905769D01*
X144734510Y-58209539D01*
X144730662Y-58207318D01*
X144730660Y-58207317D01*
X144730655Y-58207314D01*
X144722520Y-58202617D01*
X144703815Y-58191817D01*
X144702048Y-58190797D01*
X144674310Y-58168983D01*
X144666507Y-58160799D01*
X144658336Y-58144949D01*
X144653833Y-58140227D01*
X144652598Y-58133822D01*
X144634491Y-58098701D01*
X144641131Y-58029147D01*
X144684253Y-57974273D01*
X144684755Y-57973915D01*
X144736219Y-57952584D01*
X144738441Y-57952210D01*
X144758968Y-57950500D01*
X146204271Y-57950500D01*
X146205576Y-57950377D01*
X146234699Y-57947646D01*
X146234701Y-57947646D01*
X146298790Y-57925219D01*
X146362882Y-57902793D01*
X146472150Y-57822150D01*
X146552793Y-57712882D01*
X146575453Y-57648124D01*
X146585413Y-57619661D01*
X146585415Y-57619653D01*
X146586938Y-57615301D01*
X146597646Y-57584701D01*
X146597646Y-57584699D01*
X146600500Y-57554269D01*
X146600500Y-57192329D01*
X146601119Y-57188027D01*
X146605523Y-57157393D01*
X146605547Y-57157313D01*
X146609927Y-57142394D01*
X146647672Y-57083644D01*
X146647700Y-57083619D01*
X146647699Y-57083619D01*
X146649041Y-57082456D01*
X146703920Y-57054977D01*
X146711479Y-57053333D01*
X146737832Y-57050500D01*
X148089560Y-57050500D01*
X148089562Y-57050500D01*
X148165989Y-57030021D01*
X148234511Y-56990460D01*
X148290460Y-56934511D01*
X148875549Y-56349419D01*
X148903800Y-56328273D01*
X148926890Y-56315666D01*
X148986313Y-56300500D01*
X149065890Y-56300500D01*
X149065892Y-56300500D01*
X149193186Y-56266392D01*
X149307314Y-56200500D01*
X149400500Y-56107314D01*
X149466392Y-55993186D01*
X149500500Y-55865892D01*
X149500500Y-55734108D01*
X149466392Y-55606814D01*
X149466387Y-55606806D01*
X149452995Y-55583610D01*
X149400500Y-55492686D01*
X149307314Y-55399500D01*
X149250250Y-55366554D01*
X149193187Y-55333608D01*
X149129539Y-55316554D01*
X149065892Y-55299500D01*
X149065891Y-55299500D01*
X148934108Y-55299500D01*
X148806808Y-55333609D01*
X148806806Y-55333610D01*
X148692696Y-55399493D01*
X148692682Y-55399502D01*
X148692677Y-55399506D01*
X148599506Y-55492677D01*
X148599502Y-55492682D01*
X148599493Y-55492696D01*
X148533610Y-55606806D01*
X148533609Y-55606808D01*
X148499500Y-55734108D01*
X148499500Y-55806336D01*
X148499499Y-55806338D01*
X148499500Y-55806339D01*
X148494476Y-55841273D01*
X148487064Y-55866514D01*
X148455769Y-55919258D01*
X147974455Y-56400573D01*
X147946204Y-56421722D01*
X147923116Y-56434330D01*
X147863686Y-56449500D01*
X146742330Y-56449500D01*
X146742325Y-56449499D01*
X146742323Y-56449500D01*
X146707389Y-56444475D01*
X146692390Y-56440070D01*
X146633644Y-56402327D01*
X146633615Y-56402293D01*
X146633614Y-56402293D01*
X146633613Y-56402291D01*
X146632457Y-56400958D01*
X146604977Y-56346083D01*
X146603332Y-56338521D01*
X146600500Y-56312168D01*
X146600500Y-55945728D01*
X146599776Y-55938012D01*
X146597646Y-55915300D01*
X146597646Y-55915298D01*
X146552793Y-55787119D01*
X146552792Y-55787117D01*
X146540143Y-55769978D01*
X146472150Y-55677850D01*
X146362882Y-55597207D01*
X146362880Y-55597206D01*
X146324020Y-55583608D01*
X146234704Y-55552354D01*
X146234702Y-55552353D01*
X146234700Y-55552353D01*
X146204270Y-55549500D01*
X146204266Y-55549500D01*
X146204264Y-55549500D01*
X142795734Y-55549500D01*
X142795730Y-55549500D01*
X142777074Y-55551249D01*
X142771069Y-55551812D01*
X142767499Y-55551978D01*
X142765297Y-55552353D01*
X142637118Y-55597206D01*
X142527849Y-55677849D01*
X142447206Y-55787118D01*
X142402353Y-55915297D01*
X142401978Y-55917499D01*
X142401812Y-55921069D01*
X142399500Y-55945733D01*
X142399500Y-57554265D01*
X142401812Y-57578929D01*
X142401978Y-57582499D01*
X142402353Y-57584699D01*
X142402353Y-57584701D01*
X142447206Y-57712880D01*
X142447207Y-57712882D01*
X142527850Y-57822150D01*
X142549733Y-57838300D01*
X142637117Y-57902793D01*
X142645331Y-57907134D01*
X142644647Y-57908428D01*
X142650418Y-57912566D01*
X142666677Y-57918054D01*
X142667768Y-57918828D01*
X142671411Y-57921441D01*
X142673953Y-57923264D01*
X142684917Y-57937305D01*
X142693252Y-57943282D01*
X142697161Y-57952984D01*
X142716955Y-57978333D01*
X142723358Y-58047909D01*
X142707270Y-58078853D01*
X142706787Y-58081470D01*
X142704821Y-58083563D01*
X142691129Y-58109901D01*
X142666388Y-58124496D01*
X142658962Y-58132407D01*
X142648560Y-58135015D01*
X142633587Y-58143849D01*
X142629456Y-58144949D01*
X142628043Y-58145325D01*
X142596137Y-58149500D01*
X141392330Y-58149500D01*
X141357389Y-58144475D01*
X141342390Y-58140070D01*
X141283644Y-58102327D01*
X141282457Y-58100958D01*
X141254977Y-58046083D01*
X141253332Y-58038521D01*
X141250500Y-58012168D01*
X141250500Y-57645728D01*
X141249415Y-57634166D01*
X141247646Y-57615300D01*
X141247646Y-57615298D01*
X141207126Y-57499502D01*
X141202793Y-57487118D01*
X141193016Y-57473871D01*
X141147183Y-57411769D01*
X141122150Y-57377850D01*
X141012882Y-57297207D01*
X141012880Y-57297206D01*
X140952627Y-57276122D01*
X140884704Y-57252354D01*
X140884702Y-57252353D01*
X140884700Y-57252353D01*
X140854270Y-57249500D01*
X140854266Y-57249500D01*
X140854264Y-57249500D01*
X137445734Y-57249500D01*
X137445730Y-57249500D01*
X137427074Y-57251249D01*
X137421069Y-57251812D01*
X137417499Y-57251978D01*
X137415297Y-57252353D01*
X137287118Y-57297206D01*
X137177849Y-57377849D01*
X137097206Y-57487118D01*
X137052353Y-57615297D01*
X137051978Y-57617499D01*
X137051877Y-57619664D01*
X137051901Y-57620070D01*
X137051850Y-57620655D01*
X137049500Y-57645730D01*
X134800500Y-57645730D01*
X134800500Y-57243662D01*
X134805522Y-57208729D01*
X134812934Y-57183484D01*
X134844228Y-57130742D01*
X135575547Y-56399423D01*
X135603797Y-56378275D01*
X135624107Y-56367185D01*
X135626889Y-56365667D01*
X135686314Y-56350500D01*
X139123494Y-56350500D01*
X139158426Y-56355521D01*
X139183670Y-56362934D01*
X139236416Y-56394230D01*
X139292686Y-56450500D01*
X139406814Y-56516392D01*
X139534108Y-56550500D01*
X139534110Y-56550500D01*
X139665890Y-56550500D01*
X139665892Y-56550500D01*
X139793186Y-56516392D01*
X139907314Y-56450500D01*
X140000500Y-56357314D01*
X140066392Y-56243186D01*
X140100500Y-56115892D01*
X140100500Y-55984108D01*
X140066392Y-55856814D01*
X140000500Y-55742686D01*
X139907314Y-55649500D01*
X139886838Y-55637678D01*
X139843065Y-55612405D01*
X139843061Y-55612403D01*
X139833380Y-55606814D01*
X139793187Y-55583608D01*
X139676543Y-55552354D01*
X139671633Y-55551038D01*
X139671621Y-55551034D01*
X139665894Y-55549500D01*
X139665892Y-55549500D01*
X139534108Y-55549500D01*
X139406808Y-55583609D01*
X139406806Y-55583610D01*
X139292696Y-55649493D01*
X139292686Y-55649500D01*
X139292682Y-55649502D01*
X139241608Y-55700576D01*
X139225518Y-55712621D01*
X139213357Y-55721725D01*
X139197418Y-55730429D01*
X139191547Y-55733635D01*
X139190272Y-55734331D01*
X139130843Y-55749500D01*
X135460436Y-55749500D01*
X135384011Y-55769977D01*
X135384008Y-55769978D01*
X135315499Y-55809533D01*
X135315485Y-55809542D01*
X135315480Y-55809546D01*
X134259545Y-56865481D01*
X134259544Y-56865483D01*
X134259541Y-56865486D01*
X134259541Y-56865487D01*
X134259535Y-56865495D01*
X134259531Y-56865501D01*
X134259526Y-56865509D01*
X134220486Y-56933128D01*
X134220008Y-56933939D01*
X134219978Y-56934009D01*
X134219530Y-56935685D01*
X134199500Y-57010438D01*
X125578588Y-57010438D01*
X125674351Y-56860121D01*
X125677331Y-56855662D01*
X125680431Y-56851233D01*
X125683602Y-56846907D01*
X125917000Y-56542739D01*
X125920339Y-56538580D01*
X125923834Y-56534414D01*
X125927356Y-56530398D01*
X126186350Y-56247756D01*
X126190059Y-56243883D01*
X126193894Y-56240047D01*
X126197756Y-56236350D01*
X126480398Y-55977356D01*
X126484427Y-55973824D01*
X126488580Y-55970339D01*
X126492739Y-55967000D01*
X126796915Y-55733596D01*
X126801222Y-55730439D01*
X126805695Y-55727308D01*
X126810089Y-55724372D01*
X127133469Y-55518355D01*
X127137989Y-55515612D01*
X127142726Y-55512877D01*
X127147398Y-55510314D01*
X127487457Y-55333291D01*
X127492243Y-55330930D01*
X127497179Y-55328629D01*
X127502088Y-55326469D01*
X127856281Y-55179757D01*
X127861242Y-55177828D01*
X127866349Y-55175969D01*
X127871429Y-55174245D01*
X128237023Y-55058974D01*
X128242190Y-55057469D01*
X128242448Y-55057399D01*
X128247386Y-55056076D01*
X128252613Y-55054796D01*
X128626899Y-54971818D01*
X128632152Y-54970774D01*
X128637513Y-54969829D01*
X128642785Y-54969018D01*
X129022851Y-54918980D01*
X129028171Y-54918397D01*
X129033602Y-54917922D01*
X129038915Y-54917573D01*
X129414776Y-54901164D01*
X129425982Y-54900675D01*
X129428582Y-54900589D01*
X129431405Y-54900528D01*
X129434036Y-54900500D01*
X170665964Y-54900500D01*
X170668593Y-54900528D01*
G37*
%TD.AperFunction*%
%TD*%
M02*
