%TF.GenerationSoftware,KiCad,Pcbnew,9.0.7*%
%TF.CreationDate,2026-02-10T22:30:16-08:00*%
%TF.ProjectId,SMU V1,534d5520-5631-42e6-9b69-6361645f7063,rev?*%
%TF.SameCoordinates,Original*%
%TF.FileFunction,Soldermask,Top*%
%TF.FilePolarity,Negative*%
%FSLAX46Y46*%
G04 Gerber Fmt 4.6, Leading zero omitted, Abs format (unit mm)*
G04 Created by KiCad (PCBNEW 9.0.7) date 2026-02-10 22:30:16*
%MOMM*%
%LPD*%
G01*
G04 APERTURE LIST*
G04 Aperture macros list*
%AMRoundRect*
0 Rectangle with rounded corners*
0 $1 Rounding radius*
0 $2 $3 $4 $5 $6 $7 $8 $9 X,Y pos of 4 corners*
0 Add a 4 corners polygon primitive as box body*
4,1,4,$2,$3,$4,$5,$6,$7,$8,$9,$2,$3,0*
0 Add four circle primitives for the rounded corners*
1,1,$1+$1,$2,$3*
1,1,$1+$1,$4,$5*
1,1,$1+$1,$6,$7*
1,1,$1+$1,$8,$9*
0 Add four rect primitives between the rounded corners*
20,1,$1+$1,$2,$3,$4,$5,0*
20,1,$1+$1,$4,$5,$6,$7,0*
20,1,$1+$1,$6,$7,$8,$9,0*
20,1,$1+$1,$8,$9,$2,$3,0*%
%AMOutline4P*
0 Free polygon, 4 corners , with rotation*
0 The origin of the aperture is its center*
0 number of corners: always 4*
0 $1 to $8 corner X, Y*
0 $9 Rotation angle, in degrees counterclockwise*
0 create outline with 4 corners*
4,1,4,$1,$2,$3,$4,$5,$6,$7,$8,$1,$2,$9*%
G04 Aperture macros list end*
%ADD10RoundRect,0.250000X1.650000X0.750000X-1.650000X0.750000X-1.650000X-0.750000X1.650000X-0.750000X0*%
%ADD11RoundRect,0.250000X-1.650000X-0.750000X1.650000X-0.750000X1.650000X0.750000X-1.650000X0.750000X0*%
%ADD12RoundRect,0.250000X0.450000X-0.325000X0.450000X0.325000X-0.450000X0.325000X-0.450000X-0.325000X0*%
%ADD13RoundRect,0.237500X-0.237500X0.250000X-0.237500X-0.250000X0.237500X-0.250000X0.237500X0.250000X0*%
%ADD14RoundRect,0.250000X0.750000X-1.650000X0.750000X1.650000X-0.750000X1.650000X-0.750000X-1.650000X0*%
%ADD15RoundRect,0.250000X-0.750000X1.650000X-0.750000X-1.650000X0.750000X-1.650000X0.750000X1.650000X0*%
%ADD16RoundRect,0.155000X-0.212500X-0.155000X0.212500X-0.155000X0.212500X0.155000X-0.212500X0.155000X0*%
%ADD17RoundRect,0.250000X-0.325000X-0.450000X0.325000X-0.450000X0.325000X0.450000X-0.325000X0.450000X0*%
%ADD18RoundRect,0.250000X0.337500X0.475000X-0.337500X0.475000X-0.337500X-0.475000X0.337500X-0.475000X0*%
%ADD19RoundRect,0.237500X0.237500X-0.250000X0.237500X0.250000X-0.237500X0.250000X-0.237500X-0.250000X0*%
%ADD20Outline4P,-1.800000X-1.150000X1.800000X-0.550000X1.800000X0.550000X-1.800000X1.150000X90.000000*%
%ADD21Outline4P,-1.800000X-1.150000X1.800000X-0.550000X1.800000X0.550000X-1.800000X1.150000X270.000000*%
%ADD22RoundRect,0.237500X-0.300000X-0.237500X0.300000X-0.237500X0.300000X0.237500X-0.300000X0.237500X0*%
%ADD23RoundRect,0.250000X-0.450000X0.350000X-0.450000X-0.350000X0.450000X-0.350000X0.450000X0.350000X0*%
%ADD24RoundRect,0.250000X-1.450000X0.312500X-1.450000X-0.312500X1.450000X-0.312500X1.450000X0.312500X0*%
%ADD25RoundRect,0.155000X0.259862X-0.040659X-0.040659X0.259862X-0.259862X0.040659X0.040659X-0.259862X0*%
%ADD26RoundRect,0.155000X0.155000X-0.212500X0.155000X0.212500X-0.155000X0.212500X-0.155000X-0.212500X0*%
%ADD27RoundRect,0.155000X0.212500X0.155000X-0.212500X0.155000X-0.212500X-0.155000X0.212500X-0.155000X0*%
%ADD28RoundRect,0.240000X-1.860000X-0.560000X1.860000X-0.560000X1.860000X0.560000X-1.860000X0.560000X0*%
%ADD29RoundRect,0.160000X0.197500X0.160000X-0.197500X0.160000X-0.197500X-0.160000X0.197500X-0.160000X0*%
%ADD30RoundRect,0.160000X-0.160000X0.197500X-0.160000X-0.197500X0.160000X-0.197500X0.160000X0.197500X0*%
%ADD31O,1.500000X2.020000*%
%ADD32RoundRect,0.250001X-0.499999X-0.759999X0.499999X-0.759999X0.499999X0.759999X-0.499999X0.759999X0*%
%ADD33RoundRect,0.155000X-0.155000X0.212500X-0.155000X-0.212500X0.155000X-0.212500X0.155000X0.212500X0*%
%ADD34RoundRect,0.237500X0.237500X-0.300000X0.237500X0.300000X-0.237500X0.300000X-0.237500X-0.300000X0*%
%ADD35RoundRect,0.250000X-0.475000X0.337500X-0.475000X-0.337500X0.475000X-0.337500X0.475000X0.337500X0*%
%ADD36C,2.502000*%
%ADD37RoundRect,0.250000X-0.412500X-0.650000X0.412500X-0.650000X0.412500X0.650000X-0.412500X0.650000X0*%
%ADD38RoundRect,0.162500X0.162500X-0.617500X0.162500X0.617500X-0.162500X0.617500X-0.162500X-0.617500X0*%
%ADD39RoundRect,0.250000X0.650000X-1.500000X0.650000X1.500000X-0.650000X1.500000X-0.650000X-1.500000X0*%
%ADD40RoundRect,0.237500X-0.250000X-0.237500X0.250000X-0.237500X0.250000X0.237500X-0.250000X0.237500X0*%
%ADD41RoundRect,0.135000X-0.815000X-0.315000X0.815000X-0.315000X0.815000X0.315000X-0.815000X0.315000X0*%
%ADD42RoundRect,0.162500X-0.162500X0.617500X-0.162500X-0.617500X0.162500X-0.617500X0.162500X0.617500X0*%
%ADD43RoundRect,0.160000X0.270468X-0.044194X-0.044194X0.270468X-0.270468X0.044194X0.044194X-0.270468X0*%
%ADD44RoundRect,0.250000X-0.337500X-0.475000X0.337500X-0.475000X0.337500X0.475000X-0.337500X0.475000X0*%
%ADD45RoundRect,0.237500X0.250000X0.237500X-0.250000X0.237500X-0.250000X-0.237500X0.250000X-0.237500X0*%
%ADD46RoundRect,0.150000X0.512500X0.150000X-0.512500X0.150000X-0.512500X-0.150000X0.512500X-0.150000X0*%
%ADD47R,1.550000X1.205000*%
%ADD48R,0.610000X1.910000*%
%ADD49RoundRect,0.250001X0.499999X0.759999X-0.499999X0.759999X-0.499999X-0.759999X0.499999X-0.759999X0*%
%ADD50RoundRect,0.102000X0.600000X1.375000X-0.600000X1.375000X-0.600000X-1.375000X0.600000X-1.375000X0*%
%ADD51C,5.702000*%
%ADD52RoundRect,0.051000X0.150000X0.775000X-0.150000X0.775000X-0.150000X-0.775000X0.150000X-0.775000X0*%
%ADD53RoundRect,0.087500X-0.087500X0.225000X-0.087500X-0.225000X0.087500X-0.225000X0.087500X0.225000X0*%
%ADD54RoundRect,0.087500X-0.225000X0.087500X-0.225000X-0.087500X0.225000X-0.087500X0.225000X0.087500X0*%
G04 APERTURE END LIST*
D10*
%TO.C,TP607*%
X66420000Y-124783334D03*
%TD*%
D11*
%TO.C,TP308*%
X65450000Y-77310001D03*
%TD*%
D12*
%TO.C,D801*%
X53032499Y-131275001D03*
X53032499Y-133324999D03*
%TD*%
D13*
%TO.C,R202*%
X71230000Y-102042500D03*
X71230000Y-100217500D03*
%TD*%
D14*
%TO.C,TP601*%
X54320000Y-123413334D03*
%TD*%
D10*
%TO.C,TP605*%
X66460000Y-117856666D03*
%TD*%
D15*
%TO.C,TP303*%
X47040000Y-81920000D03*
%TD*%
D16*
%TO.C,C802*%
X56289999Y-126990000D03*
X55154999Y-126990000D03*
%TD*%
D17*
%TO.C,D1101*%
X52895000Y-42110000D03*
X50845000Y-42110000D03*
%TD*%
D18*
%TO.C,C903*%
X55072500Y-60605002D03*
X57147500Y-60605002D03*
%TD*%
D19*
%TO.C,R701*%
X69527501Y-88314999D03*
X69527501Y-90139999D03*
%TD*%
D20*
%TO.C,TVS1101*%
X46250000Y-55520000D03*
D21*
X46250000Y-49720000D03*
%TD*%
D22*
%TO.C,C902*%
X60935002Y-61335000D03*
X59210000Y-61335000D03*
%TD*%
D14*
%TO.C,TP503*%
X47720000Y-91770000D03*
%TD*%
D23*
%TO.C,R901*%
X55800000Y-64905000D03*
X55800000Y-62905000D03*
%TD*%
D24*
%TO.C,F1101*%
X51830000Y-54085000D03*
X51830000Y-49810000D03*
%TD*%
D25*
%TO.C,C1001*%
X48438717Y-109698717D03*
X49241283Y-110501283D03*
%TD*%
D26*
%TO.C,C602*%
X57670000Y-124040834D03*
X57670000Y-125175834D03*
%TD*%
D16*
%TO.C,C801*%
X56289999Y-133400000D03*
X55154999Y-133400000D03*
%TD*%
D27*
%TO.C,C204*%
X82474996Y-126038747D03*
X83609996Y-126038747D03*
%TD*%
D28*
%TO.C,U902*%
X52120000Y-71295000D03*
X52120000Y-67695000D03*
%TD*%
D29*
%TO.C,R903*%
X62470002Y-71275000D03*
X63665002Y-71275000D03*
%TD*%
D30*
%TO.C,R1002*%
X47880000Y-112947500D03*
X47880000Y-111752500D03*
%TD*%
D11*
%TO.C,TP305*%
X45670000Y-136702499D03*
%TD*%
D22*
%TO.C,C901*%
X60935002Y-59365000D03*
X59210000Y-59365000D03*
%TD*%
D31*
%TO.C,J402*%
X79050000Y-46060000D03*
X76050000Y-46060000D03*
X73050000Y-46060000D03*
D32*
X70050000Y-46060000D03*
%TD*%
D33*
%TO.C,C601*%
X57670000Y-122838334D03*
X57670000Y-121703334D03*
%TD*%
D10*
%TO.C,TP604*%
X66420000Y-128246665D03*
%TD*%
D14*
%TO.C,TP504*%
X51670000Y-91770000D03*
%TD*%
D34*
%TO.C,C904*%
X55970000Y-66962499D03*
X55970000Y-68687501D03*
%TD*%
D14*
%TO.C,TP206*%
X76740000Y-53590000D03*
%TD*%
D35*
%TO.C,C402*%
X60420001Y-52175000D03*
X60420001Y-50100000D03*
%TD*%
D16*
%TO.C,C1002*%
X42397500Y-116069999D03*
X41262500Y-116069999D03*
%TD*%
%TO.C,C1003*%
X42397500Y-117370000D03*
X41262500Y-117370000D03*
%TD*%
D35*
%TO.C,C401*%
X63430000Y-52175000D03*
X63430000Y-50100000D03*
%TD*%
D27*
%TO.C,C201*%
X82474996Y-129552500D03*
X83609996Y-129552500D03*
%TD*%
D36*
%TO.C,J1001*%
X49630000Y-125050000D03*
X49630000Y-119970000D03*
X44550000Y-125050000D03*
X44550000Y-119970000D03*
X47090000Y-122510000D03*
%TD*%
D27*
%TO.C,C202*%
X82474999Y-128381250D03*
X83609999Y-128381250D03*
%TD*%
D13*
%TO.C,R801*%
X53132499Y-129362500D03*
X53132499Y-127537500D03*
%TD*%
D37*
%TO.C,C907*%
X54962500Y-79895000D03*
X51837500Y-79895000D03*
%TD*%
D19*
%TO.C,R201*%
X71120000Y-104397500D03*
X71120000Y-106222500D03*
%TD*%
D38*
%TO.C,U801*%
X55172500Y-128810000D03*
X57072500Y-128810000D03*
X57072500Y-131510000D03*
X56122500Y-131510000D03*
X55172500Y-131510000D03*
%TD*%
D39*
%TO.C,D901*%
X52160000Y-58792500D03*
X52160000Y-63792500D03*
%TD*%
D10*
%TO.C,TP302*%
X60130000Y-45060000D03*
%TD*%
D40*
%TO.C,R1101*%
X52772500Y-44490000D03*
X50947500Y-44490000D03*
%TD*%
D34*
%TO.C,C503*%
X68500000Y-96884997D03*
X68500000Y-98609999D03*
%TD*%
D11*
%TO.C,TP502*%
X67870000Y-104460000D03*
%TD*%
D41*
%TO.C,GPS501*%
X63710000Y-97509999D03*
X63709999Y-98609999D03*
X63710000Y-99709999D03*
X63709999Y-100809999D03*
X63710000Y-101909999D03*
X63710000Y-103009999D03*
X63710000Y-104109999D03*
X63710000Y-107109999D03*
X63709999Y-108209999D03*
X63710000Y-109309999D03*
X63709999Y-110409999D03*
X63710000Y-111509999D03*
X51510000Y-111509999D03*
X51510001Y-110409999D03*
X51510000Y-109309999D03*
X51510001Y-108209999D03*
X51510000Y-107109999D03*
X51510000Y-104109999D03*
X51510000Y-103009999D03*
X51510000Y-101909999D03*
X51510001Y-100809999D03*
X51510000Y-99709999D03*
X51510001Y-98609999D03*
X51510000Y-97509999D03*
%TD*%
D42*
%TO.C,U701*%
X67577500Y-91427499D03*
X65677500Y-91427499D03*
X65677500Y-88727499D03*
X66627500Y-88727499D03*
X67577500Y-88727499D03*
%TD*%
D43*
%TO.C,L1001*%
X41285181Y-121532680D03*
X42094819Y-122342318D03*
%TD*%
D44*
%TO.C,C403*%
X72487500Y-49510000D03*
X70412500Y-49510000D03*
%TD*%
D14*
%TO.C,TP505*%
X55620000Y-91770000D03*
%TD*%
%TO.C,TP205*%
X81330000Y-53590000D03*
%TD*%
D12*
%TO.C,D701*%
X71507501Y-88230000D03*
X71507501Y-90279998D03*
%TD*%
D45*
%TO.C,R102*%
X65647500Y-85092499D03*
X67472500Y-85092499D03*
%TD*%
D11*
%TO.C,TP501*%
X67870000Y-101310000D03*
%TD*%
D27*
%TO.C,C203*%
X82474996Y-127209998D03*
X83609996Y-127209998D03*
%TD*%
D10*
%TO.C,TP301*%
X60050000Y-39780000D03*
%TD*%
%TO.C,TP606*%
X66420000Y-121320000D03*
%TD*%
D27*
%TO.C,C701*%
X66600000Y-86877500D03*
X67735000Y-86877500D03*
%TD*%
D46*
%TO.C,Q1101*%
X55852500Y-51060000D03*
X58127500Y-50110001D03*
X58127500Y-52009999D03*
%TD*%
D37*
%TO.C,C909*%
X54962501Y-85065000D03*
X51837501Y-85065000D03*
%TD*%
D26*
%TO.C,C502*%
X66930000Y-97474999D03*
X66930000Y-98609999D03*
%TD*%
D33*
%TO.C,C1005*%
X47090000Y-116837500D03*
X47090000Y-115702500D03*
%TD*%
D10*
%TO.C,TP506*%
X70937500Y-92964999D03*
%TD*%
D26*
%TO.C,C501*%
X65750000Y-97474999D03*
X65750000Y-98609999D03*
%TD*%
D37*
%TO.C,C905*%
X54962500Y-74725001D03*
X51837500Y-74725001D03*
%TD*%
D14*
%TO.C,TP307*%
X46690000Y-42750000D03*
%TD*%
D47*
%TO.C,U901*%
X60520000Y-65800000D03*
X58970000Y-65800000D03*
X60520000Y-67005000D03*
X58970000Y-67005000D03*
D48*
X57840000Y-63622500D03*
X59110000Y-63622500D03*
X60380000Y-63622500D03*
X61650000Y-63622500D03*
X61650000Y-69182500D03*
X60380000Y-69182500D03*
X59110000Y-69182500D03*
X57840000Y-69182500D03*
%TD*%
D27*
%TO.C,C702*%
X66160000Y-93177499D03*
X67295000Y-93177499D03*
%TD*%
D11*
%TO.C,TP306*%
X101400000Y-57570000D03*
%TD*%
%TO.C,TP603*%
X60520000Y-117583334D03*
%TD*%
D37*
%TO.C,C908*%
X54962500Y-82480000D03*
X51837500Y-82480000D03*
%TD*%
D29*
%TO.C,R902*%
X59670001Y-71275000D03*
X60865001Y-71275000D03*
%TD*%
D10*
%TO.C,TP602*%
X60410000Y-128166666D03*
%TD*%
D16*
%TO.C,C1004*%
X48225000Y-114220000D03*
X47090000Y-114220000D03*
%TD*%
D44*
%TO.C,C404*%
X72487500Y-52520000D03*
X70412500Y-52520000D03*
%TD*%
D37*
%TO.C,C906*%
X54962500Y-77310001D03*
X51837500Y-77310001D03*
%TD*%
D31*
%TO.C,J401*%
X69980000Y-139420000D03*
X72980000Y-139420000D03*
X75980000Y-139420000D03*
D49*
X78980000Y-139420000D03*
%TD*%
D30*
%TO.C,R1001*%
X42240000Y-113837500D03*
X42240000Y-112642500D03*
%TD*%
D50*
%TO.C,MCU201*%
X81035000Y-123410000D03*
X101735000Y-123410000D03*
D51*
X75905000Y-65860000D03*
X107115000Y-65860000D03*
D52*
X82135000Y-124185000D03*
X82385000Y-116635000D03*
X82635000Y-124185000D03*
X82885000Y-116635000D03*
X83135000Y-124185000D03*
X83385000Y-116635000D03*
X83635000Y-124185000D03*
X83885000Y-116635000D03*
X84135000Y-124185000D03*
X86385000Y-116635000D03*
X86635000Y-124185000D03*
X86885000Y-116635000D03*
X87135000Y-124185000D03*
X87385000Y-116635000D03*
X87635000Y-124185000D03*
X87885000Y-116635000D03*
X88135000Y-124185000D03*
X88385000Y-116635000D03*
X88635000Y-124185000D03*
X88885000Y-116635000D03*
X89135000Y-124185000D03*
X89385000Y-116635000D03*
X89635000Y-124185000D03*
X89885000Y-116635000D03*
X90135000Y-124185000D03*
X90385000Y-116635000D03*
X90635000Y-124185000D03*
X90885000Y-116635000D03*
X91135000Y-124185000D03*
X91385000Y-116635000D03*
X91635000Y-124185000D03*
X91885000Y-116635000D03*
X92135000Y-124185000D03*
X92385000Y-116635000D03*
X92635000Y-124185000D03*
X92885000Y-116635000D03*
X93135000Y-124185000D03*
X93385000Y-116635000D03*
X93635000Y-124185000D03*
X93885000Y-116635000D03*
X94135000Y-124185000D03*
X94385000Y-116635000D03*
X94635000Y-124185000D03*
X94885000Y-116635000D03*
X95135000Y-124185000D03*
X95385000Y-116635000D03*
X95635000Y-124185000D03*
X95885000Y-116635000D03*
X96135000Y-124185000D03*
X96385000Y-116635000D03*
X96635000Y-124185000D03*
X96885000Y-116635000D03*
X97135000Y-124185000D03*
X97385000Y-116635000D03*
X97635000Y-124185000D03*
X97885000Y-116635000D03*
X98135000Y-124185000D03*
X98385000Y-116635000D03*
X98635000Y-124185000D03*
X98885000Y-116635000D03*
X99135000Y-124185000D03*
X99385000Y-116635000D03*
X99635000Y-124185000D03*
X99885000Y-116635000D03*
X100135000Y-124185000D03*
X100385000Y-116635000D03*
X100635000Y-124185000D03*
%TD*%
D53*
%TO.C,U601*%
X60607500Y-122028329D03*
X60107500Y-122028330D03*
X59607500Y-122028330D03*
X59107500Y-122028329D03*
D54*
X58945000Y-122690831D03*
X58945000Y-123190830D03*
X58945000Y-123690829D03*
D53*
X59107500Y-124353331D03*
X59607500Y-124353330D03*
X60107500Y-124353330D03*
X60607500Y-124353331D03*
D54*
X60770000Y-123690829D03*
X60770000Y-123190830D03*
X60770000Y-122690831D03*
%TD*%
M02*
