%TF.GenerationSoftware,KiCad,Pcbnew,9.0.7*%
%TF.CreationDate,2026-02-10T22:30:16-08:00*%
%TF.ProjectId,SMU V1,534d5520-5631-42e6-9b69-6361645f7063,rev?*%
%TF.SameCoordinates,Original*%
%TF.FileFunction,Copper,L2,Inr*%
%TF.FilePolarity,Positive*%
%FSLAX46Y46*%
G04 Gerber Fmt 4.6, Leading zero omitted, Abs format (unit mm)*
G04 Created by KiCad (PCBNEW 9.0.7) date 2026-02-10 22:30:16*
%MOMM*%
%LPD*%
G01*
G04 APERTURE LIST*
G04 Aperture macros list*
%AMRoundRect*
0 Rectangle with rounded corners*
0 $1 Rounding radius*
0 $2 $3 $4 $5 $6 $7 $8 $9 X,Y pos of 4 corners*
0 Add a 4 corners polygon primitive as box body*
4,1,4,$2,$3,$4,$5,$6,$7,$8,$9,$2,$3,0*
0 Add four circle primitives for the rounded corners*
1,1,$1+$1,$2,$3*
1,1,$1+$1,$4,$5*
1,1,$1+$1,$6,$7*
1,1,$1+$1,$8,$9*
0 Add four rect primitives between the rounded corners*
20,1,$1+$1,$2,$3,$4,$5,0*
20,1,$1+$1,$4,$5,$6,$7,0*
20,1,$1+$1,$6,$7,$8,$9,0*
20,1,$1+$1,$8,$9,$2,$3,0*%
G04 Aperture macros list end*
%TA.AperFunction,ComponentPad*%
%ADD10O,1.500000X2.020000*%
%TD*%
%TA.AperFunction,ComponentPad*%
%ADD11RoundRect,0.250001X-0.499999X-0.759999X0.499999X-0.759999X0.499999X0.759999X-0.499999X0.759999X0*%
%TD*%
%TA.AperFunction,ComponentPad*%
%ADD12C,2.400000*%
%TD*%
%TA.AperFunction,ComponentPad*%
%ADD13RoundRect,0.250001X0.499999X0.759999X-0.499999X0.759999X-0.499999X-0.759999X0.499999X-0.759999X0*%
%TD*%
%TA.AperFunction,ComponentPad*%
%ADD14C,5.600000*%
%TD*%
%TA.AperFunction,ViaPad*%
%ADD15C,0.600000*%
%TD*%
G04 APERTURE END LIST*
D10*
%TO.N,/CAN+*%
%TO.C,J402*%
X79050000Y-46060000D03*
%TO.N,/CAN-*%
X76050000Y-46060000D03*
%TO.N,GND*%
X73050000Y-46060000D03*
D11*
%TO.N,/Main IO/VBATT+*%
X70050000Y-46060000D03*
%TD*%
D12*
%TO.N,GND*%
%TO.C,J1001*%
X49630000Y-125050000D03*
X49630000Y-119970000D03*
X44550000Y-125050000D03*
X44550000Y-119970000D03*
%TO.N,/Antenna/ANT_OUT_RF*%
X47090000Y-122510000D03*
%TD*%
D10*
%TO.N,/CAN+*%
%TO.C,J401*%
X69980000Y-139420000D03*
%TO.N,/CAN-*%
X72980000Y-139420000D03*
%TO.N,GND*%
X75980000Y-139420000D03*
D13*
%TO.N,/Main IO/VBATT+*%
X78980000Y-139420000D03*
%TD*%
D14*
%TO.N,N/C*%
%TO.C,MCU201*%
X75905000Y-65860000D03*
X107115000Y-65860000D03*
%TD*%
D15*
%TO.N,GND*%
X89220000Y-133470000D03*
X50430000Y-137660000D03*
X45990000Y-115370000D03*
X95940000Y-49250000D03*
X56510000Y-77270000D03*
X109320000Y-131420000D03*
X109360000Y-112570000D03*
X53019165Y-134570000D03*
X105539435Y-106107580D03*
X91189956Y-67556741D03*
X68470000Y-95890000D03*
X53200000Y-109320000D03*
X46580000Y-112980000D03*
X60140000Y-87220000D03*
X54530000Y-138300000D03*
X100580000Y-46210000D03*
X53531498Y-88045798D03*
X52420000Y-142520000D03*
X56840000Y-124030000D03*
X63300000Y-120810000D03*
X86480000Y-42610000D03*
X61990000Y-130880000D03*
X91800000Y-109500000D03*
X81290000Y-129468664D03*
X103469112Y-40571153D03*
X82040000Y-134000000D03*
X87730000Y-145340000D03*
X66950000Y-96580000D03*
X70670000Y-84120000D03*
X89690000Y-81660000D03*
X74950000Y-117210000D03*
X89190000Y-76550000D03*
X49570000Y-41780000D03*
X44036569Y-86403818D03*
X92970000Y-120420000D03*
X62062656Y-136626994D03*
X77490000Y-127160000D03*
X90860000Y-127620000D03*
X103504808Y-128952521D03*
X65470000Y-79300000D03*
X73200000Y-54530000D03*
X62080000Y-59370000D03*
X89700000Y-135930000D03*
X49676414Y-88831093D03*
X64520000Y-123040000D03*
X74310000Y-129290000D03*
X56240000Y-85040000D03*
X70700000Y-56960000D03*
X98007744Y-136734080D03*
X73270000Y-55600000D03*
X65880000Y-56130000D03*
X71020000Y-54810000D03*
X46320000Y-145020000D03*
X65750000Y-96610000D03*
X59800000Y-120890000D03*
X49020000Y-111940000D03*
X56460000Y-82460000D03*
X69740000Y-70270000D03*
X91330000Y-51530000D03*
X69273090Y-113068148D03*
X45892721Y-130701587D03*
X108150000Y-145120000D03*
X102970000Y-71840000D03*
X108720000Y-57450000D03*
X55820000Y-42180000D03*
X57330000Y-66350000D03*
X69490000Y-123430000D03*
X48950000Y-113130000D03*
X98757343Y-83012772D03*
X67130000Y-63990000D03*
X45950000Y-116620000D03*
X85610000Y-138720000D03*
X43001408Y-107606779D03*
X62050000Y-61350000D03*
X70640000Y-119630000D03*
X107110025Y-51279720D03*
X56800000Y-122840000D03*
X91260000Y-129510000D03*
X57330000Y-65455000D03*
X87320000Y-126460000D03*
X109465910Y-123384067D03*
X51425480Y-95220537D03*
X67450000Y-40040000D03*
X47550000Y-108770000D03*
X47190000Y-110660000D03*
X109465910Y-139554002D03*
X81290000Y-128312443D03*
X45920000Y-114170000D03*
X99580000Y-103720000D03*
X43380000Y-116040000D03*
X72850000Y-121530000D03*
X63440000Y-53390000D03*
X73800000Y-52520000D03*
X62250000Y-67225000D03*
X107181415Y-46318084D03*
X92300000Y-73590000D03*
X54640000Y-95580000D03*
X66350000Y-144550000D03*
X94350000Y-129140000D03*
X45110000Y-111000000D03*
X60920000Y-58040000D03*
X45320000Y-140870000D03*
X48160000Y-116630000D03*
X73800000Y-49500000D03*
X96437154Y-143837429D03*
X59460000Y-141730000D03*
X49360000Y-114210000D03*
X76620000Y-132900000D03*
X53820000Y-102110000D03*
X49450000Y-108830000D03*
X45680000Y-117710000D03*
X57309165Y-127000001D03*
X56340000Y-74670000D03*
X58120000Y-52890000D03*
X49770000Y-111510000D03*
X105400000Y-98540000D03*
X105932083Y-78301002D03*
X54670000Y-116600000D03*
X48470000Y-117650000D03*
X60590000Y-121000000D03*
X85890000Y-130680000D03*
X46713711Y-64094304D03*
X62250000Y-65435000D03*
X72620000Y-136930000D03*
X79200000Y-120560000D03*
X44821864Y-69734149D03*
X97620000Y-74660000D03*
X96258678Y-55170499D03*
X46640000Y-111910000D03*
X67270000Y-133950000D03*
X81290000Y-127156221D03*
X93690000Y-88620000D03*
X88920000Y-131840000D03*
X65170000Y-93170000D03*
X72880000Y-90270000D03*
X48210000Y-115430000D03*
X55530000Y-146480000D03*
X81620000Y-132260000D03*
X67350000Y-59990000D03*
X96370000Y-69980000D03*
X71760000Y-126740000D03*
X52950000Y-111509999D03*
X65350000Y-86770000D03*
X94650000Y-41000000D03*
X81290000Y-126000000D03*
X61955570Y-83191248D03*
X103112160Y-90080425D03*
X85260000Y-132220000D03*
X75800000Y-124360000D03*
X66440000Y-119590000D03*
X84980000Y-102790000D03*
X102860000Y-142160000D03*
X104400000Y-135480000D03*
X56510000Y-79850000D03*
X56890000Y-110530000D03*
X60420000Y-53350000D03*
X92046642Y-60417696D03*
X57330000Y-67245000D03*
X64440000Y-71270000D03*
X88350000Y-128930000D03*
X44180000Y-100080000D03*
X43420000Y-117410000D03*
X70094081Y-58597240D03*
X96187287Y-96969603D03*
X62250000Y-66330000D03*
%TO.N,+5V*%
X50020000Y-79897500D03*
X50020000Y-85965000D03*
X50020000Y-76430357D03*
X84600000Y-129610000D03*
X50020000Y-79030714D03*
X50020000Y-80764286D03*
X50020000Y-84231429D03*
X84600000Y-128416667D03*
X50020000Y-77297143D03*
X50020000Y-74696786D03*
X65640000Y-83760000D03*
X50020000Y-73830000D03*
X50020000Y-83364643D03*
X84600000Y-126030000D03*
X50020000Y-78163929D03*
X55129165Y-134350000D03*
X84600000Y-127223333D03*
X50020000Y-75563571D03*
X50020000Y-85098214D03*
X50020000Y-81631071D03*
X50020000Y-82497857D03*
%TO.N,/Power/5V Buck/PPVAR_VBATT_PROT*%
X57160000Y-45010000D03*
X50920000Y-45640000D03*
X49330000Y-53740000D03*
%TO.N,/IMU_SPI.CS*%
X86480000Y-136860000D03*
X87660000Y-127810000D03*
%TO.N,/IMU_SPI.SCK*%
X90600000Y-135160000D03*
X89730000Y-127370000D03*
%TO.N,/GPS/GPS_1PPS*%
X53540000Y-98579999D03*
X74790000Y-100000000D03*
%TD*%
%TA.AperFunction,Conductor*%
%TO.N,GND*%
G36*
X107652152Y-36430593D02*
G01*
X108037853Y-36447434D01*
X108046432Y-36448184D01*
X108427053Y-36498295D01*
X108435544Y-36499792D01*
X108810338Y-36582881D01*
X108818673Y-36585115D01*
X109184797Y-36700553D01*
X109192913Y-36703507D01*
X109547587Y-36850418D01*
X109555398Y-36854060D01*
X109895910Y-37031320D01*
X109903390Y-37035638D01*
X110227167Y-37241906D01*
X110234241Y-37246860D01*
X110538797Y-37480554D01*
X110545398Y-37486093D01*
X110828459Y-37745470D01*
X110834529Y-37751540D01*
X111093905Y-38034599D01*
X111099445Y-38041202D01*
X111333139Y-38345758D01*
X111338093Y-38352832D01*
X111544361Y-38676609D01*
X111548679Y-38684089D01*
X111725935Y-39024593D01*
X111729585Y-39032420D01*
X111876492Y-39387086D01*
X111879446Y-39395202D01*
X111994884Y-39761326D01*
X111997119Y-39769668D01*
X112080205Y-40144445D01*
X112081705Y-40152951D01*
X112131813Y-40533554D01*
X112132566Y-40542158D01*
X112149406Y-40927847D01*
X112149500Y-40932165D01*
X112149500Y-144407834D01*
X112149406Y-144412152D01*
X112132566Y-144797841D01*
X112131813Y-144806445D01*
X112081705Y-145187048D01*
X112080205Y-145195554D01*
X111997119Y-145570331D01*
X111994884Y-145578673D01*
X111879446Y-145944797D01*
X111876492Y-145952913D01*
X111729585Y-146307579D01*
X111725935Y-146315406D01*
X111548679Y-146655910D01*
X111544361Y-146663390D01*
X111338093Y-146987167D01*
X111333139Y-146994241D01*
X111099445Y-147298797D01*
X111093895Y-147305411D01*
X110834540Y-147588447D01*
X110828447Y-147594540D01*
X110812727Y-147608946D01*
X110545413Y-147853894D01*
X110538797Y-147859445D01*
X110234241Y-148093139D01*
X110227167Y-148098093D01*
X109903390Y-148304361D01*
X109895910Y-148308679D01*
X109555406Y-148485935D01*
X109547579Y-148489585D01*
X109192913Y-148636492D01*
X109184797Y-148639446D01*
X108818673Y-148754884D01*
X108810331Y-148757119D01*
X108435554Y-148840205D01*
X108427048Y-148841705D01*
X108046445Y-148891813D01*
X108037841Y-148892566D01*
X107652153Y-148909406D01*
X107647835Y-148909500D01*
X44712165Y-148909500D01*
X44707847Y-148909406D01*
X44322158Y-148892566D01*
X44313554Y-148891813D01*
X43932951Y-148841705D01*
X43924445Y-148840205D01*
X43549668Y-148757119D01*
X43541326Y-148754884D01*
X43175202Y-148639446D01*
X43167086Y-148636492D01*
X42812420Y-148489585D01*
X42804593Y-148485935D01*
X42464089Y-148308679D01*
X42456609Y-148304361D01*
X42132832Y-148098093D01*
X42125758Y-148093139D01*
X41821202Y-147859445D01*
X41814599Y-147853905D01*
X41531540Y-147594529D01*
X41525470Y-147588459D01*
X41266093Y-147305398D01*
X41260554Y-147298797D01*
X41026860Y-146994241D01*
X41021906Y-146987167D01*
X40815638Y-146663390D01*
X40811320Y-146655910D01*
X40634064Y-146315406D01*
X40630414Y-146307579D01*
X40483507Y-145952913D01*
X40480553Y-145944797D01*
X40365115Y-145578673D01*
X40362880Y-145570331D01*
X40338542Y-145460548D01*
X40279792Y-145195544D01*
X40278294Y-145187048D01*
X40261426Y-145058921D01*
X40228184Y-144806432D01*
X40227434Y-144797853D01*
X40210594Y-144412152D01*
X40210500Y-144407834D01*
X40210500Y-143625265D01*
X70379500Y-143625265D01*
X70379500Y-143854734D01*
X70409452Y-144082238D01*
X70468841Y-144303885D01*
X70556653Y-144515883D01*
X70626869Y-144637502D01*
X70671389Y-144714612D01*
X70811081Y-144896661D01*
X70973339Y-145058919D01*
X71155388Y-145198611D01*
X71354112Y-145313344D01*
X71354113Y-145313344D01*
X71354116Y-145313346D01*
X71450167Y-145353131D01*
X71566113Y-145401158D01*
X71787762Y-145460548D01*
X72015266Y-145490500D01*
X72015267Y-145490500D01*
X72244733Y-145490500D01*
X72244734Y-145490500D01*
X72472238Y-145460548D01*
X72693887Y-145401158D01*
X72905888Y-145313344D01*
X73104612Y-145198611D01*
X73286661Y-145058919D01*
X73448919Y-144896661D01*
X73588611Y-144714612D01*
X73703344Y-144515888D01*
X73791158Y-144303887D01*
X73850548Y-144082238D01*
X73880500Y-143854734D01*
X73880500Y-143625266D01*
X73880500Y-143625265D01*
X75079500Y-143625265D01*
X75079500Y-143854734D01*
X75109452Y-144082238D01*
X75168841Y-144303885D01*
X75256653Y-144515883D01*
X75326869Y-144637502D01*
X75371389Y-144714612D01*
X75511081Y-144896661D01*
X75673339Y-145058919D01*
X75855388Y-145198611D01*
X76054112Y-145313344D01*
X76054113Y-145313344D01*
X76054116Y-145313346D01*
X76150167Y-145353131D01*
X76266113Y-145401158D01*
X76487762Y-145460548D01*
X76715266Y-145490500D01*
X76715267Y-145490500D01*
X76944733Y-145490500D01*
X76944734Y-145490500D01*
X77172238Y-145460548D01*
X77393887Y-145401158D01*
X77605888Y-145313344D01*
X77804612Y-145198611D01*
X77986661Y-145058919D01*
X78148919Y-144896661D01*
X78288611Y-144714612D01*
X78403344Y-144515888D01*
X78491158Y-144303887D01*
X78550548Y-144082238D01*
X78580500Y-143854734D01*
X78580500Y-143625266D01*
X78550548Y-143397762D01*
X78491158Y-143176113D01*
X78403344Y-142964112D01*
X78288611Y-142765388D01*
X78148919Y-142583339D01*
X77986661Y-142421081D01*
X77804612Y-142281389D01*
X77804613Y-142281389D01*
X77804611Y-142281388D01*
X77605883Y-142166653D01*
X77393885Y-142078841D01*
X77172238Y-142019452D01*
X76944734Y-141989500D01*
X76715266Y-141989500D01*
X76715265Y-141989500D01*
X76487761Y-142019452D01*
X76266114Y-142078841D01*
X76054116Y-142166653D01*
X75855388Y-142281388D01*
X75673342Y-142421078D01*
X75511078Y-142583342D01*
X75371388Y-142765388D01*
X75256653Y-142964116D01*
X75168841Y-143176114D01*
X75109452Y-143397761D01*
X75079500Y-143625265D01*
X73880500Y-143625265D01*
X73850548Y-143397762D01*
X73791158Y-143176113D01*
X73703344Y-142964112D01*
X73588611Y-142765388D01*
X73448919Y-142583339D01*
X73286661Y-142421081D01*
X73104612Y-142281389D01*
X73104613Y-142281389D01*
X73104611Y-142281388D01*
X72905883Y-142166653D01*
X72693885Y-142078841D01*
X72472238Y-142019452D01*
X72244734Y-141989500D01*
X72015266Y-141989500D01*
X72015265Y-141989500D01*
X71787761Y-142019452D01*
X71566114Y-142078841D01*
X71354116Y-142166653D01*
X71155388Y-142281388D01*
X70973342Y-142421078D01*
X70811078Y-142583342D01*
X70671388Y-142765388D01*
X70556653Y-142964116D01*
X70468841Y-143176114D01*
X70409452Y-143397761D01*
X70379500Y-143625265D01*
X40210500Y-143625265D01*
X40210500Y-139066381D01*
X69029500Y-139066381D01*
X69029500Y-139773618D01*
X69066026Y-139957249D01*
X69137677Y-140130229D01*
X69137681Y-140130238D01*
X69207191Y-140234265D01*
X69241698Y-140285908D01*
X69374092Y-140418302D01*
X69440463Y-140462649D01*
X69529761Y-140522318D01*
X69529767Y-140522320D01*
X69529769Y-140522322D01*
X69702749Y-140593973D01*
X69886384Y-140630500D01*
X69886385Y-140630500D01*
X70073615Y-140630500D01*
X70073616Y-140630500D01*
X70257251Y-140593973D01*
X70430231Y-140522322D01*
X70430234Y-140522319D01*
X70430238Y-140522318D01*
X70475187Y-140492282D01*
X70585908Y-140418302D01*
X70718302Y-140285908D01*
X70802547Y-140159826D01*
X70822318Y-140130238D01*
X70822319Y-140130234D01*
X70822322Y-140130231D01*
X70893973Y-139957251D01*
X70930500Y-139773616D01*
X70930500Y-139066384D01*
X70930499Y-139066381D01*
X72029500Y-139066381D01*
X72029500Y-139773618D01*
X72066026Y-139957249D01*
X72137677Y-140130229D01*
X72137681Y-140130238D01*
X72207191Y-140234265D01*
X72241698Y-140285908D01*
X72374092Y-140418302D01*
X72440463Y-140462649D01*
X72529761Y-140522318D01*
X72529767Y-140522320D01*
X72529769Y-140522322D01*
X72702749Y-140593973D01*
X72886384Y-140630500D01*
X72886385Y-140630500D01*
X73073615Y-140630500D01*
X73073616Y-140630500D01*
X73257251Y-140593973D01*
X73430231Y-140522322D01*
X73430234Y-140522319D01*
X73430238Y-140522318D01*
X73475187Y-140492282D01*
X73585908Y-140418302D01*
X73718302Y-140285908D01*
X73802547Y-140159826D01*
X73822318Y-140130238D01*
X73822319Y-140130234D01*
X73822322Y-140130231D01*
X73893973Y-139957251D01*
X73930500Y-139773616D01*
X73930500Y-139066384D01*
X73929552Y-139061619D01*
X74730000Y-139061619D01*
X74730000Y-139169999D01*
X74730001Y-139170000D01*
X75535440Y-139170000D01*
X75504755Y-139223147D01*
X75470000Y-139352857D01*
X75470000Y-139487143D01*
X75504755Y-139616853D01*
X75535440Y-139670000D01*
X74730001Y-139670000D01*
X74730000Y-139670001D01*
X74730000Y-139778380D01*
X74760778Y-139972710D01*
X74760779Y-139972714D01*
X74821576Y-140159826D01*
X74821578Y-140159829D01*
X74910903Y-140335142D01*
X74910907Y-140335148D01*
X75026549Y-140494314D01*
X75165685Y-140633450D01*
X75324851Y-140749092D01*
X75324857Y-140749096D01*
X75500166Y-140838419D01*
X75687295Y-140899222D01*
X75729999Y-140905985D01*
X75730000Y-140905984D01*
X75730000Y-139864560D01*
X75783147Y-139895245D01*
X75912857Y-139930000D01*
X76047143Y-139930000D01*
X76176853Y-139895245D01*
X76230000Y-139864560D01*
X76230000Y-140905985D01*
X76272704Y-140899222D01*
X76459833Y-140838419D01*
X76635142Y-140749096D01*
X76635148Y-140749092D01*
X76794314Y-140633450D01*
X76933450Y-140494314D01*
X77049092Y-140335148D01*
X77049096Y-140335142D01*
X77138421Y-140159829D01*
X77138423Y-140159826D01*
X77199220Y-139972714D01*
X77199221Y-139972710D01*
X77230000Y-139778380D01*
X77230000Y-139670001D01*
X77229999Y-139670000D01*
X76424560Y-139670000D01*
X76455245Y-139616853D01*
X76490000Y-139487143D01*
X76490000Y-139352857D01*
X76455245Y-139223147D01*
X76424560Y-139170000D01*
X77229999Y-139170000D01*
X77230000Y-139169999D01*
X77230000Y-139061619D01*
X77199221Y-138867289D01*
X77199220Y-138867285D01*
X77138423Y-138680173D01*
X77138421Y-138680170D01*
X77122216Y-138648365D01*
X77100491Y-138605726D01*
X78029500Y-138605726D01*
X78029500Y-140234265D01*
X78032353Y-140264694D01*
X78032353Y-140264696D01*
X78032354Y-140264698D01*
X78039776Y-140285908D01*
X78077208Y-140392885D01*
X78157845Y-140502144D01*
X78157847Y-140502146D01*
X78157850Y-140502150D01*
X78157853Y-140502152D01*
X78157855Y-140502154D01*
X78267114Y-140582791D01*
X78267116Y-140582791D01*
X78267118Y-140582793D01*
X78395302Y-140627646D01*
X78425735Y-140630500D01*
X79534264Y-140630499D01*
X79534265Y-140630499D01*
X79540350Y-140629928D01*
X79564698Y-140627646D01*
X79692882Y-140582793D01*
X79802150Y-140502150D01*
X79882793Y-140392882D01*
X79927646Y-140264698D01*
X79930500Y-140234265D01*
X79930499Y-138605736D01*
X79927646Y-138575302D01*
X79882793Y-138447118D01*
X79882791Y-138447116D01*
X79882791Y-138447114D01*
X79802154Y-138337855D01*
X79802152Y-138337853D01*
X79802150Y-138337850D01*
X79802146Y-138337847D01*
X79802144Y-138337845D01*
X79692885Y-138257208D01*
X79660928Y-138246026D01*
X79564698Y-138212354D01*
X79564696Y-138212353D01*
X79564694Y-138212353D01*
X79534272Y-138209500D01*
X78425734Y-138209500D01*
X78395305Y-138212353D01*
X78267114Y-138257208D01*
X78157855Y-138337845D01*
X78157845Y-138337855D01*
X78077208Y-138447114D01*
X78032353Y-138575305D01*
X78029500Y-138605726D01*
X77100491Y-138605726D01*
X77049096Y-138504857D01*
X77049092Y-138504851D01*
X76933450Y-138345685D01*
X76794314Y-138206549D01*
X76635148Y-138090907D01*
X76635142Y-138090903D01*
X76459833Y-138001580D01*
X76272706Y-137940779D01*
X76230000Y-137934014D01*
X76230000Y-138975439D01*
X76176853Y-138944755D01*
X76047143Y-138910000D01*
X75912857Y-138910000D01*
X75783147Y-138944755D01*
X75730000Y-138975439D01*
X75730000Y-137934014D01*
X75729999Y-137934014D01*
X75687293Y-137940779D01*
X75500166Y-138001580D01*
X75324857Y-138090903D01*
X75324851Y-138090907D01*
X75165685Y-138206549D01*
X75026549Y-138345685D01*
X74910907Y-138504851D01*
X74910903Y-138504857D01*
X74821578Y-138680170D01*
X74821576Y-138680173D01*
X74760779Y-138867285D01*
X74760778Y-138867289D01*
X74730000Y-139061619D01*
X73929552Y-139061619D01*
X73893973Y-138882749D01*
X73822322Y-138709769D01*
X73822320Y-138709767D01*
X73822318Y-138709761D01*
X73752808Y-138605734D01*
X73718302Y-138554092D01*
X73585908Y-138421698D01*
X73541559Y-138392065D01*
X73430238Y-138317681D01*
X73430229Y-138317677D01*
X73257249Y-138246026D01*
X73073618Y-138209500D01*
X73073616Y-138209500D01*
X72886384Y-138209500D01*
X72886381Y-138209500D01*
X72702750Y-138246026D01*
X72529770Y-138317677D01*
X72529761Y-138317681D01*
X72374092Y-138421698D01*
X72374088Y-138421701D01*
X72241701Y-138554088D01*
X72241698Y-138554092D01*
X72137681Y-138709761D01*
X72137677Y-138709770D01*
X72066026Y-138882750D01*
X72029500Y-139066381D01*
X70930499Y-139066381D01*
X70893973Y-138882749D01*
X70822322Y-138709769D01*
X70822320Y-138709767D01*
X70822318Y-138709761D01*
X70752808Y-138605734D01*
X70718302Y-138554092D01*
X70585908Y-138421698D01*
X70541559Y-138392065D01*
X70430238Y-138317681D01*
X70430229Y-138317677D01*
X70257249Y-138246026D01*
X70073618Y-138209500D01*
X70073616Y-138209500D01*
X69886384Y-138209500D01*
X69886381Y-138209500D01*
X69702750Y-138246026D01*
X69529770Y-138317677D01*
X69529761Y-138317681D01*
X69374092Y-138421698D01*
X69374088Y-138421701D01*
X69241701Y-138554088D01*
X69241698Y-138554092D01*
X69137681Y-138709761D01*
X69137677Y-138709770D01*
X69066026Y-138882750D01*
X69029500Y-139066381D01*
X40210500Y-139066381D01*
X40210500Y-136794108D01*
X85979500Y-136794108D01*
X85979500Y-136925892D01*
X86009579Y-137038151D01*
X86013609Y-137053190D01*
X86079496Y-137167309D01*
X86079498Y-137167311D01*
X86079500Y-137167314D01*
X86172686Y-137260500D01*
X86172688Y-137260501D01*
X86172690Y-137260503D01*
X86286810Y-137326390D01*
X86286808Y-137326390D01*
X86286812Y-137326391D01*
X86286814Y-137326392D01*
X86414108Y-137360500D01*
X86414110Y-137360500D01*
X86545890Y-137360500D01*
X86545892Y-137360500D01*
X86673186Y-137326392D01*
X86673188Y-137326390D01*
X86673190Y-137326390D01*
X86787309Y-137260503D01*
X86787309Y-137260502D01*
X86787314Y-137260500D01*
X86880500Y-137167314D01*
X86946392Y-137053186D01*
X86980500Y-136925892D01*
X86980500Y-136794108D01*
X86946392Y-136666814D01*
X86946390Y-136666811D01*
X86946390Y-136666809D01*
X86880503Y-136552690D01*
X86880501Y-136552688D01*
X86880500Y-136552686D01*
X86787314Y-136459500D01*
X86787311Y-136459498D01*
X86787309Y-136459496D01*
X86673189Y-136393609D01*
X86673191Y-136393609D01*
X86623799Y-136380375D01*
X86545892Y-136359500D01*
X86414108Y-136359500D01*
X86336200Y-136380375D01*
X86286809Y-136393609D01*
X86172690Y-136459496D01*
X86079496Y-136552690D01*
X86013609Y-136666809D01*
X86013608Y-136666814D01*
X85979500Y-136794108D01*
X40210500Y-136794108D01*
X40210500Y-135094108D01*
X90099500Y-135094108D01*
X90099500Y-135225892D01*
X90129579Y-135338151D01*
X90133609Y-135353190D01*
X90199496Y-135467309D01*
X90199498Y-135467311D01*
X90199500Y-135467314D01*
X90292686Y-135560500D01*
X90292688Y-135560501D01*
X90292690Y-135560503D01*
X90406810Y-135626390D01*
X90406808Y-135626390D01*
X90406812Y-135626391D01*
X90406814Y-135626392D01*
X90534108Y-135660500D01*
X90534110Y-135660500D01*
X90665890Y-135660500D01*
X90665892Y-135660500D01*
X90793186Y-135626392D01*
X90793188Y-135626390D01*
X90793190Y-135626390D01*
X90907309Y-135560503D01*
X90907309Y-135560502D01*
X90907314Y-135560500D01*
X91000500Y-135467314D01*
X91066392Y-135353186D01*
X91100500Y-135225892D01*
X91100500Y-135094108D01*
X91066392Y-134966814D01*
X91066390Y-134966811D01*
X91066390Y-134966809D01*
X91000503Y-134852690D01*
X91000501Y-134852688D01*
X91000500Y-134852686D01*
X90907314Y-134759500D01*
X90907311Y-134759498D01*
X90907309Y-134759496D01*
X90793189Y-134693609D01*
X90793191Y-134693609D01*
X90743799Y-134680375D01*
X90665892Y-134659500D01*
X90534108Y-134659500D01*
X90456200Y-134680375D01*
X90406809Y-134693609D01*
X90292690Y-134759496D01*
X90199496Y-134852690D01*
X90133609Y-134966809D01*
X90133608Y-134966814D01*
X90099500Y-135094108D01*
X40210500Y-135094108D01*
X40210500Y-134284108D01*
X54628665Y-134284108D01*
X54628665Y-134415892D01*
X54658744Y-134528151D01*
X54662774Y-134543190D01*
X54728661Y-134657309D01*
X54728663Y-134657311D01*
X54728665Y-134657314D01*
X54821851Y-134750500D01*
X54821853Y-134750501D01*
X54821855Y-134750503D01*
X54935975Y-134816390D01*
X54935973Y-134816390D01*
X54935977Y-134816391D01*
X54935979Y-134816392D01*
X55063273Y-134850500D01*
X55063275Y-134850500D01*
X55195055Y-134850500D01*
X55195057Y-134850500D01*
X55322351Y-134816392D01*
X55322353Y-134816390D01*
X55322355Y-134816390D01*
X55436474Y-134750503D01*
X55436474Y-134750502D01*
X55436479Y-134750500D01*
X55529665Y-134657314D01*
X55595557Y-134543186D01*
X55629665Y-134415892D01*
X55629665Y-134284108D01*
X55595557Y-134156814D01*
X55595555Y-134156811D01*
X55595555Y-134156809D01*
X55529668Y-134042690D01*
X55529666Y-134042688D01*
X55529665Y-134042686D01*
X55436479Y-133949500D01*
X55436476Y-133949498D01*
X55436474Y-133949496D01*
X55322354Y-133883609D01*
X55322356Y-133883609D01*
X55272964Y-133870375D01*
X55195057Y-133849500D01*
X55063273Y-133849500D01*
X54985365Y-133870375D01*
X54935974Y-133883609D01*
X54821855Y-133949496D01*
X54728661Y-134042690D01*
X54662774Y-134156809D01*
X54662773Y-134156814D01*
X54628665Y-134284108D01*
X40210500Y-134284108D01*
X40210500Y-129544108D01*
X84099500Y-129544108D01*
X84099500Y-129675892D01*
X84129579Y-129788151D01*
X84133609Y-129803190D01*
X84199496Y-129917309D01*
X84199498Y-129917311D01*
X84199500Y-129917314D01*
X84292686Y-130010500D01*
X84292688Y-130010501D01*
X84292690Y-130010503D01*
X84406810Y-130076390D01*
X84406808Y-130076390D01*
X84406812Y-130076391D01*
X84406814Y-130076392D01*
X84534108Y-130110500D01*
X84534110Y-130110500D01*
X84665890Y-130110500D01*
X84665892Y-130110500D01*
X84793186Y-130076392D01*
X84793188Y-130076390D01*
X84793190Y-130076390D01*
X84907309Y-130010503D01*
X84907309Y-130010502D01*
X84907314Y-130010500D01*
X85000500Y-129917314D01*
X85066392Y-129803186D01*
X85100500Y-129675892D01*
X85100500Y-129544108D01*
X85066392Y-129416814D01*
X85066390Y-129416811D01*
X85066390Y-129416809D01*
X85000503Y-129302690D01*
X85000501Y-129302688D01*
X85000500Y-129302686D01*
X84907314Y-129209500D01*
X84907311Y-129209498D01*
X84907309Y-129209496D01*
X84793189Y-129143609D01*
X84793191Y-129143609D01*
X84727948Y-129126127D01*
X84665892Y-129109500D01*
X84534108Y-129109500D01*
X84523535Y-129112333D01*
X84406809Y-129143609D01*
X84292690Y-129209496D01*
X84199496Y-129302690D01*
X84133609Y-129416809D01*
X84133608Y-129416814D01*
X84099500Y-129544108D01*
X40210500Y-129544108D01*
X40210500Y-128350775D01*
X84099500Y-128350775D01*
X84099500Y-128482559D01*
X84129579Y-128594818D01*
X84133609Y-128609857D01*
X84199496Y-128723976D01*
X84199498Y-128723978D01*
X84199500Y-128723981D01*
X84292686Y-128817167D01*
X84292688Y-128817168D01*
X84292690Y-128817170D01*
X84406810Y-128883057D01*
X84406808Y-128883057D01*
X84406812Y-128883058D01*
X84406814Y-128883059D01*
X84534108Y-128917167D01*
X84665892Y-128917167D01*
X84793186Y-128883059D01*
X84907314Y-128817167D01*
X85000500Y-128723981D01*
X85066392Y-128609853D01*
X85100500Y-128482559D01*
X85100500Y-128350775D01*
X85066392Y-128223481D01*
X85066390Y-128223478D01*
X85066390Y-128223476D01*
X85000503Y-128109357D01*
X85000501Y-128109355D01*
X85000500Y-128109353D01*
X84907314Y-128016167D01*
X84907311Y-128016165D01*
X84907309Y-128016163D01*
X84793189Y-127950276D01*
X84793191Y-127950276D01*
X84758517Y-127940985D01*
X84665892Y-127916167D01*
X84534108Y-127916167D01*
X84452090Y-127938143D01*
X84406809Y-127950276D01*
X84292690Y-128016163D01*
X84199496Y-128109357D01*
X84133609Y-128223476D01*
X84133608Y-128223481D01*
X84099500Y-128350775D01*
X40210500Y-128350775D01*
X40210500Y-127744108D01*
X87159500Y-127744108D01*
X87159500Y-127875892D01*
X87170292Y-127916167D01*
X87193609Y-128003190D01*
X87259496Y-128117309D01*
X87259498Y-128117311D01*
X87259500Y-128117314D01*
X87352686Y-128210500D01*
X87352688Y-128210501D01*
X87352690Y-128210503D01*
X87466810Y-128276390D01*
X87466808Y-128276390D01*
X87466812Y-128276391D01*
X87466814Y-128276392D01*
X87594108Y-128310500D01*
X87594110Y-128310500D01*
X87725890Y-128310500D01*
X87725892Y-128310500D01*
X87853186Y-128276392D01*
X87853188Y-128276390D01*
X87853190Y-128276390D01*
X87967309Y-128210503D01*
X87967309Y-128210502D01*
X87967314Y-128210500D01*
X88060500Y-128117314D01*
X88065096Y-128109353D01*
X88126390Y-128003190D01*
X88126390Y-128003188D01*
X88126392Y-128003186D01*
X88160500Y-127875892D01*
X88160500Y-127744108D01*
X88126392Y-127616814D01*
X88126390Y-127616811D01*
X88126390Y-127616809D01*
X88060503Y-127502690D01*
X88060501Y-127502688D01*
X88060500Y-127502686D01*
X87967314Y-127409500D01*
X87967311Y-127409498D01*
X87967309Y-127409496D01*
X87922031Y-127383355D01*
X87853189Y-127343609D01*
X87853191Y-127343609D01*
X87803799Y-127330375D01*
X87725892Y-127309500D01*
X87594108Y-127309500D01*
X87516200Y-127330375D01*
X87466809Y-127343609D01*
X87352690Y-127409496D01*
X87259496Y-127502690D01*
X87193609Y-127616809D01*
X87184209Y-127651891D01*
X87159500Y-127744108D01*
X40210500Y-127744108D01*
X40210500Y-127157441D01*
X84099500Y-127157441D01*
X84099500Y-127289225D01*
X84104933Y-127309500D01*
X84133609Y-127416523D01*
X84199496Y-127530642D01*
X84199498Y-127530644D01*
X84199500Y-127530647D01*
X84292686Y-127623833D01*
X84292688Y-127623834D01*
X84292690Y-127623836D01*
X84406810Y-127689723D01*
X84406808Y-127689723D01*
X84406812Y-127689724D01*
X84406814Y-127689725D01*
X84534108Y-127723833D01*
X84665892Y-127723833D01*
X84793186Y-127689725D01*
X84793188Y-127689723D01*
X84793190Y-127689723D01*
X84858717Y-127651891D01*
X84858723Y-127651886D01*
X84907314Y-127623833D01*
X85000500Y-127530647D01*
X85066392Y-127416519D01*
X85096512Y-127304108D01*
X89229500Y-127304108D01*
X89229500Y-127435892D01*
X89254888Y-127530642D01*
X89263609Y-127563190D01*
X89329496Y-127677309D01*
X89329498Y-127677311D01*
X89329500Y-127677314D01*
X89422686Y-127770500D01*
X89422688Y-127770501D01*
X89422690Y-127770503D01*
X89536810Y-127836390D01*
X89536808Y-127836390D01*
X89536812Y-127836391D01*
X89536814Y-127836392D01*
X89664108Y-127870500D01*
X89664110Y-127870500D01*
X89795890Y-127870500D01*
X89795892Y-127870500D01*
X89923186Y-127836392D01*
X89923188Y-127836390D01*
X89923190Y-127836390D01*
X90037309Y-127770503D01*
X90037309Y-127770502D01*
X90037314Y-127770500D01*
X90130500Y-127677314D01*
X90161376Y-127623836D01*
X90196390Y-127563190D01*
X90196390Y-127563188D01*
X90196392Y-127563186D01*
X90230500Y-127435892D01*
X90230500Y-127304108D01*
X90196392Y-127176814D01*
X90196390Y-127176811D01*
X90196390Y-127176809D01*
X90130503Y-127062690D01*
X90130501Y-127062688D01*
X90130500Y-127062686D01*
X90037314Y-126969500D01*
X90037311Y-126969498D01*
X90037309Y-126969496D01*
X89923189Y-126903609D01*
X89923191Y-126903609D01*
X89873799Y-126890375D01*
X89795892Y-126869500D01*
X89664108Y-126869500D01*
X89586200Y-126890375D01*
X89536809Y-126903609D01*
X89422690Y-126969496D01*
X89329496Y-127062690D01*
X89263609Y-127176809D01*
X89263608Y-127176814D01*
X89229500Y-127304108D01*
X85096512Y-127304108D01*
X85100500Y-127289225D01*
X85100500Y-127157441D01*
X85066392Y-127030147D01*
X85066390Y-127030144D01*
X85066390Y-127030142D01*
X85000503Y-126916023D01*
X85000501Y-126916021D01*
X85000500Y-126916019D01*
X84907314Y-126822833D01*
X84907311Y-126822831D01*
X84907309Y-126822829D01*
X84793189Y-126756942D01*
X84793191Y-126756942D01*
X84727948Y-126739460D01*
X84665892Y-126722833D01*
X84534108Y-126722833D01*
X84523535Y-126725666D01*
X84406809Y-126756942D01*
X84292690Y-126822829D01*
X84199496Y-126916023D01*
X84133609Y-127030142D01*
X84133608Y-127030147D01*
X84099500Y-127157441D01*
X40210500Y-127157441D01*
X40210500Y-124938574D01*
X42850000Y-124938574D01*
X42850000Y-125161425D01*
X42879087Y-125382365D01*
X42936763Y-125597619D01*
X43022042Y-125803499D01*
X43133473Y-125996504D01*
X43184041Y-126062404D01*
X43834152Y-125412292D01*
X43841049Y-125428942D01*
X43928599Y-125559970D01*
X44040030Y-125671401D01*
X44171058Y-125758951D01*
X44187705Y-125765846D01*
X43537594Y-126415957D01*
X43603498Y-126466528D01*
X43603503Y-126466531D01*
X43796500Y-126577957D01*
X44002380Y-126663236D01*
X44217634Y-126720912D01*
X44438574Y-126749999D01*
X44438577Y-126750000D01*
X44661423Y-126750000D01*
X44661425Y-126749999D01*
X44882365Y-126720912D01*
X45097619Y-126663236D01*
X45303499Y-126577957D01*
X45496496Y-126466531D01*
X45496500Y-126466528D01*
X45562403Y-126415957D01*
X44912293Y-125765847D01*
X44928942Y-125758951D01*
X45059970Y-125671401D01*
X45171401Y-125559970D01*
X45258951Y-125428942D01*
X45265847Y-125412293D01*
X45915957Y-126062403D01*
X45966528Y-125996500D01*
X45966531Y-125996496D01*
X46077957Y-125803499D01*
X46163236Y-125597619D01*
X46220912Y-125382365D01*
X46249999Y-125161425D01*
X46250000Y-125161423D01*
X46250000Y-124938577D01*
X46249999Y-124938574D01*
X47930000Y-124938574D01*
X47930000Y-125161425D01*
X47959087Y-125382365D01*
X48016763Y-125597619D01*
X48102042Y-125803499D01*
X48213473Y-125996504D01*
X48264041Y-126062404D01*
X48914152Y-125412292D01*
X48921049Y-125428942D01*
X49008599Y-125559970D01*
X49120030Y-125671401D01*
X49251058Y-125758951D01*
X49267705Y-125765846D01*
X48617594Y-126415957D01*
X48683498Y-126466528D01*
X48683503Y-126466531D01*
X48876500Y-126577957D01*
X49082380Y-126663236D01*
X49297634Y-126720912D01*
X49518574Y-126749999D01*
X49518577Y-126750000D01*
X49741423Y-126750000D01*
X49741425Y-126749999D01*
X49962365Y-126720912D01*
X50177619Y-126663236D01*
X50383499Y-126577957D01*
X50576496Y-126466531D01*
X50576500Y-126466528D01*
X50642403Y-126415957D01*
X49992293Y-125765847D01*
X50008942Y-125758951D01*
X50139970Y-125671401D01*
X50251401Y-125559970D01*
X50338951Y-125428942D01*
X50345847Y-125412293D01*
X50995957Y-126062403D01*
X51046528Y-125996500D01*
X51046531Y-125996496D01*
X51065230Y-125964108D01*
X84099500Y-125964108D01*
X84099500Y-126095892D01*
X84129579Y-126208151D01*
X84133609Y-126223190D01*
X84199496Y-126337309D01*
X84199498Y-126337311D01*
X84199500Y-126337314D01*
X84292686Y-126430500D01*
X84292688Y-126430501D01*
X84292690Y-126430503D01*
X84406810Y-126496390D01*
X84406808Y-126496390D01*
X84406812Y-126496391D01*
X84406814Y-126496392D01*
X84534108Y-126530500D01*
X84665892Y-126530500D01*
X84793186Y-126496392D01*
X84907314Y-126430500D01*
X85000500Y-126337314D01*
X85066392Y-126223186D01*
X85100500Y-126095892D01*
X85100500Y-125964108D01*
X85066392Y-125836814D01*
X85066390Y-125836811D01*
X85066390Y-125836809D01*
X85000503Y-125722690D01*
X85000501Y-125722688D01*
X85000500Y-125722686D01*
X84907314Y-125629500D01*
X84907311Y-125629498D01*
X84907309Y-125629496D01*
X84793189Y-125563609D01*
X84793191Y-125563609D01*
X84743799Y-125550375D01*
X84665892Y-125529500D01*
X84534108Y-125529500D01*
X84456200Y-125550375D01*
X84406809Y-125563609D01*
X84292690Y-125629496D01*
X84199496Y-125722690D01*
X84133609Y-125836809D01*
X84133608Y-125836814D01*
X84099500Y-125964108D01*
X51065230Y-125964108D01*
X51097556Y-125908119D01*
X51097557Y-125908117D01*
X51157955Y-125803502D01*
X51243236Y-125597619D01*
X51300912Y-125382365D01*
X51329999Y-125161425D01*
X51330000Y-125161423D01*
X51330000Y-124938577D01*
X51329999Y-124938574D01*
X51300912Y-124717634D01*
X51243236Y-124502380D01*
X51157957Y-124296500D01*
X51046531Y-124103503D01*
X51046528Y-124103498D01*
X50995957Y-124037594D01*
X50345846Y-124687705D01*
X50338951Y-124671058D01*
X50251401Y-124540030D01*
X50139970Y-124428599D01*
X50008942Y-124341049D01*
X49992292Y-124334152D01*
X50642404Y-123684041D01*
X50576504Y-123633473D01*
X50383499Y-123522042D01*
X50177619Y-123436763D01*
X49962365Y-123379087D01*
X49741425Y-123350000D01*
X49518574Y-123350000D01*
X49297634Y-123379087D01*
X49082380Y-123436763D01*
X48876500Y-123522042D01*
X48683504Y-123633467D01*
X48617595Y-123684041D01*
X49267707Y-124334152D01*
X49251058Y-124341049D01*
X49120030Y-124428599D01*
X49008599Y-124540030D01*
X48921049Y-124671058D01*
X48914152Y-124687707D01*
X48264041Y-124037595D01*
X48213467Y-124103504D01*
X48102042Y-124296500D01*
X48016763Y-124502380D01*
X47959087Y-124717634D01*
X47930000Y-124938574D01*
X46249999Y-124938574D01*
X46220912Y-124717634D01*
X46163236Y-124502380D01*
X46077957Y-124296500D01*
X45966531Y-124103503D01*
X45966528Y-124103498D01*
X45915957Y-124037594D01*
X45265846Y-124687705D01*
X45258951Y-124671058D01*
X45171401Y-124540030D01*
X45059970Y-124428599D01*
X44928942Y-124341049D01*
X44912292Y-124334152D01*
X45562404Y-123684041D01*
X45496504Y-123633473D01*
X45303499Y-123522042D01*
X45097619Y-123436763D01*
X44882365Y-123379087D01*
X44661425Y-123350000D01*
X44438574Y-123350000D01*
X44217634Y-123379087D01*
X44002380Y-123436763D01*
X43796500Y-123522042D01*
X43603504Y-123633467D01*
X43537595Y-123684041D01*
X44187707Y-124334152D01*
X44171058Y-124341049D01*
X44040030Y-124428599D01*
X43928599Y-124540030D01*
X43841049Y-124671058D01*
X43834152Y-124687707D01*
X43184041Y-124037595D01*
X43133467Y-124103504D01*
X43022042Y-124296500D01*
X42936763Y-124502380D01*
X42879087Y-124717634D01*
X42850000Y-124938574D01*
X40210500Y-124938574D01*
X40210500Y-122399774D01*
X45689500Y-122399774D01*
X45689500Y-122620225D01*
X45723984Y-122837948D01*
X45792102Y-123047599D01*
X45792104Y-123047602D01*
X45792105Y-123047606D01*
X45892185Y-123244022D01*
X46021758Y-123422365D01*
X46177635Y-123578242D01*
X46355978Y-123707815D01*
X46552394Y-123807895D01*
X46762049Y-123876015D01*
X46849140Y-123889809D01*
X46979775Y-123910500D01*
X46979778Y-123910500D01*
X47200225Y-123910500D01*
X47309086Y-123893257D01*
X47417951Y-123876015D01*
X47627606Y-123807895D01*
X47824022Y-123707815D01*
X48002365Y-123578242D01*
X48158242Y-123422365D01*
X48287815Y-123244022D01*
X48387895Y-123047606D01*
X48456015Y-122837951D01*
X48490500Y-122620222D01*
X48490500Y-122399778D01*
X48490500Y-122399774D01*
X48456015Y-122182051D01*
X48456015Y-122182049D01*
X48387895Y-121972394D01*
X48287815Y-121775978D01*
X48158242Y-121597635D01*
X48002365Y-121441758D01*
X47824022Y-121312185D01*
X47824021Y-121312184D01*
X47824019Y-121312183D01*
X47734825Y-121266736D01*
X47627606Y-121212105D01*
X47627602Y-121212104D01*
X47627599Y-121212102D01*
X47417948Y-121143984D01*
X47200225Y-121109500D01*
X47200222Y-121109500D01*
X46979778Y-121109500D01*
X46979775Y-121109500D01*
X46762051Y-121143984D01*
X46552400Y-121212102D01*
X46355980Y-121312183D01*
X46323258Y-121335957D01*
X46177635Y-121441758D01*
X46021758Y-121597635D01*
X45990316Y-121640912D01*
X45892183Y-121775980D01*
X45792102Y-121972400D01*
X45723984Y-122182051D01*
X45689500Y-122399774D01*
X40210500Y-122399774D01*
X40210500Y-119858574D01*
X42850000Y-119858574D01*
X42850000Y-120081425D01*
X42879087Y-120302365D01*
X42936763Y-120517619D01*
X43022042Y-120723499D01*
X43133473Y-120916504D01*
X43184041Y-120982404D01*
X43834152Y-120332292D01*
X43841049Y-120348942D01*
X43928599Y-120479970D01*
X44040030Y-120591401D01*
X44171058Y-120678951D01*
X44187705Y-120685846D01*
X43537594Y-121335957D01*
X43603498Y-121386528D01*
X43603503Y-121386531D01*
X43796500Y-121497957D01*
X44002380Y-121583236D01*
X44217634Y-121640912D01*
X44438574Y-121669999D01*
X44438577Y-121670000D01*
X44661423Y-121670000D01*
X44661425Y-121669999D01*
X44882365Y-121640912D01*
X45097619Y-121583236D01*
X45303499Y-121497957D01*
X45496496Y-121386531D01*
X45496500Y-121386528D01*
X45562403Y-121335957D01*
X44912293Y-120685847D01*
X44928942Y-120678951D01*
X45059970Y-120591401D01*
X45171401Y-120479970D01*
X45258951Y-120348942D01*
X45265847Y-120332293D01*
X45915957Y-120982403D01*
X45966528Y-120916500D01*
X45966531Y-120916496D01*
X46077957Y-120723499D01*
X46163236Y-120517619D01*
X46220912Y-120302365D01*
X46249999Y-120081425D01*
X46250000Y-120081423D01*
X46250000Y-119858577D01*
X46249999Y-119858574D01*
X47930000Y-119858574D01*
X47930000Y-120081425D01*
X47959087Y-120302365D01*
X48016763Y-120517619D01*
X48102042Y-120723499D01*
X48213473Y-120916504D01*
X48264041Y-120982404D01*
X48914152Y-120332292D01*
X48921049Y-120348942D01*
X49008599Y-120479970D01*
X49120030Y-120591401D01*
X49251058Y-120678951D01*
X49267705Y-120685846D01*
X48617594Y-121335957D01*
X48683498Y-121386528D01*
X48683503Y-121386531D01*
X48876500Y-121497957D01*
X49082380Y-121583236D01*
X49297634Y-121640912D01*
X49518574Y-121669999D01*
X49518577Y-121670000D01*
X49741423Y-121670000D01*
X49741425Y-121669999D01*
X49962365Y-121640912D01*
X50177619Y-121583236D01*
X50383499Y-121497957D01*
X50576496Y-121386531D01*
X50576500Y-121386528D01*
X50642403Y-121335957D01*
X49992293Y-120685847D01*
X50008942Y-120678951D01*
X50139970Y-120591401D01*
X50251401Y-120479970D01*
X50338951Y-120348942D01*
X50345847Y-120332293D01*
X50995957Y-120982403D01*
X51046528Y-120916500D01*
X51046531Y-120916496D01*
X51157957Y-120723499D01*
X51243236Y-120517619D01*
X51300912Y-120302365D01*
X51329999Y-120081425D01*
X51330000Y-120081423D01*
X51330000Y-119858577D01*
X51329999Y-119858574D01*
X51300912Y-119637634D01*
X51243236Y-119422380D01*
X51157957Y-119216500D01*
X51046531Y-119023503D01*
X51046528Y-119023498D01*
X50995957Y-118957594D01*
X50345846Y-119607705D01*
X50338951Y-119591058D01*
X50251401Y-119460030D01*
X50139970Y-119348599D01*
X50008942Y-119261049D01*
X49992292Y-119254152D01*
X50439914Y-118806532D01*
X80334500Y-118806532D01*
X80334500Y-119013467D01*
X80374869Y-119216418D01*
X80454058Y-119407597D01*
X80537040Y-119531789D01*
X80569023Y-119579655D01*
X80715345Y-119725977D01*
X80887402Y-119840941D01*
X81078580Y-119920130D01*
X81281535Y-119960500D01*
X81281536Y-119960500D01*
X81488464Y-119960500D01*
X81488465Y-119960500D01*
X81691420Y-119920130D01*
X81882598Y-119840941D01*
X82054655Y-119725977D01*
X82200977Y-119579655D01*
X82315941Y-119407598D01*
X82395130Y-119216420D01*
X82435500Y-119013465D01*
X82435500Y-118831155D01*
X100584500Y-118831155D01*
X100584500Y-118988844D01*
X100615263Y-119143496D01*
X100615263Y-119143498D01*
X100675603Y-119289174D01*
X100675609Y-119289185D01*
X100715309Y-119348599D01*
X100763211Y-119420289D01*
X100874711Y-119531789D01*
X100952876Y-119584017D01*
X101005814Y-119619390D01*
X101005825Y-119619396D01*
X101059638Y-119641685D01*
X101151503Y-119679737D01*
X101306158Y-119710500D01*
X101306159Y-119710500D01*
X101463841Y-119710500D01*
X101463842Y-119710500D01*
X101618497Y-119679737D01*
X101764179Y-119619394D01*
X101895289Y-119531789D01*
X102006789Y-119420289D01*
X102094394Y-119289179D01*
X102154737Y-119143497D01*
X102185500Y-118988842D01*
X102185500Y-118831158D01*
X102154737Y-118676503D01*
X102134622Y-118627942D01*
X102094396Y-118530825D01*
X102094390Y-118530814D01*
X102059017Y-118477876D01*
X102006789Y-118399711D01*
X101895289Y-118288211D01*
X101823653Y-118240345D01*
X101764185Y-118200609D01*
X101764174Y-118200603D01*
X101618497Y-118140263D01*
X101463844Y-118109500D01*
X101463842Y-118109500D01*
X101306158Y-118109500D01*
X101306155Y-118109500D01*
X101151503Y-118140263D01*
X101151501Y-118140263D01*
X101005825Y-118200603D01*
X101005814Y-118200609D01*
X100874711Y-118288211D01*
X100874707Y-118288214D01*
X100763214Y-118399707D01*
X100763211Y-118399711D01*
X100675609Y-118530814D01*
X100675603Y-118530825D01*
X100615263Y-118676501D01*
X100615263Y-118676503D01*
X100584500Y-118831155D01*
X82435500Y-118831155D01*
X82435500Y-118806535D01*
X82395130Y-118603580D01*
X82315941Y-118412402D01*
X82200977Y-118240345D01*
X82054655Y-118094023D01*
X81882598Y-117979059D01*
X81882599Y-117979059D01*
X81882597Y-117979058D01*
X81691418Y-117899869D01*
X81488467Y-117859500D01*
X81488465Y-117859500D01*
X81281535Y-117859500D01*
X81281532Y-117859500D01*
X81078581Y-117899869D01*
X80887402Y-117979058D01*
X80715348Y-118094020D01*
X80569020Y-118240348D01*
X80454058Y-118412402D01*
X80374869Y-118603581D01*
X80334500Y-118806532D01*
X50439914Y-118806532D01*
X50514779Y-118731667D01*
X50642404Y-118604041D01*
X50576504Y-118553473D01*
X50383499Y-118442042D01*
X50177619Y-118356763D01*
X49962365Y-118299087D01*
X49741425Y-118270000D01*
X49518574Y-118270000D01*
X49297634Y-118299087D01*
X49082380Y-118356763D01*
X48876500Y-118442042D01*
X48683504Y-118553467D01*
X48617595Y-118604041D01*
X49267707Y-119254152D01*
X49251058Y-119261049D01*
X49120030Y-119348599D01*
X49008599Y-119460030D01*
X48921049Y-119591058D01*
X48914152Y-119607707D01*
X48264041Y-118957595D01*
X48213467Y-119023504D01*
X48102042Y-119216500D01*
X48016763Y-119422380D01*
X47959087Y-119637634D01*
X47930000Y-119858574D01*
X46249999Y-119858574D01*
X46220912Y-119637634D01*
X46163236Y-119422380D01*
X46077957Y-119216500D01*
X45966531Y-119023503D01*
X45966528Y-119023498D01*
X45915957Y-118957594D01*
X45265846Y-119607705D01*
X45258951Y-119591058D01*
X45171401Y-119460030D01*
X45059970Y-119348599D01*
X44928942Y-119261049D01*
X44912292Y-119254152D01*
X45562404Y-118604041D01*
X45496504Y-118553473D01*
X45303499Y-118442042D01*
X45097619Y-118356763D01*
X44882365Y-118299087D01*
X44661425Y-118270000D01*
X44438574Y-118270000D01*
X44217634Y-118299087D01*
X44002380Y-118356763D01*
X43796500Y-118442042D01*
X43603504Y-118553467D01*
X43537595Y-118604041D01*
X44187707Y-119254152D01*
X44171058Y-119261049D01*
X44040030Y-119348599D01*
X43928599Y-119460030D01*
X43841049Y-119591058D01*
X43834152Y-119607707D01*
X43184041Y-118957595D01*
X43133467Y-119023504D01*
X43022042Y-119216500D01*
X42936763Y-119422380D01*
X42879087Y-119637634D01*
X42850000Y-119858574D01*
X40210500Y-119858574D01*
X40210500Y-99934108D01*
X74289500Y-99934108D01*
X74289500Y-100065892D01*
X74319579Y-100178151D01*
X74323609Y-100193190D01*
X74389496Y-100307309D01*
X74389498Y-100307311D01*
X74389500Y-100307314D01*
X74482686Y-100400500D01*
X74482688Y-100400501D01*
X74482690Y-100400503D01*
X74596810Y-100466390D01*
X74596808Y-100466390D01*
X74596812Y-100466391D01*
X74596814Y-100466392D01*
X74724108Y-100500500D01*
X74724110Y-100500500D01*
X74855890Y-100500500D01*
X74855892Y-100500500D01*
X74983186Y-100466392D01*
X74983188Y-100466390D01*
X74983190Y-100466390D01*
X75097309Y-100400503D01*
X75097309Y-100400502D01*
X75097314Y-100400500D01*
X75190500Y-100307314D01*
X75256392Y-100193186D01*
X75290500Y-100065892D01*
X75290500Y-99934108D01*
X75256392Y-99806814D01*
X75256390Y-99806811D01*
X75256390Y-99806809D01*
X75190503Y-99692690D01*
X75190501Y-99692688D01*
X75190500Y-99692686D01*
X75097314Y-99599500D01*
X75097311Y-99599498D01*
X75097309Y-99599496D01*
X74983189Y-99533609D01*
X74983191Y-99533609D01*
X74933799Y-99520375D01*
X74855892Y-99499500D01*
X74724108Y-99499500D01*
X74646200Y-99520375D01*
X74596809Y-99533609D01*
X74482690Y-99599496D01*
X74389496Y-99692690D01*
X74323609Y-99806809D01*
X74323608Y-99806814D01*
X74289500Y-99934108D01*
X40210500Y-99934108D01*
X40210500Y-98514107D01*
X53039500Y-98514107D01*
X53039500Y-98645891D01*
X53069579Y-98758150D01*
X53073609Y-98773189D01*
X53139496Y-98887308D01*
X53139498Y-98887310D01*
X53139500Y-98887313D01*
X53232686Y-98980499D01*
X53232688Y-98980500D01*
X53232690Y-98980502D01*
X53346810Y-99046389D01*
X53346808Y-99046389D01*
X53346812Y-99046390D01*
X53346814Y-99046391D01*
X53474108Y-99080499D01*
X53474110Y-99080499D01*
X53605890Y-99080499D01*
X53605892Y-99080499D01*
X53733186Y-99046391D01*
X53733188Y-99046389D01*
X53733190Y-99046389D01*
X53847309Y-98980502D01*
X53847309Y-98980501D01*
X53847314Y-98980499D01*
X53940500Y-98887313D01*
X54006392Y-98773185D01*
X54040500Y-98645891D01*
X54040500Y-98514107D01*
X54006392Y-98386813D01*
X54006390Y-98386810D01*
X54006390Y-98386808D01*
X53940503Y-98272689D01*
X53940501Y-98272687D01*
X53940500Y-98272685D01*
X53847314Y-98179499D01*
X53847311Y-98179497D01*
X53847309Y-98179495D01*
X53733189Y-98113608D01*
X53733191Y-98113608D01*
X53683799Y-98100374D01*
X53605892Y-98079499D01*
X53474108Y-98079499D01*
X53396200Y-98100374D01*
X53346809Y-98113608D01*
X53232690Y-98179495D01*
X53139496Y-98272689D01*
X53073609Y-98386808D01*
X53073608Y-98386813D01*
X53039500Y-98514107D01*
X40210500Y-98514107D01*
X40210500Y-73764108D01*
X49519500Y-73764108D01*
X49519500Y-73895892D01*
X49549579Y-74008151D01*
X49553609Y-74023190D01*
X49619496Y-74137309D01*
X49619498Y-74137311D01*
X49619500Y-74137314D01*
X49675577Y-74193391D01*
X49703353Y-74247906D01*
X49693782Y-74308338D01*
X49675578Y-74333393D01*
X49619500Y-74389472D01*
X49619497Y-74389475D01*
X49619496Y-74389476D01*
X49553609Y-74503595D01*
X49553608Y-74503600D01*
X49519500Y-74630894D01*
X49519500Y-74762678D01*
X49549579Y-74874937D01*
X49553609Y-74889976D01*
X49619496Y-75004095D01*
X49619498Y-75004097D01*
X49619500Y-75004100D01*
X49675576Y-75060176D01*
X49703352Y-75114691D01*
X49693781Y-75175123D01*
X49675575Y-75200181D01*
X49619500Y-75256256D01*
X49619496Y-75256261D01*
X49553609Y-75370380D01*
X49553608Y-75370385D01*
X49519500Y-75497679D01*
X49519500Y-75629463D01*
X49549579Y-75741722D01*
X49553609Y-75756761D01*
X49619496Y-75870880D01*
X49619498Y-75870882D01*
X49619500Y-75870885D01*
X49675577Y-75926962D01*
X49703353Y-75981477D01*
X49693782Y-76041909D01*
X49675578Y-76066964D01*
X49619500Y-76123043D01*
X49619497Y-76123046D01*
X49619496Y-76123047D01*
X49553609Y-76237166D01*
X49553608Y-76237171D01*
X49519500Y-76364465D01*
X49519500Y-76496249D01*
X49549579Y-76608508D01*
X49553609Y-76623547D01*
X49619496Y-76737666D01*
X49619498Y-76737668D01*
X49619500Y-76737671D01*
X49675577Y-76793748D01*
X49703353Y-76848263D01*
X49693782Y-76908695D01*
X49675578Y-76933750D01*
X49619500Y-76989829D01*
X49619497Y-76989832D01*
X49619496Y-76989833D01*
X49553609Y-77103952D01*
X49553608Y-77103957D01*
X49519500Y-77231251D01*
X49519500Y-77363035D01*
X49549579Y-77475294D01*
X49553609Y-77490333D01*
X49619496Y-77604452D01*
X49619498Y-77604454D01*
X49619500Y-77604457D01*
X49675577Y-77660534D01*
X49703353Y-77715049D01*
X49693782Y-77775481D01*
X49675578Y-77800536D01*
X49619500Y-77856615D01*
X49619497Y-77856618D01*
X49619496Y-77856619D01*
X49553609Y-77970738D01*
X49553608Y-77970743D01*
X49519500Y-78098037D01*
X49519500Y-78229821D01*
X49549579Y-78342080D01*
X49553609Y-78357119D01*
X49619496Y-78471238D01*
X49619498Y-78471240D01*
X49619500Y-78471243D01*
X49675576Y-78527319D01*
X49703352Y-78581834D01*
X49693781Y-78642266D01*
X49675575Y-78667324D01*
X49619500Y-78723399D01*
X49619496Y-78723404D01*
X49553609Y-78837523D01*
X49553608Y-78837528D01*
X49519500Y-78964822D01*
X49519500Y-79096606D01*
X49549579Y-79208865D01*
X49553609Y-79223904D01*
X49619496Y-79338023D01*
X49619498Y-79338025D01*
X49619500Y-79338028D01*
X49675577Y-79394105D01*
X49703353Y-79448620D01*
X49693782Y-79509052D01*
X49675578Y-79534107D01*
X49619500Y-79590186D01*
X49619497Y-79590189D01*
X49619496Y-79590190D01*
X49553609Y-79704309D01*
X49553608Y-79704314D01*
X49519500Y-79831608D01*
X49519500Y-79963392D01*
X49549579Y-80075651D01*
X49553609Y-80090690D01*
X49619496Y-80204809D01*
X49619498Y-80204811D01*
X49619500Y-80204814D01*
X49675577Y-80260891D01*
X49703353Y-80315406D01*
X49693782Y-80375838D01*
X49675578Y-80400893D01*
X49619500Y-80456972D01*
X49619497Y-80456975D01*
X49619496Y-80456976D01*
X49553609Y-80571095D01*
X49553608Y-80571100D01*
X49519500Y-80698394D01*
X49519500Y-80830178D01*
X49549579Y-80942437D01*
X49553609Y-80957476D01*
X49619496Y-81071595D01*
X49619498Y-81071597D01*
X49619500Y-81071600D01*
X49675576Y-81127676D01*
X49703352Y-81182191D01*
X49693781Y-81242623D01*
X49675575Y-81267681D01*
X49619500Y-81323756D01*
X49619496Y-81323761D01*
X49553609Y-81437880D01*
X49553608Y-81437885D01*
X49519500Y-81565179D01*
X49519500Y-81696963D01*
X49549579Y-81809222D01*
X49553609Y-81824261D01*
X49619496Y-81938380D01*
X49619498Y-81938382D01*
X49619500Y-81938385D01*
X49675577Y-81994462D01*
X49703353Y-82048977D01*
X49693782Y-82109409D01*
X49675578Y-82134464D01*
X49619500Y-82190543D01*
X49619497Y-82190546D01*
X49619496Y-82190547D01*
X49553609Y-82304666D01*
X49553608Y-82304671D01*
X49519500Y-82431965D01*
X49519500Y-82563749D01*
X49549579Y-82676008D01*
X49553609Y-82691047D01*
X49619496Y-82805166D01*
X49619498Y-82805168D01*
X49619500Y-82805171D01*
X49675577Y-82861248D01*
X49703353Y-82915763D01*
X49693782Y-82976195D01*
X49675578Y-83001250D01*
X49619500Y-83057329D01*
X49619497Y-83057332D01*
X49619496Y-83057333D01*
X49553609Y-83171452D01*
X49553608Y-83171457D01*
X49519500Y-83298751D01*
X49519500Y-83430535D01*
X49549579Y-83542794D01*
X49553609Y-83557833D01*
X49619496Y-83671952D01*
X49619498Y-83671954D01*
X49619500Y-83671957D01*
X49675577Y-83728034D01*
X49703353Y-83782549D01*
X49693782Y-83842981D01*
X49675578Y-83868036D01*
X49619500Y-83924115D01*
X49619497Y-83924118D01*
X49619496Y-83924119D01*
X49553609Y-84038238D01*
X49534539Y-84109407D01*
X49519500Y-84165537D01*
X49519500Y-84297321D01*
X49549579Y-84409580D01*
X49553609Y-84424619D01*
X49619496Y-84538738D01*
X49619498Y-84538740D01*
X49619500Y-84538743D01*
X49675576Y-84594819D01*
X49703352Y-84649334D01*
X49693781Y-84709766D01*
X49675575Y-84734824D01*
X49619500Y-84790899D01*
X49619496Y-84790904D01*
X49553609Y-84905023D01*
X49553608Y-84905028D01*
X49519500Y-85032322D01*
X49519500Y-85164106D01*
X49549579Y-85276365D01*
X49553609Y-85291404D01*
X49619496Y-85405523D01*
X49619498Y-85405525D01*
X49619500Y-85405528D01*
X49675577Y-85461605D01*
X49703353Y-85516120D01*
X49693782Y-85576552D01*
X49675578Y-85601607D01*
X49619500Y-85657686D01*
X49619497Y-85657689D01*
X49619496Y-85657690D01*
X49553609Y-85771809D01*
X49553608Y-85771814D01*
X49519500Y-85899108D01*
X49519500Y-86030892D01*
X49549579Y-86143151D01*
X49553609Y-86158190D01*
X49619496Y-86272309D01*
X49619498Y-86272311D01*
X49619500Y-86272314D01*
X49712686Y-86365500D01*
X49712688Y-86365501D01*
X49712690Y-86365503D01*
X49826810Y-86431390D01*
X49826808Y-86431390D01*
X49826812Y-86431391D01*
X49826814Y-86431392D01*
X49954108Y-86465500D01*
X49954110Y-86465500D01*
X50085890Y-86465500D01*
X50085892Y-86465500D01*
X50213186Y-86431392D01*
X50213188Y-86431390D01*
X50213190Y-86431390D01*
X50327309Y-86365503D01*
X50327309Y-86365502D01*
X50327314Y-86365500D01*
X50420500Y-86272314D01*
X50486392Y-86158186D01*
X50520500Y-86030892D01*
X50520500Y-85899108D01*
X50486392Y-85771814D01*
X50486390Y-85771811D01*
X50486390Y-85771809D01*
X50420503Y-85657690D01*
X50420501Y-85657688D01*
X50420500Y-85657686D01*
X50364422Y-85601608D01*
X50336647Y-85547094D01*
X50346218Y-85486662D01*
X50364421Y-85461606D01*
X50420500Y-85405528D01*
X50486392Y-85291400D01*
X50520500Y-85164106D01*
X50520500Y-85032322D01*
X50486392Y-84905028D01*
X50486390Y-84905025D01*
X50486390Y-84905023D01*
X50420503Y-84790904D01*
X50420501Y-84790902D01*
X50420500Y-84790900D01*
X50364422Y-84734822D01*
X50336647Y-84680308D01*
X50346218Y-84619876D01*
X50364422Y-84594820D01*
X50420500Y-84538743D01*
X50486392Y-84424615D01*
X50520500Y-84297321D01*
X50520500Y-84165537D01*
X50486392Y-84038243D01*
X50486390Y-84038240D01*
X50486390Y-84038238D01*
X50420503Y-83924119D01*
X50420501Y-83924117D01*
X50420500Y-83924115D01*
X50364422Y-83868037D01*
X50359386Y-83858153D01*
X50350840Y-83851083D01*
X50345816Y-83831520D01*
X50336647Y-83813523D01*
X50338382Y-83802566D01*
X50335623Y-83791820D01*
X50342494Y-83776600D01*
X50346218Y-83753091D01*
X50358147Y-83734931D01*
X50361121Y-83731335D01*
X50398349Y-83694108D01*
X65139500Y-83694108D01*
X65139500Y-83825892D01*
X65165819Y-83924115D01*
X65173609Y-83953190D01*
X65239496Y-84067309D01*
X65239498Y-84067311D01*
X65239500Y-84067314D01*
X65332686Y-84160500D01*
X65332688Y-84160501D01*
X65332690Y-84160503D01*
X65446810Y-84226390D01*
X65446808Y-84226390D01*
X65446812Y-84226391D01*
X65446814Y-84226392D01*
X65574108Y-84260500D01*
X65574110Y-84260500D01*
X65705890Y-84260500D01*
X65705892Y-84260500D01*
X65833186Y-84226392D01*
X65833188Y-84226390D01*
X65833190Y-84226390D01*
X65947309Y-84160503D01*
X65947309Y-84160502D01*
X65947314Y-84160500D01*
X66040500Y-84067314D01*
X66106392Y-83953186D01*
X66140500Y-83825892D01*
X66140500Y-83694108D01*
X66106392Y-83566814D01*
X66106390Y-83566811D01*
X66106390Y-83566809D01*
X66040503Y-83452690D01*
X66040501Y-83452688D01*
X66040500Y-83452686D01*
X65947314Y-83359500D01*
X65947311Y-83359498D01*
X65947309Y-83359496D01*
X65833189Y-83293609D01*
X65833191Y-83293609D01*
X65783799Y-83280375D01*
X65705892Y-83259500D01*
X65574108Y-83259500D01*
X65496200Y-83280375D01*
X65446809Y-83293609D01*
X65332690Y-83359496D01*
X65239496Y-83452690D01*
X65173609Y-83566809D01*
X65173608Y-83566814D01*
X65139500Y-83694108D01*
X50398349Y-83694108D01*
X50420500Y-83671957D01*
X50453945Y-83614028D01*
X50486390Y-83557833D01*
X50486390Y-83557831D01*
X50486392Y-83557829D01*
X50520500Y-83430535D01*
X50520500Y-83298751D01*
X50486392Y-83171457D01*
X50486390Y-83171454D01*
X50486390Y-83171452D01*
X50420503Y-83057333D01*
X50420501Y-83057331D01*
X50420500Y-83057329D01*
X50364422Y-83001251D01*
X50336647Y-82946737D01*
X50346218Y-82886305D01*
X50364421Y-82861249D01*
X50420500Y-82805171D01*
X50486392Y-82691043D01*
X50520500Y-82563749D01*
X50520500Y-82431965D01*
X50486392Y-82304671D01*
X50486390Y-82304668D01*
X50486390Y-82304666D01*
X50420503Y-82190547D01*
X50420501Y-82190545D01*
X50420500Y-82190543D01*
X50364422Y-82134465D01*
X50336647Y-82079951D01*
X50346218Y-82019519D01*
X50364421Y-81994463D01*
X50420500Y-81938385D01*
X50486392Y-81824257D01*
X50520500Y-81696963D01*
X50520500Y-81565179D01*
X50486392Y-81437885D01*
X50486390Y-81437882D01*
X50486390Y-81437880D01*
X50420503Y-81323761D01*
X50420501Y-81323759D01*
X50420500Y-81323757D01*
X50364422Y-81267679D01*
X50336647Y-81213165D01*
X50346218Y-81152733D01*
X50364422Y-81127677D01*
X50420500Y-81071600D01*
X50486392Y-80957472D01*
X50520500Y-80830178D01*
X50520500Y-80698394D01*
X50486392Y-80571100D01*
X50486390Y-80571097D01*
X50486390Y-80571095D01*
X50420503Y-80456976D01*
X50420501Y-80456974D01*
X50420500Y-80456972D01*
X50364422Y-80400894D01*
X50336647Y-80346380D01*
X50346218Y-80285948D01*
X50364421Y-80260892D01*
X50420500Y-80204814D01*
X50486392Y-80090686D01*
X50520500Y-79963392D01*
X50520500Y-79831608D01*
X50486392Y-79704314D01*
X50486390Y-79704311D01*
X50486390Y-79704309D01*
X50420503Y-79590190D01*
X50420501Y-79590188D01*
X50420500Y-79590186D01*
X50364422Y-79534108D01*
X50336647Y-79479594D01*
X50346218Y-79419162D01*
X50364421Y-79394106D01*
X50420500Y-79338028D01*
X50486392Y-79223900D01*
X50520500Y-79096606D01*
X50520500Y-78964822D01*
X50486392Y-78837528D01*
X50486390Y-78837525D01*
X50486390Y-78837523D01*
X50420503Y-78723404D01*
X50420501Y-78723402D01*
X50420500Y-78723400D01*
X50364422Y-78667322D01*
X50336647Y-78612808D01*
X50346218Y-78552376D01*
X50364422Y-78527320D01*
X50420500Y-78471243D01*
X50486392Y-78357115D01*
X50520500Y-78229821D01*
X50520500Y-78098037D01*
X50486392Y-77970743D01*
X50486390Y-77970740D01*
X50486390Y-77970738D01*
X50420503Y-77856619D01*
X50420501Y-77856617D01*
X50420500Y-77856615D01*
X50364422Y-77800537D01*
X50336647Y-77746023D01*
X50346218Y-77685591D01*
X50364421Y-77660535D01*
X50420500Y-77604457D01*
X50486392Y-77490329D01*
X50520500Y-77363035D01*
X50520500Y-77231251D01*
X50486392Y-77103957D01*
X50486390Y-77103954D01*
X50486390Y-77103952D01*
X50420503Y-76989833D01*
X50420501Y-76989831D01*
X50420500Y-76989829D01*
X50364422Y-76933751D01*
X50336647Y-76879237D01*
X50346218Y-76818805D01*
X50364421Y-76793749D01*
X50420500Y-76737671D01*
X50486392Y-76623543D01*
X50520500Y-76496249D01*
X50520500Y-76364465D01*
X50486392Y-76237171D01*
X50486390Y-76237168D01*
X50486390Y-76237166D01*
X50420503Y-76123047D01*
X50420501Y-76123045D01*
X50420500Y-76123043D01*
X50364422Y-76066965D01*
X50336647Y-76012451D01*
X50346218Y-75952019D01*
X50364421Y-75926963D01*
X50420500Y-75870885D01*
X50486392Y-75756757D01*
X50520500Y-75629463D01*
X50520500Y-75497679D01*
X50486392Y-75370385D01*
X50486390Y-75370382D01*
X50486390Y-75370380D01*
X50420503Y-75256261D01*
X50420501Y-75256259D01*
X50420500Y-75256257D01*
X50364422Y-75200179D01*
X50336647Y-75145665D01*
X50346218Y-75085233D01*
X50364422Y-75060177D01*
X50420500Y-75004100D01*
X50486392Y-74889972D01*
X50520500Y-74762678D01*
X50520500Y-74630894D01*
X50486392Y-74503600D01*
X50486390Y-74503597D01*
X50486390Y-74503595D01*
X50420503Y-74389476D01*
X50420501Y-74389474D01*
X50420500Y-74389472D01*
X50364422Y-74333394D01*
X50336647Y-74278880D01*
X50346218Y-74218448D01*
X50364421Y-74193392D01*
X50420500Y-74137314D01*
X50486392Y-74023186D01*
X50520500Y-73895892D01*
X50520500Y-73764108D01*
X50486392Y-73636814D01*
X50486390Y-73636811D01*
X50486390Y-73636809D01*
X50420503Y-73522690D01*
X50420501Y-73522688D01*
X50420500Y-73522686D01*
X50327314Y-73429500D01*
X50327311Y-73429498D01*
X50327309Y-73429496D01*
X50213189Y-73363609D01*
X50213191Y-73363609D01*
X50163799Y-73350375D01*
X50085892Y-73329500D01*
X49954108Y-73329500D01*
X49876200Y-73350375D01*
X49826809Y-73363609D01*
X49712690Y-73429496D01*
X49619496Y-73522690D01*
X49553609Y-73636809D01*
X49553608Y-73636814D01*
X49519500Y-73764108D01*
X40210500Y-73764108D01*
X40210500Y-65691494D01*
X72904500Y-65691494D01*
X72904500Y-66028505D01*
X72942232Y-66363392D01*
X73017224Y-66691957D01*
X73128530Y-67010049D01*
X73128531Y-67010051D01*
X73274746Y-67313671D01*
X73274752Y-67313683D01*
X73454056Y-67599042D01*
X73454058Y-67599045D01*
X73664165Y-67862512D01*
X73664171Y-67862518D01*
X73664175Y-67862523D01*
X73902477Y-68100825D01*
X73902481Y-68100828D01*
X73902487Y-68100834D01*
X74165954Y-68310941D01*
X74165958Y-68310943D01*
X74165961Y-68310946D01*
X74451314Y-68490246D01*
X74451316Y-68490247D01*
X74451328Y-68490253D01*
X74552205Y-68538832D01*
X74754949Y-68636469D01*
X74903440Y-68688428D01*
X75073042Y-68747775D01*
X75073045Y-68747775D01*
X75073046Y-68747776D01*
X75401606Y-68822767D01*
X75736496Y-68860500D01*
X75736497Y-68860500D01*
X76073503Y-68860500D01*
X76073504Y-68860500D01*
X76408394Y-68822767D01*
X76736954Y-68747776D01*
X77055051Y-68636469D01*
X77358686Y-68490246D01*
X77644039Y-68310946D01*
X77907523Y-68100825D01*
X78145825Y-67862523D01*
X78355946Y-67599039D01*
X78535246Y-67313686D01*
X78681469Y-67010051D01*
X78792776Y-66691954D01*
X78867767Y-66363394D01*
X78905500Y-66028504D01*
X78905500Y-65691496D01*
X78905500Y-65691494D01*
X104114500Y-65691494D01*
X104114500Y-66028505D01*
X104152232Y-66363392D01*
X104227224Y-66691957D01*
X104338530Y-67010049D01*
X104338531Y-67010051D01*
X104484746Y-67313671D01*
X104484752Y-67313683D01*
X104664056Y-67599042D01*
X104664058Y-67599045D01*
X104874165Y-67862512D01*
X104874171Y-67862518D01*
X104874175Y-67862523D01*
X105112477Y-68100825D01*
X105112481Y-68100828D01*
X105112487Y-68100834D01*
X105375954Y-68310941D01*
X105375958Y-68310943D01*
X105375961Y-68310946D01*
X105661314Y-68490246D01*
X105661316Y-68490247D01*
X105661328Y-68490253D01*
X105762205Y-68538832D01*
X105964949Y-68636469D01*
X106113440Y-68688428D01*
X106283042Y-68747775D01*
X106283045Y-68747775D01*
X106283046Y-68747776D01*
X106611606Y-68822767D01*
X106946496Y-68860500D01*
X106946497Y-68860500D01*
X107283503Y-68860500D01*
X107283504Y-68860500D01*
X107618394Y-68822767D01*
X107946954Y-68747776D01*
X108265051Y-68636469D01*
X108568686Y-68490246D01*
X108854039Y-68310946D01*
X109117523Y-68100825D01*
X109355825Y-67862523D01*
X109565946Y-67599039D01*
X109745246Y-67313686D01*
X109891469Y-67010051D01*
X110002776Y-66691954D01*
X110077767Y-66363394D01*
X110115500Y-66028504D01*
X110115500Y-65691496D01*
X110077767Y-65356606D01*
X110002776Y-65028046D01*
X109891469Y-64709949D01*
X109745246Y-64406314D01*
X109565946Y-64120961D01*
X109565943Y-64120957D01*
X109565941Y-64120954D01*
X109355834Y-63857487D01*
X109355828Y-63857481D01*
X109355825Y-63857477D01*
X109117523Y-63619175D01*
X109117518Y-63619171D01*
X109117512Y-63619165D01*
X108854045Y-63409058D01*
X108854042Y-63409056D01*
X108568683Y-63229752D01*
X108568671Y-63229746D01*
X108265051Y-63083531D01*
X108265049Y-63083530D01*
X107946957Y-62972224D01*
X107618392Y-62897232D01*
X107283505Y-62859500D01*
X107283504Y-62859500D01*
X106946496Y-62859500D01*
X106946494Y-62859500D01*
X106611607Y-62897232D01*
X106283042Y-62972224D01*
X105964950Y-63083530D01*
X105964948Y-63083531D01*
X105661328Y-63229746D01*
X105661316Y-63229752D01*
X105375957Y-63409056D01*
X105375954Y-63409058D01*
X105112487Y-63619165D01*
X104874165Y-63857487D01*
X104664058Y-64120954D01*
X104664056Y-64120957D01*
X104484752Y-64406316D01*
X104484746Y-64406328D01*
X104338531Y-64709948D01*
X104338530Y-64709950D01*
X104227224Y-65028042D01*
X104152232Y-65356607D01*
X104114500Y-65691494D01*
X78905500Y-65691494D01*
X78867767Y-65356606D01*
X78792776Y-65028046D01*
X78681469Y-64709949D01*
X78535246Y-64406314D01*
X78355946Y-64120961D01*
X78355943Y-64120957D01*
X78355941Y-64120954D01*
X78145834Y-63857487D01*
X78145828Y-63857481D01*
X78145825Y-63857477D01*
X77907523Y-63619175D01*
X77907518Y-63619171D01*
X77907512Y-63619165D01*
X77644045Y-63409058D01*
X77644042Y-63409056D01*
X77358683Y-63229752D01*
X77358671Y-63229746D01*
X77055051Y-63083531D01*
X77055049Y-63083530D01*
X76736957Y-62972224D01*
X76408392Y-62897232D01*
X76073505Y-62859500D01*
X76073504Y-62859500D01*
X75736496Y-62859500D01*
X75736494Y-62859500D01*
X75401607Y-62897232D01*
X75073042Y-62972224D01*
X74754950Y-63083530D01*
X74754948Y-63083531D01*
X74451328Y-63229746D01*
X74451316Y-63229752D01*
X74165957Y-63409056D01*
X74165954Y-63409058D01*
X73902487Y-63619165D01*
X73664165Y-63857487D01*
X73454058Y-64120954D01*
X73454056Y-64120957D01*
X73274752Y-64406316D01*
X73274746Y-64406328D01*
X73128531Y-64709948D01*
X73128530Y-64709950D01*
X73017224Y-65028042D01*
X72942232Y-65356607D01*
X72904500Y-65691494D01*
X40210500Y-65691494D01*
X40210500Y-53674108D01*
X48829500Y-53674108D01*
X48829500Y-53805892D01*
X48859579Y-53918151D01*
X48863609Y-53933190D01*
X48929496Y-54047309D01*
X48929498Y-54047311D01*
X48929500Y-54047314D01*
X49022686Y-54140500D01*
X49022688Y-54140501D01*
X49022690Y-54140503D01*
X49136810Y-54206390D01*
X49136808Y-54206390D01*
X49136812Y-54206391D01*
X49136814Y-54206392D01*
X49264108Y-54240500D01*
X49264110Y-54240500D01*
X49395890Y-54240500D01*
X49395892Y-54240500D01*
X49523186Y-54206392D01*
X49523188Y-54206390D01*
X49523190Y-54206390D01*
X49637309Y-54140503D01*
X49637309Y-54140502D01*
X49637314Y-54140500D01*
X49730500Y-54047314D01*
X49796392Y-53933186D01*
X49830500Y-53805892D01*
X49830500Y-53674108D01*
X49796392Y-53546814D01*
X49796390Y-53546811D01*
X49796390Y-53546809D01*
X49730503Y-53432690D01*
X49730501Y-53432688D01*
X49730500Y-53432686D01*
X49637314Y-53339500D01*
X49637311Y-53339498D01*
X49637309Y-53339496D01*
X49523189Y-53273609D01*
X49523191Y-53273609D01*
X49473799Y-53260375D01*
X49395892Y-53239500D01*
X49264108Y-53239500D01*
X49186200Y-53260375D01*
X49136809Y-53273609D01*
X49022690Y-53339496D01*
X48929496Y-53432690D01*
X48863609Y-53546809D01*
X48863608Y-53546814D01*
X48829500Y-53674108D01*
X40210500Y-53674108D01*
X40210500Y-45574108D01*
X50419500Y-45574108D01*
X50419500Y-45705892D01*
X50447395Y-45809999D01*
X50453609Y-45833190D01*
X50519496Y-45947309D01*
X50519498Y-45947311D01*
X50519500Y-45947314D01*
X50612686Y-46040500D01*
X50612688Y-46040501D01*
X50612690Y-46040503D01*
X50726810Y-46106390D01*
X50726808Y-46106390D01*
X50726812Y-46106391D01*
X50726814Y-46106392D01*
X50854108Y-46140500D01*
X50854110Y-46140500D01*
X50985890Y-46140500D01*
X50985892Y-46140500D01*
X51113186Y-46106392D01*
X51113188Y-46106390D01*
X51113190Y-46106390D01*
X51227309Y-46040503D01*
X51227309Y-46040502D01*
X51227314Y-46040500D01*
X51320500Y-45947314D01*
X51386392Y-45833186D01*
X51420500Y-45705892D01*
X51420500Y-45574108D01*
X51386392Y-45446814D01*
X51386390Y-45446811D01*
X51386390Y-45446809D01*
X51320503Y-45332690D01*
X51320501Y-45332688D01*
X51320500Y-45332686D01*
X51227314Y-45239500D01*
X51227311Y-45239498D01*
X51227309Y-45239496D01*
X51113189Y-45173609D01*
X51113191Y-45173609D01*
X51063799Y-45160375D01*
X50985892Y-45139500D01*
X50854108Y-45139500D01*
X50776200Y-45160375D01*
X50726809Y-45173609D01*
X50612690Y-45239496D01*
X50519496Y-45332690D01*
X50453609Y-45446809D01*
X50437405Y-45507285D01*
X50419500Y-45574108D01*
X40210500Y-45574108D01*
X40210500Y-44944108D01*
X56659500Y-44944108D01*
X56659500Y-45075892D01*
X56677979Y-45144857D01*
X56693609Y-45203190D01*
X56759496Y-45317309D01*
X56759498Y-45317311D01*
X56759500Y-45317314D01*
X56852686Y-45410500D01*
X56852688Y-45410501D01*
X56852690Y-45410503D01*
X56966810Y-45476390D01*
X56966808Y-45476390D01*
X56966812Y-45476391D01*
X56966814Y-45476392D01*
X57094108Y-45510500D01*
X57094110Y-45510500D01*
X57225890Y-45510500D01*
X57225892Y-45510500D01*
X57353186Y-45476392D01*
X57353188Y-45476390D01*
X57353190Y-45476390D01*
X57467309Y-45410503D01*
X57467309Y-45410502D01*
X57467314Y-45410500D01*
X57560500Y-45317314D01*
X57601827Y-45245734D01*
X57601832Y-45245726D01*
X69099500Y-45245726D01*
X69099500Y-46874265D01*
X69102353Y-46904694D01*
X69102353Y-46904696D01*
X69102354Y-46904698D01*
X69109776Y-46925908D01*
X69147208Y-47032885D01*
X69227845Y-47142144D01*
X69227847Y-47142146D01*
X69227850Y-47142150D01*
X69227853Y-47142152D01*
X69227855Y-47142154D01*
X69337114Y-47222791D01*
X69337116Y-47222791D01*
X69337118Y-47222793D01*
X69465302Y-47267646D01*
X69495735Y-47270500D01*
X70604264Y-47270499D01*
X70604265Y-47270499D01*
X70610350Y-47269928D01*
X70634698Y-47267646D01*
X70762882Y-47222793D01*
X70872150Y-47142150D01*
X70952793Y-47032882D01*
X70997646Y-46904698D01*
X71000500Y-46874265D01*
X71000499Y-45701619D01*
X71800000Y-45701619D01*
X71800000Y-45809999D01*
X71800001Y-45810000D01*
X72605440Y-45810000D01*
X72574755Y-45863147D01*
X72540000Y-45992857D01*
X72540000Y-46127143D01*
X72574755Y-46256853D01*
X72605440Y-46310000D01*
X71800001Y-46310000D01*
X71800000Y-46310001D01*
X71800000Y-46418380D01*
X71830778Y-46612710D01*
X71830779Y-46612714D01*
X71891576Y-46799826D01*
X71891578Y-46799829D01*
X71980903Y-46975142D01*
X71980907Y-46975148D01*
X72096549Y-47134314D01*
X72235685Y-47273450D01*
X72394851Y-47389092D01*
X72394857Y-47389096D01*
X72570166Y-47478419D01*
X72757295Y-47539222D01*
X72799999Y-47545985D01*
X72800000Y-47545984D01*
X72800000Y-46504560D01*
X72853147Y-46535245D01*
X72982857Y-46570000D01*
X73117143Y-46570000D01*
X73246853Y-46535245D01*
X73300000Y-46504560D01*
X73300000Y-47545985D01*
X73342704Y-47539222D01*
X73529833Y-47478419D01*
X73705142Y-47389096D01*
X73705148Y-47389092D01*
X73864314Y-47273450D01*
X74003450Y-47134314D01*
X74119092Y-46975148D01*
X74119096Y-46975142D01*
X74208421Y-46799829D01*
X74208423Y-46799826D01*
X74269220Y-46612714D01*
X74269221Y-46612710D01*
X74300000Y-46418380D01*
X74300000Y-46310001D01*
X74299999Y-46310000D01*
X73494560Y-46310000D01*
X73525245Y-46256853D01*
X73560000Y-46127143D01*
X73560000Y-45992857D01*
X73525245Y-45863147D01*
X73494560Y-45810000D01*
X74299999Y-45810000D01*
X74300000Y-45809999D01*
X74300000Y-45706381D01*
X75099500Y-45706381D01*
X75099500Y-46413618D01*
X75136026Y-46597249D01*
X75207677Y-46770229D01*
X75207681Y-46770238D01*
X75277191Y-46874265D01*
X75311698Y-46925908D01*
X75444092Y-47058302D01*
X75510463Y-47102649D01*
X75599761Y-47162318D01*
X75599767Y-47162320D01*
X75599769Y-47162322D01*
X75772749Y-47233973D01*
X75956384Y-47270500D01*
X75956385Y-47270500D01*
X76143615Y-47270500D01*
X76143616Y-47270500D01*
X76327251Y-47233973D01*
X76500231Y-47162322D01*
X76500234Y-47162319D01*
X76500238Y-47162318D01*
X76545187Y-47132282D01*
X76655908Y-47058302D01*
X76788302Y-46925908D01*
X76872547Y-46799826D01*
X76892318Y-46770238D01*
X76892319Y-46770234D01*
X76892322Y-46770231D01*
X76963973Y-46597251D01*
X77000500Y-46413616D01*
X77000500Y-45706384D01*
X77000499Y-45706381D01*
X78099500Y-45706381D01*
X78099500Y-46413618D01*
X78136026Y-46597249D01*
X78207677Y-46770229D01*
X78207681Y-46770238D01*
X78277191Y-46874265D01*
X78311698Y-46925908D01*
X78444092Y-47058302D01*
X78510463Y-47102649D01*
X78599761Y-47162318D01*
X78599767Y-47162320D01*
X78599769Y-47162322D01*
X78772749Y-47233973D01*
X78956384Y-47270500D01*
X78956385Y-47270500D01*
X79143615Y-47270500D01*
X79143616Y-47270500D01*
X79327251Y-47233973D01*
X79500231Y-47162322D01*
X79500234Y-47162319D01*
X79500238Y-47162318D01*
X79545187Y-47132282D01*
X79655908Y-47058302D01*
X79788302Y-46925908D01*
X79872547Y-46799826D01*
X79892318Y-46770238D01*
X79892319Y-46770234D01*
X79892322Y-46770231D01*
X79963973Y-46597251D01*
X80000500Y-46413616D01*
X80000500Y-45706384D01*
X79963973Y-45522749D01*
X79892322Y-45349769D01*
X79892320Y-45349767D01*
X79892318Y-45349761D01*
X79822808Y-45245734D01*
X79788302Y-45194092D01*
X79655908Y-45061698D01*
X79611559Y-45032065D01*
X79500238Y-44957681D01*
X79500229Y-44957677D01*
X79327249Y-44886026D01*
X79143618Y-44849500D01*
X79143616Y-44849500D01*
X78956384Y-44849500D01*
X78956381Y-44849500D01*
X78772750Y-44886026D01*
X78599770Y-44957677D01*
X78599761Y-44957681D01*
X78444092Y-45061698D01*
X78444088Y-45061701D01*
X78311701Y-45194088D01*
X78311698Y-45194092D01*
X78207681Y-45349761D01*
X78207677Y-45349770D01*
X78136026Y-45522750D01*
X78099500Y-45706381D01*
X77000499Y-45706381D01*
X76963973Y-45522749D01*
X76892322Y-45349769D01*
X76892320Y-45349767D01*
X76892318Y-45349761D01*
X76822808Y-45245734D01*
X76788302Y-45194092D01*
X76655908Y-45061698D01*
X76611559Y-45032065D01*
X76500238Y-44957681D01*
X76500229Y-44957677D01*
X76327249Y-44886026D01*
X76143618Y-44849500D01*
X76143616Y-44849500D01*
X75956384Y-44849500D01*
X75956381Y-44849500D01*
X75772750Y-44886026D01*
X75599770Y-44957677D01*
X75599761Y-44957681D01*
X75444092Y-45061698D01*
X75444088Y-45061701D01*
X75311701Y-45194088D01*
X75311698Y-45194092D01*
X75207681Y-45349761D01*
X75207677Y-45349770D01*
X75136026Y-45522750D01*
X75099500Y-45706381D01*
X74300000Y-45706381D01*
X74300000Y-45701619D01*
X74269221Y-45507289D01*
X74269220Y-45507285D01*
X74208423Y-45320173D01*
X74208421Y-45320170D01*
X74119096Y-45144857D01*
X74119092Y-45144851D01*
X74003450Y-44985685D01*
X73864314Y-44846549D01*
X73705148Y-44730907D01*
X73705142Y-44730903D01*
X73529833Y-44641580D01*
X73342706Y-44580779D01*
X73300000Y-44574014D01*
X73300000Y-45615439D01*
X73246853Y-45584755D01*
X73117143Y-45550000D01*
X72982857Y-45550000D01*
X72853147Y-45584755D01*
X72800000Y-45615439D01*
X72800000Y-44574014D01*
X72799999Y-44574014D01*
X72757293Y-44580779D01*
X72570166Y-44641580D01*
X72394857Y-44730903D01*
X72394851Y-44730907D01*
X72235685Y-44846549D01*
X72096549Y-44985685D01*
X71980907Y-45144851D01*
X71980903Y-45144857D01*
X71891578Y-45320170D01*
X71891576Y-45320173D01*
X71830779Y-45507285D01*
X71830778Y-45507289D01*
X71800000Y-45701619D01*
X71000499Y-45701619D01*
X71000499Y-45245736D01*
X70999914Y-45239500D01*
X70997646Y-45215305D01*
X70997646Y-45215302D01*
X70952793Y-45087118D01*
X70952791Y-45087116D01*
X70952791Y-45087114D01*
X70872154Y-44977855D01*
X70872152Y-44977853D01*
X70872150Y-44977850D01*
X70872146Y-44977847D01*
X70872144Y-44977845D01*
X70762885Y-44897208D01*
X70730928Y-44886026D01*
X70634698Y-44852354D01*
X70634696Y-44852353D01*
X70634694Y-44852353D01*
X70604272Y-44849500D01*
X69495734Y-44849500D01*
X69465305Y-44852353D01*
X69337114Y-44897208D01*
X69227855Y-44977845D01*
X69227845Y-44977855D01*
X69147208Y-45087114D01*
X69102353Y-45215305D01*
X69099500Y-45245726D01*
X57601832Y-45245726D01*
X57626390Y-45203190D01*
X57626390Y-45203188D01*
X57626392Y-45203186D01*
X57660500Y-45075892D01*
X57660500Y-44944108D01*
X57626392Y-44816814D01*
X57626390Y-44816811D01*
X57626390Y-44816809D01*
X57560503Y-44702690D01*
X57560501Y-44702688D01*
X57560500Y-44702686D01*
X57467314Y-44609500D01*
X57467311Y-44609498D01*
X57467309Y-44609496D01*
X57353189Y-44543609D01*
X57353191Y-44543609D01*
X57303799Y-44530375D01*
X57225892Y-44509500D01*
X57094108Y-44509500D01*
X57016200Y-44530375D01*
X56966809Y-44543609D01*
X56852690Y-44609496D01*
X56759496Y-44702690D01*
X56693609Y-44816809D01*
X56684085Y-44852353D01*
X56659500Y-44944108D01*
X40210500Y-44944108D01*
X40210500Y-41625265D01*
X70449500Y-41625265D01*
X70449500Y-41854734D01*
X70479452Y-42082238D01*
X70538841Y-42303885D01*
X70626653Y-42515883D01*
X70626656Y-42515888D01*
X70741389Y-42714612D01*
X70881081Y-42896661D01*
X71043339Y-43058919D01*
X71225388Y-43198611D01*
X71424112Y-43313344D01*
X71424113Y-43313344D01*
X71424116Y-43313346D01*
X71520167Y-43353131D01*
X71636113Y-43401158D01*
X71857762Y-43460548D01*
X72085266Y-43490500D01*
X72085267Y-43490500D01*
X72314733Y-43490500D01*
X72314734Y-43490500D01*
X72542238Y-43460548D01*
X72763887Y-43401158D01*
X72975888Y-43313344D01*
X73174612Y-43198611D01*
X73356661Y-43058919D01*
X73518919Y-42896661D01*
X73658611Y-42714612D01*
X73773344Y-42515888D01*
X73861158Y-42303887D01*
X73920548Y-42082238D01*
X73950500Y-41854734D01*
X73950500Y-41625266D01*
X73950500Y-41625265D01*
X75149500Y-41625265D01*
X75149500Y-41854734D01*
X75179452Y-42082238D01*
X75238841Y-42303885D01*
X75326653Y-42515883D01*
X75326656Y-42515888D01*
X75441389Y-42714612D01*
X75581081Y-42896661D01*
X75743339Y-43058919D01*
X75925388Y-43198611D01*
X76124112Y-43313344D01*
X76124113Y-43313344D01*
X76124116Y-43313346D01*
X76220167Y-43353131D01*
X76336113Y-43401158D01*
X76557762Y-43460548D01*
X76785266Y-43490500D01*
X76785267Y-43490500D01*
X77014733Y-43490500D01*
X77014734Y-43490500D01*
X77242238Y-43460548D01*
X77463887Y-43401158D01*
X77675888Y-43313344D01*
X77874612Y-43198611D01*
X78056661Y-43058919D01*
X78218919Y-42896661D01*
X78358611Y-42714612D01*
X78473344Y-42515888D01*
X78561158Y-42303887D01*
X78620548Y-42082238D01*
X78650500Y-41854734D01*
X78650500Y-41625266D01*
X78620548Y-41397762D01*
X78561158Y-41176113D01*
X78473344Y-40964112D01*
X78358611Y-40765388D01*
X78218919Y-40583339D01*
X78056661Y-40421081D01*
X77874612Y-40281389D01*
X77874613Y-40281389D01*
X77874611Y-40281388D01*
X77675883Y-40166653D01*
X77463885Y-40078841D01*
X77242238Y-40019452D01*
X77014734Y-39989500D01*
X76785266Y-39989500D01*
X76785265Y-39989500D01*
X76557761Y-40019452D01*
X76336114Y-40078841D01*
X76124116Y-40166653D01*
X75925388Y-40281388D01*
X75743342Y-40421078D01*
X75581078Y-40583342D01*
X75441388Y-40765388D01*
X75326653Y-40964116D01*
X75238841Y-41176114D01*
X75179452Y-41397761D01*
X75149500Y-41625265D01*
X73950500Y-41625265D01*
X73920548Y-41397762D01*
X73861158Y-41176113D01*
X73773344Y-40964112D01*
X73658611Y-40765388D01*
X73518919Y-40583339D01*
X73356661Y-40421081D01*
X73174612Y-40281389D01*
X73174613Y-40281389D01*
X73174611Y-40281388D01*
X72975883Y-40166653D01*
X72763885Y-40078841D01*
X72542238Y-40019452D01*
X72314734Y-39989500D01*
X72085266Y-39989500D01*
X72085265Y-39989500D01*
X71857761Y-40019452D01*
X71636114Y-40078841D01*
X71424116Y-40166653D01*
X71225388Y-40281388D01*
X71043342Y-40421078D01*
X70881078Y-40583342D01*
X70741388Y-40765388D01*
X70626653Y-40964116D01*
X70538841Y-41176114D01*
X70479452Y-41397761D01*
X70449500Y-41625265D01*
X40210500Y-41625265D01*
X40210500Y-40932165D01*
X40210594Y-40927847D01*
X40225635Y-40583342D01*
X40227434Y-40542144D01*
X40228184Y-40533568D01*
X40278295Y-40152942D01*
X40279791Y-40144459D01*
X40362883Y-39769655D01*
X40365115Y-39761326D01*
X40480553Y-39395202D01*
X40483507Y-39387086D01*
X40495072Y-39359166D01*
X40630421Y-39032403D01*
X40634056Y-39024609D01*
X40811325Y-38684079D01*
X40815632Y-38676618D01*
X41021913Y-38352820D01*
X41026851Y-38345769D01*
X41260564Y-38041189D01*
X41266083Y-38034612D01*
X41525481Y-37751528D01*
X41531528Y-37745481D01*
X41814612Y-37486083D01*
X41821189Y-37480564D01*
X42125769Y-37246851D01*
X42132820Y-37241913D01*
X42456618Y-37035632D01*
X42464079Y-37031325D01*
X42804609Y-36854056D01*
X42812403Y-36850421D01*
X43167093Y-36703504D01*
X43175194Y-36700555D01*
X43541334Y-36585112D01*
X43549655Y-36582883D01*
X43924459Y-36499791D01*
X43932942Y-36498295D01*
X44313568Y-36448184D01*
X44322144Y-36447434D01*
X44707847Y-36430593D01*
X44712165Y-36430500D01*
X44775892Y-36430500D01*
X107584108Y-36430500D01*
X107647835Y-36430500D01*
X107652152Y-36430593D01*
G37*
%TD.AperFunction*%
%TD*%
M02*
