M48
; DRILL file {KiCad 9.0.7} date 2026-02-10T22:30:16-0800
; FORMAT={-:-/ absolute / inch / decimal}
; #@! TF.CreationDate,2026-02-10T22:30:16-08:00
; #@! TF.GenerationSoftware,Kicad,Pcbnew,9.0.7
; #@! TF.FileFunction,Plated,1,4,PTH
FMAT,2
INCH
; #@! TA.AperFunction,Plated,PTH,ViaDrill
T1C0.0118
; #@! TA.AperFunction,Plated,PTH,ComponentDrill
T2C0.0402
; #@! TA.AperFunction,Plated,PTH,ComponentDrill
T3C0.0630
; #@! TA.AperFunction,Plated,PTH,ComponentDrill
T4C0.1260
%
G90
G05
T1
X1.693Y-4.2365
X1.7079Y-4.5685
X1.7094Y-4.6224
X1.7337Y-3.4017
X1.7394Y-3.9402
X1.7646Y-2.7454
X1.776Y-4.3701
X1.7843Y-5.5461
X1.7984Y-4.6343
X1.8068Y-5.1457
X1.8079Y-4.4949
X1.8091Y-4.5913
X1.8106Y-4.5421
X1.8236Y-5.7094
X1.8339Y-4.448
X1.8362Y-4.4059
X1.8391Y-2.5234
X1.8579Y-4.3567
X1.872Y-4.2823
X1.8961Y-4.5917
X1.898Y-4.5445
X1.9083Y-4.6319
X1.9272Y-4.4539
X1.9299Y-4.4071
X1.9421Y-2.1157
X1.9433Y-4.4965
X1.9469Y-4.2846
X1.9516Y-1.6449
X1.9558Y-3.4973
X1.9594Y-4.3902
X1.9693Y-2.9067
X1.9693Y-2.9408
X1.9693Y-2.9749
X1.9693Y-3.0091
X1.9693Y-3.0432
X1.9693Y-3.0773
X1.9693Y-3.1114
X1.9693Y-3.1456
X1.9693Y-3.1797
X1.9693Y-3.2138
X1.9693Y-3.2479
X1.9693Y-3.2821
X1.9693Y-3.3162
X1.9693Y-3.3503
X1.9693Y-3.3844
X1.9854Y-5.4197
X2.0047Y-1.7969
X2.0246Y-3.7488
X2.0638Y-5.611
X2.0846Y-4.3902
X2.0874Y-5.298
X2.0945Y-4.3039
X2.1075Y-3.4664
X2.1079Y-3.8811
X2.1189Y-4.0201
X2.1469Y-5.4449
X2.1512Y-3.763
X2.1524Y-4.5906
X2.1704Y-5.2894
X2.1862Y-5.7669
X2.1976Y-1.6606
X2.2142Y-3.348
X2.2181Y-2.9398
X2.2228Y-3.2465
X2.2248Y-3.0421
X2.2248Y-3.1437
X2.2362Y-4.8362
X2.2378Y-4.8831
X2.2398Y-4.3516
X2.2504Y-1.772
X2.2563Y-5.0
X2.2571Y-2.577
X2.2571Y-2.6122
X2.2571Y-2.6474
X2.2882Y-2.0823
X2.3409Y-5.5799
X2.3543Y-4.7594
X2.3677Y-3.4339
X2.3787Y-2.1004
X2.3854Y-4.7638
X2.3984Y-2.285
X2.4392Y-3.2752
X2.4406Y-5.1528
X2.4429Y-2.4154
X2.4434Y-5.379
X2.4441Y-2.3374
X2.4508Y-2.5762
X2.4508Y-2.6114
X2.4508Y-2.6467
X2.4921Y-4.7563
X2.4976Y-2.102
X2.537Y-2.8059
X2.5402Y-4.8441
X2.5657Y-3.6681
X2.5728Y-3.4161
X2.5776Y-3.122
X2.5843Y-3.2976
X2.5886Y-3.8035
X2.5937Y-2.2098
X2.6122Y-5.6909
X2.6157Y-4.7083
X2.6358Y-3.8024
X2.6429Y-2.5193
X2.6484Y-5.2736
X2.6516Y-2.3618
X2.6555Y-1.5764
X2.6957Y-3.7752
X2.7273Y-4.4515
X2.7358Y-4.8594
X2.7457Y-2.7665
X2.7596Y-2.307
X2.7811Y-4.7098
X2.7823Y-3.3118
X2.7835Y-2.2425
X2.7961Y-2.1579
X2.8252Y-4.9898
X2.8591Y-5.3909
X2.8681Y-4.7846
X2.8693Y-3.5539
X2.8819Y-2.1469
X2.8846Y-2.189
X2.9055Y-1.9488
X2.9055Y-2.0677
X2.9256Y-5.0902
X2.9445Y-3.937
X2.9508Y-4.6146
X2.9843Y-4.8961
X3.0165Y-5.2323
X3.0508Y-5.0063
X3.1181Y-4.7465
X3.2004Y-4.9606
X3.2004Y-5.0062
X3.2004Y-5.0517
X3.2004Y-5.0972
X3.2134Y-5.2071
X3.2299Y-5.2756
X3.3307Y-4.9618
X3.3307Y-5.0088
X3.3307Y-5.0558
X3.3307Y-5.1028
X3.3457Y-4.0469
X3.3567Y-5.2055
X3.3705Y-5.4614
X3.3815Y-5.1449
X3.4047Y-1.6776
X3.4047Y-5.3882
X3.4378Y-4.9787
X3.4512Y-5.0319
X3.4539Y-5.722
X3.4783Y-5.076
X3.5008Y-5.1906
X3.5114Y-3.0138
X3.5126Y-5.2547
X3.5311Y-3.215
X3.5315Y-5.3516
X3.5327Y-5.0146
X3.5669Y-5.3213
X3.5772Y-5.0244
X3.5902Y-2.6597
X3.5929Y-5.0988
X3.5957Y-2.0287
X3.6142Y-4.311
X3.6239Y-2.3786
X3.6339Y-2.8972
X3.6602Y-4.7409
X3.6886Y-3.489
X3.7146Y-5.0843
X3.7264Y-1.6142
X3.7772Y-1.939
X3.7869Y-3.8177
X3.7897Y-2.1721
X3.7941Y-2.7551
X3.7967Y-5.6629
X3.8433Y-2.9394
X3.8586Y-5.3832
X3.8881Y-3.2682
X3.9205Y-4.0835
X3.9598Y-1.8193
X4.0496Y-5.5969
X4.0539Y-2.8283
X4.0595Y-3.5465
X4.0736Y-1.5973
X4.075Y-5.0769
X4.1102Y-5.3339
X4.1496Y-3.8795
X4.1551Y-4.1775
X4.1706Y-3.0827
X4.2169Y-2.0189
X4.2197Y-1.8235
X4.2579Y-5.7134
X4.2803Y-2.2618
X4.3039Y-5.174
X4.3055Y-4.4319
X4.3097Y-4.8576
X4.3097Y-5.4943
T2
X2.7551Y-5.489
X2.7579Y-1.8134
X2.8732Y-5.489
X2.876Y-1.8134
X2.9913Y-5.489
X2.9941Y-1.8134
X3.1094Y-5.489
X3.1122Y-1.8134
T3
X1.7539Y-4.7232
X1.7539Y-4.9232
X1.8539Y-4.8232
X1.9539Y-4.7232
X1.9539Y-4.9232
T4
X2.9884Y-2.5929
X4.2171Y-2.5929
M30
